<?xml version="1.0" encoding="UTF-8" standalone="no"?>
<svg
   xmlns:dc="http://purl.org/dc/elements/1.1/"
   xmlns:cc="http://creativecommons.org/ns#"
   xmlns:rdf="http://www.w3.org/1999/02/22-rdf-syntax-ns#"
   xmlns:svg="http://www.w3.org/2000/svg"
   xmlns="http://www.w3.org/2000/svg"
   viewBox="0 0 4666.6665 4666.6665"
   height="4666.6665"
   width="4666.6665"
   xml:space="preserve"
   id="svg2"
   version="1.1"><metadata
     id="metadata8"><rdf:RDF><cc:Work
         rdf:about=""><dc:format>image/svg+xml</dc:format><dc:type
           rdf:resource="http://purl.org/dc/dcmitype/StillImage" /></cc:Work></rdf:RDF></metadata><defs
     id="defs6" /><g
     transform="matrix(1.3333333,0,0,-1.3333333,0,4666.6667)"
     id="g10"><g
       transform="scale(0.1)"
       id="g12"><g
         transform="scale(2.14724)"
         id="g14"><path
           id="path16"
           style="fill:#ffffff;fill-opacity:1;fill-rule:nonzero;stroke:none"
           d="M 16300,0 H 0 V 16300 H 16300 V 0" /></g><g
         transform="scale(2.14724)"
         id="g18"><path
           id="path20"
           style="fill:#fff6e6;fill-opacity:1;fill-rule:nonzero;stroke:none"
           d="m 2839.31,6746.66 c 128.23,289.44 407.51,589.13 324.29,918.86 -572.68,2269.05 -224.94,4015.58 1100.3,4497.28 590.47,214.7 1027.45,367.6 1529.17,1592.3 1310.38,3198.6 4619.53,696.8 4866.13,260.1 125.7,-222.7 568.2,-481.2 1385.6,-465.8 222.9,4.2 452.9,2.6 663.7,-52.9 436,-114.8 761.7,-387.8 1073,-754.1 145.6,-171.3 256.6,-412.6 355.3,-629.7 105.4,-231.8 160.9,-510.7 212.4,-777.2 192.6,-997.2 -76.2,-2273.54 -583.3,-3193.04 C 12345.5,5566.82 13767.8,6016 13159.3,3531.19 12629.8,1368.55 10284.1,704.44 9477.84,603.1 6304.23,204.263 514.713,1499 2839.31,6746.66" /></g><g
         transform="scale(1.79785)"
         id="g22"><path
           id="path24"
           style="fill:#41250f;fill-opacity:1;fill-rule:nonzero;stroke:none"
           d="m 12022.3,11373.2 c -150.8,224.7 -630.9,280.4 -1085.8,556.9 -244.5,148.7 -287,725.8 -291.3,1042.5 296.8,-107.6 550.7,-143.7 791,-203.8 339.7,-84.9 430.8,37.3 437.1,169 6.3,131.7 -64.6,203.8 -37.9,243.8 26.6,40 173.3,0 178.2,104.3 5,104.2 -75.8,141.1 -75.8,141.1 0,0 45.4,28.1 80.1,64.9 21.1,22.3 40.8,80 53.1,122 7.5,25.9 -5.5,53.3 -30.4,63.8 -14.2,6 -31.6,14.1 -51.2,24.5 -56.3,30.2 -110.1,54.8 -107.8,104.2 2.4,49.4 26.2,86.7 78.2,139.3 52,52.5 123.1,186.3 13.5,259.4 -124.3,82.9 -281.3,237.4 -308.5,359.7 -27.2,122.3 63.8,183.9 84.1,612 24.4,510.7 -577.5,808.5 -577.5,808.5 0,0 -1525.05,314.7 -1587.79,-1002.4 -23.2,-486.7 -116.7,-1352.2 -199.08,-1561.9 -30.31,-472.1 -121.03,-1106.4 -383.84,-1388.9 -445.03,-478.4 -1332.31,-160.4 -1883.03,-636 C 6566.95,10920.5 6692.1,9076.39 6692.1,9076.39 h 1396.28 c 0,0 3516.42,-404.87 4115.42,438.8 153.9,216.82 -7.8,1599.41 -181.5,1858.01" /></g><g
         transform="scale(1.29831)"
         id="g26"><path
           id="path28"
           style="fill:#e7694a;fill-opacity:1;fill-rule:nonzero;stroke:none"
           d="m 16300,14334.6 c -154,379.3 -127.3,1379 -315.9,1793.3 -11.4,25.1 -111.2,121.8 -101.8,41.5 9.4,-80.4 240.9,-1902.1 240.9,-1902.1 l 96.8,24 80,43.3" /></g><g
         transform="scale(1.30126)"
         id="g30"><path
           id="path32"
           style="fill:#e7694a;fill-opacity:1;fill-rule:nonzero;stroke:none"
           d="m 12043.9,13802.4 c 153.7,378.5 -405.4,1781.2 -664,2403.3 0,0 -179.3,94.3 -138.2,0 40.9,-94.3 286.9,-734.7 384.2,-1324 97.4,-589.2 156.3,-1108.3 156.3,-1108.3 l 261.7,29" /></g><g
         transform="scale(1.55723)"
         id="g34"><path
           id="path36"
           style="fill:#e7694a;fill-opacity:1;fill-rule:nonzero;stroke:none"
           d="m 13589.7,11951.1 c 0,0 -1063.4,-341.9 -1674.8,-406.1 -611.5,-64.3 -1330.8,51.3 -1857.4,0 -526.69,-51.4 -706.49,-89.9 -706.49,-89.9 0,0 -51.82,-716.9 -65.12,-872.2 -13.35,-155.3 -66.07,-1516.88 -66.07,-1516.88 0,0 362.37,-1342.32 336.68,-1801.53 C 9530.81,6805.28 8516.07,4454.7 8143.61,2784.87 7771.09,1115.05 7822.47,0 7822.47,0 H 16300 c 0,0 -757.9,2001.37 -590.9,2463.79 167,462.36 588.8,1622.88 462.4,2890 -131.6,1319.84 -740.6,1975.17 -1053.2,2286.36 -555,552.46 -1103.9,1753.69 -1103.9,1753.69 0,0 449.5,404.24 616.1,853.86 166.6,449.5 -115.9,734.5 -115.9,734.5 0,0 -788.6,804.2 -924.9,968.9" /></g><g
         transform="scale(1.10222)"
         id="g38"><path
           id="path40"
           style="fill:#aa2817;fill-opacity:1;fill-rule:nonzero;stroke:none"
           d="m 13859.4,11759.3 c -31.8,224 -69.7,438.2 -90.6,654 -25.3,261.2 -76.4,517.3 -127.2,773.9 -5.9,29.8 -12.8,60.5 -26.2,87.4 -28.4,56.7 -93.5,65.7 -134.1,17.1 -20.9,-25 -35.7,-58.1 -44.3,-90 -27.8,-102.1 -40,-206.8 -37.2,-312.7 5.1,-204 4.3,-408.5 19.9,-611.6 24,-311.6 41.1,-624 90.4,-933.2 31.7,-198.5 35.7,-399.3 45.3,-599.6 3,-63.9 7.3,-127.8 11.1,-194.3 25.3,-7.1 44.2,-12.9 63.3,-17.9 193.8,-50.1 388.8,-96.4 581.1,-151.8 87.4,-25.2 173.7,-31.1 261.7,-22.3 196.2,19.6 392.5,34.8 590.1,32.2 214.2,-2.8 428.5,-3.7 642.7,-1.2 101.7,1.3 203.2,12.5 304.8,19.3 6.8,0.5 13.6,1 20.3,2.4 51.2,10.3 76.8,32 78.3,65.9 1.4,35.1 -21.5,59.7 -73.4,71.3 -145.5,32.8 -290.5,69 -437.4,94.1 -106.9,18.4 -216.1,23.8 -324.7,30.5 -187.2,11.4 -370.5,42.8 -550.8,94.8 -146.3,42.2 -294.2,78.9 -441.6,129.9 112,13.7 223.8,32.2 336.3,40.4 296.1,21.7 583.1,86.8 870.2,159.6 250.5,63.4 478.5,170.9 698.8,300.2 29.2,17.2 57,37.2 83,58.6 22.7,18.7 30.8,45.2 20.6,73.8 -10.2,28.7 -32.6,42.1 -62.7,42.8 -10.3,0.3 -20.5,0.7 -30.6,0.1 -388.1,-26 -769.9,-84.6 -1133.6,-228.5 -235.7,-93.3 -479.2,-149.1 -729.9,-177.2 -19.5,-2.2 -39.6,-0.3 -76.1,-0.3 104.7,71.5 193.7,138.4 288.3,195.8 293.3,178.2 552,395.1 765.2,665 50.5,64.1 102.2,127.2 154.8,189.5 75.4,89.3 129.9,191 176.7,296.9 12.2,27.6 21.8,57.8 24.6,87.5 6.5,68 -29.3,106.2 -95.8,98.7 -39.7,-4.5 -80.6,-16.6 -115.9,-34.8 -54.1,-28 -106.2,-61.1 -155.1,-97.7 -243,-182.1 -467.5,-383.2 -654.6,-624.8 -81,-104.5 -173.3,-200.5 -263,-298.1 -29.6,-32.1 -65.5,-59.5 -101.7,-84.2 -21.5,-14.7 -48.9,-25.1 -74.6,-28.4 -60,-7.6 -120.7,-9.7 -188.9,-14.6 10.2,23.7 16.9,44.9 27.9,63.7 56.5,96.8 113.8,193.3 171.3,289.5 111.5,186.7 223.4,373.4 335,560.1 10.4,17.5 20.8,35 29.9,53.2 72.9,145.9 145.6,291.7 217.4,438.1 11.9,24.1 23,50 26.9,76.3 11.1,75.5 -49,127.6 -120.3,101 -37.2,-13.8 -73.5,-37.6 -102.2,-65.4 -70.7,-68.4 -145,-135.6 -203,-214.3 -126.9,-172.3 -245.6,-350.7 -365.7,-527.9 -76.3,-112.5 -102.8,-242.7 -126.3,-373.7 -9.3,-52.4 -13.3,-107.1 -48.4,-159.1" /></g><g
         transform="scale(1.28799)"
         id="g42"><path
           id="path44"
           style="fill:#aa2817;fill-opacity:1;fill-rule:nonzero;stroke:none"
           d="m 13878.9,12623 c 20,182.3 42.9,364.3 67.4,545.9 22.7,167.7 150.3,766.3 182.3,769.9 127.5,14.5 321.2,19.3 486.2,42.1 142.8,19.6 226.7,58.4 369.7,76.2 88.9,11 335.6,-51.6 379.2,-65 108.8,-33.5 216.7,-69.4 304.4,-145.8 138.1,-120.5 277.4,-239.7 410.6,-365.3 60.9,-57.4 110.3,-127.5 161.1,-194.6 20.6,-27.2 37.1,-60.6 45,-93.6 15.2,-63.2 -35.3,-109 -98.2,-91.7 -21.9,6 -42.8,18.1 -62.1,30.7 -116.9,76.1 -233.2,153 -349.7,229.9 -14.5,9.6 -28.3,20.3 -42.1,31 -147.1,114.1 -294,228.4 -441.2,342.5 -75.7,58.7 -151.8,117.3 -228.2,175.3 -14.8,11.3 -32.2,19.2 -51.1,30.3 -3,-58.4 -7.5,-110.1 -7.2,-161.9 0.1,-22.3 6.1,-46.5 16.3,-66.3 17.4,-33.3 36.8,-66.6 61.1,-95.1 73.7,-86.3 145.6,-174.6 226.1,-254.2 185.8,-184 333.5,-395.5 463.1,-620.8 25.9,-45.2 48.7,-92.9 66.9,-141.7 11.9,-32 17.9,-68 17.6,-102.1 -0.5,-57.3 -36.6,-83.7 -93.7,-71.2 -25,5.5 -49.7,16.7 -71.8,29.9 -85.1,50.8 -165.8,107.5 -233.9,180.8 -47.5,51.1 -95.8,101.5 -145.1,151.1 -207.2,209.1 -364.7,451.2 -485.8,718.8 -39,86.3 -86.6,168.7 -136.5,265.1 -3.8,-31.1 -7.5,-47.8 -7.6,-64.7 -2.1,-215.9 20.2,-428.5 75,-638.3 84.7,-323.8 -225.7,-554.5 -253.7,-335.1 -32,251.4 -57.7,501.9 -45.6,755.7 4.7,96.5 0.6,193.3 0.5,289.9 -58.6,-120 -105,-241.8 -156,-361.7 -62.9,-147.8 -108.4,-300.2 -137.5,-458.1 -16.9,-91.5 -32.9,-183.8 -59.4,-272.6 -36.6,-122.2 -235.5,-151.8 -226.1,-65.3" /></g><g
         transform="scale(1.45518)"
         id="g46"><path
           id="path48"
           style="fill:#aa2817;fill-opacity:1;fill-rule:nonzero;stroke:none"
           d="m 15106.9,761.763 c -186,-18.898 -364,-43.224 -542.8,-53.532 -216.5,-12.37 -429.6,-46.319 -643.1,-79.855 -24.7,-3.85 -50.3,-8.59 -72.9,-18.828 -47.7,-21.578 -57.3,-75.042 -18.5,-110.159 20,-18.074 46.8,-31.405 72.8,-39.514 83.5,-26.181 169.6,-39.651 257,-40.889 168.5,-2.338 337.3,-9.621 505.5,-3.299 258,9.621 516.5,13.677 773.4,44.324 164.8,19.655 330.7,16.496 496.4,17.868 52.8,0.483 105.6,1.924 160.7,2.955 6.8,20.616 12.1,36.011 16.8,51.61 47.7,158.4 92.1,317.831 144.2,474.786 23.7,71.33 31.3,142.32 26.9,215.23 -9.8,162.66 -16,325.19 -7.4,488.19 9.3,176.75 17,353.63 21.8,530.59 2.3,83.98 -3.7,168.16 -6.1,252.2 -0.1,5.64 -0.3,11.27 -1.2,16.84 -6.9,42.61 -24,64.39 -52,66.72 -28.8,2.34 -49.9,-15.8 -61.2,-58.2 -31.8,-119.09 -66.3,-237.64 -91.8,-358.1 -18.6,-87.62 -26.7,-177.64 -35.7,-266.98 -15.6,-154.21 -47.4,-304.5 -96.2,-451.7 -39.6,-119.36 -74.6,-240.24 -121.6,-360.3 -7.6,92.98 -19.3,185.82 -22.4,278.94 -8.3,245.19 -52.7,484.2 -103.4,723.55 -44.3,208.84 -125.6,400.57 -225.2,586.67 -13.2,24.6 -28.8,48.17 -45.7,70.44 -14.7,19.3 -36.3,26.8 -60.2,19.3 -24.1,-7.49 -35.8,-25.56 -37.5,-50.44 -0.5,-8.38 -1.2,-16.83 -1,-25.21 8.9,-321.13 44.9,-638.28 151.9,-943.19 69.4,-197.5 107.5,-400.29 122.5,-608.24 1.2,-16.22 -1,-32.64 -2.2,-62.81 -55.6,88.72 -107.9,164.38 -152.3,244.37 -137.6,247.8 -308.2,468.39 -524.1,653.18 -51.2,43.78 -101.7,88.51 -151.4,134.01 -71.3,65.14 -153.5,113.32 -239.4,155.44 -22.3,10.93 -47,19.79 -71.4,23.16 -55.9,7.56 -88.6,-20.82 -84.6,-75.93 2.4,-32.85 11.1,-67.08 25,-96.83 21.4,-45.5 47,-89.61 75.6,-131.05 142.4,-206.58 301.2,-398.44 494.5,-560.76 83.7,-70.3 160,-149.53 237.5,-226.77 25.7,-25.43 47,-55.94 66.4,-86.73 11.3,-18.21 19,-41.02 20.8,-62.47 4.4,-49.749 4.2,-99.915 6,-156.405 -19.1,9.21 -36.5,15.462 -51.7,25.152 -78.1,49.755 -155.7,100.193 -233.4,150.773 -150.6,98.13 -300.9,196.47 -451.4,294.67 -14.1,9.21 -28.3,18.42 -43,26.53 -118.1,64.8 -236.1,129.61 -354.6,193.65 -19.5,10.52 -40.6,20.55 -62.1,24.6 -62,11.69 -106.9,-36.35 -87.3,-96 10.3,-31.2 28.7,-61.92 50.6,-86.45 54.2,-60.61 107.4,-124.1 170.4,-174.48 138.1,-110.43 281.6,-214.13 424,-319.135 90.3,-66.592 196.9,-92.702 304.3,-116.344 43,-9.414 87.9,-14.498 129.8,-45.148" /></g><g
         transform="scale(1.41023)"
         id="g50"><path
           id="path52"
           style="fill:#aa2817;fill-opacity:1;fill-rule:nonzero;stroke:none"
           d="m 13958.1,6142.56 c -102.5,178.34 -206.8,346.26 -297.5,521.33 -109.6,211.88 -239.4,410.72 -368.8,610.12 -15.1,23.11 -31.3,46.73 -51.7,64.81 -43.1,38.29 -101.2,23.97 -119,-30.85 -9.2,-28.22 -10.5,-61.12 -7,-90.91 11.1,-95.58 36.3,-188.12 74.3,-276.55 73.3,-170.32 141.8,-343.13 223.6,-509.35 125.5,-254.78 245.6,-512.61 391.7,-756.9 93.8,-156.85 165.1,-324.91 240.9,-490.7 24.1,-52.89 49.3,-105.3 75,-160.11 23.9,2.48 41.7,3.9 59.5,6.24 180.5,23.19 360.7,50.13 541.7,68.28 82.3,8.23 157.1,32.48 228.4,69.64 158.9,82.89 319.4,162.03 487,226.63 181.8,69.99 363,141.68 542.9,216.28 85.3,35.38 167.2,79.2 250.6,119.34 5.6,2.62 11.2,5.39 16.3,8.79 39.7,26.1 54,52.97 43.7,82.12 -10.5,30.13 -38.2,43.11 -85.9,35.38 -133.9,-21.56 -268.5,-40.06 -401,-68.5 -96.3,-20.63 -190.4,-52.9 -284.2,-83.96 -161.9,-53.68 -327.1,-89.2 -497,-106.22 -137.6,-13.83 -274.8,-32.83 -416.5,-39.64 89.9,49.5 178.1,102.82 270.2,147.78 242.6,118.35 462.7,270.38 680.4,428.79 189.9,138.21 346.1,305.98 488.2,489.57 18.8,24.32 35.5,50.63 50.2,77.58 12.9,23.4 10.8,48.5 -7.5,69.14 -18.3,20.77 -41.8,24.53 -67.5,14.96 -8.7,-3.19 -17.5,-6.31 -25.8,-10.29 -318.6,-153.09 -621.1,-331.64 -879.3,-576 -167.3,-158.35 -354,-287.76 -556.1,-396.25 -15.8,-8.44 -33.3,-13.62 -64.1,-25.95 64.2,95.73 116.7,182.16 177.1,262.72 187.3,249.46 332.2,519.92 420.9,819.8 21,71.12 43.3,141.89 66.6,212.3 33.5,100.84 45,205 48.8,310.24 1,27.3 -1.2,56.09 -8.9,82.11 -17.5,59.57 -60.6,79.64 -114.2,50.84 -31.9,-17.16 -62.4,-41.12 -86,-68.5 -36.2,-41.9 -68.9,-87.5 -97.7,-134.87 -143.6,-235.78 -265.1,-481.41 -341.4,-748.53 -33,-115.58 -78.4,-227.76 -121.1,-340.37 -14.1,-37.16 -35.2,-72.4 -57.4,-105.59 -13.2,-19.57 -32.7,-37.58 -53.4,-49.07 -48,-26.66 -98.5,-48.92 -154.4,-76.16 0.6,23.41 -0.9,43.61 2,63.19 14.9,100.83 30.7,201.52 46.7,302.22 31,195.29 62.3,390.5 93.4,585.79 2.9,18.3 5.7,36.66 7.3,55.1 12,147.7 24.2,295.34 35.3,443.12 1.8,24.39 2.5,49.99 -3.1,73.46 -16.1,67.51 -84.5,91.12 -135.7,44.61 -26.7,-24.26 -49.3,-56.66 -64.1,-89.71 -36.5,-81.62 -76.5,-163.45 -98.8,-249.46 -48.9,-188.27 -88.7,-379.02 -130.2,-569.13 -26.4,-120.69 -4.7,-239.54 19.8,-358.03 9.8,-47.44 24.9,-94.87 12.8,-150.68" /></g><g
         transform="scale(1.06865)"
         id="g54"><path
           id="path56"
           style="fill:#aa2817;fill-opacity:1;fill-rule:nonzero;stroke:none"
           d="m 14193.1,5141.25 c 295.6,6.36 579.4,22.37 862.6,16.09 342.9,-7.66 683.1,19 1023.8,44.92 39.7,3.09 81,7.3 117.9,20.78 82.3,29.76 102.6,107.52 42.5,171.15 -29.3,30.97 -69.8,55.3 -109.8,71.49 -128.2,51.75 -262.2,83.84 -400,96.76 -265.4,24.89 -530.6,57.55 -796.6,68.87 -407.9,17.31 -815.9,43.42 -1224.7,27.42 -262.4,-10.29 -523.6,15.62 -784.9,34.25 -56.6,4.02 -261.6,-62.61 -353.6,-285.13 -166.5,-402.66 -305.5,-1359.56 -339.5,-1615.5 -36.9,-277.45 -71.4,-555.37 -101.2,-833.66 -14.3,-133.26 -15.3,-268 -22.4,-402.01 -0.4,-8.14 -0.5,-16.28 0.2,-24.32 5.7,-67.29 29.8,-103.41 73.4,-110.52 45.2,-7.39 80.6,18.62 103.9,84.03 65,183.78 134.4,366.35 189.8,553.03 40.4,135.69 64.4,276.71 89.9,416.42 43.9,241.14 112.9,474.05 208.4,699.94 77.4,183.23 148,369.44 237,552.76 0.5,-147.57 7.1,-295.33 0.3,-442.61 -17.8,-387.5 22.2,-769.95 72.1,-1153.7 43.4,-334.72 147.5,-647.36 281.1,-953.26 17.7,-40.43 39.4,-79.54 63.3,-116.78 20.6,-32.28 53.8,-46.79 92.4,-38.09 38.9,8.8 59.7,35.84 65.3,74.86 2,13.2 4.1,26.39 4.8,39.68 26.5,507.37 9.6,1011.93 -120.7,1506.01 -84.4,320.22 -119.1,644.74 -116.7,974.41 0.2,25.73 5.8,51.37 11.4,98.72 76.6,-146.82 149.5,-272.68 209.4,-404.34 188.7,-414.73 434.9,-789.22 759.6,-1111.22 70.4,-69.71 138.4,-141.77 205.9,-214.29 104.2,-112.01 227.9,-198.47 358.3,-275.86 33.7,-20.02 71.6,-37.05 109.7,-45.38 87.2,-19 142.3,21.61 142.8,109.11 0.3,52.02 -9,106.96 -27.2,155.61 -27.9,74.49 -62.9,147.29 -102.7,216.26 -198.5,343.52 -424.7,665.98 -709.1,946.33 -123,121.28 -233.3,255.84 -345.8,387.31 -37.2,43.42 -67.1,94.23 -93.6,145.14 -16.4,31.53 -25,66.44 -25.2,102 -0.4,78.7 6.2,157.49 10.4,246.38 29,-16.94 55.5,-28.91 78.2,-46.04 116.9,-88.33 233,-177.6 349.1,-267.16 231.6,-178.73 462.8,-357.83 694.4,-536.65 14.5,-11.23 29.4,-21.9 44.7,-31.91 177.9,-117.07 355.8,-234.13 534.5,-349.98 29.5,-19 61.4,-37.43 94.9,-46.6 96.2,-26.2 173.1,43.79 149.7,140.36 -12.2,50.44 -37.4,101.26 -68.9,142.71 -77.9,102.37 -153.6,209.14 -246.7,296.54 -203.8,191.36 -416.9,372.99 -628.2,556.41 -134.1,116.4 -298.9,170.95 -465.2,221.77 -66.6,20.31 -136.8,33.87 -199,87.49" /></g><g
         transform="scale(1.44589)"
         id="g58"><path
           id="path60"
           style="fill:#41250f;fill-opacity:1;fill-rule:nonzero;stroke:none"
           d="m 14021.3,9473.34 304.1,161.63 c 0,0 138.5,211.7 219.3,231 80.9,19.23 361.9,42.33 454.2,84.65 92.4,42.33 562,261.78 758.4,192.48 196.3,-69.3 542.7,-673.64 538.8,-839.14 -3.8,-165.5 -715.9,-723.63 -812.1,-792.94 -96.2,-69.3 -127.1,-107.82 -188.6,-130.85 -61.7,-23.1 -504.3,-223.25 -581.3,-231 -76.9,-7.68 -177,65.43 -80.8,138.6 96.2,73.1 612,327.14 592.8,342.56 -19.3,15.42 -442.7,-196.28 -623.6,-250.16 -180.9,-53.95 -431.1,-34.65 -515.8,7.68 -84.7,42.32 -207.8,234.8 -204,319.45 3.8,84.73 -130.9,119.38 -180.9,142.48 -50.1,23.1 -92.4,134.65 57.7,177.05 150.1,42.33 639,115.43 719.8,153.95 80.9,38.46 592.8,338.76 550.5,415.73 -42.4,76.98 -358,-57.75 -512,-169.37 -154,-111.63 -492.7,-173.25 -496.5,46.2" /></g><g
         transform="scale(1.56359)"
         id="g62"><path
           id="path64"
           style="fill:#41250f;fill-opacity:1;fill-rule:nonzero;stroke:none"
           d="m 7687.7,11307.6 c 6.65,449.6 1625.3,100.9 1625.3,100.9 -166.29,-1586.29 -76.75,-4426.23 -51.17,-4541.35 25.58,-115.12 1864.07,-1106.56 2439.77,-1400.75 465.3,-237.85 1417.4,-883.1 2099.9,-1104 118,-11.38 166.7,12.15 269.1,109.43 131.4,124.71 471.5,377.02 653,378.55 181.4,1.6 461,5.69 580.2,28.84 119.2,23.09 310.7,156.95 373.5,177.1 62.8,20.08 289.4,-102.71 -9.7,-308.84 -299.1,-206.2 -363.3,-242.2 -549.6,-244.95 -186.4,-2.75 -274.7,-46.44 -271.1,-83.59 3.6,-37.1 40.4,-97.47 736.6,-257.75 90.8,-20.91 273,-33.83 376.3,-9.27 103.2,24.56 238.6,176.2 289.4,115.57 50.8,-60.69 -43.4,-254.54 -79.5,-299.44 -36,-44.96 -31.7,-303.66 -142.9,-382.07 -111.3,-78.41 -327.9,-150.68 -548.7,-161.55 -165.6,-8.19 -262.8,-8.89 -304.9,-20.59 -14,-3.9 -35.7,-47.39 -28.6,-49.19 240.5,-60.88 389.9,-0.89 514,23.41 124.1,24.31 241.9,7.93 234,-45.92 -8,-53.85 -177.9,-190.07 -617.2,-221.73 -439.3,-31.66 -544.3,68.94 -638.9,51.61 -94.6,-17.27 -257.5,99.9 -498.2,172.55 -140.9,42.53 -336.3,127.59 -493.2,191.93 -67.7,11.58 -95.8,7.81 -187.3,27.44 -179.1,38.37 -3044.6,1116.15 -3607.51,1300.02 -562.88,183.87 -1362.89,535.69 -1490.8,612.44 -127.98,76.74 -422.17,1151.33 -588.46,1880.48 -166.35,729.16 -89.98,3511.32 -83.33,3960.72" /></g><g
         transform="scale(1.79974)"
         id="g66"><path
           id="path68"
           style="fill:#e7694a;fill-opacity:1;fill-rule:nonzero;stroke:none"
           d="m 9373.36,13386.6 c 0,0 889.24,728.2 1139.14,1127.7 249.8,399.5 819.8,1375.8 819.8,1375.8 l -628.9,409.9 -1028,-1945.1 -464.28,-722.3 162.24,-246" /></g><g
         transform="scale(1.85897)"
         id="g70"><path
           id="path72"
           style="fill:#e7694a;fill-opacity:1;fill-rule:nonzero;stroke:none"
           d="m 9701.81,16073.1 -244.06,77.9 c 0,0 -506.03,149 -811.04,0.7 -305.06,-148.2 -571.06,-278.3 -708.99,-364.7 -529.7,-332 -163.59,-627.2 -319.32,-1258.2 -155.73,-631 189.95,-1040.2 324.27,-1102.3 134.32,-62.1 602.32,-134.2 602.32,-134.2 l 1156.82,2780.8" /></g><g
         transform="scale(1.54531)"
         id="g74"><path
           id="path76"
           style="fill:#f9da58;fill-opacity:1;fill-rule:nonzero;stroke:none"
           d="m 11609.4,16028.1 c -142.3,19.5 -77.6,271.9 32.4,252.5 184.7,-32.6 110,-271.9 -32.4,-252.5" /></g><g
         transform="scale(1.52146)"
         id="g78"><path
           id="path80"
           style="fill:#f9da58;fill-opacity:1;fill-rule:nonzero;stroke:none"
           d="m 11708.2,16278.2 c 0,0 -249.7,-127.9 -249.7,-506 0,-179.3 154.2,-368.1 395.5,-349.1 245,19.2 327.3,188 327.3,358.9 0,318 -275.4,518 -275.4,518 0,0 464.2,-131.5 495,-658.1 33.7,-575.3 -938.3,-721.1 -1087.4,-195.4 -188.8,665.2 394.7,831.7 394.7,831.7" /></g><g
         transform="scale(1.84288)"
         id="g82"><path
           id="path84"
           style="fill:#aa2817;fill-opacity:1;fill-rule:nonzero;stroke:none"
           d="m 10452.9,15918.4 c 0,0 -215.1,293.6 -294.5,337.6 -79.4,44 -371.87,-42.5 -371.87,-42.5 L 8581.18,13478.3 c -18.5,-42.7 1.47,-92.2 44.44,-110.2 l 247.12,-103.4 c 42.54,-17.8 91.54,-7.1 122.74,26.8 126.49,137.6 519.78,639.9 1002.67,1679.2 357.35,769.2 454.75,947.7 454.75,947.7" /></g></g></g></svg>