<?xml version="1.0" encoding="UTF-8" standalone="no"?>
<svg
   xmlns:dc="http://purl.org/dc/elements/1.1/"
   xmlns:cc="http://creativecommons.org/ns#"
   xmlns:rdf="http://www.w3.org/1999/02/22-rdf-syntax-ns#"
   xmlns:svg="http://www.w3.org/2000/svg"
   xmlns="http://www.w3.org/2000/svg"
   viewBox="0 0 6666.6665 5333.3335"
   height="5333.3335"
   width="6666.6665"
   xml:space="preserve"
   id="svg2"
   version="1.1"><metadata
     id="metadata8"><rdf:RDF><cc:Work
         rdf:about=""><dc:format>image/svg+xml</dc:format><dc:type
           rdf:resource="http://purl.org/dc/dcmitype/StillImage" /></cc:Work></rdf:RDF></metadata><defs
     id="defs6" /><g
     transform="matrix(1.3333333,0,0,-1.3333333,0,5333.3333)"
     id="g10"><g
       transform="scale(0.1)"
       id="g12"><g
         transform="scale(3.06748)"
         id="g14"><path
           id="path16"
           style="fill:#ffffff;fill-opacity:1;fill-rule:nonzero;stroke:none"
           d="M 0,0 H 16300 V 13040 H 0 V 0" /></g><g
         transform="scale(1.97605)"
         id="g18"><path
           id="path20"
           style="fill:#229e8e;fill-opacity:1;fill-rule:nonzero;stroke:none"
           d="m 6476.4,14850.9 c -109.76,-1.9 -202.22,190 -206.42,428.6 -4.15,238.7 81.42,433.7 191.24,435.6 109.81,2 202.22,-189.9 206.42,-428.6 4.2,-238.7 -81.42,-433.7 -191.24,-435.6 z m 723.31,-1298.3 c -99.39,-28.5 -562.48,13.7 -592.54,-48.1 -30.11,-61.9 403.53,-1084.9 511.22,-1221.6 107.74,-136.7 1237.32,-451.8 1073.51,-480.4 -163.82,-28.5 -724.13,91.6 -724.13,91.6 0,0 16.1,-84.1 180.51,-301.8 164.37,-217.7 639.21,-367.4 639.21,-367.4 l 1096.53,746.9 306.07,757.2 c 0,0 -79.2,182.3 -189.42,376.7 C 9390.4,13300.2 8827,14379.5 8827,14379.5 l -727.41,735.5 -182.89,-299.2 -40.18,505.5 c 0,0 -1315.76,978.7 -1677.34,482.9 -361.58,-495.8 233.5,-1851 233.5,-1851 0,0 866.42,-372.2 767.03,-400.6" /></g><g
         transform="scale(1.62514)"
         id="g22"><path
           id="path24"
           style="fill:#42b2a2;fill-opacity:1;fill-rule:nonzero;stroke:none"
           d="m 10160.3,10859.5 c 0,0 -813.66,-254.3 -1257.69,-109.4 -444.08,145 -549,247.4 -549,247.4 0,0 904.79,379.7 1107.05,580.1 202.26,200.3 -1693.27,-462.4 -1978.42,-375.8 -285.14,86.6 -1895.59,1099.6 -1913.85,1215.9 -18.25,116.3 673.65,510.3 785.4,647.6 111.8,137.2 -1469.73,-188 -1469.73,-188 0,0 -2162.49,1321.7 -2139.71,2372.2 22.76,1050.5 2829.22,963.2 2829.22,963.2 l 551.28,-671 -35.93,599.5 1741.85,-321.4 359.23,-988.7 196.41,537.3 c 0,0 1292.32,-513.7 1637.59,-679 345.2,-165.3 634.9,-343.9 634.9,-343.9 l 311,-1363.4 -809.6,-2122.6" /></g><g
         transform="scale(1.52707)"
         id="g26"><path
           id="path28"
           style="fill:#ffffff;fill-opacity:1;fill-rule:nonzero;stroke:none"
           d="m 10384.7,13066.7 c -86.8,60.4 -131.5,91.3 -253.9,173.8 -17.8,12.1 -36.1,24.5 -54.7,36.9 -2.1,10.5 -4.5,21.4 -7.2,33.2 -5.9,27.8 -14.4,58.6 -23.1,92.5 -9.7,33.5 -19.4,69.9 -32.1,107.8 -11.8,38.2 -25.77,77.8 -40.51,118.7 -14.27,41.1 -31.95,82.6 -48.26,125.2 -18.01,42 -36.08,84.8 -55.2,127.1 -20.17,42 -39.1,84.4 -59.92,125.2 -21.15,40.7 -41.26,81 -62.01,119.5 -21.42,38.1 -42.05,74.9 -61.63,109.9 -20.04,34.8 -40.4,67 -58.41,97 -18.2,30 -34.64,57.5 -50.75,81.2 -15.72,23.9 -29.4,44.7 -40.67,61.8 -22.52,34.3 -35.42,53.8 -35.42,53.8 0,0 11.19,-20.4 30.78,-56 9.75,-17.8 21.61,-39.4 35.22,-64.3 14.02,-24.6 28.03,-53.1 43.55,-84.2 15.39,-31 32.88,-64.3 49.84,-100.2 16.43,-36 33.85,-73.9 51.8,-113.1 17.35,-39.5 33.85,-80.8 51.34,-122.4 17.09,-41.8 32.28,-84.9 48.65,-127.6 15.26,-43 29.47,-86.3 43.68,-128.8 12.51,-43 26.39,-84.8 36.93,-126 11.07,-41.1 21.48,-80.8 29.73,-118.8 9.3,-37.7 15.65,-73.8 22.4,-106.9 1.11,-6.5 2.16,-12.8 3.27,-19.1 -72.88,48.3 -149.89,98.9 -230.83,151.7 -152.78,99 -319.11,205.3 -496.96,315.5 -88.93,55.2 -180.28,111.7 -274.71,168.4 -93.78,57.3 -190.76,114.6 -289.38,172.8 -47.61,28.5 -96.07,56.6 -144.98,84.8 -0.66,2.9 -1.44,6.2 -2.36,10.2 -3.21,14.2 -8.38,32.7 -15.19,57 -7.08,24 -15.72,53.1 -26.92,85.8 -10.41,33 -24.49,69.4 -39.03,109.4 -15.84,39.4 -31.95,82.5 -51.93,126.9 -18.73,44.9 -40.53,91.4 -63.39,139.4 -22.13,48.1 -48.58,96.5 -73.47,146.4 -26.91,49 -53.96,98.9 -82.25,148.2 -29.47,48.7 -57.56,98 -87.68,145.3 -30.58,47.2 -59.79,93.9 -89.59,138.3 -30.51,44.1 -60.04,86.7 -88.01,127 -28.42,40.1 -57.03,77 -82.44,111.6 -25.67,34.5 -48.92,66.2 -71.38,93.3 -21.87,27.3 -40.99,51.2 -56.71,70.8 -31.43,39.2 -49.44,61.6 -49.44,61.6 0,0 16.04,-23.5 44,-64.7 14.02,-20.6 30.98,-45.5 50.49,-74.2 19.98,-28.4 40.41,-61.5 63,-97.5 22.33,-36.1 47.54,-74.6 72.43,-116.3 24.29,-41.8 49.9,-85.9 76.42,-131.7 25.8,-45.9 50.75,-94.1 76.94,-142.7 25.8,-48.7 49.38,-99.4 74.33,-149.3 23.7,-50.4 46.16,-101.3 68.43,-151.2 20.3,-50.6 42.24,-99.8 59.92,-148.5 18.33,-48.4 35.75,-95.3 50.29,-140.2 15.78,-44.6 27.83,-87.5 40.01,-126.8 10.74,-39.6 21.41,-75.7 28.68,-107.9 1.97,-7.8 3.8,-15.4 5.5,-22.7 -99.07,55.7 -199.2,111.9 -300.18,168.7 -211.97,116.2 -428.27,232.8 -648.23,344.7 l -164.69,84.1 c -55.47,27.2 -110.87,54.4 -166.08,81.6 -110.08,54.9 -221.6,107 -332.07,158.8 -135.16,63.4 -270.25,124.1 -404.16,182.5 -13.81,30.9 -34.54,73.6 -61.47,123.4 -14.31,25 -28.93,52.5 -46.39,80.5 -16.88,28.3 -35.29,57.8 -55.33,87.7 -19.2,30.4 -41.34,60.5 -62.87,91.5 -21.94,30.8 -45.77,61.3 -68.72,92 -24.33,30 -48.65,60 -72.59,89.5 -25.02,28.7 -49.64,57 -73.46,84.3 -24.87,26.6 -48.93,52.3 -71.73,76.7 -22.67,24.3 -45.98,46.1 -66.47,66.8 -20.84,20.5 -39.36,39.6 -57.28,55.5 -17.55,16.2 -32.84,30.2 -45.44,41.8 -25.16,23.1 -39.53,36.3 -39.53,36.3 0,0 12.58,-14.5 34.58,-39.9 10.98,-12.8 24.32,-28.1 39.62,-45.8 15.65,-17.4 31.57,-38.3 49.53,-60.5 17.59,-22.6 37.74,-46.2 56.98,-72.5 19.32,-26.1 39.69,-53.7 60.77,-82.3 19.88,-29 40.41,-59.2 61.3,-89.7 19.65,-31.2 39.61,-62.8 59.59,-94.4 18.48,-32.4 37.81,-64.2 55.24,-96.1 17,-32.3 34.66,-63.5 49.4,-94.7 15.61,-30.7 29.65,-60.9 42.34,-89.6 13.29,-28.6 23.82,-56.1 34.4,-81.3 0.45,-1.2 0.88,-2.3 1.35,-3.5 -25.88,11 -51.71,21.9 -77.45,32.7 -107.9,45.1 -215.74,86.8 -320.3,129 -105.52,40.7 -209.85,78.6 -310.75,116.5 -101.9,36.2 -201.91,69.7 -298.1,103 -96.9,32 -191.81,60.3 -282.16,89 -45,14.6 -90.14,26.7 -134.06,38.9 -43.92,12.3 -86.82,24.2 -128.64,35.8 -83.15,24.3 -163.98,42.9 -239.52,61.1 -150.3,38.5 -155.81,23.6 -7.48,-18.8 74.56,-20.1 154.25,-40.5 236.18,-66.9 41.2,-12.7 83.45,-25.6 126.71,-38.9 43.24,-13.3 87.65,-26.5 131.93,-42.3 88.89,-30.8 182.2,-61.4 277.37,-95.8 94.52,-35.6 192.69,-71.5 292.65,-110.1 99,-40.4 201.27,-80.7 304.66,-123.9 102.47,-44.7 208.06,-88.9 313.67,-136.6 43.02,-19.5 86.28,-39.3 129.65,-59.3 -31.51,-10.3 -67.69,-22.5 -107.62,-36.5 -34.47,-12.2 -71.65,-25.6 -110.58,-40.6 -39.19,-14.3 -79.79,-31.1 -121.94,-47.9 -42.01,-17.1 -84.89,-35.9 -128.48,-54.7 -42.98,-20 -87.26,-39 -130.2,-60.5 -42.95,-21.4 -86.39,-41.8 -127.55,-64.5 -41.53,-22.1 -82.4,-43.7 -120.53,-66.7 -38.57,-22.2 -75.79,-43.7 -109.55,-66.2 -33.91,-22.1 -67.01,-41.6 -95.13,-62.6 -28.57,-20.3 -54.77,-38.9 -77.98,-55.4 -22.52,-17.2 -41.46,-32.8 -57.37,-45.4 -31.58,-25.2 -49.63,-39.6 -49.63,-39.6 0,0 19.49,12.9 53.61,35.5 17.13,11.2 37.49,25.2 61.55,40.5 24.66,14.5 52.5,30.8 82.87,48.7 29.75,18.4 64.61,35.1 100.17,54.2 35.38,19.4 74.23,37.6 114.32,56.4 39.63,19.5 81.95,37.5 124.78,55.8 42.42,18.9 87.1,35.5 131.07,53 43.97,17.5 89.22,32.7 132.94,48.8 44.38,14.9 87.9,29.8 130.41,43.1 42.66,13.1 83.62,26.2 123.04,37 39.19,11.5 76.47,21.5 110.94,30.6 68.88,18.1 126.61,31.6 166.87,40.4 20.27,4.5 35.84,7.7 46.19,9.8 10.83,2.1 16.6,3.3 16.6,3.3 l -2.86,10.8 c 118.65,-56.1 238.08,-114.1 357.52,-174.2 107.86,-54.4 216.76,-109.1 324.15,-166.6 53.9,-28.4 107.92,-56.9 162.01,-85.4 l 160.63,-87.8 c 155.47,-84.7 308.9,-171.9 460.1,-259.6 -13.16,-1.7 -26.65,-3.5 -40.73,-5.4 -36.41,-5 -75.76,-10.6 -117.28,-17.5 -41.59,-6.1 -85.2,-14.4 -130.25,-22.4 -45.06,-8.3 -91.42,-18.1 -138.44,-27.7 -46.75,-11.1 -94.49,-20.8 -141.64,-33.2 -47.15,-12.3 -94.43,-23.6 -140.2,-37.6 -45.97,-13.3 -91.16,-26.3 -134.05,-41.1 -43.22,-14.1 -84.87,-27.7 -123.44,-42.9 -38.63,-15 -75.83,-27.5 -108.57,-42.4 -33.01,-14.2 -63.33,-27.2 -90.11,-38.7 -26.39,-12.4 -48.85,-24 -67.58,-33 -37.29,-18.4 -58.58,-29 -58.58,-29 0,0 22.28,8.8 61.27,24.1 19.51,7.6 42.95,17.3 70.19,27.4 27.7,9.2 58.94,19.7 92.99,31 33.66,12.1 71.71,21.5 111.13,33.1 39.29,11.9 81.59,21.9 125.27,32.3 43.42,11.2 89,20.2 135.16,29.6 45.91,10.1 93.38,17.3 140.4,25.6 47.02,8.4 94.63,14 141.06,21.1 46.69,5.6 92.59,11.5 137.06,16 44.53,4.2 87.48,8.7 128.28,11.4 40.8,3.4 79.37,5.7 114.93,7.6 71.11,3.9 130.25,5.5 171.3,6 18.01,0.3 32.16,0.3 42.5,0.3 99.15,-59.6 197.64,-118.8 294.95,-177.2 99.14,-61.7 198.22,-121.1 293.57,-182.1 95.86,-60.4 190.1,-119.8 281.19,-179.2 91.68,-58.8 180.41,-117.4 266.72,-174.5 52.97,-34.9 104.71,-69.5 155.46,-103.6 -9.11,-1.2 -18.47,-2.5 -28.03,-3.8 -36.41,-5 -75.77,-10.6 -117.28,-17.4 -41.59,-6.2 -85.2,-14.5 -130.25,-22.5 -45.06,-8.3 -91.42,-18 -138.37,-27.7 -46.83,-11 -94.56,-20.8 -141.71,-33.2 -47.15,-12.3 -94.43,-23.5 -140.21,-37.6 -45.97,-13.3 -32.47,-58.9 13.69,-49.6 45.91,10.1 93.38,17.3 140.4,25.7 47.09,8.3 94.63,14 141.06,21 46.69,5.6 92.59,11.5 137.05,16 44.54,4.2 87.49,8.8 128.36,11.5 40.73,3.3 79.3,5.6 114.86,7.5 71.11,3.9 130.24,5.5 171.3,6 1.05,0 1.9,0 2.88,0 59.4,-40.5 117.03,-80.1 172.75,-118.6 147.67,-102.7 282.37,-197.4 400.38,-282.7 118.34,-85 220.24,-160.3 303.94,-222.4 83.5,-62.3 102.1,-80.2 146,-114 l -49.7,313.7" /></g><g
         transform="scale(2.08172)"
         id="g30"><path
           id="path32"
           style="fill:#a7d8d2;fill-opacity:1;fill-rule:nonzero;stroke:none"
           d="m 7213.27,9890.82 c -73.16,251.68 227.89,314.48 425.51,285.98 91.66,-13.3 331.85,-119.6 420.52,-159.8 -132.77,127.6 -296.29,289.2 -479.27,479 -4.32,-4.4 -6.72,-6.8 -6.72,-6.8 0,0 -0.34,5.4 -0.82,14.7 -12.58,13.1 -25.31,26.3 -38.09,39.7 -98.19,-49.6 -785.89,-385.8 -867.65,-104.6 -73.16,251.7 227.89,314.5 425.51,286 92.28,-13.3 334.97,-120.9 422.25,-160.6 -147.91,155.1 -307.1,327.3 -472.06,514 -81.42,-41.5 -788.82,-392.1 -871.78,-106.6 -73.16,251.7 227.89,314.4 425.51,285.9 97.23,-14 361.44,-132.8 434.84,-166.3 -104.39,118.3 -210.98,242.5 -318.49,371.6 -49.43,59.4 -99.73,120.8 -150.55,183.8 -98.52,-39.6 -812.36,-315.7 -869.66,-25.9 -51.16,258.7 252.53,294.1 445.97,247.5 90.99,-21.9 325.02,-153.5 406.59,-200.3 -138.97,172.8 -282.03,358.5 -424.94,554.6 -76.09,-30.9 -816.01,-323.1 -874.42,-27.8 -51.11,258.7 252.53,294.1 446.03,247.5 96.55,-23.3 354.56,-170.2 419.89,-208 -135.22,186 -270.11,381.2 -401.01,583.9 -39.68,-16.3 -819.33,-333.2 -879.33,-29.8 -51.13,258.7 252.54,294.1 446.03,247.5 103.86,-25 394.38,-193.1 431.28,-214.6 -122.16,189.3 -240.72,385 -352.74,585.6 h -0.05 v 0.1 c -4.27,7.7 -8.55,15.4 -12.82,23.1 -64.42,-20.5 -836.8,-258.3 -871.8,45.5 -30.34,263.4 273.69,273 461.94,210 96.94,-32.5 353.8,-211.3 405.39,-247.5 -118.56,214.1 -229.38,433.5 -328.91,656.4 -32.62,-6.2 -858.49,-159.5 -857.05,155.6 1.22,267.1 301.97,238.2 480.02,151.3 96.09,-47 346.28,-276.8 375.68,-304 -102.36,229.6 -192.77,462.6 -267.05,697.3 -101.45,0.9 -850.57,17 -797.19,314.7 47.57,265.3 335.28,180.4 493.5,60.7 74.26,-56.1 237.91,-271.5 295.05,-348.1 -51.11,164.4 -93.92,329.4 -127.76,494.5 -83.43,109 -496.45,672 -255.5,834.1 221.98,149.3 337.61,-135 348.22,-342.6 5.03,-98.6 -51.99,-383.3 -71.75,-478.4 34.63,-170.3 78.86,-340.7 131.97,-510.3 -6.44,189.1 -9.47,840.6 255.41,837.8 257.39,-2.7 193.3,-314.3 88.06,-498.3 -53.33,-93.3 -278.43,-326.4 -330.36,-379.7 71.87,-223.6 158.14,-445.8 255.56,-664.8 -6.44,188.7 -9.61,840.9 255.42,838.1 257.38,-2.7 193.3,-314.3 88.05,-498.3 -52.27,-91.4 -269.49,-317.1 -327.04,-376.2 94.63,-209.7 199.11,-416.3 310.61,-618.2 -6.39,191.2 -8.65,839.1 255.51,836.2 257.38,-2.7 193.3,-314.2 88.05,-498.3 -51.4,-89.8 -262.09,-309.4 -323.96,-373 119.47,-214.2 246.38,-422.8 377.23,-624 -5.33,105.3 -34.92,880 253.83,876.9 257.39,-2.7 193.3,-314.2 88.06,-498.3 -56.06,-98 -301.77,-350.4 -336.89,-386.3 129.08,-198.1 261.71,-388.8 394.53,-570.6 -6.39,146.2 -23.87,865.9 254.45,862.9 257.44,-2.7 193.31,-314.3 88.06,-498.3 -53.57,-93.7 -280.5,-328.5 -331.03,-380.4 155.35,-211.8 310.56,-411.1 460.25,-595 -6.35,143.6 -24.65,867 254.4,864.1 257.43,-2.7 193.3,-314.3 88.05,-498.3 -53.46,-93.6 -279.81,-327.8 -330.78,-380.2 32.57,-39.9 64.99,-79.4 96.99,-117.8 128.3,-154.2 255.36,-301.2 378.86,-439.8 -4.75,89.2 -38.76,883.6 253.64,880.5 257.38,-2.7 193.3,-314.3 88.05,-498.3 -56.34,-98.6 -304.46,-353.3 -337.5,-386.9 160.54,-180.1 314.93,-345.9 457.98,-495 -6.48,188.5 -9.7,841.1 255.41,838.3 257.39,-2.7 193.31,-314.3 88.06,-498.3 -49.77,-87.1 -249.17,-295.9 -317.77,-366.7 212.04,-220 397.89,-402 540.04,-537.17 -5.34,104.37 -35.22,880.27 253.78,877.17 257.38,-2.7 193.3,-314.2 88.05,-498.3 -55.34,-96.8 -295.91,-344.4 -335.49,-384.92 177.16,-168.32 284.71,-262.47 287.64,-265.02 l -15.27,-18.49 c -3.22,2.73 -129.41,113.22 -334,309.21 -96.18,-48.71 -786.33,-386.65 -868.23,-104.86" /></g><g
         transform="scale(1.34807)"
         id="g34"><path
           id="path36"
           style="fill:#a7d8d2;fill-opacity:1;fill-rule:nonzero;stroke:none"
           d="m 3900.93,14121 c 219,-350.8 573.59,-595.5 808.97,-729.8 -376.46,90.5 -690.69,185.7 -913.17,259.5 -191.17,243.8 -717.26,888.2 -1101.04,1105.5 -776.68,439.5 -1315.54,-357 -396.49,-865.9 533.7,-295.7 1098.65,-340.5 1383.37,-341.4 183.55,-62.8 449.22,-147 773.88,-232.1 -166.28,-27 -520.42,-95.1 -736.09,-212.9 -289.23,-157.9 -488.62,-628 -361.24,-723.1 127.39,-95.1 477.64,-0.3 663.97,245.8 157.53,207.9 423.22,566.4 501.84,672.6 337.5,-86.2 733.67,-171.4 1164.43,-233.8 -266.39,-93.1 -858.9,-318.1 -1202.58,-585.3 -453.15,-352.3 -697.21,-1199.6 -466.51,-1319.9 230.71,-120.3 797.66,145 1062.3,613.4 222.73,394.2 597.26,1072.3 710.34,1277.4 330.83,-44.4 680.31,-74.5 1037.77,-80.8 -232.75,-67.8 -796.62,-190.9 -1004.85,-340.7 -442.67,-318.5 -575.97,-961.8 -289.98,-1056.3 192.06,-63.5 724.49,155.6 946.11,496.1 176.07,270.5 465.4,724.6 577.14,900.2 321.62,3.8 647.71,28.4 970.84,80.2 -272.46,-185.1 -716.48,-509.4 -970.98,-815.6 -385.5,-463.9 -486.25,-1358.1 -241.29,-1415.6 244.98,-57.5 755.76,351 938.25,879.3 143.68,416 376.76,1110.3 469.41,1386.7 183.6,36.1 365.71,81.5 544.93,137.6 188.57,59.1 373.05,127 553.01,201.9 -219.65,-238.9 -974.21,-854 -1040.53,-1279 -81.59,-522.7 443.23,-669.6 651.31,-428.2 183.67,213.2 416.74,1470.9 461.33,1737.9 367.41,157.7 715.42,343.9 1039.52,543.9 -225,-250.4 -499.27,-582.8 -658.39,-873.3 -303.24,-553.8 -259.48,-1456.6 -10.75,-1450.2 248.74,6.3 683.24,537.9 777.74,1102.7 71.2,426.7 182.2,1125.4 232.3,1442 324,220.1 619.3,449.4 880.6,670.5 -265.2,-311.4 -632.4,-792.1 -683.7,-1121 -81.7,-522.6 314.4,-498.4 522.6,-256.9 179.1,207.8 374.5,1306.7 425.5,1608.5 640.8,576.6 1018.6,1045.9 1026.7,1056 13.9,17.5 18.5,42.2 14,64.7 -2.2,11.5 -6.9,22.3 -13.9,31.3 -20.9,26.8 -54.8,27.1 -75.7,0.8 -8.6,-10.8 -447.1,-555.5 -1181.2,-1190.5 -107.7,70.5 -302.5,189.8 -470.4,249.1 -247.3,87.3 -510.8,-61.8 -545.8,-215.8 -45.8,-201.3 97.5,-385.7 409.6,-397.9 65.9,-2.6 134.5,10.2 201.9,31.1 -233.8,-183.4 -489.1,-368 -762.9,-543.8 -133.8,150.6 -405.4,445.1 -647.04,635.4 -335.74,264.3 -738.16,235.8 -816.2,60.2 -102.15,-229.7 67.87,-554.3 509.69,-762.4 225.88,-106.4 491.65,-111.6 697.75,-91.4 -347.99,-207.1 -722.3,-396.6 -1117.54,-550.7 -117.94,176 -433.43,633.3 -721.1,933.2 -362.37,377.8 -1085.09,529.6 -1198.81,338.9 -148.74,-249.4 54.5,-771.1 548.77,-1104.1 301.02,-203 888.82,-246.8 1144.52,-251.5 -59.34,-20.5 -118.98,-40.6 -179.21,-59.5 -447.83,-140.4 -914.28,-213.2 -1376.69,-238.9 -83.52,271.8 -335.19,1088.9 -487.81,1569.3 -184.99,582.3 -718.8,1009.3 -978.54,929.4 -259.74,-80 -166.5,-1078.7 234.03,-1575.9 301.95,-374.9 864.7,-760.7 1123.56,-927.9 -362.19,-14.4 -720.66,-0.6 -1064.7,31.3 -54.38,183.2 -208.1,680.4 -375.78,1036 -209.14,443.5 -589.15,660.4 -726.59,547.5 -179.75,-147.7 -145.37,-546.1 182.2,-1002.5 200.26,-278.9 507.18,-460.6 715.65,-559.8 -377.97,43.4 -735.01,107 -1055.61,177.3 -47.94,204.2 -197.46,813.3 -373.33,1252.2 -214.21,534.5 -640.72,824.3 -807.08,707.6 -217.56,-152.6 -202.93,-617.2 147.69,-1178.6" /></g><path
         id="path38"
         style="fill:#42b2a2;fill-opacity:1;fill-rule:nonzero;stroke:none"
         d="m 8810.76,13024.4 c -537.67,-376.4 -826.42,-891.7 -644.96,-1150.9 181.47,-259.2 764.44,-164.3 1302.11,212.1 537.69,376.4 826.39,891.6 644.99,1150.9 -181.5,259.2 -764.47,164.2 -1302.14,-212.1" /><path
         id="path40"
         style="fill:#a7d8d2;fill-opacity:1;fill-rule:nonzero;stroke:none"
         d="m 10925,10976.8 c -6.8,-398.1 186,-724.2 430.6,-728.3 244.6,-4.2 448.3,315.2 455.1,713.3 6.8,398.1 -186,724.2 -430.6,728.3 -244.6,4.2 -448.3,-315.2 -455.1,-713.3" /><g
         transform="scale(1.40122)"
         id="g42"><path
           id="path44"
           style="fill:#42b2a2;fill-opacity:1;fill-rule:nonzero;stroke:none"
           d="m 3116.4,16144.1 c -295.34,155.9 -604.59,150 -690.73,-13.1 -86.14,-163.1 83.45,-421.8 378.79,-577.7 295.34,-155.9 604.59,-150.2 690.73,13 86.14,163.1 -83.45,421.8 -378.79,577.8" /></g><g
         transform="scale(1.71577)"
         id="g46"><path
           id="path48"
           style="fill:#a7d8d2;fill-opacity:1;fill-rule:nonzero;stroke:none"
           d="m 3996.05,16268.1 c -250.52,31.9 -465.14,-32.6 -479.37,-144.1 -14.22,-111.6 177.35,-227.9 427.88,-259.8 250.52,-32 465.14,32.5 479.36,144.1 14.22,111.5 -177.34,227.8 -427.87,259.8" /></g><g
         transform="scale(1.83083)"
         id="g50"><path
           id="path52"
           style="fill:#229e8e;fill-opacity:1;fill-rule:nonzero;stroke:none"
           d="m 4061.83,16137 c -83.99,122.3 -194.84,163 -247.59,90.9 -52.74,-72.1 -27.41,-229.6 56.59,-351.9 83.99,-122.3 194.84,-163 247.59,-90.9 52.75,72.1 27.41,229.7 -56.59,351.9" /></g><g
         transform="scale(2.73707)"
         id="g54"><path
           id="path56"
           style="fill:#229e8e;fill-opacity:1;fill-rule:nonzero;stroke:none"
           d="m 15846.1,4164.93 c 85.1,89.4 189.8,127.99 233.7,86.12 44,-41.84 10.6,-148.23 -74.5,-237.63 -85.1,-89.4 -189.8,-127.98 -233.7,-86.15 -43.9,41.83 -10.6,148.22 74.5,237.66 z m -3773.5,385.34 257.6,698.23 171.3,-713.5 c 0,0 148.7,-91.01 325.5,-174.46 176.7,-83.44 835.2,-260.82 835.2,-260.82 l 171.3,281.36 258.7,-596.99 736.7,-258.27 -15.7,425.75 286.2,-347.2 c 0,0 1200.6,184.06 1179.7,592.13 -22.4,438.61 -863.1,1167.93 -863.1,1167.93 0,0 -798.9,-186.74 -743.6,-113.48 55.3,73.25 402.3,287.28 391.9,348.22 -10.4,60.98 -837.3,577.3 -982.8,619.97 -145.5,42.71 -1100.3,-324.66 -999.8,-217.28 100.6,107.34 555.8,315.96 555.8,315.96 0,0 -54.3,52.76 -280.9,124.55 -226.7,71.76 -583.5,31.16 -583.5,31.16 l -1355.7,-770.82 655.2,-1152.44" /></g><g
         transform="scale(2.45724)"
         id="g58"><path
           id="path60"
           style="fill:#a7d8d2;fill-opacity:1;fill-rule:nonzero;stroke:none"
           d="m 13405.8,5797.81 c 88.3,-128.97 -70.5,-220.57 -187.8,-241.21 -54.4,-9.56 -210.3,5.94 -268,12.25 99,-47.61 221.7,-108.7 360.7,-182.19 1.6,3.33 2.5,5.16 2.5,5.16 0,0 1.2,-3.05 3.2,-8.18 9.6,-5.08 19.3,-10.21 29,-15.42 46.4,46.39 373.4,364.84 472.1,220.74 88.3,-128.97 -70.6,-220.58 -187.9,-241.21 -54.7,-9.6 -212.2,6.15 -269.1,12.37 112.7,-60.27 234.9,-128.23 363.2,-203.32 38.3,38.66 373.8,369 473.9,222.73 88.4,-128.96 -70.5,-220.57 -187.8,-241.2 -57.7,-10.13 -229.4,7.93 -277.3,13.27 81.2,-47.62 164.7,-98.08 249.6,-151.23 39.1,-24.5 79,-49.9 119.5,-76.1 48.5,40.73 401.5,330.08 487.9,176.54 77.1,-137.03 -88.3,-213.58 -206.6,-223.22 -55.6,-4.52 -212.7,26.45 -267.6,37.8 110.9,-72.07 226.5,-150.61 343.9,-235.1 37.4,31.67 402.2,334.97 490.3,178.54 77.1,-137.03 -88.4,-213.58 -206.7,-223.22 -59,-4.8 -232.5,30.44 -276.6,39.68 111.3,-80.21 224,-165.72 335.9,-256.18 19.5,16.64 402.2,341.31 492.6,180.61 77.1,-137.03 -88.3,-213.62 -206.6,-223.22 -63.5,-5.17 -259.3,35.93 -284.3,41.26 104.5,-84.52 208.1,-173.32 308.9,-266.11 v 0.04 -0.08 c 3.9,-3.54 7.7,-7.08 11.6,-10.66 32.7,23.56 426,302.09 502.3,136.49 66.3,-143.53 -104.2,-205.63 -222.5,-204.94 -61,0.32 -239.8,53.8 -275.8,64.75 107,-99.22 210.7,-202.88 308.5,-310.6 17.4,9.57 456.7,250.16 514.5,71.34 49.1,-151.55 -126.7,-191.1 -243.8,-175.03 -63.1,8.71 -247.6,92.34 -269.4,102.23 100.8,-110.94 195.4,-226.15 281.2,-345.31 57.6,18.44 484.9,148.79 510.1,-29.83 22.5,-159.16 -156.3,-164.61 -268.2,-126.28 -52.5,17.99 -185.4,109.51 -232,142.27 59.6,-83.59 114.6,-169.13 164.5,-256.34 67.5,-46.23 406.3,-288.29 300,-424.95 -98,-125.91 -216.4,13.6 -261.1,129.25 -21.2,54.9 -41.9,226.84 -48.4,284.39 -51.3,90.02 -108.1,178.33 -169.7,264.48 38.8,-105.89 161.8,-474.43 11.2,-522.13 -146.3,-46.39 -168,142.03 -142.6,265.91 12.8,62.75 96.9,236.73 116.4,276.57 -82.3,113.34 -172.5,223.14 -268.5,329.03 38.8,-105.69 162,-474.56 11.3,-522.34 -146.3,-46.35 -168,142.07 -142.6,265.95 12.6,61.49 93.6,229.77 115.2,273.97 -92.6,101.21 -190.3,198.76 -291,292.36 39.2,-107.11 161.1,-473.66 10.9,-521.28 -146.3,-46.35 -168,142.07 -142.6,265.91 12.3,60.47 90.8,224.07 114,271.65 -107.5,99.05 -218.2,193.63 -329.8,283.24 22.6,-58.64 183.6,-492.01 19.4,-544.02 -146.3,-46.36 -168,142.07 -142.6,265.9 13.5,65.97 105.7,254.72 118.9,281.54 -110,88.19 -220.6,171.61 -329.7,249.83 30.8,-81.63 174.7,-486.07 16.5,-536.21 -146.3,-46.39 -168,142.03 -142.7,265.91 12.9,63.04 97.8,238.31 116.7,277.06 -127.4,91.16 -252.4,175.11 -371.5,251.46 30.4,-80.21 175.4,-486.6 16.8,-536.9 -146.3,-46.36 -168,142.07 -142.7,265.9 12.9,63 97.5,237.83 116.7,276.94 -25.9,16.56 -51.7,32.88 -76.9,48.71 -101.4,63.49 -200.8,123.07 -296.5,178.62 19.3,-49.65 186.4,-493.36 20.2,-546.02 -146.3,-46.39 -168,142.03 -142.6,265.91 13.5,66.29 106.7,256.75 119.1,281.98 -124.4,72.16 -242.8,137.35 -351.5,195.14 38.7,-105.57 162,-474.64 11.3,-522.42 -146.3,-46.39 -168,142.03 -142.6,265.91 12,58.56 86,213.98 111.7,266.84 -161.1,85.18 -300.2,153.67 -405.9,203.81 22.4,-58.11 183.8,-492.14 19.5,-544.19 -146.3,-46.35 -168,142.07 -142.6,265.91 13.3,65.2 103.5,250.2 118.4,280.52 -131.8,62.39 -210.2,95.68 -212.3,96.61 l 5.2,13.31 c 2.3,-0.98 94.4,-40.05 246.8,-112.97 45.4,45.45 373.4,365.37 472.3,221.02" /></g><g
         transform="scale(2.80941)"
         id="g62"><path
           id="path64"
           style="fill:#42b2a2;fill-opacity:1;fill-rule:nonzero;stroke:none"
           d="m 11182.1,8153.49 c 0,0 288.9,297.64 544,399.62 255.1,101.94 342.2,94.58 342.2,94.58 0,0 -253.8,-519.87 -265,-689.47 -11.2,-169.58 572.7,858.15 733.9,926.63 161.3,68.45 1278.3,213.11 1332.3,166.26 53.9,-46.8 -99.3,-492.27 -95,-598.23 4.2,-106.01 581.1,646.18 581.1,646.18 0,0 1285.4,-35.56 1626.8,-410.9 317.6,-349.29 -620,-1393.32 -620,-1393.32 l -510.1,100.41 326,-368.76 -847.4,-309.14 -668.5,343.85 53.1,-376.92 c 0,0 -637,-312.09 -856,-367.05 -219,-54.96 -539.4,-115.15 -539.4,-115.15 l -636.2,532.53 281.5,-812.48 -1429.7,549.41 646.4,1681.95" /></g><g
         transform="scale(2.65106)"
         id="g66"><path
           id="path68"
           style="fill:#ffffff;fill-opacity:1;fill-rule:nonzero;stroke:none"
           d="m 11358.8,7362.43 c 72.8,36.25 110.2,54.73 212.3,103.69 14.9,7.21 30.1,14.52 45.6,21.92 3.5,8.03 7.2,16.41 11.3,25.31 9.3,21.39 21,44.73 33.4,70.42 13.1,25.28 26.7,52.96 42.7,81.29 15.3,28.75 32.6,58.35 50.7,88.87 17.6,30.71 37.9,61.26 57.3,92.87 20.6,31.01 41.3,62.5 62.6,93.55 22.1,30.63 43.4,61.71 65.7,91.32 22.5,29.5 44.2,58.77 66.1,86.49 22.2,27.43 43.6,53.91 64,79.07 20.6,24.89 41,47.71 59.3,69.14 18.5,21.31 35.2,41 51,57.6 15.6,16.86 29.1,31.53 40.3,43.6 22.3,24.14 35,37.95 35,37.95 0,0 -11.7,-14.67 -32.1,-40.36 -10.2,-12.83 -22.6,-28.4 -36.9,-46.25 -14.4,-17.65 -29.7,-38.43 -46.4,-60.99 -16.7,-22.6 -35.2,-46.7 -53.9,-72.88 -18.3,-26.33 -37.6,-54.13 -57.6,-82.91 -19.6,-28.97 -39,-59.56 -59.1,-90.23 -19.8,-30.85 -38.5,-63.07 -58,-94.79 -18.8,-32.1 -36.9,-64.58 -54.8,-96.45 -16.8,-32.44 -34.4,-63.82 -49.5,-95.13 -15.4,-31.12 -30.1,-61.22 -43.1,-90.27 -13.5,-28.74 -24.7,-56.54 -35.6,-81.93 -2,-5.02 -3.9,-9.88 -5.8,-14.71 60.6,28.48 124.6,58.24 191.8,89.21 126.6,57.98 264.2,119.91 410.7,183.36 73.3,31.76 148.6,64.28 226,96.53 77.1,32.82 156.5,65.18 237.2,98.07 39,16.19 78.6,31.95 118.5,47.72 1,2.19 2.2,4.75 3.6,7.81 4.9,10.82 12,24.82 21.3,43.23 9.4,18.1 20.9,40.02 34.9,64.54 13.5,24.82 30.2,51.83 47.9,81.59 18.6,29.16 37.9,61.22 60.3,93.81 21.6,33.12 45.6,67.14 70.7,102.11 24.6,35.31 52.3,70.16 79.2,106.37 28.1,35.31 56.5,71.26 85.7,106.6 29.9,34.7 58.9,70.09 89,103.62 30.4,33.31 59.8,66.5 89.2,97.73 29.7,30.86 58.5,60.7 85.8,88.99 27.6,27.95 54.7,53.45 79.2,77.48 24.5,23.91 46.9,45.94 67.8,64.42 20.6,18.75 38.5,35.12 53.3,48.59 29.6,26.89 46.5,42.28 46.5,42.28 0,0 -15.7,-16.56 -43.2,-45.49 -13.7,-14.44 -30.4,-31.99 -49.5,-52.13 -19.4,-19.84 -40,-43.41 -62.7,-68.91 -22.5,-25.62 -47.5,-52.81 -72.9,-82.54 -24.9,-29.99 -51.3,-61.6 -78.5,-94.26 -26.8,-33.05 -53.4,-68.01 -81,-103.02 -27.3,-35.23 -53.4,-72.23 -80.2,-108.52 -26.2,-36.85 -51.5,-74.27 -76.5,-110.9 -23.8,-37.49 -48.4,-73.56 -70,-109.84 -21.9,-35.99 -42.9,-70.88 -61.6,-104.6 -19.4,-33.31 -35.9,-65.75 -51.8,-95.29 -14.9,-29.98 -29.1,-57.22 -40.3,-81.89 -2.8,-5.96 -5.5,-11.69 -8,-17.27 80.5,30.81 161.9,61.93 244.1,93.32 171.7,63.6 346.7,127.04 523.5,186.04 l 132.3,44.47 c 44.4,14.15 88.7,28.25 132.9,42.36 88.2,28.74 177,55 264.9,81.21 107.5,32.03 214.6,61.98 320.4,90.16 15.5,22.7 38.1,53.82 66.4,89.77 14.8,17.92 30.2,37.76 47.8,57.64 17.2,20.18 35.6,41.11 55.4,62.16 19.2,21.54 40.5,42.48 61.5,64.2 21.3,21.5 43.8,42.44 65.7,63.79 22.9,20.52 45.6,41.04 68.1,61.22 23,19.43 45.7,38.55 67.7,57.07 22.5,17.73 44.3,34.89 65,51.15 20.6,16.3 41.1,30.41 59.5,44.1 18.6,13.46 35.3,26.18 50.9,36.36 15.4,10.41 28.9,19.54 40,27.01 22.1,14.97 34.7,23.5 34.7,23.5 0,0 -11.6,-9.81 -31.9,-27.05 -10.2,-8.6 -22.5,-19.01 -36.6,-31 -14.3,-11.7 -29.4,-26.11 -46.3,-41.35 -16.6,-15.5 -35.3,-31.53 -53.8,-49.79 -18.5,-18.18 -38.1,-37.34 -58.3,-57.15 -19.5,-20.48 -39.6,-41.6 -60.1,-63.06 -19.7,-22.07 -39.7,-44.51 -59.7,-66.92 -19,-23.16 -38.7,-45.83 -56.9,-68.88 -18.1,-23.31 -36.3,-45.72 -52.6,-68.46 -16.7,-22.37 -32.2,-44.4 -46.6,-65.52 -14.6,-20.86 -27.2,-41.35 -39.4,-59.9 -0.5,-0.87 -1,-1.7 -1.6,-2.57 20.4,5.21 40.7,10.37 61,15.47 84.9,21.23 169.1,39.72 251.1,59.11 82.3,17.99 163.3,33.98 241.9,50.43 79,14.93 156.1,27.99 230.5,41.42 74.6,12.29 147.2,21.95 216.5,32.4 34.7,5.58 69,9.09 102.3,12.82 33.5,3.74 66.1,7.4 97.9,10.98 63.5,8.07 124.2,11.81 181.2,16.07 113.7,10.26 114.9,-2.38 1.8,-15.88 -56.6,-5.89 -116.9,-11.32 -179.9,-21.24 -31.5,-4.45 -63.9,-9.05 -97,-13.73 -33.2,-4.68 -67.1,-9.16 -101.4,-15.69 -68.8,-12.45 -140.6,-24.14 -214.5,-38.51 -73.6,-15.51 -149.9,-30.71 -227.9,-47.83 -77.7,-18.64 -157.7,-36.86 -239,-57.15 -81,-21.65 -164,-42.44 -247.7,-66.01 -34.1,-9.66 -68.5,-19.54 -103,-29.54 20.5,-12.45 43.9,-27.01 69.6,-43.64 22.2,-14.3 46.2,-29.99 71,-47.15 25.1,-16.75 50.8,-35.57 77.6,-54.62 26.7,-19.32 53.6,-40.02 81.1,-60.84 26.8,-21.77 54.6,-42.89 81.1,-65.75 26.6,-22.82 53.6,-44.89 78.6,-68.58 25.4,-23.16 50.4,-45.83 73.2,-69.25 23.2,-22.94 45.6,-45.04 65.4,-67.45 20,-22.18 39.9,-42.17 55.9,-62.69 16.6,-19.99 31.7,-38.33 45.1,-54.58 12.8,-16.71 23.4,-31.73 32.3,-43.84 17.8,-24.29 27.9,-38.17 27.9,-38.17 0,0 -11.4,12.9 -31.4,35.5 -10.1,11.2 -22,25.12 -36.2,40.47 -14.8,14.83 -31.6,31.61 -49.8,49.87 -17.7,18.71 -39.3,36.7 -61,56.69 -21.6,20.18 -45.8,39.91 -70.7,60.32 -24.5,20.86 -51.2,40.85 -78.2,61.22 -26.6,20.86 -55.2,40.02 -83.2,59.9 -27.9,19.92 -57.3,38.02 -85.3,56.81 -28.7,17.84 -56.8,35.53 -84.5,51.9 -27.9,16.15 -54.5,32.1 -80.5,46.06 -25.6,14.45 -50.2,27.46 -73,39.3 -45.5,23.77 -84,42.33 -110.9,54.77 -13.5,6.3 -24,11.02 -31,14.04 -7.2,3.16 -11.1,4.86 -11.1,4.86 l 4,8.19 c -94.5,-28.44 -190,-58.32 -285.8,-89.93 -86.6,-28.63 -173.9,-57.26 -260.7,-88.42 -43.5,-15.27 -87.1,-30.59 -130.7,-45.9 l -130.2,-48.02 c -125.9,-46.21 -250.8,-94.72 -374.3,-143.87 9,-3.13 18.3,-6.37 27.9,-9.81 24.9,-8.86 51.8,-18.67 80,-29.76 28.3,-10.56 57.7,-23.01 88.2,-35.49 30.4,-12.71 61.5,-26.75 93.1,-40.78 31.1,-15.13 63.2,-29.31 94.3,-45.57 31.2,-16.22 62.7,-31.53 92.6,-48.88 30.1,-16.79 59.7,-33.2 87.5,-50.85 28,-17.05 55,-33.5 79.6,-50.81 24.6,-17.12 48.7,-32.06 69.1,-48.4 20.9,-15.73 39.9,-30.17 56.8,-42.96 16.5,-13.35 30.3,-25.61 41.9,-35.38 23,-19.65 36.2,-30.89 36.2,-30.89 0,0 -14.2,9.95 -39,27.42 -12.5,8.64 -27.3,19.5 -44.8,31.23 -17.9,11.09 -38.2,23.61 -60.2,37.27 -21.6,14.18 -46.9,26.78 -72.7,41.34 -25.7,14.79 -53.8,28.48 -82.9,42.66 -28.7,14.75 -59.4,28.14 -90.4,41.84 -30.7,14.22 -63.1,26.4 -94.9,39.38 -31.8,13.01 -64.5,23.99 -96.2,35.87 -32,10.79 -63.5,21.65 -94.2,31.23 -30.8,9.39 -60.4,18.82 -88.9,26.52 -28.3,8.18 -55.3,15.24 -80.1,21.58 -49.8,12.75 -91.4,22.02 -120.5,27.98 -12.7,2.64 -22.7,4.61 -30,5.96 -81.4,-33.91 -162.1,-67.55 -242,-100.79 -81.7,-35.53 -162.9,-69.36 -241.9,-104.86 -79.1,-35 -156.9,-69.48 -232.5,-104.3 -75.9,-34.29 -149.7,-68.76 -221.4,-102.41 -44.1,-20.63 -87.2,-41.08 -129.4,-61.3 6.2,-2.18 12.6,-4.45 19.1,-6.79 24.9,-8.86 51.8,-18.67 80,-29.76 28.3,-10.56 57.7,-23.01 88.2,-35.49 30.5,-12.71 61.5,-26.75 93.1,-40.78 31.2,-15.12 63.2,-29.31 94.3,-45.57 31.2,-16.22 62.7,-31.53 92.6,-48.88 30.1,-16.79 59.8,-33.2 87.4,-50.85 28.1,-17.05 13.2,-42.7 -15.9,-28.52 -28.7,14.75 -59.4,28.14 -90.4,41.84 -30.7,14.22 -63.1,26.4 -94.9,39.38 -31.8,13.01 -64.5,23.99 -96.1,35.87 -32.1,10.79 -63.6,21.65 -94.3,31.27 -30.8,9.35 -60.4,18.78 -88.9,26.48 -28.3,8.19 -55.2,15.24 -80.1,21.58 -49.8,12.74 -91.4,22.02 -120.4,27.98 -0.8,0.16 -1.4,0.27 -2,0.38 -49.6,-24.1 -97.8,-47.75 -144.5,-70.8 -123.7,-61.6 -236.8,-118.63 -336.2,-170.42 -99.7,-51.49 -185.9,-97.47 -256.7,-135.46 -70.7,-38.21 -87.3,-49.87 -124.6,-70.8 l 93.1,242.51" /></g><g
         transform="scale(2.97671)"
         id="g70"><path
           id="path72"
           style="fill:#a7d8d2;fill-opacity:1;fill-rule:nonzero;stroke:none"
           d="m 15074.5,5420.39 c -88.5,184.7 -249.6,324.69 -358,403.73 180.3,-65.2 329.7,-129.44 435.2,-177.98 80.7,-130.55 304.1,-476.73 481.1,-604.79 358.1,-259.15 667.2,103.23 242.8,404.4 -246.4,174.89 -522,228.04 -662.1,244.23 -86.9,40.95 -213,97.09 -368.2,156.82 83.4,4.17 261.5,18.17 374.1,64.27 151.1,61.81 275.1,282.22 217.6,336.04 -57.4,53.85 -235.1,26.44 -340.3,-84.39 -89,-93.69 -239.5,-255.52 -284.1,-303.46 -161.4,61.04 -351.7,124.81 -560.3,179.19 136.3,31.18 440.3,109.29 624.2,221.89 242.5,148.46 409.3,552.09 302.3,624.05 -106.9,71.92 -400.6,-27.48 -556.7,-243.46 -131.3,-181.78 -353,-494.97 -420,-589.68 -160.4,40.08 -330.8,74.11 -506.4,96.92 118.3,20.56 402.7,50.09 513.4,112.41 235.5,132.39 336.5,441.7 200.9,503.95 -91,41.82 -365.1,-36.69 -493,-192.09 -101.6,-123.46 -269,-331.04 -333.7,-411.33 -158.5,15.82 -320.4,21.7 -482.3,13.97 144.3,76.09 380.8,211.28 522.9,348 215.3,207.11 314.1,641.72 196.7,683.51 -117.4,41.83 -391.3,-131.15 -510.2,-381.12 -93.7,-196.87 -246.7,-525.82 -307.5,-656.77 -92.3,-7.66 -184.5,-19.92 -275.8,-37.73 -96.1,-18.71 -190.6,-41.96 -283.3,-68.9 121.3,105.49 311.4,298.52 367.5,504.05 68.9,252.76 -109.8,268.82 -225.6,161.42 -102.1,-94.8 -142.4,-547.65 -179.1,-676.62 -189.5,-57.38 -371.1,-129.84 -541.6,-210.5 124.5,110.89 277.8,259.38 372.1,393.65 179.8,255.89 208,702.69 85.2,713.28 -122.8,10.54 -366,-227.2 -443.6,-500.05 -58.6,-206.04 -151.6,-543.86 -193.7,-696.98 -171.6,-90.5 -329.6,-187.12 -470.4,-281.56 147.7,138.68 354.9,355.1 398.3,514.16 68.9,252.77 -127.4,262.64 -243.1,155.24 -99.7,-92.45 -256.4,-622.57 -298.1,-768.36 -347.2,-248.53 -559,-458.7 -563.5,-463.23 -7.8,-7.87 -11.5,-19.79 -10.5,-31.11 0.5,-5.78 2.2,-11.39 5.2,-16.16 8.8,-14.35 25.4,-16.36 37.1,-4.6 4.9,4.87 250.7,248.9 647.1,521.01 49.1,-40.65 138.4,-110.09 217.8,-148.52 116.9,-56.61 254.9,2.28 280.6,76.16 33.6,96.58 -26.8,195.25 -179.8,218.46 -32.2,4.87 -66.7,2.35 -101.1,-4.23 125.2,77.43 261,154.2 405.5,225.65 57.6,-81.47 175.1,-241.41 283.5,-348.37 150.7,-148.59 350.4,-156.72 398.5,-74.58 62.9,107.43 -2.9,276.58 -208.9,403.36 -105.3,64.81 -235.9,82.01 -338.5,83.38 182.8,82.78 377.4,155.44 580.5,209.53 48.3,-93.09 178.5,-335.6 303.5,-499.07 157.6,-205.9 505,-320.39 571.5,-232.81 86.9,114.55 15.6,382.57 -209.3,573.72 -137.1,116.47 -424,170.42 -549.6,186.78 30.4,6.89 60.8,13.48 91.5,19.46 228.2,44.44 461.8,54.59 690.8,41.72 26.2,-138.31 105.1,-554.44 153.7,-799.27 59.1,-296.81 298.3,-536.44 430.5,-511.37 132.3,25.06 141.4,521.78 -28.4,788.62 -128,201.13 -383.7,422.01 -501.9,518.63 179,-12.87 354.7,-39.44 522.3,-74.08 16.7,-93.19 65,-346.39 127.9,-530.65 78.6,-229.82 253.7,-357.51 327.5,-309.51 96.7,62.79 101.7,260.8 -34.4,503.48 -83.2,148.35 -224.3,254.68 -321.5,314.98 183.7,-42.2 355.9,-93.16 509.9,-145.4 12.3,-103.13 52.4,-411.26 114.8,-636.94 76,-274.94 270,-441.06 358.3,-392.79 115.5,63.16 133.9,292.64 -7.8,588.34" /></g><g
         transform="scale(2.1115)"
         id="g74"><path
           id="path76"
           style="fill:#229e8e;fill-opacity:1;fill-rule:nonzero;stroke:none"
           d="m 15940.7,14238.2 c 9.4,-184.9 95.2,-337.3 191.9,-340.4 96.6,-3 167.4,144.5 158.1,329.5 -9.4,185 -95.2,337.4 -191.8,340.4 -96.7,3 -167.5,-144.5 -158.2,-329.5" /></g><g
         transform="scale(2.28115)"
         id="g78"><path
           id="path80"
           style="fill:#a7d8d2;fill-opacity:1;fill-rule:nonzero;stroke:none"
           d="m 15610.6,12544.3 c -138.3,-220 -126.9,-424.7 25.3,-457.3 152.3,-32.5 387.7,119.4 525.9,339.3 138.2,220 126.8,424.7 -25.4,457.3 -152.2,32.6 -387.7,-119.3 -525.8,-339.3" /></g><g
         transform="scale(2.289)"
         id="g82"><path
           id="path84"
           style="fill:#42b2a2;fill-opacity:1;fill-rule:nonzero;stroke:none"
           d="m 15918.8,2816.78 c 89,-133.29 224.6,-199 302.9,-146.75 78.3,52.29 69.6,202.71 -19.4,336.04 -89,133.29 -224.7,199 -302.9,146.75 -78.3,-52.3 -69.6,-202.71 19.4,-336.04" /></g><g
         transform="scale(2.16397)"
         id="g86"><path
           id="path88"
           style="fill:#a7d8d2;fill-opacity:1;fill-rule:nonzero;stroke:none"
           d="m 15701.7,2628.18 c -84.1,-287.85 -37.2,-554.81 104.9,-596.27 142,-41.49 325.2,158.19 409.3,445.99 84.1,287.85 37.2,554.81 -104.9,596.26 -142,41.5 -325.2,-158.18 -409.3,-445.98" /></g><g
         transform="scale(2.21898)"
         id="g90"><path
           id="path92"
           style="fill:#a0e8da;fill-opacity:1;fill-rule:nonzero;stroke:none"
           d="m 6308.63,7349.88 c 0,-3525.23 2236.67,-6383.038 4995.67,-6383.038 2759.1,0 4995.7,2857.808 4995.7,6383.038 0,3525.32 -2236.6,6383.02 -4995.7,6383.02 -2759,0 -4995.67,-2857.7 -4995.67,-6383.02" /></g><g
         transform="scale(2.21898)"
         id="g94"><path
           id="path96"
           style="fill:#8adbcc;fill-opacity:1;fill-rule:nonzero;stroke:none"
           d="m 11817.9,13618.2 c 2517.7,-328.6 4482.1,-3046 4482.1,-6349.71 0,-3525.28 -2236.6,-6383.082 -4995.7,-6383.082 -397.6,0 -784.3,59.668 -1155.1,171.832 -687.04,2286.42 776.4,4997.08 2203.3,7538.98 1317.4,2346.78 198.2,4178.18 -534.6,5021.98" /></g><g
         transform="scale(2.23006)"
         id="g98"><path
           id="path100"
           style="fill:#ffffff;fill-opacity:1;fill-rule:nonzero;stroke:none"
           d="m 6358.3,7313.34 c 0,-3457.44 2193.57,-6270.27 4889.8,-6270.27 2696.3,0 4889.8,2812.83 4889.8,6270.27 0,3457.46 -2193.5,6270.36 -4889.8,6270.36 -2696.23,0 -4889.8,-2812.9 -4889.8,-6270.36 z m -162.06,0 c 0,3546.86 2266.26,6432.36 5051.86,6432.36 2785.6,0 5051.9,-2885.5 5051.9,-6432.36 0,-3546.81 -2266.3,-6432.333 -5051.9,-6432.333 -2785.6,0 -5051.86,2885.523 -5051.86,6432.333" /></g><g
         transform="scale(2.26936)"
         id="g102"><path
           id="path104"
           style="fill:#001128;fill-opacity:1;fill-rule:nonzero;stroke:none"
           d="m 10298.7,16183.8 c 0,0 -1005.9,116.2 -1944.67,-756.8 -644.59,-599.4 -981.56,-1568.3 -523.06,-2657.6 487.5,-1158.2 2022.77,-1833.1 779.65,-4652.8 -130.39,-295.72 1800.18,-1203.59 2695.58,-452.55 565.8,474.59 736.7,1867.18 665,2478.05 -142,1210.1 -1672.5,6041.7 -1672.5,6041.7" /></g><g
         transform="scale(1.87966)"
         id="g106"><path
           id="path108"
           style="fill:#a8412c;fill-opacity:1;fill-rule:nonzero;stroke:none"
           d="m 14226.5,16113.6 c 0,0 1338.7,-2739.4 1282.2,-3686.3 -32.8,-548.6 -1594.4,-4425.54 -1509.6,-4617.65 84.8,-192.11 1641,-1932.48 1952,-2947.87 311,-1015.45 348.9,-2469.44 348.9,-2469.44 l -5479.4,19.48 c 0,0 352.6,3602.56 409.1,4617.95 46.7,838.98 -286.8,3570.83 -404.1,4495.13 -24.7,193.7 44,387.2 185.2,522.1 527.1,503.4 1813.7,1758.1 2031.8,2214.2 275.7,576.3 -84.8,1265.8 -84.8,1265.8 l 1268.7,586.6" /></g><g
         transform="scale(1.61585)"
         id="g110"><path
           id="path112"
           style="fill:#f27f68;fill-opacity:1;fill-rule:nonzero;stroke:none"
           d="m 16083.8,10871.8 c 0,0 154.9,3403.6 185.6,3603 30.6,199.3 -330.9,-1073.5 -418.5,-1932.2 -87.6,-858.7 -87.5,-1300.6 -87.5,-1300.6 0,0 150.1,-323.6 320.4,-370.2" /></g><g
         transform="scale(1.81991)"
         id="g114"><path
           id="path116"
           style="fill:#993120;fill-opacity:1;fill-rule:nonzero;stroke:none"
           d="m 14461.9,16300 c 0,0 -41.4,-258 -112.2,-357.4 8.9,-182.4 55.6,-582.7 285.4,-970.5 217,-366.1 545.7,-690.3 545.7,-690.3 -124.7,57.4 -188.8,47.1 -188.8,47.1 -917.4,605.5 -766.3,1423.3 -766.3,1423.3 0,0 -400.1,-408.9 -648.4,-472.9 -12.3,347.2 -130.7,511.8 -130.7,511.8 l 1015.3,508.9" /></g><g
         transform="scale(2.29679)"
         id="g118"><path
           id="path120"
           style="fill:#a8412c;fill-opacity:1;fill-rule:nonzero;stroke:none"
           d="m 9172.44,15001.6 c 386.36,647.9 1711.26,1298.4 2657.26,530.5 741.3,-601.7 693.6,-1729.5 -57.3,-2228.8 v 0 c -57.8,-268.1 -242.2,-423.5 -416.3,-603.4 -764.9,-790.3 -1500.49,-680.4 -1652.09,-583 -167.11,107.4 -291.15,461.4 -334.25,662.3 -16.85,78.4 -374.18,138 -272.12,262.2 53.81,65.4 204.89,262.4 214.12,469.9 8.23,186.1 -57.99,228.2 -159.39,402 -196.67,336.9 -124.31,846.2 20.07,1088.3" /></g><g
         transform="scale(2.09175)"
         id="g122"><path
           id="path124"
           style="fill:#993120;fill-opacity:1;fill-rule:nonzero;stroke:none"
           d="m 11937.4,15006 c 0,0 -210.3,526.7 -857.3,621.5 -631,92.4 -1051.7,328.3 -1096.4,672.5 0,0 813.1,-332.4 1272.9,-395.6 715.9,-98.4 680.8,-898.4 680.8,-898.4" /></g><g
         transform="scale(1.96432)"
         id="g126"><path
           id="path128"
           style="fill:#ffffff;fill-opacity:1;fill-rule:nonzero;stroke:none"
           d="m 9354.23,8851.46 c 137.2,176.1 461.84,585.24 630.3,732.98 306.97,269.2 -446.01,1029.56 -19.14,1635.96 75.11,106.6 1204.51,954.3 1204.51,954.3 995.5,-362.1 2135,1441.9 2908,1092.2 l 355,-273.6 c -86.8,-405.1 -497.4,-5277.9 -469.7,-5398.56 64.5,-281.26 1105.2,-1019.84 1760.4,-2483.35 361.3,-807.15 514.9,-1555.2 576.4,-2298.56 -946.4,-1028.65 -2190.1,-1628.65 -3530.2,-1628.65 -898.5,0 -1763.8,272.91 -2503.2,765.66 -10.6,878.47 -211.4,1993.56 -1004.1,3187.62 -925.21,1393.5 -394.8,3089.62 91.73,3714" /></g><g
         transform="scale(1.58925)"
         id="g130"><path
           id="path132"
           style="fill:#e4f4f2;fill-opacity:1;fill-rule:nonzero;stroke:none"
           d="m 16198.3,14738.3 c 0,0 -272.4,-1237.4 -319.3,-2687.4 -46.7,-1449.9 -197.7,-2476.92 -197.7,-2476.92 0,0 338.1,127.35 478.4,249.74 140.3,122.45 38.6,4914.58 38.6,4914.58" /></g><g
         transform="scale(1.96432)"
         id="g134"><path
           id="path136"
           style="fill:#e4f4f2;fill-opacity:1;fill-rule:nonzero;stroke:none"
           d="m 13969.1,7760.2 c -3.8,-78.81 22.5,-187.19 23.8,-192.79 64.5,-281.27 1098.6,-1009.87 1753.8,-2473.33 357.1,-797.68 490.2,-1544.25 553.3,-2281.25 -361.7,-412.97 -829.2,-761.74 -1519,-1152.71 320.3,596.08 766,1379.56 698.4,2246.73 -154.7,1984.76 -1394.9,2670.29 -1823.7,2689.23 0,0 -626.6,-286.21 -1761.9,-607.9 -1135.3,-321.64 -2078.13,-517.17 -2078.13,-517.17 0,0 -263.61,-317.16 -527.62,-372.3 -5.49,8.3 -15.02,20.06 -20.56,28.41 -108.28,163.06 -198.6,325.36 -269.41,494.52 L 13969.1,7760.2" /></g><g
         transform="scale(1.2611)"
         id="g138"><path
           id="path140"
           style="fill:#e4f4f2;fill-opacity:1;fill-rule:nonzero;stroke:none"
           d="m 15934.8,15183.5 c 0,0 365.2,-519.8 169.3,-942.7 -165,-356.5 -1127.4,-357.3 -1276.2,-129.6 0,0 137.6,1490.8 1106.9,1072.3" /></g><g
         transform="scale(1.24309)"
         id="g142"><path
           id="path144"
           style="fill:#a8412c;fill-opacity:1;fill-rule:nonzero;stroke:none"
           d="m 15830.7,15807.7 c 0,0 469.3,-403.8 446.9,-800 -15.3,-270.3 -204.6,-502 -476,-605.4 -321.3,-122.4 -758.9,-88.6 -758.9,-88.6 0,0 -153.9,718.3 34.1,1002.6 214.3,323.9 753.9,491.4 753.9,491.4" /></g><g
         transform="scale(1.24299)"
         id="g146"><path
           id="path148"
           style="fill:#993120;fill-opacity:1;fill-rule:nonzero;stroke:none"
           d="m 15539.4,14421.7 c 319.2,121.7 541.9,394.3 559.9,712.2 13.8,245.7 -114.9,495.2 -267.4,674.9 49.4,-40.9 468.1,-423.5 446.9,-797.9 -15.3,-270.4 -204.6,-502.1 -476,-605.5 -321.4,-122.5 -759,-88.7 -759,-88.7 0,0 -0.6,2.9 -0.9,4.8 157.8,12.4 338.9,40.2 496.5,100.2" /></g><g
         transform="scale(2.39815)"
         id="g150"><path
           id="path152"
           style="fill:#001128;fill-opacity:1;fill-rule:nonzero;stroke:none"
           d="m 13072.1,11229 c -1001.8,1139 -159.5,1909.5 -306.7,2984.7 -21.3,155.5 -55.3,300 -99,435 358.5,-484.3 159.5,-1421.4 159.5,-1421.4 -128.8,-914.8 -118.4,-1255.3 482.3,-2066.5 380.1,-513.3 669.5,-1116.5 575.5,-1563.4 0,0 -35.5,749.3 -811.6,1631.6 z m 264,20.8 c -895.1,988.4 -190.3,2046.4 -306.6,2883.1 -219.8,1580.4 -1519.5,2167.1 -2826.2,1937.4 -1205.69,-212 -1521.9,-1085.8 -1626.52,-1468 -37.99,-138.6 4.21,-285.7 111.55,-384.2 179.05,-164.3 526.74,-404.8 1104.22,-513.4 299.75,-56.4 573.95,-325.2 627.15,-701.5 41.1,-290.6 220.2,-371.9 220.2,-371.9 0,0 -50.4,330.6 37.2,519.3 104.3,225 355.3,297.5 473.1,128.6 173,-248.1 178.1,-680.8 -192.9,-1009.8 0,0 -339.4,-920.8 539.1,-1421.2 494.1,-281.5 513.7,-580.4 581.2,-1170.23 128.4,-1120.41 -238.1,-1437.45 -686.9,-3590.07 0,0 1760.2,164.26 2653.5,2075.31 376,804.37 338.7,1930.79 -708.1,3086.59" /></g><g
         transform="scale(1.78953)"
         id="g154"><path
           id="path156"
           style="fill:#a8412c;fill-opacity:1;fill-rule:nonzero;stroke:none"
           d="m 9674.57,6811.46 c 107.79,48.34 280.4,51.91 917.33,22.47 0,0 3530,1631.94 3675.6,1923.19 152.3,304.6 0.1,3097.58 69.8,3961.48 80.5,996.9 514,1729.2 1062.7,1686.7 532.4,-41.5 900,-648.3 900,-1728.3 -0.1,-1388 -502,-4259.86 -784.6,-4792.01 C 15298.7,7477.17 10765,6133.01 10765,6133.01 c 0,0 -499.9,-339.92 -689.5,-378.92 -189.76,-39.06 -550.3,41.01 -695.15,375.46 -81.92,189.16 74.88,583.45 294.22,681.91" /></g><g
         transform="scale(1.80006)"
         id="g158"><path
           id="path160"
           style="fill:#993120;fill-opacity:1;fill-rule:nonzero;stroke:none"
           d="m 10016.1,5720.44 c -188.62,-38.84 -547.06,40.77 -691.05,373.2 -13.17,30.45 -19.56,66.62 -21.06,105.61 517.04,-694.03 1287.51,11.23 1349.41,42.17 61.9,31 3035.6,908.75 4233.2,1631.39 1183.3,714.04 1413.4,6038.59 516.8,6434.59 735.6,-126.2 800.8,-1323.9 800.8,-1704.5 0,-1379.9 -499,-4234.93 -780.1,-4764.03 -215.3,-405.43 -4722.5,-1741.72 -4722.5,-1741.72 0,0 -497,-337.94 -685.5,-376.71" /></g></g></g></svg>