<?xml version="1.0" encoding="UTF-8" standalone="no"?>
<svg
   xmlns:dc="http://purl.org/dc/elements/1.1/"
   xmlns:cc="http://creativecommons.org/ns#"
   xmlns:rdf="http://www.w3.org/1999/02/22-rdf-syntax-ns#"
   xmlns:svg="http://www.w3.org/2000/svg"
   xmlns="http://www.w3.org/2000/svg"
   viewBox="0 0 2829.3333 2829.3333"
   height="2829.3333"
   width="2829.3333"
   xml:space="preserve"
   id="svg2"
   version="1.1"><metadata
     id="metadata8"><rdf:RDF><cc:Work
         rdf:about=""><dc:format>image/svg+xml</dc:format><dc:type
           rdf:resource="http://purl.org/dc/dcmitype/StillImage" /></cc:Work></rdf:RDF></metadata><defs
     id="defs6" /><g
     transform="matrix(1.3333333,0,0,-1.3333333,0,2829.3333)"
     id="g10"><g
       transform="scale(0.1)"
       id="g12"><g
         transform="scale(1.12388)"
         id="g14"><path
           id="path16"
           style="fill:#fcd6a7;fill-opacity:1;fill-rule:nonzero;stroke:none"
           d="m 8066.64,1227.44 c -1309.21,0 -2369.56,67.54 -2409.36,247.89 -88.09,399.51 2037.63,621.86 2037.63,621.86 C 744.041,2357.01 2208.93,3337 4322.43,3449.38 c 270.85,14.42 894.51,31.94 1662.71,49.92 471.37,-112.91 840.03,-132.58 840.03,-132.58 0,0 186.01,161.32 906.94,161.32 159.96,0 346.37,-7.92 562.82,-27.41 -69.31,2.58 -140.51,3.83 -213.16,3.83 -698.81,0 -1265.14,-120.74 -1265.14,-269.87 0,-149.04 566.33,-269.87 1265.14,-269.87 698.54,0 1264.93,120.83 1264.93,269.87 0,66.91 -113.98,128.04 -302.79,175.19 274.58,-30.16 545.61,-43.06 808.36,-43.06 734.23,0 1404.23,101.08 1909.93,209.45 4537.8,-256.88 1534.1,-1219.16 1534.1,-1219.16 1365.8,-168.88 621.2,-740.2 -738.2,-911.31 -941.8,-118.51 -2900.42,-218.26 -4491.46,-218.26 m 3597.96,1073.51 c -184,0 -333.4,-31.94 -333.4,-71.18 0,-39.24 149.4,-71.09 333.4,-71.09 184.2,0 333.5,31.85 333.5,71.09 0,39.24 -149.3,71.18 -333.5,71.18 m -614.5,494.27 c -437.2,0 -791.6,-75.63 -791.6,-168.88 0,-93.25 354.4,-168.88 791.6,-168.88 437,0 791.3,75.63 791.3,168.88 0,93.25 -354.3,168.88 -791.3,168.88" /></g><path
         id="path18"
         style="fill:#fabc72;fill-opacity:1;fill-rule:nonzero;stroke:none"
         d="m 13109.7,2426.1 c -206.9,0 -374.7,35.8 -374.7,79.9 0,44.1 167.8,80 374.7,80 207,0 374.8,-35.9 374.8,-80 0,-44.1 -167.8,-79.9 -374.8,-79.9" /><path
         id="path20"
         style="fill:#fabc72;fill-opacity:1;fill-rule:nonzero;stroke:none"
         d="m 12419,2761.9 c -491.3,0 -889.6,85 -889.6,189.8 0,104.8 398.3,189.8 889.6,189.8 491.2,0 889.4,-85 889.4,-189.8 0,-104.8 -398.2,-189.8 -889.4,-189.8" /><path
         id="path22"
         style="fill:#fabc72;fill-opacity:1;fill-rule:nonzero;stroke:none"
         d="m 9082.97,3332 c -785.38,0 -1421.87,135.8 -1421.87,303.3 0,167.6 636.49,303.3 1421.87,303.3 81.65,0 161.67,-1.4 239.56,-4.3 176.98,-15.8 371.8,-38.5 586.3,-69.6 85.38,-12.3 170.57,-23.1 255.47,-32.5 212.2,-53 340.3,-121.7 340.3,-196.9 0,-167.5 -636.55,-303.3 -1421.63,-303.3" /><g
         transform="scale(1.2553)"
         id="g24"><path
           id="path26"
           style="fill:#7bd0e3;fill-opacity:1;fill-rule:nonzero;stroke:none"
           d="m 6110.64,3014.26 c 0,0 -2688.5,143.94 -2529.53,1958.89 158.98,1814.94 -635.89,2614.75 -847.88,2916.98 -211.91,302.24 -344.42,1375.29 847.88,2024.46 1192.31,649.11 -278.2,2146.11 -370.96,2914.51 -92.69,768.4 357.69,1404.3 1324.8,1603 967.12,198.7 1346,622.6 1546.98,834.6 201.04,212 1637.78,1033.3 2456.49,-582.9 818.77,-1616.2 1609.98,-1510.3 2113.88,-1523.5 503.8,-13.3 1107.2,-530.3 705.3,-2133.2 -401.9,-1603.02 569.2,-1488.06 845,-1449.2 689,96.94 1922.1,-1386.4 -184.2,-2349.44 0,0 -1576.2,-886.24 125.2,-1677.6 1413.1,-657.14 -469.2,-2026.61 -932.8,-2172.31 -463.7,-145.7 -1852.89,-511.83 -3317.22,-299.85 -1464.21,211.98 -1782.94,-64.44 -1782.94,-64.44" /></g><path
         id="path28"
         style="fill:#bde7e5;fill-opacity:1;fill-rule:nonzero;stroke:none"
         d="m 4497.23,12446.8 c 0.16,0.1 0.38,0.2 0.54,0.3 -0.19,-0.1 -0.36,-0.2 -0.54,-0.3 m 2.1,1.2 c 0.31,0.1 0.54,0.3 0.85,0.4 -0.36,-0.2 -0.49,-0.2 -0.85,-0.4 m 1.93,1 c 0.46,0.3 0.92,0.5 1.38,0.8 -0.45,-0.3 -0.93,-0.5 -1.38,-0.8 m 1.87,1 c 0.72,0.4 1.4,0.8 2.12,1.2 -0.73,-0.4 -1.4,-0.8 -2.12,-1.2 m 2.23,1.3 c 840.37,464.8 609.14,1270.5 231.77,2056.2 0.04,0 0.08,0 0.12,0 377.39,-785.6 608.4,-1591.4 -231.89,-2056.2" /><path
         id="path30"
         style="fill:#5cc5d1;fill-opacity:1;fill-rule:nonzero;stroke:none"
         d="m 7670.7,3783.8 c 0,0 -3183.23,170.4 -3183.83,2267.3 -0.02,62.2 2.76,126.1 8.51,191.7 17.93,204.7 26.19,399.1 26.19,583.7 -0.02,1870 -848.34,2732.7 -1090.54,3078 -94.04,134.1 -175.62,389.2 -175.68,698.9 -0.1,566.4 272.44,1315.6 1240.03,1842.4 0.62,0.3 1.23,0.7 1.85,1 0.18,0.1 0.35,0.2 0.54,0.3 0.51,0.3 1.04,0.6 1.56,0.9 0.36,0.2 0.49,0.2 0.85,0.4 0.36,0.2 0.72,0.4 1.08,0.6 0.45,0.3 0.93,0.5 1.38,0.8 0.16,0.1 0.33,0.2 0.49,0.2 0.72,0.4 1.39,0.8 2.12,1.2 l 0.11,0.1 c 840.29,464.8 609.28,1270.6 231.89,2056.2 119.43,-8.1 238.85,-16.6 358.18,-25.3 723.2,-52.6 1450.99,-106.4 2159.29,-270.6 719.02,-166.8 1384.94,-430.4 1977.18,-877.3 577.05,-435.5 1172.3,-910.4 1671.6,-1434 494.6,-518.7 947.4,-1061.2 1513.4,-1506.5 477.8,-376 980.9,-719.1 1557.1,-926.6 419.3,-150.9 874.9,-244.8 1327.7,-288.6 -68.5,-35.3 -139.9,-70.3 -215,-104.7 v 0 c 0,0 -834.5,-469.2 -834.6,-1070.2 0,-324.5 243.1,-687.4 991.8,-1035.7 469,-218.1 648.9,-498.7 648.9,-796.9 0,-829.7 -1391.8,-1795.4 -1819.9,-1930 -456.7,-143.5 -1628.6,-457.3 -3000.1,-457.3 -295.3,0 -599.9,14.5 -908.5,48.4 -84.9,9.4 -170.09,20.2 -255.47,32.5 -214.5,31.1 -409.32,53.8 -586.3,69.6 -243.26,21.9 -452.76,30.8 -632.54,30.8 -810.24,0 -1019.29,-181.3 -1019.29,-181.3" /><g
         transform="scale(1.13477)"
         id="g32"><path
           id="path34"
           style="fill:#ffffff;fill-opacity:1;fill-rule:nonzero;stroke:none"
           d="m 3498,14204.4 c 0,0 2460.99,959.1 6119.78,-835.4 0,0 638.22,-374.4 1403.32,-249.1 0,0 775.5,234.5 317.3,747.4 -458.3,512.9 -952.5,-131.9 -1275,14.6 0,0 287.3,1509.5 -1116.59,1978.5 0,0 -409.62,87.9 -760.22,-234.5 0,0 -191.57,-293.1 0,-791.4 0,0 -1492.39,1465.5 -2914.63,600.9 0,0 -408.82,-310.2 131.21,-703.5 0,0 -1128.41,88 -1905.17,-527.5" /></g><g
         transform="scale(1.00366)"
         id="g36"><path
           id="path38"
           style="fill:#ffffff;fill-opacity:1;fill-rule:nonzero;stroke:none"
           d="m 14657.6,11896.5 c 0,0 -1059.7,-149.1 -1634.8,472.2 -575.2,621.4 -1067.8,1002.9 -1531.3,703.1 -463.6,-299.8 881.6,-1523.3 2845,-1423.9 1963.5,99.5 741.7,360.4 321.1,248.6" /></g><path
         id="path40"
         style="fill:#73cc7e;fill-opacity:1;fill-rule:nonzero;stroke:none"
         d="m 5044.9,2299.5 c 76.3,31.4 168.09,69.5 268.74,108.1 36.35,6.1 72.79,11.4 109.72,13.8 140.03,8.9 242.73,-51.5 373.69,-84 54.76,-13.6 266.02,-73.5 287.55,20.7 7.5,33.1 -13.15,57.3 -42.09,75.5 -11.5,12.3 -26.22,22.1 -42.2,30.3 -30.01,21.4 -69.57,32.6 -103.58,42.3 -25.24,7.1 -48.91,14.3 -71.91,26.8 l -2.43,1.4 c -2.15,1.8 -4.58,3.1 -6.43,5.2 -2.64,3 -10.63,13.2 -14.33,22.5 173.25,40.3 344.65,60.5 490.71,36.8 382.66,-62.3 734.51,-232.9 809.35,-158 49.21,49.1 -89.64,130.4 -190.88,180.5 -15.01,15.5 -23.1,33.6 -0.2,51.9 3.02,2.3 6.43,4 9.64,6 207.17,24.2 395.81,28.6 565.46,20.6 7.01,-3.2 14.42,-5.7 21.24,-9.3 118.58,-62.6 228.6,-142.2 357.81,-182.6 122.87,-38.4 252.37,-63.7 381.28,-70.2 83.9,-4.3 183.49,11.5 269.91,-7.3 -3.7,-4.8 -9.06,-11.4 -16.08,-19.3 -8.28,-1.4 -15.87,-6.4 -18.99,-16.7 -0.69,-2.3 -1.85,-4.2 -2.64,-6.4 -23.58,-24 -57.97,-55.5 -106.11,-92.7 -15.88,-6.6 -32.55,-12.4 -49.3,-17.6 -201.51,-12 -398.74,-46.4 -559.51,-164.5 -172.18,-71.6 -293.2,-222.5 -450.08,-314.5 -818.12,-253.3 -1000.24,-35.3 -585.73,68.3 432.45,108.1 382.56,307.7 124.73,316 -257.73,8.3 -375.83,-274.4 -631.91,-291 -62.45,-4.1 -182.89,10.7 -324.67,37 55.25,92.7 225.48,223.8 47.26,268.6 -72.59,18.2 -163.7,0 -228.5,-33.9 -100.85,-52.6 -193.91,-104.3 -299.73,-119.7 -297.1,87.7 -522.48,192.6 -369.79,255.4" /><g
         transform="scale(1.17117)"
         id="g42"><path
           id="path44"
           style="fill:#addf88;fill-opacity:1;fill-rule:nonzero;stroke:none"
           d="m 16069.1,2785.41 c -115.5,42.02 -254.3,92.9 -406.3,144.13 -54.4,6.84 -109.1,12.47 -164,13.67 -208.8,4.78 -357.9,-91.37 -550.6,-147.8 -80.7,-23.57 -391.1,-125.77 -428.9,12.97 -13.1,48.76 16.1,86.07 58,114.76 16.4,19.21 37.6,34.67 60.8,47.65 43.3,33.81 101.5,52.93 151.4,69.33 37.1,12.12 71.9,24.42 105.4,44.4 1.2,0.68 2.3,1.53 3.5,2.22 3.1,2.73 6.6,4.95 9.1,8.11 3.9,4.61 15.2,20.24 20,34.32 -260.1,49.36 -516.2,68.74 -731.9,24.43 -565.2,-116.21 -1078,-391.49 -1193.9,-284.85 -76.1,70.02 125.3,199.46 272.8,280.23 21.3,23.91 32.3,51.4 -3,77.11 -4.5,3.24 -9.7,5.63 -14.6,8.45 -309.6,23.14 -590.4,18.1 -842.2,-4.27 -10.3,-5.21 -21.1,-9.39 -31,-15.2 -172.6,-100.32 -331.2,-225.59 -520.8,-293.64 -180.4,-64.72 -371.3,-110.23 -562.7,-127.9 -124.5,-11.44 -273.6,5.89 -400.9,-27.5 5.8,-6.83 14.2,-16.39 25.1,-27.66 12.3,-1.54 24,-8.54 29.3,-23.65 1.2,-3.33 2.9,-6.15 4.3,-9.31 36.6,-34.32 89.6,-78.98 163.5,-131.32 24,-8.96 49.1,-16.4 74.5,-23.06 300.3,-5.55 595.8,-44.57 842.1,-210.3 260.4,-95.71 449.7,-312.85 688.6,-439.81 1232.2,-326.26 1489.7,9.13 866.8,137.72 -649.6,134.06 -587.7,433.93 -204.9,462.19 382.8,28.17 575.7,-384.91 957.6,-393.8 93.2,-2.21 271.4,27.16 480.5,75.06 -87.9,134.39 -349.2,318.91 -86.7,396.52 106.8,31.51 243.5,10 341.8,-36.28 153.2,-71.98 294.8,-143.11 453.1,-159.59 436.3,148.83 765.1,318.74 534.2,402.67" /></g><g
         transform="scale(1.15236)"
         id="g46"><path
           id="path48"
           style="fill:#73cc7e;fill-opacity:1;fill-rule:nonzero;stroke:none"
           d="m 15331.4,10282.9 c 0,0 665,728.3 791,1050.6 125.9,322.2 177.6,721.7 177.6,721.7 0,0 -570.7,-369.1 -968.6,-1772.3" /></g><g
         transform="scale(1.18698)"
         id="g50"><path
           id="path52"
           style="fill:#addf88;fill-opacity:1;fill-rule:nonzero;stroke:none"
           d="m 14829.2,9876.46 c 0,0 812.2,297.54 1040.5,497.34 228.4,199.8 430.3,489.6 430.3,489.6 0,0 -593.4,-56.1 -1470.8,-986.94" /></g><g
         transform="scale(1.17575)"
         id="g54"><path
           id="path56"
           style="fill:#addf88;fill-opacity:1;fill-rule:nonzero;stroke:none"
           d="m 14717.5,9458.74 c 0,0 847.1,211.45 1098,387.47 250.7,175.99 484.5,445.29 484.5,445.29 0,0 -601.8,7.3 -1582.5,-832.76" /></g><g
         transform="scale(1.17089)"
         id="g58"><path
           id="path60"
           style="fill:#addf88;fill-opacity:1;fill-rule:nonzero;stroke:none"
           d="m 14582.4,9030.66 c 0,0 875.5,49.27 1155.9,175.76 280.4,126.57 561.7,348.2 561.7,348.2 0,0 -592.3,120.37 -1717.6,-523.96" /></g><g
         transform="scale(1.17814)"
         id="g62"><path
           id="path64"
           style="fill:#addf88;fill-opacity:1;fill-rule:nonzero;stroke:none"
           d="m 14335.6,8252.75 c 0,0 988.2,113.4 1311.3,274.07 323.2,160.6 653.1,428.31 653.1,428.31 0,0 -659.4,95.91 -1964.4,-702.38" /></g><g
         transform="scale(1.16566)"
         id="g66"><path
           id="path68"
           style="fill:#addf88;fill-opacity:1;fill-rule:nonzero;stroke:none"
           d="m 14355.1,7565.52 c 0,0 991.3,167.55 1308.9,347.02 317.5,179.47 636,467.37 636,467.37 0,0 -670.6,61.43 -1944.9,-814.39" /></g><g
         transform="scale(1.16791)"
         id="g70"><path
           id="path72"
           style="fill:#addf88;fill-opacity:1;fill-rule:nonzero;stroke:none"
           d="m 14267.5,7008.14 c 0,0 1003,33.39 1341,168.5 338,135.11 691.5,377.34 691.5,377.34 0,0 -655.2,150.27 -2032.5,-545.84" /></g><g
         transform="scale(1.16455)"
         id="g74"><path
           id="path76"
           style="fill:#addf88;fill-opacity:1;fill-rule:nonzero;stroke:none"
           d="m 14250.5,6390.99 c 0,0 1006.3,12.19 1348.2,140.48 341.7,128.29 701.3,363.66 701.3,363.66 0,0 -653.7,164.62 -2049.5,-504.14" /></g><g
         transform="scale(1.16047)"
         id="g78"><path
           id="path80"
           style="fill:#addf88;fill-opacity:1;fill-rule:nonzero;stroke:none"
           d="m 14243.2,5785.83 c 0,0 1009.9,12.24 1352.9,141.07 343,128.74 703.9,364.93 703.9,364.93 0,0 -656.1,165.11 -2056.8,-506" /></g><g
         transform="scale(1.14687)"
         id="g82"><path
           id="path84"
           style="fill:#addf88;fill-opacity:1;fill-rule:nonzero;stroke:none"
           d="m 14218.8,5201.49 c 0,0 1021.9,12.38 1368.9,142.73 347.1,130.27 712.3,369.27 712.3,369.27 0,0 -663.8,167.15 -2081.2,-512" /></g><g
         transform="scale(1.13044)"
         id="g86"><path
           id="path88"
           style="fill:#addf88;fill-opacity:1;fill-rule:nonzero;stroke:none"
           d="m 14188.7,4664.57 c 0,0 1036.6,12.48 1388.8,144.81 352,132.08 722.5,374.55 722.5,374.55 0,0 -673.5,169.58 -2111.3,-519.36" /></g><g
         transform="scale(1.10375)"
         id="g90"><path
           id="path92"
           style="fill:#addf88;fill-opacity:1;fill-rule:nonzero;stroke:none"
           d="m 14137.6,4126.46 c 0,0 1061.7,12.87 1422.4,148.31 360.6,135.27 740,383.6 740,383.6 0,0 -689.8,173.77 -2162.4,-531.91" /></g><g
         transform="scale(1.04454)"
         id="g94"><path
           id="path96"
           style="fill:#addf88;fill-opacity:1;fill-rule:nonzero;stroke:none"
           d="m 14410.8,3873.76 c 0,0 899.9,-180.17 1220.2,-126.85 320.3,53.33 669,202.01 669,202.01 0,0 -564.3,276.19 -1889.2,-75.16" /></g><path
         id="path98"
         style="fill:#73cc7e;fill-opacity:1;fill-rule:nonzero;stroke:none"
         d="m 14444.9,4954 c 0,0 221.4,-560.4 352.6,-690.1 131.2,-129.7 314.6,-217.2 314.6,-217.2 0,0 -65.9,448.1 -667.2,907.3" /><g
         transform="scale(1.08809)"
         id="g100"><path
           id="path102"
           style="fill:#73cc7e;fill-opacity:1;fill-rule:nonzero;stroke:none"
           d="m 16186.1,10774.1 c 0,0 113.9,780 52.8,1049.8 -61.1,269.7 -205.8,557.3 -205.8,557.3 0,0 -212.5,-500.1 153,-1607.1" /></g><g
         transform="scale(1.06138)"
         id="g104"><path
           id="path106"
           style="fill:#73cc7e;fill-opacity:1;fill-rule:nonzero;stroke:none"
           d="m 16300,10458.6 c 0,0 -66.3,805.5 -189.5,1060.8 -123.2,255.4 -334.2,509.2 -334.2,509.2 0,0 -96.7,-548.4 523.7,-1570" /></g><g
         transform="scale(1.05053)"
         id="g108"><path
           id="path110"
           style="fill:#73cc7e;fill-opacity:1;fill-rule:nonzero;stroke:none"
           d="m 16300,10046.9 c 0,0 -285.3,765 -475.1,979.5 -189.8,214.5 -464.5,403.5 -464.5,403.5 0,0 56.2,-559.9 939.6,-1383" /></g><g
         transform="scale(1.03615)"
         id="g112"><path
           id="path114"
           style="fill:#73cc7e;fill-opacity:1;fill-rule:nonzero;stroke:none"
           d="m 16300,9388.67 c 0,0 -536.7,954.43 -827.9,1188.33 -291.1,233.9 -685.2,407 -685.2,407 0,0 197.6,-745.4 1513.1,-1595.33" /></g><g
         transform="scale(1.02657)"
         id="g116"><path
           id="path118"
           style="fill:#73cc7e;fill-opacity:1;fill-rule:nonzero;stroke:none"
           d="m 16300,8618.11 c 0,0 -541.8,963.4 -835.6,1199.53 -293.9,236.06 -691.6,410.76 -691.6,410.76 0,0 199.4,-752.28 1527.2,-1610.29" /></g><g
         transform="scale(1.02464)"
         id="g120"><path
           id="path122"
           style="fill:#73cc7e;fill-opacity:1;fill-rule:nonzero;stroke:none"
           d="m 16300,7992.33 c 0,0 -727.8,834.63 -1064.1,1006.31 -336.3,171.76 -762.2,262.13 -762.2,262.13 0,0 349,-697.41 1826.3,-1268.44" /></g><g
         transform="scale(1.01812)"
         id="g124"><path
           id="path126"
           style="fill:#73cc7e;fill-opacity:1;fill-rule:nonzero;stroke:none"
           d="m 16300,7319.06 c 0,0 -732.4,839.97 -1070.9,1012.84 -338.5,172.77 -767.1,263.73 -767.1,263.73 0,0 351.1,-701.89 1838,-1276.57" /></g><g
         transform="scale(1.01473)"
         id="g128"><path
           id="path130"
           style="fill:#73cc7e;fill-opacity:1;fill-rule:nonzero;stroke:none"
           d="m 16300,6602.74 c 0,0 -646.6,810.07 -946.9,975.33 -300.4,165.27 -681.7,250.42 -681.7,250.42 0,0 307.8,-678.81 1628.6,-1225.75" /></g><g
         transform="scale(1.00309)"
         id="g132"><path
           id="path134"
           style="fill:#73cc7e;fill-opacity:1;fill-rule:nonzero;stroke:none"
           d="m 16300,5947.01 c 0,0 -620.2,828.64 -909.6,996.82 -289.5,168.08 -657.5,253.31 -657.5,253.31 0,0 293.6,-695.64 1567.1,-1250.13" /></g><path
         id="path136"
         style="fill:#73cc7e;fill-opacity:1;fill-rule:nonzero;stroke:none"
         d="m 16067.4,5313.2 c 0,0 -620.7,806.4 -909.8,970.5 -289.2,164 -656.5,247.7 -656.5,247.7 0,0 294.6,-676.5 1566.3,-1218.2" /><path
         id="path138"
         style="fill:#73cc7e;fill-opacity:1;fill-rule:nonzero;stroke:none"
         d="m 15684,4575.6 c 0,0 -489.9,764.6 -742,944.4 -252.3,179.8 -586.8,304.3 -586.8,304.3 0,0 199.1,-607.7 1328.8,-1248.7" /><g
         transform="scale(1.08949)"
         id="g140"><path
           id="path142"
           style="fill:#73cc7e;fill-opacity:1;fill-rule:nonzero;stroke:none"
           d="m 16300,11051.2 c 0,0 -862,-1093.43 -1011.4,-3428.83 -149.5,-2335.31 -825.7,-3419.12 -1502.7,-3907.61 v -76.27 c 0,0 1316.4,675.09 1502.7,3252.99 186.3,2577.9 661.1,3503.92 1011.4,4082.62 v 77.1" /></g><path
         id="path144"
         style="fill:#73cc7e;fill-opacity:1;fill-rule:nonzero;stroke:none"
         d="m 5525.87,5466 c 0,0 -853.39,3685.2 -3483.53,5654.6 l -30.69,-22.5 c 0,0 2409.53,-1915.9 3514.22,-5632.1" /><path
         id="path146"
         style="fill:#73cc7e;fill-opacity:1;fill-rule:nonzero;stroke:none"
         d="m 4287.88,8035.5 c 0,0 -412.66,763.9 -1454.12,806.5 -1041.55,42.6 -1197.94,252.8 -1223.86,319.4 0,0 17.25,-1629.8 2677.98,-1125.9" /><path
         id="path148"
         style="fill:#73cc7e;fill-opacity:1;fill-rule:nonzero;stroke:none"
         d="m 3419.58,9466.6 c 0,0 -347.28,538 -1201.55,580 -854.27,42 -984.94,190.5 -1007.06,237.4 0,0 33.43,-1137.8 2208.61,-817.4" /><path
         id="path150"
         style="fill:#73cc7e;fill-opacity:1;fill-rule:nonzero;stroke:none"
         d="m 4241.4,8803.6 c 0,0 -550.64,668.7 48.92,1226.7 0,0 260.46,207.3 207.64,368.7 0,0 969.35,-855.3 -256.56,-1595.4" /><path
         id="path152"
         style="fill:#73cc7e;fill-opacity:1;fill-rule:nonzero;stroke:none"
         d="m 3154.64,10238.6 c 0,0 -364.53,442.6 32.35,812 0,0 172.37,137.1 137.39,244 0,0 641.65,-566.1 -169.74,-1056" /><path
         id="path154"
         style="fill:#73cc7e;fill-opacity:1;fill-rule:nonzero;stroke:none"
         d="m 5085.05,7048.5 c 0,0 -471.82,983.5 485.25,1569 0,0 403.61,209.1 391.91,428.7 0,0 941.38,-1316.8 -877.16,-1997.7" /><path
         id="path156"
         style="fill:#73cc7e;fill-opacity:1;fill-rule:nonzero;stroke:none"
         d="m 5101.91,6462.5 c 0,0 -298.57,1029 -1487.94,1050.4 0,0 -475.21,-21.9 -618.26,163.1 0,0 146.45,-1525.6 2106.2,-1213.5" /><path
         id="path158"
         style="fill:#73cc7e;fill-opacity:1;fill-rule:nonzero;stroke:none"
         d="m 2616.66,10659.7 c 0,0 276.74,694.4 -492.37,828.9 -769,134.5 -702.65,275.5 -718.14,340.3 -15.59,64.7 -424.548,-1226.8 1129.93,-1208.6 l 80.58,39.4" /><path
         id="path160"
         style="fill:#addf88;fill-opacity:1;fill-rule:nonzero;stroke:none"
         d="m 7036.31,3876.7 c 0,0 -1102.94,1812.1 -2624.58,1862 -1521.65,49.9 -735.88,-739.5 0,-931 735.87,-191.5 2230.04,-570.1 2624.58,-931" /><path
         id="path162"
         style="fill:#addf88;fill-opacity:1;fill-rule:nonzero;stroke:none"
         d="m 5579.27,4472.8 c 0,0 -1633.9,176.8 -2120.32,948.9 -486.43,772.2 -698.46,1699.1 -947.91,1859.3 -249.45,160.2 -670.01,-80.5 -673.52,-924.9 -3.89,-934.4 922.97,-2226.5 3741.75,-1883.3" /><path
         id="path164"
         style="fill:#73cc7e;fill-opacity:1;fill-rule:nonzero;stroke:none"
         d="m 7251.26,3739.5 c 0,0 -797.85,763 -1541.42,350.9 -743.58,-412 -65.77,-1089.4 499.68,-768.1 565.45,321.3 905.04,406.1 1041.74,417.2" /><path
         id="path166"
         style="fill:#73cc7e;fill-opacity:1;fill-rule:nonzero;stroke:none"
         d="m 5935.03,4263.9 c 0,0 -1196.78,488.4 -2182.1,151.6 -985.33,-336.7 -424.07,-608.9 473.95,-522.7 898.02,86.2 1582.25,454.1 1708.15,371.1" /><g
         transform="scale(1.12148)"
         id="g168"><path
           id="path170"
           style="fill:#2e817c;fill-opacity:1;fill-rule:nonzero;stroke:none"
           d="m 15763.7,4439.92 c -443.2,42.8 -662.4,-256.36 -662.4,-256.36 1096.2,-368.44 1198.7,320.11 1198.7,320.11 -14.9,-26.66 -93.4,-106.46 -536.3,-63.75" /></g><g
         transform="scale(1.1376)"
         id="g172"><path
           id="path174"
           style="fill:#2e817c;fill-opacity:1;fill-rule:nonzero;stroke:none"
           d="m 15866.3,4844.05 c -358.7,31.65 -534.5,-172.82 -534.5,-172.82 888.8,-258.79 968.2,213.87 968.2,213.87 -11.9,-18.28 -75,-72.69 -433.7,-41.05" /></g><g
         transform="scale(1.06216)"
         id="g176"><path
           id="path178"
           style="fill:#2e817c;fill-opacity:1;fill-rule:nonzero;stroke:none"
           d="m 16012.8,4757.48 c 0,0 287.2,264.84 53.8,550.95 0,0 -103.6,108.74 -70,177.56 0,0 -485.7,-322.36 16.2,-728.51" /></g><g
         transform="scale(1.09323)"
         id="g180"><path
           id="path182"
           style="fill:#2e817c;fill-opacity:1;fill-rule:nonzero;stroke:none"
           d="m 16115.3,5180.05 c 0,0 184.7,170.23 34.6,354.27 0,0 -66.7,69.88 -45,114.16 0,0 -312.5,-207.28 10.4,-468.43" /></g><g
         transform="scale(1.02952)"
         id="g184"><path
           id="path186"
           style="fill:#2e817c;fill-opacity:1;fill-rule:nonzero;stroke:none"
           d="m 15896.2,4907.04 c 0,0 -172.7,122 -153.3,222.43 0,0 -517.6,-546.95 277.3,-976.38 0,0 279.8,423.31 -124,753.95" /></g><g
         transform="scale(1.07518)"
         id="g188"><path
           id="path190"
           style="fill:#2e817c;fill-opacity:1;fill-rule:nonzero;stroke:none"
           d="m 16017.2,4092.14 c -526.2,62.96 -720.6,-372.96 -720.6,-372.96 845.8,-256.98 1003.4,407.28 1003.4,407.28 -74.4,-72.92 -282.8,-34.32 -282.8,-34.32" /></g><g
         transform="scale(1.14552)"
         id="g192"><path
           id="path194"
           style="fill:#2e817c;fill-opacity:1;fill-rule:nonzero;stroke:none"
           d="m 16194.7,5502.3 c -10.1,-25.93 9.4,-88.08 -316.9,-99.87 -326.2,-11.78 -251.3,-315.23 -251.3,-315.23 l 6,-4.01 c -1024.2,-716.18 -1507.7,-1980.94 -1507.7,-1980.94 476.5,1049.83 1173.8,1684.39 1537.2,1963.56 638,-93.23 542.8,462.41 532.7,436.49" /></g><path
         id="path196"
         style="fill:#3ab966;fill-opacity:1;fill-rule:nonzero;stroke:none"
         d="m 3800.97,4375.4 c 434.1,122.5 706.54,-136.3 706.54,-136.3 -1026.64,-564.9 -1252.9,103.1 -1252.9,103.1 19.69,-23.9 112.25,-89.4 546.36,33.2" /><path
         id="path198"
         style="fill:#3ab966;fill-opacity:1;fill-rule:nonzero;stroke:none"
         d="m 3385.77,4788 c 357.02,97.6 572.17,-76.9 572.17,-76.9 -851.54,-424.3 -1018.26,39.2 -1018.26,39.2 15.3,-16.3 89.06,-59.8 446.09,37.7" /><path
         id="path200"
         style="fill:#3ab966;fill-opacity:1;fill-rule:nonzero;stroke:none"
         d="m 4385.13,4548.9 c 0,0 -316.4,201 -144.8,511.1 0,0 79.22,120.3 35.76,179.5 0,0 513.71,-221.4 109.04,-690.6" /><path
         id="path202"
         style="fill:#3ab966;fill-opacity:1;fill-rule:nonzero;stroke:none"
         d="m 3745.13,4993 c 0,0 -209.4,133 -95.88,338.3 0,0 52.52,79.6 23.77,118.8 0,0 339.98,-146.6 72.11,-457.1" /><path
         id="path204"
         style="fill:#3ab966;fill-opacity:1;fill-rule:nonzero;stroke:none"
         d="m 4956.72,4651 c 0,0 137.88,140.2 103.58,229 0,0 564.18,-415 -92.18,-939.6 0,0 -326.33,341.1 -11.4,710.6" /><path
         id="path206"
         style="fill:#3ab966;fill-opacity:1;fill-rule:nonzero;stroke:none"
         d="m 4300.55,3933.6 c 492.07,151.2 753.22,-231.9 753.22,-231.9 -764.04,-391.9 -1029.37,215.8 -1029.37,215.8 83.7,-56.8 276.15,16.1 276.15,16.1" /><path
         id="path208"
         style="fill:#3ab966;fill-opacity:1;fill-rule:nonzero;stroke:none"
         d="m 2812.23,5411.9 c 15.1,-24.5 6.72,-91.4 341.14,-43.3 334.42,48 313.96,-274.8 313.96,-274.8 l -5.46,-5.2 c 1175.14,-540.9 1900.3,-1739.8 1900.3,-1739.8 -678.48,981.4 -1505.57,1499.3 -1927,1716.7 -632.59,-212.4 -638.05,370.9 -622.94,346.4" /><path
         id="path210"
         style="fill:#addf88;fill-opacity:1;fill-rule:nonzero;stroke:none"
         d="m 6382.38,2698.4 c 0,0 -302.07,306.6 -897.43,14.2 0,0 525.4,-241.8 897.43,-14.2" /><path
         id="path212"
         style="fill:#73cc7e;fill-opacity:1;fill-rule:nonzero;stroke:none"
         d="m 5546.92,3112 c 0,0 105.63,-284.1 -653.06,-364.4 0,0 -38.39,362.5 653.06,364.4" /><path
         id="path214"
         style="fill:#addf88;fill-opacity:1;fill-rule:nonzero;stroke:none"
         d="m 5466.24,2776.8 c 0,0 88.18,-290 -674.01,-323.8 0,0 -16.27,364.2 674.01,323.8" /><path
         id="path216"
         style="fill:#addf88;fill-opacity:1;fill-rule:nonzero;stroke:none"
         d="m 4736.6,2726.1 c 0,0 -302.07,306.6 -897.44,14.2 0,0 525.41,-241.8 897.44,-14.2" /><path
         id="path218"
         style="fill:#73cc7e;fill-opacity:1;fill-rule:nonzero;stroke:none"
         d="m 3746.88,3164.1 c 0,0 4.68,-303 740.85,-102.6 0,0 -95.78,351.8 -740.85,102.6" /><path
         id="path220"
         style="fill:#addf88;fill-opacity:1;fill-rule:nonzero;stroke:none"
         d="m 4416.31,2414.9 c 0,0 9.64,-303 -735.1,-137.2 0,0 79.12,355.9 735.1,137.2" /><g
         transform="scale(1.17796)"
         id="g222"><path
           id="path224"
           style="fill:#93cf41;fill-opacity:1;fill-rule:nonzero;stroke:none"
           d="m 16300,2177.67 c 0,0 -256.4,260.28 -761.8,12.05 0,0 446.1,-205.27 761.8,-12.05" /></g><g
         transform="scale(1.13319)"
         id="g226"><path
           id="path228"
           style="fill:#3c6327;fill-opacity:1;fill-rule:nonzero;stroke:none"
           d="m 16206.7,2628.69 c 0,0 93.3,-250.62 -576.2,-321.49 0,0 -34,319.9 576.2,321.49" /></g><g
         transform="scale(1.12716)"
         id="g230"><path
           id="path232"
           style="fill:#93cf41;fill-opacity:1;fill-rule:nonzero;stroke:none"
           d="m 16221.8,2345.45 c 0,0 78.2,-257.28 -598,-287.27 0,0 -14.3,323.12 598,287.27" /></g><g
         transform="scale(1.07699)"
         id="g234"><path
           id="path236"
           style="fill:#93cf41;fill-opacity:1;fill-rule:nonzero;stroke:none"
           d="m 16300,2407.64 c 0,0 -280.4,284.69 -833.3,13.19 0,0 488,-224.52 833.3,-13.19" /></g><g
         transform="scale(1.06172)"
         id="g238"><path
           id="path240"
           style="fill:#3c6327;fill-opacity:1;fill-rule:nonzero;stroke:none"
           d="m 15602.4,2854.81 c 0,0 4.3,-285.39 697.6,-96.64 0,0 -90,331.35 -697.6,96.64" /></g><g
         transform="scale(1.05793)"
         id="g242"><path
           id="path244"
           style="fill:#93cf41;fill-opacity:1;fill-rule:nonzero;stroke:none"
           d="m 16290.9,2156.76 c 0,0 9.1,-286.32 -694.8,-129.6 0,0 74.7,336.41 694.8,129.6" /></g><path
         id="path246"
         style="fill:#f68712;fill-opacity:1;fill-rule:nonzero;stroke:none"
         d="m 13980,2586.1 c 0,0 -302.1,306.7 -897.5,14.2 0,0 525.4,-241.8 897.5,-14.2" /><path
         id="path248"
         style="fill:#f68712;fill-opacity:1;fill-rule:nonzero;stroke:none"
         d="m 13144.5,2999.7 c 0,0 105.6,-284 -653,-364.4 0,0 -38.4,362.6 653,364.4" /><path
         id="path250"
         style="fill:#f9a72b;fill-opacity:1;fill-rule:nonzero;stroke:none"
         d="m 13063.8,2664.5 c 0,0 88.2,-289.9 -674,-323.8 0,0 -16.2,364.3 674,323.8" /><path
         id="path252"
         style="fill:#f68712;fill-opacity:1;fill-rule:nonzero;stroke:none"
         d="m 12334.2,2613.8 c 0,0 -302.1,306.7 -897.4,14.3 0,0 525.4,-241.9 897.4,-14.3" /><path
         id="path254"
         style="fill:#f9a72b;fill-opacity:1;fill-rule:nonzero;stroke:none"
         d="m 11344.5,3051.9 c 0,0 4.7,-303.1 740.8,-102.7 0,0 -95.8,351.8 -740.8,102.7" /><path
         id="path256"
         style="fill:#f9a72b;fill-opacity:1;fill-rule:nonzero;stroke:none"
         d="m 12013.9,2302.6 c 0,0 9.6,-302.9 -735.1,-137.1 0,0 79.1,355.8 735.1,137.1" /><g
         transform="scale(1.19545)"
         id="g258"><path
           id="path260"
           style="fill:#addf88;fill-opacity:1;fill-rule:nonzero;stroke:none"
           d="m 14598.8,3263.36 c 0,0 452.6,743.57 1076.8,763.98 624.4,20.49 302,-303.4 0,-381.95 -301.9,-78.63 -915,-233.97 -1076.8,-382.03" /></g><g
         transform="scale(1.22725)"
         id="g262"><path
           id="path264"
           style="fill:#addf88;fill-opacity:1;fill-rule:nonzero;stroke:none"
           d="m 14802.9,3417.08 c 0,0 653.1,70.65 847.5,379.31 194.4,308.58 279.1,679.08 378.8,743.13 99.8,64.04 267.9,-32.19 269.3,-369.69 1.5,-373.44 -369,-889.88 -1495.6,-752.75" /></g><g
         transform="scale(1.13298)"
         id="g266"><path
           id="path268"
           style="fill:#73cc7e;fill-opacity:1;fill-rule:nonzero;stroke:none"
           d="m 15310.7,3383.92 c 0,0 345.5,330.37 667.4,151.99 321.9,-178.47 28.5,-471.67 -216.3,-332.57 -244.9,139.1 -391.9,175.82 -451.1,180.58" /></g><g
         transform="scale(1.19914)"
         id="g270"><path
           id="path272"
           style="fill:#73cc7e;fill-opacity:1;fill-rule:nonzero;stroke:none"
           d="m 15004.4,3411.71 c 0,0 489.5,199.81 892.6,62.04 403,-137.68 173.5,-249.01 -193.8,-213.82 -367.4,35.28 -647.3,185.8 -698.8,151.78" /></g><g
         transform="scale(1.22515)"
         id="g274"><path
           id="path276"
           style="fill:#321728;fill-opacity:1;fill-rule:nonzero;stroke:none"
           d="m 7995.94,14210.4 c 0,0 113.97,-78.1 182.48,45.7 0,0 138.84,-48.7 184.06,73.4 0,0 106.76,9.6 102.19,117 -4.41,107.5 -87.34,106.3 -87.34,106.3 0,0 124.31,-4.3 140.23,134.2 0,0 174.02,83.5 124.31,250.7 0,0 117.54,238.6 -36.24,372.4 0,0 49.22,210.1 -140.39,241.1 0,0 86.19,370.1 -191.9,365.2 0,0 -142.63,181.5 -305.28,81.2 0,0 -36.07,229.2 -268.87,155.2 0,0 -239.59,147.2 -336.06,-78.8 0,0 -195.93,105 -310.47,-31.8 0,0 -170.04,-7.6 -240.87,-176.3 0,0 -308.23,0 -235.05,-242.6 0,0 -242.11,-11.2 -142.7,-230.5 0,0 -195.45,-450.3 48.96,-630.3 0,0 -103.98,-172.2 54.24,-247 0,0 -80.09,-196.4 161.14,-242.8 0,0 96.59,-8.9 123.72,32 0,0 -123.72,-107.3 -4.54,-216.9 0,0 -82.92,-54 -27.88,-179.8 0,0 76.35,-77.6 180.98,8.1 0,0 41.32,-124.3 172.44,-67.1 l 584.61,240.4 c 0,0 129.6,-53.6 210.77,8.5 0,0 66.24,42.1 57.46,112.5" /></g><g
         transform="scale(1.16612)"
         id="g278"><path
           id="path280"
           style="fill:#121428;fill-opacity:1;fill-rule:nonzero;stroke:none"
           d="m 9041.3,16085.2 c 0,0 33.1,141.7 -56.34,214.8 -31.48,-8.5 -63.81,-12.3 -95.62,-10.2 -37.05,-54.9 -102.39,-88.2 -166.37,-65.1 -16.12,5.9 -31.64,15.9 -45.53,28.6 -52.31,-41.9 -123.53,-67.4 -172.25,-41.9 -16.63,-45.7 -97.06,-20.7 -97.06,-20.7 -29.66,-90.2 -149.9,-89.4 -149.9,-89.4 54.36,-191.3 -71.49,-277.6 -71.49,-277.6 0,0 -123.96,-72.2 -282.43,-264.4 -107.76,-130.7 -98.73,-585.7 -72.82,-874.8 h 170.84 c 0,0 172,-76.6 325.21,78.7 0,0 82.43,92.6 73.2,166.6 0,0 119.74,-82 191.72,48.1 0,0 145.87,-51.3 193.37,77.1 0,0 112.17,10.1 107.37,122.9 -4.63,112.9 -91.76,111.7 -91.76,111.7 0,0 130.61,-4.6 147.33,140.9 0,0 182.83,87.8 130.6,263.4 0,0 123.49,250.8 -38.07,391.3" /></g><path
         id="path282"
         style="fill:#bf1b2c;fill-opacity:1;fill-rule:nonzero;stroke:none"
         d="m 7209.22,8035.4 c 0,0 1655.28,-1872.6 2261.85,-2314.3 0,0 322.24,-277.1 1235.33,957.1 0,0 344.8,2195.5 74.6,3737.2 -270.2,1541.7 -3232.35,-1593.6 -3232.35,-1593.6 l -339.43,-786.4" /><path
         id="path284"
         style="fill:#fbc1a1;fill-opacity:1;fill-rule:nonzero;stroke:none"
         d="m 8084.63,2710.2 97.44,-29.2 c 0,0 424.89,22.8 540.46,-402.8 0,0 70.16,-142.9 -56.52,-149.3 -126.67,-6.6 -824.98,-61.8 -1208.22,103.9 0,0 -85.85,67.2 23.68,179.8 109.47,112.5 603.16,297.6 603.16,297.6" /><path
         id="path286"
         style="fill:#121428;fill-opacity:1;fill-rule:nonzero;stroke:none"
         d="m 9792.34,6777.8 395.26,274.9 c 0,0 522.9,-806.9 500.3,-1941.8 -22.6,-1134.9 -56.8,-1809.5 -56.8,-1809.5 0,0 -232.3,-308.6 -398,15.9 -121.9,238.7 -362.32,1540.1 -407,1707.1 -44.72,167 -397.46,1109.5 -285.26,1835.5 l 251.5,-82.1" /><path
         id="path288"
         style="fill:#121428;fill-opacity:1;fill-rule:nonzero;stroke:none"
         d="m 10397.1,12310 c 0,0 866.2,-2274.3 -205.6,-5118.8 0,0 -6.8,-172.1 -611.53,-42.1 0,0 -790.45,3091.9 -257.78,4248.2 532.66,1156.3 1074.91,912.7 1074.91,912.7" /><path
         id="path290"
         style="fill:#121428;fill-opacity:1;fill-rule:nonzero;stroke:none"
         d="m 10122.8,7314.2 c 0,0 165.3,-203 63.8,-737.4 -59.5,-313.3 -196.65,-392.7 -422.13,-350.1 -225.48,42.5 -296.32,1004.4 -115.03,1116.7 181.29,112.3 473.36,-29.2 473.36,-29.2" /><path
         id="path292"
         style="fill:#321728;fill-opacity:1;fill-rule:nonzero;stroke:none"
         d="m 9359.99,10794.3 c 0,0 1002.81,559.5 1069.91,1537.1 0,0 -1545.76,476 -2953.45,-71.6 0,0 766.28,-1889.9 1883.54,-1465.5" /><path
         id="path294"
         style="fill:#121428;fill-opacity:1;fill-rule:nonzero;stroke:none"
         d="m 8340.22,12172.6 c 0,0 885.11,-961.2 1861.38,-551.4 0,0 99.4,6.4 172.2,344 72.8,337.5 -2033.58,207.4 -2033.58,207.4" /><path
         id="path296"
         style="fill:#321728;fill-opacity:1;fill-rule:nonzero;stroke:none"
         d="m 7552.84,12238.2 -76.39,21.6 c 0,0 -948.64,-2123.8 1552.58,-5169.9 0,0 610.18,-93.6 770.86,173.5 0,0 88.28,877.9 -243.17,2316.7 -331.44,1438.9 -755.02,2650.7 -2003.88,2658.1" /><path
         id="path298"
         style="fill:#121428;fill-opacity:1;fill-rule:nonzero;stroke:none"
         d="m 8248.87,12137 55.2,-3 327.11,-4528.3 -201.7,290.7 -180.61,4240.6" /><path
         id="path300"
         style="fill:#321728;fill-opacity:1;fill-rule:nonzero;stroke:none"
         d="m 9774.31,7368.7 c 0,0 116.01,-192.3 -58.12,-721.2 -174.13,-528.9 -650.23,-340 -687.26,-43.3 -37.07,296.7 -31.81,619.4 180.71,764.8 212.62,145.3 564.67,-0.3 564.67,-0.3" /><path
         id="path302"
         style="fill:#321728;fill-opacity:1;fill-rule:nonzero;stroke:none"
         d="m 9595.02,6910 100.9,-317.4 c 0,0 -1290.81,-2346.1 -1602.27,-3461.9 0,0 -227.04,-51.5 -358.05,102.5 0,0 222.5,1557.4 340.99,2357.9 118.44,800.6 923.01,1585.2 923.01,1585.2 L 9595.02,6910" /><path
         id="path304"
         style="fill:#9f4641;fill-opacity:1;fill-rule:nonzero;stroke:none"
         d="m 8113.82,3207.5 c 0,0 -117.96,-349.5 50.95,-526.5 0,0 -282.62,32.5 -470.98,-389.7 l -207.84,45.4 c 0,0 -79.9,-1.6 66.21,300.4 122.83,253.8 213.11,787.6 213.11,787.6 l 348.55,-217.2" /><path
         id="path306"
         style="fill:#7f2c32;fill-opacity:1;fill-rule:nonzero;stroke:none"
         d="m 10637.9,3450.5 c 0,0 18,-728.1 125.1,-966.6 0,0 -311.8,251.2 -675.5,114.8 0,0 164.9,401.2 46.7,1024.5 0,0 411.1,-335.2 503.7,-172.7" /><path
         id="path308"
         style="fill:#fbc1a1;fill-opacity:1;fill-rule:nonzero;stroke:none"
         d="m 9819.04,2182.7 c 0,0 36.83,426.4 422.16,495.3 331.8,59.4 600,-162 664.8,-463.1 32.2,-149.8 -1042.68,-106.1 -1086.96,-32.2" /><path
         id="path310"
         style="fill:#ef2e32;fill-opacity:1;fill-rule:nonzero;stroke:none"
         d="m 10103.6,14822.5 c 0,0 151.1,-681.4 218.2,-829.4 67.2,-147.9 107.5,-995.4 326.9,-1707.2 224.1,-727.3 624.3,-2831.8 381.7,-4548 0,0 -258,-1289.8 -407,-1059.7 -27.4,42.2 645.2,3696.6 -580.6,5845 -8.2,14.3 -156.14,1963 -156.14,1963 l 216.94,336.3" /><path
         id="path312"
         style="fill:#e9e9e9;fill-opacity:1;fill-rule:nonzero;stroke:none"
         d="m 9810.36,15462.6 c 0,0 2.98,4 8.63,10.8 33.47,40 161.85,175.2 344.71,141.4 0,0 -92.1,362.1 -211.56,475.6 -129.89,123.5 -292.81,164.1 -365.06,182.8" /><g
         transform="scale(1.0009)"
         id="g314"><path
           id="path316"
           style="fill:#fde3d6;fill-opacity:1;fill-rule:nonzero;stroke:none"
           d="m 9841.29,14273.7 c 17.52,80.7 132.45,799.9 -17.43,1427.7 -30.32,33.4 -61.33,65.4 -87.62,104.3 -35.82,53.1 -60.69,114.4 -83.67,173.7 45.51,-117.5 -50.67,120.4 -28.76,68.2 -6.63,14.2 -12.13,28.9 -16.46,43.9 -7.55,40.4 -16.6,82 -17.76,123.1 -3.27,14.1 -5.07,28.3 -6.29,42.4 l -0.19,0.3 -155.82,42.7 -1701.73,-59.9 -155.72,15.2 c 0,0 -402.41,-573.4 -220.65,-1352.1 181.7,-778.8 330.95,-960.5 376.37,-1414.8 45.46,-454.3 -255.85,-1239.6 -255.85,-1239.6 0,0 1378.62,-421.8 2624.69,253.1 0,0 -404.2,1076.3 -253.11,1771.8" /></g><path
         id="path318"
         style="fill:#fde3d6;fill-opacity:1;fill-rule:nonzero;stroke:none"
         d="m 9414.95,14500.9 c 0,0 366.28,-150.2 606.45,6.5 240.2,156.7 317.8,445.7 82.1,801.2 -38.4,58 -161.74,241.3 -266.29,402.7 -150.06,231.6 -351.22,525.5 -351.22,525.5 0,0 -647.75,-1331.8 -71.04,-1735.9" /><path
         id="path320"
         style="fill:#fde3d6;fill-opacity:1;fill-rule:nonzero;stroke:none"
         d="m 8195.81,15813.1 c 0,0 -856.75,-1160.8 88.33,-1486.6 0,0 603.89,-230.3 732.86,529.8 95.2,561 -821.19,956.8 -821.19,956.8" /><path
         id="path322"
         style="fill:#fde3d6;fill-opacity:1;fill-rule:nonzero;stroke:none"
         d="m 9850.17,14578.8 c 0,0 750.33,-501.7 909.43,-1481 207.9,-1279.7 -1135.93,-1821.8 -2455.53,-963.8 0,0 -578.02,1476.9 591.22,2360.4 0,0 311.77,246.9 954.88,84.4" /><path
         id="path324"
         style="fill:#fbc1a1;fill-opacity:1;fill-rule:nonzero;stroke:none"
         d="m 10064.4,14399.4 c 0,0 91.3,-672.2 504.8,-695.5 0,0 -305.9,550.2 -504.8,695.5" /><path
         id="path326"
         style="fill:#fbc1a1;fill-opacity:1;fill-rule:nonzero;stroke:none"
         d="m 8463.58,12906.8 h 1515.46 l 381.26,-125.2 156.2,136.1 h 82.1 l 75.5,-136.1 -24.7,-165.3 -16.7,-113.7 c 0,0 -69.8,19.6 -68.8,74.7 1,55.3 -59.7,-87.6 -60.1,-162.3 -0.5,-74.7 -95.1,128.2 -95,143.6 0.2,15.5 -149.7,-107.9 -162.4,-88.4 -12.7,19.5 5.1,116.9 -0.5,133.2 -5.7,16.2 -353.29,165.1 -353.29,165.1 H 8499.24 l -35.66,138.3" /><path
         id="path328"
         style="fill:#fbc1a1;fill-opacity:1;fill-rule:nonzero;stroke:none"
         d="m 10008.7,14481 c 6.8,3 13.6,5.9 20.4,9.4 289,143.7 206.3,516 206.3,516 -114,-452 -753.46,-109.8 -944.16,-129.5 -190.69,-19.8 -486.66,-419 -996.57,-242.8 -310.75,107.6 -352.21,719.9 -352.21,719.9 l -63.53,-95 c -108.3,194.9 -190.54,493.7 -190.54,493.7 51.98,-255.4 0,-528.3 0,-528.3 0,0 38.97,-1667.3 43.02,-1951.1 4.04,-283.8 -254.96,-1013.5 -254.96,-1013.5 260.12,-201.6 870.2,-118.7 870.2,-118.7 l -73.66,361.5 158.97,1293.6 c 0,0 577.29,765.6 876.05,765.6 12.47,0 140.75,-81.1 312.29,-115.7 124.39,40.8 258.71,36.3 388.4,34.9" /><path
         id="path330"
         style="fill:#fbc1a1;fill-opacity:1;fill-rule:nonzero;stroke:none"
         d="m 10144.1,12031.6 c -496.9,-117.9 -1194.92,-120.6 -1480.72,386.7 -142.99,254 -168.18,556.2 -149.28,842.8 19.73,298.9 177.49,581.2 391.18,802.9 288.82,299.7 669.52,431.8 1080.72,407.2 -63.04,52.8 -135.83,107.6 -135.83,107.6 -643.11,162.5 -954.88,-84.4 -954.88,-84.4 -1169.24,-883.5 -591.22,-2360.4 -591.22,-2360.4 948.44,-616.7 1909.43,-510.1 2297.73,73.9 -144.2,-79.5 -299.9,-138.8 -457.7,-176.3" /><g
         transform="scale(1.07228)"
         id="g332"><path
           id="path334"
           style="fill:#7f2c32;fill-opacity:1;fill-rule:nonzero;stroke:none"
           d="m 7611.14,16300 c 0,0 70.7,-595.7 -10.09,-862.3 0,0 -34.35,-189.7 -535.1,-264.4 0,0 537.92,-308.7 1079.11,-276.3 541.16,32.2 654.7,318 654.7,318 0,0 -401.12,91.5 -441.51,228.8 -40.34,137.3 -78.69,518.2 -78.69,518.2 l -668.42,338" /></g><g
         transform="scale(1.04254)"
         id="g336"><path
           id="path338"
           style="fill:#fde3d6;fill-opacity:1;fill-rule:nonzero;stroke:none"
           d="m 7730.74,16230.6 c 0,0 43.64,69.4 137.11,30 93.47,-39.5 426.57,-223 696.17,-218.5 l -10.09,65.1 c 0,0 76.12,11.3 119.77,-65.2 43.6,-76.3 14.95,-158.2 0,-196.8 0,0 353.07,-162.1 404.99,-196.3 51.92,-34.2 265.81,-379 -267.92,-443.4 -533.77,-64.4 -1154.81,47.8 -1221.22,78.9 -66.5,31.2 -191.08,164 -201.45,203.5 -10.38,39.5 -20.8,147.5 -20.8,147.5 l 415.41,228.5 c 0,0 -103.75,241.7 -51.97,366.7" /></g><g
         transform="scale(1.00377)"
         id="g340"><path
           id="path342"
           style="fill:#fbc1a1;fill-opacity:1;fill-rule:nonzero;stroke:none"
           d="m 9341.36,16300 94.15,-56.2 569.59,-1527.3 c 0,0 -96.53,-25.9 -166.82,0 -70.23,25.9 -496.92,1583.5 -496.92,1583.5" /></g><g
         transform="scale(1.17177)"
         id="g344"><path
           id="path346"
           style="fill:#9f4641;fill-opacity:1;fill-rule:nonzero;stroke:none"
           d="m 7130.23,14590 c 0,0 604.56,-347 718.82,-289.9 0,0 220.24,254.5 266.81,384.9 46.57,130.3 100.58,590 69.86,807 -28.49,201.4 -106.32,398.1 -239.38,505.3 -201.45,162.3 -639.94,302.7 -1006.54,-45.8 0,0 -408.8,-401 -130.48,-943.4 0,0 203.42,-125 228.41,-224.9 24.98,-99.9 38.95,-136.1 92.5,-193.2" /></g><g
         transform="scale(1.04978)"
         id="g348"><path
           id="path350"
           style="fill:#f2546a;fill-opacity:1;fill-rule:nonzero;stroke:none"
           d="m 8865.92,16292.2 c 0,0 24.78,-13.1 -0.74,-28.7 -25.57,-15.6 -132.36,8.3 -174.27,36.5 l 175.01,-7.8" /></g><g
         transform="scale(1.05128)"
         id="g352"><path
           id="path354"
           style="fill:#f57684;fill-opacity:1;fill-rule:nonzero;stroke:none"
           d="m 8652.23,16300 c 0,0 6.86,-24 72.86,-36.5 100.93,-18.9 143.39,0.8 163.91,11.3 29.53,15.1 -34.29,13.5 -101.21,5.2 -94.49,-11.7 -135.56,20 -135.56,20" /></g><g
         transform="scale(1.19045)"
         id="g356"><path
           id="path358"
           style="fill:#321728;fill-opacity:1;fill-rule:nonzero;stroke:none"
           d="m 7833.19,15379.5 c 0,0 21.85,63.7 32.4,45.4 0,0 30.58,33.9 48.79,3.3 0,0 45.43,48.9 67.25,12.8 0,0 34.7,16.5 45.14,-24.1 0,0 85.87,240.8 65.81,435.5 -19.97,194.6 -991.48,447.6 -1445.97,-63.6 -130.97,-147.4 -176.72,-527.4 -109.4,-776.6 67.25,-249.2 193.63,-321.9 193.63,-321.9 l 121.3,212.6 c 0,0 49.11,-27.7 110.91,-184.8 0,0 -89.06,321.2 92.82,472.2 0,0 -21.85,31 27.26,45.5 0,0 22.8,94.6 119.63,92.8 0,0 38.63,96.3 162.27,56.4 0,0 21.86,60 121.92,12.7 0,0 41.82,49.1 130.92,-9.1 0,0 16.37,45.4 110.95,10.9 0,0 40.03,29.1 90.94,-16.4 l 13.43,-3.6" /></g><g
         transform="scale(1.0967)"
         id="g360"><path
           id="path362"
           style="fill:#9f4641;fill-opacity:1;fill-rule:nonzero;stroke:none"
           d="m 7486.09,16072.9 c 0,0 -59.23,227.1 -186.41,128 -74.01,-57.6 -19.37,-294.7 76.28,-378.8 95.64,-84.1 176.63,-51.7 176.63,-51.7 0,0 34.56,-13.9 -66.5,302.5" /></g><g
         transform="scale(1.01038)"
         id="g364"><path
           id="path366"
           style="fill:#fde3d6;fill-opacity:1;fill-rule:nonzero;stroke:none"
           d="m 7498.85,16102.9 c 0,0 -700.84,197.1 -631.98,-858.6 51.51,-790.3 581.4,-443 795.01,-186.9 213.57,256 17.85,585.8 -163.03,1045.5" /></g><g
         transform="scale(1.00387)"
         id="g368"><path
           id="path370"
           style="fill:#f14624;fill-opacity:1;fill-rule:nonzero;stroke:none"
           d="m 8146.62,13625.5 c 60.38,482.9 -247.95,1523 -247.95,1523 116.43,1035.3 -112.49,1149.8 -112.49,1149.8 -110.86,1.7 -316.39,-46 -396.04,-76.5 178.99,-135 212.77,-323.6 247.62,-517 33.78,-187.4 44.55,-370.7 13.87,-561.1 -1.45,-9.1 39.17,-33.8 35.63,-40.4 0.29,-8.9 -1.07,-18.4 -5,-28.6 -64.54,-168.2 -178.94,-309.1 -306.09,-434.8 -59.41,-58.8 -118.77,-120.7 -181.8,-178.3 l 253.23,-911 c -339.73,-2040 -342.34,-4024.99 -255.86,-5752.6 10.34,-206.5 1239.19,-1145.57 1239.19,-1145.57 12.91,608.25 -284.31,6973.07 -284.31,6973.07" /></g><path
         id="path372"
         style="fill:#fde3d6;fill-opacity:1;fill-rule:nonzero;stroke:none"
         d="m 6959.52,15263.6 c 0,0 27.63,-812.5 476.3,-1990.3 0,0 443.01,80.3 604.18,194.8 0,0 -92.81,25.7 -125.55,575.9 -30.99,520 -233.71,1227.3 -233.71,1227.3 0,0 -353.81,308.1 -721.22,-7.7" /><path
         id="path374"
         style="fill:#fde3d6;fill-opacity:1;fill-rule:nonzero;stroke:none"
         d="m 7362.44,13146.9 -153.22,802.1 c 0,0 204.14,-23.3 783.28,-208.1 429.62,-137.1 1520.18,-572.5 2029.8,-617.1 0,0 77.1,-108.9 -68.01,-264.9 0,0 -2487.63,-61.1 -2591.85,288" /><path
         id="path376"
         style="fill:#7f2c32;fill-opacity:1;fill-rule:nonzero;stroke:none"
         d="m 10009.4,13084.1 320,2.5 c 57.6,-16 131.9,-43.6 220.2,-54.5 80.5,-10 31.4,-6.3 133.5,-7.9 0,0 38.4,-79.6 -133.5,-75.3 -72.8,1.9 -256,12.8 -263.5,11.6 -7.5,-1.1 -276.7,123.6 -276.7,123.6" /><path
         id="path378"
         style="fill:#9f4641;fill-opacity:1;fill-rule:nonzero;stroke:none"
         d="m 10430.6,12671.1 31.2,-90 c 0,0 -103.5,-74.1 -127.1,-109.1 -23.5,-35.2 -8.8,-48.4 -2.8,-50.4 5.9,-2 185.4,116.7 185.4,116.7 l 9.3,128.6 -68.6,69.9 -27.4,-65.7" /><path
         id="path380"
         style="fill:#9f4641;fill-opacity:1;fill-rule:nonzero;stroke:none"
         d="m 10454.5,12717.9 c 2.8,1.8 115.4,-101.4 115.4,-101.4 l 18.4,-118.6 c 0,0 -26.1,-59.9 -6.3,-112.6 0,0 6.4,-13.9 23.1,-17.7 l 47.5,88.4 16.3,185.6 -142.3,221.2 -72.1,-144.9" /><path
         id="path382"
         style="fill:#9f4641;fill-opacity:1;fill-rule:nonzero;stroke:none"
         d="m 10499.4,13019.8 c 0,0 140.7,-75 195.4,-89.2 0,0 38.3,-94 77,-141.2 0,0 -3,-96.1 9.2,-119.2 0,0 -24.4,-43.8 -45.9,15.6 -21.5,59.4 -15.6,87.1 -15.6,87.1 0,0 -31.6,46.5 -45.4,64.2 -13.7,17.8 -195.7,67.8 -195.7,67.8 l 21,114.9" /><path
         id="path384"
         style="fill:#9f4641;fill-opacity:1;fill-rule:nonzero;stroke:none"
         d="m 10492.9,12959 c 0,0 129.7,-115.1 194.3,-139.6 0,0 23.2,-142.4 64.4,-204.2 0,0 2.5,-81.6 2.5,-125.3 0,0 -30,-21.5 -46.5,24.4 -25.9,72 -17.8,84.5 -17.8,84.5 0,0 -63,129.7 -77.6,152.8 -14.5,23.1 -164.5,88 -164.5,88 l 45.2,119.4" /><path
         id="path386"
         style="fill:#9f4641;fill-opacity:1;fill-rule:nonzero;stroke:none"
         d="m 10018,13123.2 c 0,0 360.6,-81.3 481.4,-103.4 0,0 125.3,-245.8 -53.2,-386.7 0,0 -50.3,37.6 -136.8,61.8 -90.9,25.5 -223.2,3.4 -359.11,119.9 -97.24,83.3 67.71,308.4 67.71,308.4" /><g
         transform="scale(1.08339)"
         id="g388"><path
           id="path390"
           style="fill:#121428;fill-opacity:1;fill-rule:nonzero;stroke:none"
           d="m 8817.02,16275.9 c -18.66,-3.4 -36.83,-6.2 -55.04,0.9 -1.58,0.6 -3.02,1.3 -4.49,2.1 -24.52,5.9 -130.78,21.1 -150.21,-56.3 0,0 73.3,63.1 181.46,18.3 0,0 40.79,22.8 51.26,44.8 -6.65,-4.7 -14.17,-8.2 -22.98,-9.8" /></g><g
         transform="scale(1.09874)"
         id="g392"><path
           id="path394"
           style="fill:#121428;fill-opacity:1;fill-rule:nonzero;stroke:none"
           d="m 8522.11,16172.4 c 0,0 153.47,127.6 229.43,77.3 0,0 -37.56,14.8 -55.42,24.4 -17.93,9.5 -239.86,-78.3 -174.01,-101.7" /></g><g
         transform="scale(1.07341)"
         id="g396"><path
           id="path398"
           style="fill:#7f2c32;fill-opacity:1;fill-rule:nonzero;stroke:none"
           d="m 8655.8,16300 c 0,0 51.48,-142.4 69.72,-178.5 0,0 1.45,-33.4 -26.87,-70 0,0 38.04,33 54.29,54.6 16.24,21.7 -11.13,42.2 -24.33,62.8 -13.08,20.4 -71.35,114 -72.81,131.1" /></g><g
         transform="scale(1.08412)"
         id="g400"><path
           id="path402"
           style="fill:#121428;fill-opacity:1;fill-rule:nonzero;stroke:none"
           d="m 8122.98,16268.5 c -18.96,-5.5 -44.35,-14.3 -50.38,-16.4 -39.63,-14.2 -52.58,-24.8 -84.75,-23.2 -15.69,0.8 -30.56,3.8 -44.86,8.1 26.12,-31.2 68.22,-42.6 68.22,-42.6 235.04,105.6 344.84,0.1 344.84,0.1 -18.92,86.5 -154.78,87.3 -233.07,74" /></g><g
         transform="scale(1.10062)"
         id="g404"><path
           id="path406"
           style="fill:#121428;fill-opacity:1;fill-rule:nonzero;stroke:none"
           d="m 8213.89,16144.1 c 0,0 -232.8,155.9 -423.27,44.8 0,0 57.55,39.7 106.29,54.5 48.69,14.7 427.12,-28.2 316.98,-99.3" /></g><g
         transform="scale(1.05253)"
         id="g408"><path
           id="path410"
           style="fill:#7f2c32;fill-opacity:1;fill-rule:nonzero;stroke:none"
           d="m 9346.03,16108 -49.39,169.9 -153.22,22.1 -82.3,-80.9 c 0,0 28.09,-12.3 56.2,-1 28.14,11.3 47.67,32.9 47.67,32.9 l 88.47,-27.8 25.72,-146.7 66.85,31.5" /></g><g
         transform="scale(1.05678)"
         id="g412"><path
           id="path414"
           style="fill:#7f2c32;fill-opacity:1;fill-rule:nonzero;stroke:none"
           d="m 9171.41,15996 c -24.02,-10.5 -24.43,174.8 -24.43,174.8 l -142.14,86.3 -30.39,18.8 c 0,0 -0.5,3.1 4.02,13.6 4.56,10.5 96.26,-16.1 96.26,-16.1 l 125.81,-71 50.44,-202.8 -79.57,-3.6" /></g><g
         transform="scale(1.05851)"
         id="g416"><path
           id="path418"
           style="fill:#9f4641;fill-opacity:1;fill-rule:nonzero;stroke:none"
           d="m 9068.06,15987 c -24.53,-9.1 -15.14,175.6 -15.14,175.6 l -137.21,93.4 -29.31,20.5 c 0,0 -0.37,3.1 4.73,13.3 5.11,10.2 95.14,-21.2 95.14,-21.2 l 121.7,-77.3 43.68,-205.5 -83.59,1.2" /></g><g
         transform="scale(1.0451)"
         id="g420"><path
           id="path422"
           style="fill:#7f2c32;fill-opacity:1;fill-rule:nonzero;stroke:none"
           d="m 9163.58,16151.4 c 0,0 -48.2,56.4 -84.33,118.9 0,0 -47.73,29.7 -69.08,24 -21.36,-5.7 24.51,-63.7 37.99,-97.8 36.87,-93.5 17.53,-158.4 21.81,-181.2 31.38,-167.2 167.03,-237.1 167.03,-237.1 l -73.42,373.2" /></g><g
         transform="scale(1.05202)"
         id="g424"><path
           id="path426"
           style="fill:#9f4641;fill-opacity:1;fill-rule:nonzero;stroke:none"
           d="m 8946.07,15580 c -67.99,134.8 106.05,407.6 106.05,407.6 l -37.7,265.4 -101.09,-9.7 -13.38,42.5 147.44,14.2 88.37,-208.9 215.3,27.4 -117.54,-453 c 0,0 -219.47,-220.3 -287.45,-85.5" /></g><g
         transform="scale(1.01107)"
         id="g428"><path
           id="path430"
           style="fill:#fde3d6;fill-opacity:1;fill-rule:nonzero;stroke:none"
           d="m 9607.49,16300 c 30.5,-111.7 364.12,-819.6 891.41,-1441.9 352.6,-416.4 135.8,-1252.5 135.8,-1252.5 -28.2,-45.7 -173.2,-32.8 -173.2,-32.8 -193.8,172.6 -479.41,669.9 -606.9,1175.7 -161.14,639.1 -546.21,1462.5 -546.21,1462.5 l 59.28,20.3 239.82,68.7" /></g><g
         transform="scale(1.06659)"
         id="g432"><path
           id="path434"
           style="fill:#ffffff;fill-opacity:1;fill-rule:nonzero;stroke:none"
           d="m 7749.34,16198.5 c 0,-56 -14.98,-101.4 -33.48,-101.4 -18.5,0 -33.48,45.4 -33.48,101.4 0,56.1 14.98,101.5 33.48,101.5 18.5,0 33.48,-45.4 33.48,-101.5" /></g><g
         transform="scale(1.1256)"
         id="g436"><path
           id="path438"
           style="fill:#121428;fill-opacity:1;fill-rule:nonzero;stroke:none"
           d="m 7663.15,16293.5 c 2.65,0.4 5.11,0.8 7.92,1.3 0,0 -1.55,5.2 -7.92,-1.3" /></g><path
         id="path440"
         style="fill:#ef2e32;fill-opacity:1;fill-rule:nonzero;stroke:none"
         d="m 7992.84,7052.7 c 0,0 -239.9,3809.3 -257.24,4433.7 0,0 -46.87,-3338.1 82.33,-4287.5 l 174.91,-146.2" /><g
         transform="scale(1.09185)"
         id="g442"><path
           id="path444"
           style="fill:#7f2c32;fill-opacity:1;fill-rule:nonzero;stroke:none"
           d="m 7537.35,16044 c 0,0 -45.46,256 -197.22,208.2 0,0 -47.57,-55 0,-155.4 0,0 85,113.7 197.22,-52.8" /></g><path
         id="path446"
         style="fill:#171c36;fill-opacity:1;fill-rule:nonzero;stroke:none"
         d="m 13236.4,3653.8 26,50.1 62.7,-10 c 0,0 482.8,-605.7 507.9,-655.7 0,0 -471.4,-525.5 -640.7,-745.7 -105.7,-137.6 -1131.1,-160.2 -1381.4,-65.1 v 111.1 c 0,0 -14.9,57.6 123.5,190.2 159.2,152.4 448.7,89.1 658.9,264.3 210.2,175.1 168.6,445.9 168.6,445.9 l 474.5,414.9" /><path
         id="path448"
         style="fill:#cbc1e6;fill-opacity:1;fill-rule:nonzero;stroke:none"
         d="m 12593.3,3513.7 c 0,0 152.1,-18.6 188.6,-245.3 15,-93.2 480.7,-1.4 500.5,155.2 16.5,130.1 15.1,206.7 15.1,206.7 l -315.4,448.9 -388.8,-565.5" /><path
         id="path450"
         style="fill:#171c36;fill-opacity:1;fill-rule:nonzero;stroke:none"
         d="M 10689,7666.5 10517.8,7558 12803.2,3331.8 c 0,0 798.9,-39.9 834.7,548.6 L 11823.5,7864.3 10689,7666.5" /><path
         id="path452"
         style="fill:#ffffff;fill-opacity:1;fill-rule:nonzero;stroke:none"
         d="m 12800.2,2823.7 v 0 l -2.5,10 21.5,424.9 -785.9,119.3 c 0,0 242.2,-454.5 -84.2,-718.8 l 0.3,0.2 c 102.4,-96.9 298.2,-79.9 424.6,-62.7 170.9,23.3 304,118.2 425.4,230.3 l 0.8,-3.2" /><path
         id="path454"
         style="fill:#171c36;fill-opacity:1;fill-rule:nonzero;stroke:none"
         d="m 12957.7,2174.4 -158.3,652.5 c -121.4,-112.1 -254.5,-207 -425.4,-230.3 -126.4,-17.2 -322.2,-34.2 -424.6,62.7 l -0.3,-0.2 c -326.4,-264.4 -1351.8,-359.3 -1351.8,-359.3 l 28.8,-168.2 c 0,0 -168.9,-124.5 642,-191.7 811,-67.1 1698.9,105.6 1698.9,105.6 l -9.3,128.9" /><path
         id="path456"
         style="fill:#171c36;fill-opacity:1;fill-rule:nonzero;stroke:none"
         d="m 11570.8,11908 c 0,0 -660.5,-2168.1 -1032.5,-4329.6 0,0 351.1,-454.3 1023.3,-281.9 672.2,172.2 1658.9,3633.7 1658.9,3633.7 l -1649.7,977.8" /><path
         id="path458"
         style="fill:#312e4e;fill-opacity:1;fill-rule:nonzero;stroke:none"
         d="m 11561.6,11995.3 c 0,0 92.6,-903.2 186.6,-1391.3 0,0 1595.1,-1526.9 1827.2,-1022.5 470.2,1022.5 631.9,1317.4 287.3,2883.7 -177.7,807.7 -2301.1,-469.9 -2301.1,-469.9" /><path
         id="path460"
         style="fill:#312e4e;fill-opacity:1;fill-rule:nonzero;stroke:none"
         d="m 11842.5,11106.1 -131.9,-285.7 c 0,0 -411.4,-2934 -427.1,-3685.8 0,0 613.3,-446.2 1025.8,-275.3 412.6,170.9 1385.3,3154.9 1511.6,3329.6 126.2,174.6 -1978.4,917.2 -1978.4,917.2" /><path
         id="path462"
         style="fill:#312e4e;fill-opacity:1;fill-rule:nonzero;stroke:none"
         d="m 11283.5,7134.6 616.1,-4093.2 c 0,0 757,-209 1023.3,41.8 66,62.1 -54.8,1527.4 -41.7,2662.6 6.8,595.2 -76.8,1898.1 -76.8,1898.1 l -1520.9,-509.3" /><path
         id="path464"
         style="fill:#9f4641;fill-opacity:1;fill-rule:nonzero;stroke:none"
         d="m 9637.07,13908 -24.03,-42.7 c 0,0 75.33,-69.6 111.82,-91.4 36.54,-21.7 134.81,-59.8 134.81,-59.8 l 225.83,-143.3 91.6,87.5 c 0,0 -116.9,128.8 -155.5,161.8 -38.57,33 -239.69,53.1 -239.69,53.1 l -144.84,34.8" /><path
         id="path466"
         style="fill:#9f4641;fill-opacity:1;fill-rule:nonzero;stroke:none"
         d="m 10114.9,13603.7 c 0,0 -124.46,170.7 -265.36,161.8 -193.96,-12.2 -383.63,69.6 -383.63,69.6 l -59.73,78.8 c 0,0 -65.72,-95.3 -22.46,-162.8 43.31,-67.5 51.3,-83.3 51.3,-83.3 0,0 -2.92,-37.7 36.35,-110.4 39.32,-72.6 120.29,-184.7 166.96,-220.3 46.68,-35.5 429.97,-180.5 483.47,-199 53.5,-18.7 262.3,47 262.3,47 l -269.2,418.6" /><g
         transform="scale(1.20261)"
         id="g468"><path
           id="path470"
           style="fill:#1a1126;fill-opacity:1;fill-rule:nonzero;stroke:none"
           d="m 9281.07,16192.1 c -29.85,42.4 -82.98,29.4 -118.4,0.6 -43.82,-35.6 -30.52,-101.8 -85.32,-106 -39.91,-3 -102.44,19 -132.38,-21.9 -21.7,-29.8 -1.41,-102.9 -1.74,-134.1 -50.73,9.2 -146.6,-10.5 -161.82,-65.9 -15.96,-58 27.11,-135.9 40.25,-194.3 -50.98,-12 -61.95,-34.3 -42.25,-82.7 24.87,-61.1 44.66,-55.3 -5.32,-104 -99.28,-96.7 122.74,-151.6 185.68,-156.3 114.5,-8.7 223.1,74.5 300.52,148.6 66.35,63.5 300.51,277.9 163.31,378.3 -31.18,22.8 -69.19,15.4 -100.03,31.2 -11.39,5.9 -15.64,-4 -23.29,11.7 -7.98,16.3 24.28,73.8 31.1,89.4 25.94,59.4 59.21,116.4 70.02,181.1 4.49,27 35.75,106.5 1.74,116.9 -50.3,15.3 -95.12,-76.5 -122.07,-92.6" /></g><g
         transform="scale(1.20076)"
         id="g472"><path
           id="path474"
           style="fill:#1a1126;fill-opacity:1;fill-rule:nonzero;stroke:none"
           d="m 10209.8,14256.6 c 1.4,-1.3 2.9,-2.6 4.4,-3.8 -11.5,61 17.4,131.6 24.4,193.7 4.1,36.2 14,116.5 29.4,147.2 16.6,33.2 43.1,27.3 60.2,58.7 12.9,23.4 -7.3,57.3 6.6,79.8 16.6,26.8 49.6,21.4 70.6,51.8 18.5,26.6 5.9,47.2 13.8,73.5 6.2,20.4 19.1,32.1 30.4,51 20.6,34.9 40.3,68.7 55.5,106.4 23.4,57.6 39,118 48.6,179.3 9.6,61 -9.4,109.9 -5,168.6 2.2,29.3 21,49.4 28.1,78.8 14.5,58.8 -25.1,96.2 -34.9,150.1 -4.4,25.4 -0.9,58.3 -9.8,82.5 -10.9,29.7 -40.6,47.8 -60.9,71.8 -25,29.4 -35.8,49 -41.8,86.3 -10.9,68 -70.8,124.8 -118.5,169.7 -24.8,23.4 -53,55.4 -83.1,72 -32.4,17.9 -70.5,20.6 -101.3,44.2 -31.2,23.9 -45.8,64.1 -75.2,87.2 -33.9,26.7 -66.67,12.9 -110.14,7.5 -48.64,-6 -59.71,4.1 -100.27,29.9 -35.48,22.5 -59.05,37.4 -100.61,36.9 -31.47,-0.4 -63.29,-10.9 -94.77,-10.5 -52.96,0.7 -103.6,30.8 -156.81,25.3 -55.05,-5.7 -120.1,-49.8 -164.4,-81.8 -60.55,-43.8 -102.35,-105.8 -121.09,-178 -43.98,-169.1 25.48,-357 94.02,-509.5 92.36,-205.6 216.28,-396.8 347.12,-579.7 166.64,-232.7 349.19,-497.7 565.45,-688.9" /></g><g
         transform="scale(1.09762)"
         id="g476"><path
           id="path478"
           style="fill:#7f2c32;fill-opacity:1;fill-rule:nonzero;stroke:none"
           d="m 10424.9,15597.3 c 0,0 167.1,-12.9 192.9,-121.8 25.7,-108.9 2.1,-151.7 2.1,-151.7 l 603.3,142.3 c 0,0 -136,283.1 -165.5,659.6 -13.7,174.3 -632.8,-528.4 -632.8,-528.4" /></g><g
         transform="scale(1.16573)"
         id="g480"><path
           id="path482"
           style="fill:#9f4641;fill-opacity:1;fill-rule:nonzero;stroke:none"
           d="m 9426.52,16300 c 0,0 -283.09,-8.3 -285.66,-686.4 -0.17,-37 -35.43,-207.1 -17.42,-324.8 74.29,-484 101.66,-612.1 134.77,-660.2 33.03,-48.1 235.9,-85.9 364.66,-73.5 104.06,10 395.33,104.4 615.53,275.9 0,0 81.7,55.8 108.3,497.2 27.9,463.1 -50.3,691.2 -455.84,813.7 -249.2,75.3 -341.42,-39.2 -464.34,158.1" /></g><g
         transform="scale(1.09815)"
         id="g484"><path
           id="path486"
           style="fill:#1a1126;fill-opacity:1;fill-rule:nonzero;stroke:none"
           d="m 10994.6,16300 59.2,-108.1 c 0,0 -29.9,-277.3 -61.6,-396.3 -31.8,-119.1 -715.8,-682.7 -1058.46,-484.9 -25.5,14.7 -254.61,469.5 -188.95,549.8 41.89,51.2 221.65,67.4 261.51,71.5 54,5.6 229.4,-26 314.1,-131 143.9,-178.4 486.2,3.9 674.2,499" /></g><g
         transform="scale(1.06738)"
         id="g488"><path
           id="path490"
           style="fill:#f2546a;fill-opacity:1;fill-rule:nonzero;stroke:none"
           d="m 10249.7,16294.9 c 0,0 -32.8,5.1 -36.1,-24.6 -5.1,-44.6 153.3,-107.6 315.7,-9.8 0,0 -109.4,-18.6 -279.6,34.4" /></g><g
         transform="scale(1.06868)"
         id="g492"><path
           id="path494"
           style="fill:#ffffff;fill-opacity:1;fill-rule:nonzero;stroke:none"
           d="m 10516.5,16240.7 c 0,0 -127.1,4.3 -216.4,59.3 0,0 -59.6,-15.8 -96.5,-7.7 0,0 106.5,-116.4 312.9,-51.6" /></g><g
         transform="scale(1.10326)"
         id="g496"><path
           id="path498"
           style="fill:#ffffff;fill-opacity:1;fill-rule:nonzero;stroke:none"
           d="m 10210.5,16300 16.6,-68.3 c 0,0 44.4,-21.9 82.9,-17.2 38.6,4.6 154.7,43.4 169.4,54.6 l -174.4,4.8 -94.5,26.1" /></g><g
         transform="scale(1.10147)"
         id="g500"><path
           id="path502"
           style="fill:#14142b;fill-opacity:1;fill-rule:nonzero;stroke:none"
           d="m 10382.7,16298.7 -47.9,1.3 -31.8,-4.5 c 0,0 4,-34 9.9,-55 4.9,-0.2 9.6,-0.2 13.9,0.4 12.9,1.5 34.4,6.9 58,13.8 0.5,12.2 0.4,28.9 -2.1,44" /></g><g
         transform="scale(1.10693)"
         id="g504"><path
           id="path506"
           style="fill:#ffffff;fill-opacity:1;fill-rule:nonzero;stroke:none"
           d="m 9692.59,16300 18.34,-50.2 c 0,0 27.91,-15.7 58.09,-13.1 30.08,2.7 119.79,25.5 131.53,33.7 l -135.33,7.6 -72.63,22" /></g><g
         transform="scale(1.10536)"
         id="g508"><path
           id="path510"
           style="fill:#14142b;fill-opacity:1;fill-rule:nonzero;stroke:none"
           d="m 9828.93,16298.3 -31.21,1.7 -21.44,-4.9 c 0,0 4.43,-21.6 9.41,-35 11.13,1.2 28.23,4.6 46.5,8.8 -0.18,7.3 -0.9,18.7 -3.26,29.4" /></g><g
         transform="scale(1.10499)"
         id="g512"><path
           id="path514"
           style="fill:#ffffff;fill-opacity:1;fill-rule:nonzero;stroke:none"
           d="m 9837.84,16274.7 0.54,25.3 c 0,0 -23.07,-10.4 -24.79,-16.7 -1.72,-6.3 24.25,-8.6 24.25,-8.6" /></g><g
         transform="scale(1.1037)"
         id="g516"><path
           id="path518"
           style="fill:#472a91;fill-opacity:1;fill-rule:nonzero;stroke:none"
           d="m 9846.97,16293.3 v 0.3 l -0.09,1.6 c -3.99,2.1 -8.7,3.8 -13.68,4.2 -7.8,0.6 -18.49,-7.2 -26.28,-14 10.78,1.6 25.01,4.5 40.05,7.9" /></g><g
         transform="scale(1.09911)"
         id="g520"><path
           id="path522"
           style="fill:#472a91;fill-opacity:1;fill-rule:nonzero;stroke:none"
           d="m 10407,16289.7 c 0.1,1 0.1,2.2 0.1,3.3 -2,0.8 -4.1,1.5 -6.6,2 -22.5,5 -49.4,-9.7 -64.4,-19.7 4.5,-0.2 8.9,-0.1 12.9,0.4 12.9,1.5 34.4,6.9 58,13.8 v 0.2" /></g><g
         transform="scale(1.10041)"
         id="g524"><path
           id="path526"
           style="fill:#ffffff;fill-opacity:1;fill-rule:nonzero;stroke:none"
           d="m 10399.9,16274.6 0.8,25.4 c 0,0 -23.2,-10.2 -25,-16.5 -1.8,-6.3 24.2,-8.9 24.2,-8.9" /></g><g
         transform="scale(1.13001)"
         id="g528"><path
           id="path530"
           style="fill:#7f2c32;fill-opacity:1;fill-rule:nonzero;stroke:none"
           d="m 9695.62,16162.1 c 26.29,-44.8 63.01,-150.1 24.78,-183.2 -38.32,-33.1 -105.84,321.1 -24.78,183.2" /></g><g
         transform="scale(1.11712)"
         id="g532"><path
           id="path534"
           style="fill:#7f2c32;fill-opacity:1;fill-rule:nonzero;stroke:none"
           d="m 10375.5,16092.4 c 0,0 86.6,37.8 80.3,99.3 -6.3,61.6 -85.5,108.3 -98,89.6 -12.5,-18.6 -2.2,-53.8 4.5,-107 6.7,-53.2 -30.6,-90.1 13.2,-81.9" /></g><g
         transform="scale(1.07995)"
         id="g536"><path
           id="path538"
           style="fill:#ffffff;fill-opacity:1;fill-rule:nonzero;stroke:none"
           d="m 10163.6,15595 c 0,0 584.9,705 1509.4,91.1 757.4,-502.9 847.8,-1697.8 1129.8,-3043.5 125.2,-597.3 171.9,-1856 171.9,-1856 -760.5,-513.4 -1983.9,-463.6 -2311.4,-292.5 -171.9,89.8 30.8,781.6 -28.2,1187.9 -96.3,662.6 -289.1,1411.3 -457.1,1974.4 -359.92,1205.9 -183.06,1607.1 -14.4,1938.6" /></g><g
         transform="scale(1.011)"
         id="g540"><path
           id="path542"
           style="fill:#ffffff;fill-opacity:1;fill-rule:nonzero;stroke:none"
           d="m 11193.1,13898.8 c 0,0 97.9,-813.5 -31,-1403.2 -45.4,-207.5 -287.8,-972.5 224.2,-1209.6 1228.2,-569 2473.3,304.7 2473.3,304.7 0,0 513.4,625.1 110.7,2053.5 -177.7,630.7 -762.9,1924.8 -893.6,2290.3 -130.8,365.5 -1883.6,-2035.7 -1883.6,-2035.7" /></g><g
         transform="scale(1.05101)"
         id="g544"><path
           id="path546"
           style="fill:#dfd8f0;fill-opacity:1;fill-rule:nonzero;stroke:none"
           d="m 10607.6,12990.6 c 12.5,31.8 25.3,63.4 38.2,94.9 94,230.1 193.8,457.2 269.3,694.3 69,216.4 122.3,437.2 156.2,661.8 36.8,289.3 41.5,583.6 9,873.5 -47.8,333.3 -145.7,656.4 -215,984.9 -272.9,-97.9 -421.9,-275.7 -421.9,-275.7 -173.3,-340.6 -429.3,-1778.2 55.3,-2492.5 138.4,-204 83.6,-164.2 108.9,-541.2" /></g><g
         transform="scale(1.01118)"
         id="g548"><path
           id="path550"
           style="fill:#dfd8f0;fill-opacity:1;fill-rule:nonzero;stroke:none"
           d="m 11206.1,13126.6 2.3,-310.9 c 0,0 421.4,39.2 759.6,479 367.5,478 542.2,2087.8 124.8,3005.3 l -886.7,-3173.4" /></g><g
         transform="scale(1.09948)"
         id="g552"><path
           id="path554"
           style="fill:#7f2c32;fill-opacity:1;fill-rule:nonzero;stroke:none"
           d="m 9873.97,15997.2 v 0 l 0.27,0.8 0.55,1.1 136.51,300.9 c 0,0 1.4,-27.2 0.3,-36.2 -7,-60.3 -93.61,-232.8 -108.89,-285.8 3.09,-8.6 51.3,-61.9 111.19,-59.3 0,0 -52.8,-21.7 -94.36,-0.9 0,0 -42.11,11.3 -47.3,54 -1.46,11.5 -0.55,19.7 1.73,25.4" /></g><g
         transform="scale(1.10414)"
         id="g556"><path
           id="path558"
           style="fill:#1a1126;fill-opacity:1;fill-rule:nonzero;stroke:none"
           d="m 10529.5,16258 c 0,0 -291,-56.7 -335.6,42 0,0 139.6,-49.1 335.6,-42" /></g><g
         transform="scale(1.1048)"
         id="g560"><path
           id="path562"
           style="fill:#7f2c32;fill-opacity:1;fill-rule:nonzero;stroke:none"
           d="m 10238.7,16284.5 c 0,0 9,10.6 11.1,13 2.2,2.5 169.7,-25.8 169.7,-25.8 0,0 -79.5,-11.8 -180.8,12.8" /></g><g
         transform="scale(1.13137)"
         id="g564"><path
           id="path566"
           style="fill:#1a1126;fill-opacity:1;fill-rule:nonzero;stroke:none"
           d="m 9975.2,16300 c 0,0 -5.83,-65.4 18.39,-103.2 10.21,-15.7 248.31,-23.1 406.01,-180.9 0,0 43.4,102.8 -78.7,182 -137.5,89.1 -345.7,102.1 -345.7,102.1" /></g><g
         transform="scale(1.10862)"
         id="g568"><path
           id="path570"
           style="fill:#1a1126;fill-opacity:1;fill-rule:nonzero;stroke:none"
           d="m 9907.97,16243.6 c 0,0 -236.06,-25.3 -264.92,56.4 0,0 107.97,-48.6 264.92,-56.4" /></g><g
         transform="scale(1.11077)"
         id="g572"><path
           id="path574"
           style="fill:#7f2c32;fill-opacity:1;fill-rule:nonzero;stroke:none"
           d="m 9846.91,16224.3 c 0,0 -164.48,75.7 -175.37,30.9 l 175.37,-30.9" /></g><g
         transform="scale(1.11264)"
         id="g576"><path
           id="path578"
           style="fill:#9f4641;fill-opacity:1;fill-rule:nonzero;stroke:none"
           d="m 10861.4,15801.7 c 0,0 134,7.1 170.5,76 36.4,68.8 109.8,222 88.1,279.4 -45.4,120.4 -110.2,142.9 -182.7,98.8 -72.7,-44 -75.9,-454.2 -75.9,-454.2" /></g><g
         transform="scale(1.10728)"
         id="g580"><path
           id="path582"
           style="fill:#7f2c32;fill-opacity:1;fill-rule:nonzero;stroke:none"
           d="m 10956.6,15966.7 c 0,0 77.8,75.4 59.4,124 -43.9,115.5 1.6,209.3 57,205.2 55.5,-4.1 81.9,-93.2 65.6,-130.9 0,0 -17.2,97.6 -66.9,80.9 -49.9,-16.7 -30.5,-125.5 -30.5,-125.5 0,0 60.5,-86.3 -84.6,-153.7" /></g><g
         transform="scale(1.1335)"
         id="g584"><path
           id="path586"
           style="fill:#1a1126;fill-opacity:1;fill-rule:nonzero;stroke:none"
           d="m 9664.9,16191.8 c 0,0 -8.73,73.3 -1.94,88 0,0 -175.21,20.2 -226.37,-30 0,0 -10.33,-17.8 -7.42,-44.9 0,0 147.34,4 235.73,-13.1" /></g><g
         transform="scale(1.06396)"
         id="g588"><path
           id="path590"
           style="fill:#ffffff;fill-opacity:1;fill-rule:nonzero;stroke:none"
           d="m 11228.1,16155.1 c -778.5,144.9 -1092.2,-131.1 -1160.5,-507.3 -50.4,-278.6 120.1,-789.5 189.5,-1144.2 h -0.1 c 0,0 260.4,-1214.1 -103.5,-1454.3 -52.3,-34.6 -218.29,-162.1 -565.95,-183.9 -234.35,-14.8 -155.74,-513.5 -2.82,-541.4 0,0 345.5,-161.6 912.07,-38.7 83.7,15.6 1308.8,81.9 1044.9,2711.9 0,0 40.4,1092 -313.6,1157.9" /></g></g></g></svg>