<?xml version="1.0" encoding="UTF-8" standalone="no"?>
<svg
   xmlns:dc="http://purl.org/dc/elements/1.1/"
   xmlns:cc="http://creativecommons.org/ns#"
   xmlns:rdf="http://www.w3.org/1999/02/22-rdf-syntax-ns#"
   xmlns:svg="http://www.w3.org/2000/svg"
   xmlns="http://www.w3.org/2000/svg"
   viewBox="0 0 6666.6665 5333.3335"
   height="5333.3335"
   width="6666.6665"
   xml:space="preserve"
   id="svg2"
   version="1.1"><metadata
     id="metadata8"><rdf:RDF><cc:Work
         rdf:about=""><dc:format>image/svg+xml</dc:format><dc:type
           rdf:resource="http://purl.org/dc/dcmitype/StillImage" /></cc:Work></rdf:RDF></metadata><defs
     id="defs6" /><g
     transform="matrix(1.3333333,0,0,-1.3333333,0,5333.3333)"
     id="g10"><g
       transform="scale(0.1)"
       id="g12"><g
         transform="scale(3.06748)"
         id="g14"><path
           id="path16"
           style="fill:#ffffff;fill-opacity:1;fill-rule:nonzero;stroke:none"
           d="M 16300,0 H 0 V 13040 H 16300 V 0" /></g><g
         transform="scale(2.50733)"
         id="g18"><path
           id="path20"
           style="fill:#e84d7a;fill-opacity:1;fill-rule:nonzero;stroke:none"
           d="m 15710,11028.9 c 16.8,169 93.5,299.8 171.3,292 77.8,-7.8 127.2,-151.1 110.3,-320.1 -16.8,-169 -93.5,-299.8 -171.3,-292 -77.8,7.7 -127.2,151 -110.3,320.1 z m 89.2,-959.4 c 0,0 500.8,926.7 273.1,1299.4 -227.6,372.7 -1217.7,-245.1 -1217.7,-245.1 l -58,-356.3 -112.3,222.9 -558.7,-479.4 77.5,-430.3 -182.8,152.1 c 0,0 -357,-454.63 -446.5,-586.17 -89.5,-131.49 -156.3,-256.25 -156.3,-256.25 l 173.1,-554.85 734.4,-593.5 c 0,0 345.5,78.65 474.8,223.51 129.2,144.85 145.5,203.56 145.5,203.56 0,0 -404.4,-52.61 -518.9,-22.86 -114.6,29.72 705,187.65 789.3,278.35 84.4,90.69 451.4,791.12 433.6,836.75 -17.7,45.58 -348.7,42.59 -417.5,68.55 -68.8,25.97 567.4,239.61 567.4,239.61" /></g><g
         transform="scale(1.45194)"
         id="g22"><path
           id="path24"
           style="fill:#736aad;fill-opacity:1;fill-rule:nonzero;stroke:none"
           d="m 3364.32,13919.8 c -116.36,-29.5 -259.35,138.4 -319.39,375.2 -60.04,236.8 -14.38,452.5 101.97,482.1 116.36,29.5 259.36,-138.5 319.4,-375.2 60.03,-236.8 14.38,-452.6 -101.98,-482.1 z M 12594.4,12758 11004.3,15402.1 c 0,0 -575.8,416 -1036.29,512.1 -460.49,96.1 -605.19,57.8 -605.19,57.8 0,0 582.53,-801.2 651.78,-1083.9 69.4,-282.7 -1220.81,1276.8 -1513.04,1344.3 -292.3,67.6 -2218.97,-20.7 -2296.05,-115.7 -77.09,-95 313.7,-800.6 338.05,-980.7 24.34,-179.9 -1172.17,917 -1172.17,917 0,0 -2157.01,-442.2 -2621.07,-1176.7 -431.8,-683.4 1459.82,-2165.2 1459.82,-2165.2 l 830.41,320.9 -440.17,-718.7 1520.93,-269.3 1024.97,778.5 22.59,-651.3 c 0,0 1307.49,-332.8 1693.17,-360.3 385.63,-27.6 730.34,-14.9 730.34,-14.9 l 987.52,1064.1 -233.1,-1453.7 2247.6,1351.6" /></g><g
         transform="scale(2.90954)"
         id="g26"><path
           id="path28"
           style="fill:#736aad;fill-opacity:1;fill-rule:nonzero;stroke:none"
           d="m 12214.4,5693.13 c 0,0 413.2,-167.31 650.8,-110.7 237.6,56.61 296.7,105.48 296.7,105.48 0,0 -455.4,236.53 -552.2,349.61 -96.9,113.08 862.8,-313.32 1015.1,-280.32 152.3,32.96 1034.9,492.17 1049.4,552.01 14.5,59.87 -329.3,294.76 -381.7,371.06 -52.4,76.3 758,-160.68 758,-160.68 0,0 1183.5,596.52 1216.5,1145.02 33,548.48 -1433.5,622.82 -1433.5,622.82 l -315.9,-326.21 44.3,310.95 -921.6,-93.15 -229.5,-500 -79.3,288.49 c 0,0 -695.6,-212.61 -882.6,-284.03 -187,-71.42 -345.6,-152.15 -345.6,-152.15 L 11883,6834 12214.4,5693.13" /></g><g
         transform="scale(2.79043)"
         id="g30"><path
           id="path32"
           style="fill:#ffffff;fill-opacity:1;fill-rule:nonzero;stroke:none"
           d="m 13017.5,6689.22 c 46.8,27.24 71,41.14 136.9,78.16 9.6,5.41 19.5,10.97 29.5,16.56 1.5,5.27 3.2,10.75 5.1,16.59 4.1,14.01 9.8,29.39 15.6,46.3 6.4,16.7 12.9,34.91 20.9,53.72 7.6,18.99 16.4,38.67 25.7,58.92 9,20.39 19.7,40.85 29.9,61.92 10.9,20.72 21.9,41.79 33.5,62.61 12,20.57 23.5,41.43 35.8,61.42 12.5,19.89 24.5,39.64 36.7,58.38 12.5,18.6 24.6,36.56 36.1,53.61 11.6,16.88 23.4,32.47 33.8,47.06 10.6,14.55 20.1,27.95 29.3,39.35 9,11.54 16.9,21.57 23.4,29.85 12.9,16.55 20.3,26.02 20.3,26.02 0,0 -6.5,-9.97 -18,-27.35 -5.8,-8.67 -12.7,-19.24 -20.7,-31.32 -8.2,-11.97 -16.5,-25.98 -25.8,-41.18 -9.1,-15.23 -19.4,-31.5 -29.6,-49.09 -9.9,-17.67 -20.4,-36.34 -31.2,-55.62 -10.5,-19.42 -20.6,-39.81 -31.3,-60.35 -10.5,-20.61 -20.1,-42 -30.2,-63.11 -9.6,-21.32 -18.7,-42.86 -27.7,-63.97 -8.2,-21.43 -17,-42.21 -24.1,-62.82 -7.4,-20.5 -14.4,-40.32 -20.2,-59.38 -6.3,-18.89 -11.1,-37.06 -15.9,-53.65 -0.8,-3.29 -1.6,-6.45 -2.5,-9.6 39.3,21.61 80.7,44.22 124.3,67.8 82.1,44.19 171.5,91.49 266.9,140.34 47.7,24.44 96.8,49.49 147.4,74.47 50.3,25.33 102.2,50.53 154.9,76.15 25.6,12.54 51.5,24.91 77.7,37.23 0.4,1.44 0.9,3.12 1.6,5.13 2.2,7.09 5.6,16.3 10.1,28.45 4.6,11.97 10.3,26.45 17.3,42.72 6.8,16.41 15.5,34.4 24.5,54.19 9.8,19.49 19.8,40.81 31.9,62.67 11.4,22.12 24.5,44.98 38.2,68.49 13.3,23.69 28.8,47.3 43.7,71.71 15.7,23.9 31.6,48.23 48.1,72.21 17.1,23.65 33.5,47.66 50.9,70.6 17.6,22.79 34.4,45.44 51.5,66.87 17.5,21.21 34.3,41.71 50.3,61.17 16.2,19.25 32.3,36.95 46.8,53.54 14.5,16.52 27.7,31.72 40.3,44.62 12.3,13.04 23.1,24.44 31.9,33.79 17.7,18.71 27.8,29.43 27.8,29.43 0,0 -9.1,-11.36 -25.1,-31.22 -8,-9.93 -17.8,-21.97 -28.9,-35.8 -11.4,-13.65 -23.2,-29.74 -36.3,-47.16 -12.9,-17.45 -27.4,-36.09 -41.8,-56.34 -14.2,-20.35 -29.1,-41.82 -44.6,-64.04 -15.1,-22.39 -29.8,-45.98 -45.2,-69.66 -15.2,-23.83 -29.4,-48.67 -44.2,-73.15 -14.2,-24.76 -27.8,-49.81 -41.3,-74.36 -12.5,-25.01 -25.7,-49.2 -36.8,-73.32 -11.4,-23.94 -22.2,-47.16 -31.6,-69.52 -9.9,-22.11 -17.8,-43.51 -25.7,-63.04 -7.1,-19.75 -14.1,-37.74 -19.1,-53.93 -1.4,-3.91 -2.6,-7.67 -3.8,-11.36 52.9,24.29 106.4,48.84 160.4,73.6 113,50.46 228.4,101.03 345.4,148.91 l 87.6,36.05 c 29.5,11.57 58.9,23.18 88.2,34.72 58.5,23.48 117.7,45.41 176.3,67.23 71.6,26.74 143.2,52.08 214,76.27 8.3,15.23 20.7,36.15 36.5,60.49 8.4,12.15 17,25.55 27.1,39.13 9.8,13.76 20.4,28.03 31.9,42.47 11.1,14.69 23.7,29.17 36,44.11 12.4,14.8 25.9,29.35 38.9,44.12 13.7,14.3 27.3,28.56 40.8,42.64 14,13.62 27.7,27.02 41,40 13.9,12.5 27.2,24.62 39.9,36.12 12.6,11.5 25.4,21.61 36.7,31.36 11.5,9.6 21.8,18.6 31.6,25.94 9.6,7.49 18,14.05 24.9,19.43 13.9,10.75 21.7,16.91 21.7,16.91 0,0 -7,-6.91 -19.3,-18.95 -6.1,-6.03 -13.6,-13.34 -22.1,-21.72 -8.8,-8.25 -17.8,-18.21 -27.9,-28.85 -9.9,-10.75 -21.1,-21.97 -32.1,-34.58 -10.9,-12.55 -22.5,-25.77 -34.5,-39.5 -11.3,-14.01 -23.1,-28.56 -35,-43.29 -11.4,-15.08 -22.9,-30.39 -34.4,-45.69 -10.8,-15.73 -22,-31.18 -32.2,-46.8 -10.1,-15.73 -20.4,-30.93 -29.2,-46.23 -9.3,-15.09 -17.7,-29.85 -25.4,-44.01 -8,-14.01 -14.5,-27.66 -21,-40.06 -0.3,-0.58 -0.5,-1.15 -0.8,-1.72 13.7,4.51 27.3,8.99 40.9,13.43 57,18.57 113.8,35.3 169,52.51 55.6,16.37 110.4,31.35 163.6,46.48 53.5,14.22 106,27.16 156.5,40.13 50.8,12.3 100.5,22.8 147.8,33.62 23.6,5.59 47.2,9.89 70.1,14.3 22.9,4.4 45.3,8.67 67.2,12.86 43.5,8.96 85.5,15.05 124.8,21.18 78.4,13.41 80.6,5.56 3.1,-9.85 -38.9,-7.17 -80.5,-14.27 -123.4,-24.34 -21.6,-4.76 -43.7,-9.6 -66.4,-14.58 -22.6,-4.95 -45.8,-9.86 -69.1,-16.06 -46.7,-12 -95.6,-23.76 -145.6,-37.3 -49.8,-14.27 -101.5,-28.49 -154.1,-44.01 -52.3,-16.45 -106.2,-32.79 -160.8,-50.53 -54.2,-18.56 -109.9,-36.7 -165.9,-56.62 -22.7,-8.14 -45.6,-16.45 -68.7,-24.87 15.7,-6.56 33.7,-14.27 53.5,-23.15 17.1,-7.64 35.5,-16.02 54.8,-25.3 19.4,-9 39.4,-19.25 60.2,-29.61 20.8,-10.5 41.9,-21.86 63.3,-33.29 21.1,-12.04 43,-23.58 64,-36.34 21,-12.75 42.4,-24.94 62.4,-38.31 20.3,-12.97 40.3,-25.69 58.8,-39.02 18.8,-13.01 36.9,-25.55 53.2,-38.42 16.4,-12.72 32.5,-24.08 45.9,-35.98 13.8,-11.54 26.4,-22.15 37.6,-31.54 10.7,-9.71 19.7,-18.52 27.3,-25.58 15.1,-14.2 23.7,-22.29 23.7,-22.29 0,0 -9.4,7.41 -25.9,20.39 -8.2,6.41 -18.1,14.44 -29.7,23.22 -12,8.42 -25.5,17.92 -40.3,28.31 -14.4,10.64 -31.5,20.64 -48.9,31.9 -17.2,11.36 -36.3,22.29 -56,33.57 -19.4,11.62 -40.3,22.58 -61.4,33.73 -20.9,11.47 -43,21.75 -64.7,32.54 -21.7,10.82 -44.2,20.42 -65.9,30.49 -22,9.46 -43.6,18.89 -64.7,27.46 -21.3,8.45 -41.7,16.84 -61.3,24.04 -19.6,7.49 -38.2,14.19 -55.4,20.25 -34.4,12.15 -63.3,21.43 -83.5,27.63 -10.2,3.12 -18,5.45 -23.2,6.92 -5.4,1.54 -8.3,2.36 -8.3,2.36 l 1.9,5.41 c -63,-23.65 -126.4,-48.27 -189.9,-74 -57.3,-23.26 -115.2,-46.62 -172.5,-71.49 -28.7,-12.26 -57.5,-24.55 -86.3,-36.85 l -85.7,-38.13 c -82.9,-36.73 -164.9,-74.86 -245.8,-113.31 6.6,-1.4 13.4,-2.87 20.6,-4.45 18.4,-4.05 38.2,-8.6 59.1,-13.83 21,-4.91 42.9,-10.93 65.6,-16.91 22.7,-6.13 45.9,-13.05 69.5,-19.93 23.5,-7.6 47.4,-14.58 71,-22.86 23.5,-8.32 47.2,-16.02 70,-25.09 22.9,-8.71 45.5,-17.2 66.8,-26.59 21.4,-9.03 42.1,-17.7 61.2,-27.09 19.1,-9.25 37.6,-17.17 53.6,-26.2 16.3,-8.6 31.3,-16.52 44.4,-23.51 13,-7.42 24,-14.26 33.2,-19.71 18.2,-10.93 28.7,-17.2 28.7,-17.2 0,0 -11,5.41 -30.3,14.87 -9.7,4.66 -21.2,10.58 -34.7,16.88 -13.8,5.88 -29.2,12.51 -46.2,19.75 -16.7,7.6 -35.7,13.97 -55.3,21.54 -19.6,7.7 -40.8,14.62 -62.7,21.75 -21.7,7.53 -44.6,14.05 -67.7,20.75 -23.1,7.09 -47,12.76 -70.7,18.96 -23.7,6.23 -47.7,11.14 -71.1,16.66 -23.6,4.84 -46.8,9.75 -69.4,13.9 -22.5,3.98 -44.2,8.14 -65,11.22 -20.7,3.41 -40.3,6.2 -58.3,8.67 -36.2,4.95 -66.3,8.25 -87.3,10.22 -9.2,0.89 -16.4,1.5 -21.6,1.93 -53.2,-26.3 -105.9,-52.39 -158.1,-78.16 -53.2,-27.3 -106.3,-53.57 -157.5,-80.7 -51.5,-26.84 -102.1,-53.26 -151.1,-79.77 -49.3,-26.17 -97.1,-52.36 -143.5,-77.88 -28.5,-15.66 -56.4,-31.14 -83.8,-46.44 4.7,-1.01 9.4,-2.04 14.2,-3.08 18.4,-4.05 38.3,-8.61 59.2,-13.84 21,-4.91 42.9,-10.93 65.5,-16.91 22.7,-6.13 46,-13.05 69.6,-19.93 23.4,-7.59 47.4,-14.58 70.9,-22.86 23.6,-8.31 47.3,-16.02 70.1,-25.09 22.9,-8.7 14.1,-31.46 -9.1,-24.76 -23.1,7.1 -47,12.76 -70.6,18.96 -23.7,6.23 -47.8,11.14 -71.2,16.66 -23.6,4.84 -46.8,9.75 -69.3,13.91 -22.6,3.98 -44.3,8.13 -65,11.21 -20.7,3.41 -40.3,6.2 -58.4,8.68 -36.2,4.94 -66.3,8.24 -87.2,10.21 -0.6,0.04 -1,0.07 -1.5,0.14 -32,-18.2 -63.1,-36.01 -93.2,-53.36 -79.7,-46.26 -152.4,-89.02 -216.3,-127.65 -64,-38.45 -119.2,-72.64 -164.5,-100.84 -45.2,-28.31 -55.5,-36.67 -79.3,-52.11 l 38.5,158.11" /></g><g
         transform="scale(2.72448)"
         id="g34"><path
           id="path36"
           style="fill:#38c7aa;fill-opacity:1;fill-rule:nonzero;stroke:none"
           d="m 13737.7,6992.57 c 64.6,168.98 -138.9,229.07 -276.4,220.59 -63.8,-3.93 -235,-63.5 -298.2,-86.22 98.5,80.35 220,182.24 356.5,302.48 2.8,-3.26 4.3,-5.1 4.3,-5.1 0,0 0.5,3.78 1.3,10.06 9.5,8.33 19,16.7 28.5,25.18 64.7,-39.68 518.7,-309.57 590.8,-120.76 64.5,168.95 -139,229.07 -276.5,220.59 -64.2,-3.96 -237.2,-64.27 -299.5,-86.66 110.5,98.3 229.7,207.79 353.6,326.89 53.7,-33.07 520.4,-314.08 593.5,-122.44 64.5,168.98 -138.9,229.1 -276.5,220.63 -67.7,-4.19 -256,-70.95 -308.4,-89.89 78.5,75.5 158.8,154.85 240,237.62 37.3,38.1 75.4,77.45 113.9,117.93 65.5,-32.78 540.8,-262.88 596.6,-66.8 49.7,175 -157.1,216.44 -292.8,195.3 -63.8,-9.94 -232.1,-87.24 -290.9,-114.84 105.3,111.03 214.2,230.68 323.5,357.46 50.5,-25.55 542.9,-268.2 599.7,-68.38 49.8,175 -157,216.44 -292.7,195.3 -67.8,-10.57 -253.4,-97.08 -300.5,-119.36 103.5,120.28 207.2,246.94 308.6,378.97 26.4,-13.47 544.7,-275.32 603.1,-70.03 49.7,175.01 -157.1,216.44 -292.8,195.3 -72.9,-11.34 -282.1,-110.59 -308.7,-123.29 94.7,123.33 187.2,251.24 275.6,382.87 v 0 0.07 c 3.4,5.03 6.8,10.05 10.1,15.08 43.2,-17.65 560.9,-224.7 602.1,-17.76 35.7,179.41 -172.8,203.19 -305.8,170.42 -68.5,-16.85 -255.2,-125.35 -292.7,-147.37 93.5,140.54 182.1,285.19 263.1,432.85 22.1,-6.09 581.4,-158.05 598.2,58.77 14.2,183.77 -194.3,180.8 -321.6,131.07 -68.7,-26.87 -253.7,-170.86 -275.5,-187.86 83.3,152.07 158.7,307.26 222.9,464.46 69.8,-5.1 585.9,-36.3 566,171.5 -17.8,185.1 -220.4,142.9 -336,69.6 -54.2,-34.5 -178.9,-173.4 -222.5,-222.8 44.4,110.1 83.2,221.2 115.7,332.9 63.5,70.2 379.3,434.1 222.7,559.2 -144.2,115.1 -239.8,-73.8 -258.7,-216 -9.1,-67.6 14.1,-266.6 22.4,-333.1 -33.4,-115.2 -73.5,-229.8 -119.6,-343.5 15.1,129.7 53.9,577.6 -128.4,590.6 -177.2,12.6 -150.6,-205.2 -88.6,-337.7 31.4,-67.2 173.1,-240.2 205.8,-279.7 -62.1,-149.8 -133.9,-297.74 -213.2,-442.83 15,129.42 54,577.73 -128.5,590.73 -177.1,12.6 -150.6,-205.2 -88.6,-337.7 30.8,-65.84 167.5,-233.28 203.7,-277.18 -76.9,-138.85 -160.4,-275.03 -248.4,-407.57 15.2,131.11 53.2,576.48 -128.6,589.44 -177.2,12.63 -150.6,-205.25 -88.6,-337.75 30.3,-64.64 162.8,-227.5 201.7,-274.77 -94.2,-140.51 -193.2,-276.82 -294.5,-407.82 9.6,72.08 73.6,603.16 -125.2,617.33 -177.2,12.62 -150.6,-205.22 -88.6,-337.72 33,-70.58 187.8,-257.99 209.9,-284.64 -99.9,-128.94 -201.8,-252.67 -303.4,-370.2 12.6,100.2 65.1,594.13 -126.4,607.79 -177.2,12.62 -150.7,-205.25 -88.7,-337.76 31.6,-67.46 174.4,-241.69 206.3,-280.2 -118.8,-136.98 -236.8,-265.26 -350.1,-383.3 12.5,98.48 65.8,594.9 -126.2,608.59 -177.2,12.63 -150.7,-205.25 -88.7,-337.75 31.6,-67.35 174,-241.18 206.1,-280.02 -24.6,-25.65 -49.2,-50.98 -73.3,-75.61 -96.9,-98.84 -192.6,-192.73 -285.3,-281.08 8.2,61.08 76.4,605.47 -124.8,619.79 -177.2,12.63 -150.7,-205.21 -88.7,-337.72 33.2,-70.95 189.5,-260.05 210.3,-285.08 -120.5,-114.77 -236,-220.11 -342.8,-314.55 15.1,129.27 54,577.83 -128.4,590.82 -177.2,12.63 -150.6,-205.21 -88.7,-337.71 29.4,-62.66 154.7,-217.51 197.9,-270.03 -158.2,-139.37 -296.3,-254.04 -401.6,-339.01 9.5,71.43 73.8,603.35 -125.1,617.55 -177.2,12.63 -150.7,-205.25 -88.7,-337.75 32.7,-69.7 184.1,-253.51 209.1,-283.58 -131.4,-105.82 -210.6,-164.47 -212.8,-166.08 l 9.5,-13.58 c 2.3,1.72 95.4,70.58 247.1,193.83 63.4,-38.9 519,-310.19 591.1,-121.01" /></g><g
         transform="scale(1.16421)"
         id="g38"><path
           id="path40"
           style="fill:#38c7aa;fill-opacity:1;fill-rule:nonzero;stroke:none"
           d="m 13420.9,16071.4 c -279.6,-204.1 -15.5,-512.7 214.2,-642.4 106.6,-60.1 443.5,-142.7 568.7,-172.2 -241.9,-26.4 -543.3,-63.4 -887.7,-114.2 -0.9,8.1 -1.5,12.6 -1.5,12.6 0,0 -4.9,-5.5 -12.8,-14.8 -23.7,-3.5 -47.6,-7 -71.9,-10.7 -62.6,131.1 -510.4,1037.6 -822.9,809.5 -279.6,-204.2 -15.5,-512.8 214.3,-642.4 107.2,-60.6 447.8,-143.8 571.1,-172.9 -279.8,-42.7 -585.2,-94.4 -908.4,-156.6 -51.7,109.1 -508.5,1046.7 -825.6,815.1 -279.6,-204.2 -15.5,-512.8 214.3,-642.4 112.9,-63.8 484.9,-152.8 588.9,-177 -204.7,-39.5 -416.4,-83.3 -633,-131.6 -99.6,-22.3 -201.8,-45.8 -305.8,-70.7 -71,120.8 -594.7,985.6 -888.5,728.8 -262.2,-229.3 26.8,-511.2 266.7,-618.7 112.8,-50.5 463.8,-101.7 586.9,-118.6 -284.9,-68.6 -584.3,-147.3 -892,-237.1 -54.6,93.7 -592.55,996.5 -891.9,734.8 -262.24,-229.3 26.8,-511.4 266.71,-618.7 119.73,-53.7 508.09,-108.2 606.89,-121.4 -291.5,-85.3 -590.06,-180.7 -890.52,-287.1 -28.34,49.2 -587.86,1009.6 -895.45,740.8 -262.25,-229.3 26.8,-511.3 266.7,-618.7 128.76,-57.7 568.2,-116.3 624.2,-123.6 -280.62,-99.4 -562.53,-208.5 -841.51,-327.8 v 0.1 l -0.09,-0.2 c -10.65,-4.5 -21.3,-9.1 -31.95,-13.6 -50.95,73.2 -666.73,945.1 -948.45,655.8 -244.25,-250.9 65.86,-506.4 313.57,-592.4 127.6,-44.3 540.48,-64.6 623.71,-68.3 -296.75,-128.2 -589.67,-268.2 -873.64,-420.9 -29.11,32.7 -769.04,859.4 -1021.83,528.7 -214.26,-280.2 123.59,-492.6 379.93,-545.5 138.33,-28.4 585.44,10.1 638.09,14.7 -292.25,-157.3 -574.89,-328.2 -841.95,-513.6 -106.74,81 -903.08,668.6 -1087.51,314.2 -164.33,-315.9 205.04,-459.2 467.04,-461.8 122.95,-1.2 467.9,92 589.45,126 -186.08,-130.6 -364.05,-268.8 -532.64,-414.1 -175.2,-46.6 -1061.41,-302.1 -940.22,-666 111.65,-335.2 461.96,-131.3 640.56,77.3 84.85,99 255,442.8 311.05,558.2 173.65,150.2 357.37,292.6 549.76,427.1 -159.32,-192.5 -688.21,-871.4 -408.95,-1082.2 271.36,-204.9 455.73,172.6 494.2,450.1 19.49,140.5 -27.8,565.9 -39.13,663.5 255.63,175.9 525.13,338.7 803.69,489 -159.01,-192.1 -688.58,-871.6 -409.17,-1082.5 271.36,-204.9 455.73,172.6 494.19,450.1 19.11,137.8 -25.93,549 -38.4,657.2 268.19,143 544.12,274.7 823.59,395.8 -160.96,-194.8 -686.05,-870.3 -407.58,-1080.6 271.36,-204.9 455.68,172.7 494.17,450.1 18.81,135.4 -24.4,534.9 -37.71,651.5 297.71,127.5 598.77,243.3 898.03,348 -90.62,-105.8 -746.69,-892 -442.28,-1121.7 271.35,-204.9 455.76,172.6 494.25,450 20.44,147.7 -32.82,609.9 -40.55,675.8 294.71,103 587.35,195.5 872.95,278.3 -124.7,-147.8 -723.66,-886.2 -430.16,-1107.7 271.36,-204.9 455.66,172.6 494.16,450.1 19.6,141.2 -28.3,569.9 -39.3,664.8 333.5,96.3 656.6,179.4 961.5,250.9 -122.6,-145.1 -725.4,-886.8 -431.2,-1108.9 271.3,-204.9 455.7,172.6 494.1,450.1 19.6,140.9 -28.1,568.6 -39.1,664.4 66.3,15.4 132.1,30.6 196.5,45 258.6,57.7 510.1,108.8 751.1,154.2 -77,-89.5 -753.6,-892.7 -445.3,-1125.5 271.3,-204.9 455.7,172.6 494.2,450.1 20.5,148.5 -33.4,615 -40.7,676.9 313.2,58.8 608.4,107.6 878.2,148 -158.8,-191.9 -688.8,-871.6 -409.3,-1082.7 271.3,-204.8 455.7,172.7 494.2,450.1 18.2,131.2 -21.8,510.4 -36.4,639.8 399.2,59 740.4,99.3 998.2,126 -89.8,-104.8 -747.1,-892.2 -442.5,-1122.1 271.4,-204.9 455.7,172.7 494.2,450.1 20.3,145.9 -31.5,598.9 -40.2,673.2 321.1,33 509.5,44.7 514.6,45.1 l -1,31.6 c -5.6,-0.3 -226.7,-14 -598.8,-53.8 -61.3,128.5 -510.3,1038.8 -823.3,810.2" /></g><g
         transform="scale(2.17555)"
         id="g42"><path
           id="path44"
           style="fill:#e84d7a;fill-opacity:1;fill-rule:nonzero;stroke:none"
           d="m 8923.41,12048.1 c 0,0 -117.9,549.7 -337.57,850.2 -219.71,300.6 -325.06,354.7 -325.06,354.7 0,0 -82.38,-779.6 -191.5,-982.5 -109.07,-202.9 -40.68,1397.6 -176.64,1592.2 -135.97,194.6 -1315.12,1164 -1410.77,1149.1 -95.66,-15 -240.04,-636.9 -321.12,-755.6 -81.13,-118.6 -202.89,1160.3 -202.89,1160.3 0,0 -1502.09,883.5 -2164.18,697.8 -616.05,-172.8 -289.78,-2046.4 -289.78,-2046.4 l 658.19,-251.5 -639.72,-189.1 751.13,-964.5 1015.1,-85.7 -331.96,-394.8 c 0,0 507.18,-816.7 719.27,-1037.3 212.08,-220.6 536.87,-520.2 536.87,-520.2 l 1113.75,154.3 -907.64,-730.9 2037.42,-397.06 467.1,2396.96" /></g><g
         transform="scale(2.05299)"
         id="g46"><path
           id="path48"
           style="fill:#ffffff;fill-opacity:1;fill-rule:nonzero;stroke:none"
           d="m 9101.16,10945.9 c -57.48,94 -87.19,142.2 -169.22,271.8 -11.94,18.9 -24.16,38.4 -36.63,58 1.8,11.7 3.56,24 5.26,37.2 4.68,31.2 7.94,66.4 12.23,104.8 3.11,38.5 7.4,80.1 9.4,124.2 3.02,44 4.48,90.4 5.7,138.5 1.75,47.9 0.53,97.6 0.92,147.9 -1.31,50.4 -2.48,101.5 -4.68,152.5 -3.31,51 -5.4,102 -9.69,152.1 -4.72,50 -8.57,99.3 -13.73,146.8 -5.8,47.5 -11.4,93.4 -16.71,136.9 -5.8,43.4 -12.81,84.3 -18.46,122.1 -5.85,37.8 -10.91,72.4 -17.15,102.8 -5.74,30.6 -10.76,57.2 -14.9,79.1 -8.24,43.8 -12.96,68.8 -12.96,68.8 0,0 2.87,-25.2 7.94,-69.5 2.49,-22 5.55,-48.9 9.06,-79.6 3.95,-30.8 6.48,-65.6 9.55,-103.5 2.82,-37.9 6.82,-78.9 9.4,-122.4 2.09,-43.5 4.33,-89.3 6.62,-136.7 1.66,-47.4 1.9,-96.4 2.92,-146.1 0.59,-49.8 -1.07,-100.2 -1.46,-150.6 -1.51,-50.5 -4.09,-100.8 -6.43,-150.3 -4.04,-49.3 -6.38,-98 -11.59,-144.8 -4.62,-46.8 -9.35,-92 -15.44,-134.7 -5.11,-42.7 -12.27,-82.7 -17.97,-119.7 -1.37,-7.2 -2.63,-14.2 -3.9,-21.1 -49.15,76.3 -101.27,156.5 -156.11,240.4 -103.8,157.7 -217.34,327.8 -340.04,506 -61.28,89.2 -124.36,180.7 -190.12,273.4 -65.02,93.1 -132.88,187.4 -201.95,283.2 -33.17,46.7 -67.31,93.3 -101.8,140.1 0.39,3.2 0.88,7 1.51,11.5 2.15,16 4.09,37.1 6.63,65 2.14,27.5 4.67,61 6.23,99.2 2.39,38.2 2.58,81.2 3.7,128.1 -0.34,46.9 0.44,97.6 -1.75,151.2 -1.02,53.6 -4.19,109.9 -7.79,168.1 -2.93,58.3 -9.7,118.2 -14.52,179.1 -6.92,60.9 -13.69,122.6 -21.77,184.1 -9.4,61.4 -17.34,122.9 -27.77,183.1 -11.01,60.1 -20.84,119.3 -32.1,176.4 -12.03,56.8 -23.62,111.8 -34.68,163.9 -11.54,52 -24.35,100.8 -35.17,145.9 -11.01,45.1 -20.84,86.5 -31.56,122.8 -10.18,36.3 -19.04,68 -26.35,94.1 -14.57,52.2 -22.89,82 -22.89,82 0,0 6.13,-30.3 16.85,-83.3 5.41,-26.5 11.88,-58.6 19.38,-95.5 8.04,-36.7 14.76,-78.6 22.46,-124.2 7.45,-45.7 16.61,-94.9 24.31,-147.2 7.16,-52.4 14.66,-107.6 22.45,-164.8 7.02,-57.2 12.47,-116.5 18.95,-176.5 5.99,-60.1 9.35,-121.4 14.17,-182.4 3.51,-61.1 5.7,-122.3 8.14,-182.4 0.34,-60.2 2.68,-119.3 1.31,-176.4 -0.63,-57.2 -1.6,-112.4 -4.48,-164.5 -1.61,-52.3 -6.04,-101.4 -9.01,-146.7 -4.43,-45.2 -7.65,-86.7 -12.61,-123 -1.03,-8.9 -2.1,-17.5 -3.12,-25.7 -70.39,93.3 -141.55,187.6 -213.3,282.8 -151.59,196.5 -307.02,395.2 -467.51,590.1 l -120.12,146.2 c -40.77,48.2 -81.49,96.2 -122.16,144.3 -80.67,96.4 -163.72,190.4 -245.89,283.7 -100.49,114.2 -201.95,225.5 -303.17,334 -1.46,37.2 -5.06,89.2 -11.73,150.8 -4.1,31.3 -7.55,65.2 -13.4,100.6 -5.26,35.6 -11.45,72.9 -19,111.3 -6.62,38.6 -15.97,77.9 -24.5,118 -8.96,40 -19.77,80.2 -29.61,120.5 -11.45,40 -22.9,79.9 -34.15,119.3 -12.47,38.9 -24.79,77.2 -36.68,114.2 -13.15,36.6 -25.86,72 -37.94,105.5 -11.94,33.5 -25.38,64.5 -36.63,93.5 -11.64,28.8 -21.68,55.4 -32.3,78.3 -10.22,23.1 -19.14,43.2 -26.45,59.8 -14.66,33.1 -23.03,52 -23.03,52 0,0 6.23,-19.7 17.19,-54 5.46,-17.2 12.08,-38 19.73,-62 7.99,-23.7 15.05,-51.1 23.43,-80.8 7.99,-29.7 17.87,-61.6 26.01,-95.8 8.18,-34.2 16.9,-70.3 25.86,-107.6 7.65,-37.5 15.59,-76.3 23.68,-115.7 6.72,-39.5 13.59,-79.6 20.45,-119.7 5.26,-40.4 11.45,-80.5 15.88,-120.1 3.95,-39.7 8.82,-78.6 11.11,-116.5 3.16,-37.7 5.16,-74.2 6.38,-108.7 1.9,-34.5 1.61,-67.1 2.19,-97.1 0,-1.4 0,-2.8 0,-4.2 -19.68,20.7 -39.31,41.2 -58.89,61.6 -82.27,85.5 -165.66,167.3 -245.88,248.5 -81.64,79.9 -163.23,156.5 -241.65,231.9 -79.98,73.9 -159.18,144.4 -234.98,213.3 -76.91,67.8 -153.28,131.1 -225.47,193 -35.75,31.3 -72.58,60 -108.28,88.3 -35.66,28.3 -70.53,56 -104.53,82.9 -67.09,55 -134.17,103 -196.55,148.8 -123.26,93.6 -133.65,79.9 -13.54,-16.9 60.8,-47.5 126.15,-97.1 191.4,-153.8 33.06,-27.8 66.91,-56.3 101.59,-85.5 34.73,-29.2 70.48,-58.8 105.21,-91 70.05,-63.7 144.13,-128.8 218.66,-198.4 73.41,-70.8 150.07,-143.1 227.38,-218.9 75.84,-77.3 154.65,-155.7 233.46,-237.5 77.4,-83.1 157.87,-166.7 237.07,-254 32.24,-35.6 64.59,-71.6 96.98,-107.9 -32.44,0.4 -69.8,0.5 -111.3,-0.1 -35.8,-0.5 -74.53,-1.3 -115.4,-3.1 -40.91,-1.2 -83.97,-4.3 -128.49,-7 -44.42,-3 -90.31,-7.4 -136.83,-11.6 -46.42,-5.7 -93.61,-9.9 -140.52,-17.1 -46.86,-7.2 -93.81,-13.1 -139.5,-22.3 -45.84,-8.3 -90.85,-16.4 -133.91,-26.9 -43.15,-9.6 -84.85,-18.9 -123.72,-30.4 -38.87,-11.1 -76.08,-19.8 -109.25,-31.8 -33.37,-11.1 -63.96,-21.3 -91.06,-30.3 -26.71,-10 -49.62,-19.6 -68.63,-27.1 -37.86,-15.2 -59.51,-23.8 -59.51,-23.8 0,0 22.43,6.6 61.68,18.1 19.64,5.7 43.25,13.1 70.67,20.5 27.71,6.4 58.98,13.6 93.08,21.5 33.76,8.7 71.56,13.9 110.86,21.2 39.21,7.7 81.2,13 124.55,18.5 43.16,6.3 88.22,10.1 133.86,14.1 45.54,4.8 92.2,6.2 138.62,9 46.42,2.7 93.14,2.5 138.83,3.9 45.78,-0.2 90.84,-0.1 134.43,-1.2 43.6,-1.5 85.63,-2.3 125.53,-4.9 39.84,-1.9 77.49,-4.6 112.18,-7.4 69.36,-5.4 126.83,-11.8 166.73,-16.9 20.11,-2.4 35.46,-4.6 45.64,-6.1 10.67,-1.6 16.36,-2.4 16.36,-2.4 l 1.22,12.3 c 88.17,-100.7 176.28,-203.6 263.62,-308.9 78.86,-95.1 158.6,-190.8 235.9,-288.9 39.01,-48.9 78.03,-97.8 117.14,-146.8 l 115.01,-148.8 c 111.39,-143.6 219.97,-289.2 326.5,-434.4 -12.62,2.9 -25.58,5.8 -39.12,8.8 -34.97,7.7 -72.97,15.8 -113.25,23.3 -40.18,8.3 -82.9,15.1 -126.89,22.7 -44.08,7.2 -89.86,13.5 -136.24,20.1 -46.61,5 -93.66,11.7 -141.16,15.5 -47.39,3.8 -94.59,8.8 -141.4,10.3 -46.71,2.4 -92.55,4.9 -137.07,4.6 -44.42,0.5 -87.33,1.1 -128.01,-1.2 -40.62,-1.9 -79,-1.7 -114.27,-5.8 -35.22,-3.1 -67.46,-6 -96.1,-8.5 -28.45,-3.5 -53.14,-7.7 -73.5,-10.6 -40.63,-6 -63.81,-9.4 -63.81,-9.4 0,0 23.47,1.3 64.54,3.5 20.5,0.9 45.34,2.7 73.89,3.6 28.54,-0.1 60.79,-0.3 95.96,-0.4 35.02,0.7 73.11,-3 113.2,-4.9 40.13,-1.5 82.36,-5.9 125.91,-10.5 43.64,-3.8 88.46,-10.4 133.95,-17 45.5,-5.8 91.38,-15 137.26,-23 45.94,-8 91.38,-18.9 136.29,-28 44.62,-10.6 88.56,-20.8 130.74,-31.8 42.13,-11.5 82.95,-21.9 121.19,-33.5 38.38,-11 74.38,-22.2 107.5,-32.9 66.29,-21.1 120.8,-40.4 158.45,-54.4 16.56,-6.1 29.42,-11 38.82,-14.7 69.12,-97.5 137.7,-194.2 205.46,-289.9 68.34,-99.5 137.36,-196.8 202.48,-294.4 65.71,-97.1 130.3,-192.6 192.11,-287 62.55,-93.9 122.46,-186.6 180.72,-276.9 35.7,-55.3 70.53,-109.8 104.57,-163.4 -8.76,2 -17.73,4 -26.88,6 -35.02,7.7 -72.97,15.7 -113.3,23.3 -40.14,8.3 -82.9,15.1 -126.89,22.7 -44.08,7.2 -89.87,13.5 -136.19,20.1 -46.66,5 -93.72,11.7 -141.16,15.5 -47.44,3.7 -94.64,8.8 -141.45,10.3 -46.67,2.4 -92.55,4.9 -137.07,4.5 -44.42,0.6 -45.74,-39.6 -2.14,-44.2 43.59,-3.7 88.4,-10.4 133.9,-16.9 45.54,-5.8 91.38,-15.1 137.31,-23 45.88,-8 91.38,-18.9 136.24,-28 44.62,-10.6 88.55,-20.8 130.79,-31.9 42.13,-11.4 82.9,-21.8 121.14,-33.5 38.38,-10.9 74.42,-22.2 107.55,-32.8 66.24,-21.1 120.8,-40.4 158.45,-54.4 0.92,-0.4 1.65,-0.7 2.58,-1 39.65,-63.4 77.98,-125.2 115,-185.3 97.81,-159.7 186.71,-306.5 263.67,-437.5 77.44,-130.8 143.4,-245.6 197.51,-340.2 53.68,-94.7 64.25,-120 92.21,-170.9 l 67.32,345.5" /></g><g
         transform="scale(1.82862)"
         id="g50"><path
           id="path52"
           style="fill:#38c7aa;fill-opacity:1;fill-rule:nonzero;stroke:none"
           d="m 3839.78,14310 c 325.31,128.8 689.69,117.3 917.43,90.4 -301.75,127.6 -563.58,220.6 -752.11,282.2 -252.67,-69.9 -934.65,-244.4 -1305.08,-199.5 -749.68,91 -716.41,904 165.08,788.7 511.88,-66.8 919.06,-320.1 1113.42,-462.5 156.49,-49.5 379.73,-125.6 643.5,-230.9 -99.63,102 -306.53,326.3 -394.22,514.8 -117.6,252.9 -17.16,673.1 117.34,673.9 134.52,0.7 325.35,-239.8 328.61,-500.9 2.78,-220.8 3.59,-598.4 3.77,-710.1 273.11,-110.9 585.67,-251.9 910.3,-425.9 -134.6,197.2 -425.01,648.1 -524.76,1002.7 -131.54,467.6 127.99,1167.1 345.53,1133.1 217.51,-34 470.22,-499.5 415.09,-951.4 -46.37,-380.3 -132.12,-1030.2 -158.15,-1226.6 247.56,-136 500.65,-291.1 747.23,-466.4 -124.41,163.1 -446.51,530.2 -513.01,736.8 -141.36,439.3 91.05,944.3 333.26,864.9 162.63,-53.2 415.12,-469.9 394.94,-813.1 -16.02,-272.7 -47.19,-727.2 -59.33,-902.9 217.1,-164.2 426.77,-344.7 620.74,-542.4 -92.53,262.9 -231.93,706.8 -251.34,1043.2 -29.42,509.5 351.25,1169 546.92,1085 195.72,-83.9 338.28,-618.7 197.08,-1070 -111.17,-355.5 -301.32,-945.3 -377.17,-1180 106.92,-116.9 208.14,-239.2 301.93,-367.6 98.65,-134.9 190.19,-273.8 275.12,-415.3 -29.53,273.1 -43.8,735.8 124.52,1058.4 207.04,396.9 449.79,209.5 470.14,-59.5 17.99,-237.4 -457.18,-851.7 -560.97,-1055.9 170.89,-292 314.39,-593.7 434.48,-892.7 -27.34,283.6 -47.14,647.7 -9.46,925.5 71.75,529.3 555.12,1122.1 721.25,992.8 166.19,-129.3 195.01,-709.6 -24.55,-1141.7 -165.76,-326.2 -441.26,-857.7 -566.22,-1098.5 109.97,-312.6 195.83,-617.1 262.71,-898.96 -24.17,345.26 -32.65,857.06 97.62,1106.86 207.04,396.8 464.55,181.3 484.95,-87.7 17.56,-231.5 -401.5,-1077.89 -518.48,-1308.99 146.67,-714.58 168.16,-1223.93 168.55,-1234.81 0.65,-18.92 -8.59,-38.12 -22.97,-51.19 -7.33,-6.67 -15.92,-11.7 -25.21,-14.27 -27.67,-7.77 -50.92,9.02 -51.95,37.46 -0.39,11.7 -25.27,602.91 -206.06,1404.06 -108.83,6.13 -301.32,22.75 -445.47,66.78 -212.24,64.75 -316.75,298.76 -263.26,421.16 70,160 260.25,213.6 478.88,65.1 46.1,-31.3 86.41,-74.5 121.84,-122.6 -66.99,242.4 -148.14,496.3 -246.3,753.6 -166.68,-35.4 -499.61,-99.4 -759.76,-107.6 -361.36,-11.3 -621.07,210.3 -585.96,369.1 45.88,207.7 324.67,343.4 730.12,263 207.26,-41 390.84,-171 520.99,-288.3 -132.94,315.8 -292.57,632.9 -484.24,936.4 -168.71,-60.5 -613.31,-213.4 -959.85,-273.1 -436.51,-75.2 -1004.86,184.6 -986.49,371.6 24.01,244.5 424.48,497.6 928.35,476.1 306.96,-13.1 729.19,-278.5 905.66,-403.9 -30.08,43.9 -60.65,87.5 -92.15,130.6 -234.33,320.6 -515.41,604.5 -817.39,854.3 -193.31,-143 -775.28,-573 -1120.52,-823.3 -418.51,-303.6 -996.56,-326.2 -1133.22,-141.2 -136.66,185 428.58,818.1 951.12,955.4 393.9,103.5 970.9,83.4 1231.2,67.3 -239.36,191.7 -490.42,362.4 -740.67,513.6 -129.05,-97.4 -483.54,-358.7 -776.38,-516.6 -365.22,-196.9 -732.94,-153.7 -769.79,-7.7 -48.19,190.9 175.37,444.8 627.71,591 276.52,89.3 576.79,58.8 768.57,21.6 -279.18,160.3 -554.24,296.4 -807.83,409.6 -135.23,-114.9 -543.11,-454.6 -883.35,-665 -414.43,-256.4 -850.39,-239.3 -905.04,-76.3 -71.48,213.2 171.9,522.2 692.76,728.3" /></g><g
         transform="scale(2.93109)"
         id="g54"><path
           id="path56"
           style="fill:#38c7aa;fill-opacity:1;fill-rule:nonzero;stroke:none"
           d="m 15255.5,5473.67 c -122.9,-119.95 -290.1,-183.79 -398.2,-214.8 160.8,-0.58 296.9,6.96 393.9,14.81 101.2,79.56 376.9,287.81 553.1,337.69 356.6,100.92 495.7,-273.48 74.8,-388.43 -244.5,-66.73 -476.8,-29.2 -591.8,-1.56 -80.2,-7.24 -195.8,-15.12 -335.1,-17.47 64.4,-27.26 200.6,-89.63 276,-158.34 101.2,-92.18 135.4,-301.49 74.6,-327.32 -60.7,-25.86 -192.7,46.88 -243.7,164.48 -43.1,99.42 -115,270.21 -136.3,320.8 -144.7,-1.57 -312.9,3.04 -492.8,20.27 98.3,-63.8 315.2,-212.86 427.6,-354.51 148.2,-186.76 163.3,-552.66 58.3,-578.49 -104.9,-25.86 -307.6,137.05 -368.2,352.05 -51.1,180.99 -135.5,491.49 -160.9,585.35 -137.9,14.63 -281.9,36.91 -426.7,69.53 87.2,-50.29 302.6,-155.44 371.9,-236.4 147.3,-172.08 137.8,-444.75 13.1,-454.71 -83.8,-6.72 -277.1,134.08 -333,293.27 -44.4,126.51 -116.4,338.2 -144.2,420.05 -129.4,33.16 -258.6,75.19 -383.9,127.91 91.8,-101.5 239,-276.05 311.5,-424.66 109.9,-225.1 62.6,-595.82 -41.9,-594.93 -104.5,0.92 -270.4,216.03 -292.1,447.13 -17,181.99 -42.7,485.08 -52.9,605.72 -70.5,32.65 -139.6,68.85 -206.3,109.17 -70.3,42.41 -138,87.96 -203.3,135.89 65.1,-118.01 309,-440.48 294,-618.47 -18.5,-218.93 -244.8,-226.57 -304.9,-108.66 -53.2,104.09 -23.5,634.47 -15.2,746.61 -132.7,99.76 -254.8,209.14 -365.9,321.76 66.2,-123.2 144.1,-284.3 179.7,-417.18 67.9,-253.29 -38.6,-613.26 -138.3,-586.2 -99.8,27.05 -222.8,284.29 -205.3,521.51 13.2,179.15 37.2,471.98 48.1,604.69 -109,120.71 -205.6,242.3 -289.3,357.21 76.4,-151.76 177.2,-381.84 165.6,-519.61 -18.5,-218.93 -176,-170.17 -236.2,-52.23 -51.8,101.5 -22.5,564.09 -13.3,690.91 -201.9,295.72 -308.1,522.26 -310.4,527.14 -3.9,8.39 -3.3,18.86 0.7,27.5 2.1,4.4 5,8.32 8.7,11.26 11.1,8.73 24.8,5.52 30.6,-7.13 2.4,-5.22 125.7,-268.17 359.5,-596.64 50.4,17.84 140.7,46.8 214.3,54.21 108.4,10.88 200,-75.23 199,-140.77 -1.4,-85.73 -77.3,-146.05 -204.5,-120.26 -26.8,5.42 -53.2,17.33 -78.4,32.44 76.3,-97.06 161.2,-196.61 254.4,-294.53 68.7,47.63 207.3,139.74 323.6,192.69 161.5,73.59 321,22.49 335.2,-56.05 18.6,-102.69 -81.9,-216.95 -280.7,-257.45 -101.6,-20.71 -209.4,3.35 -290.5,31.83 120,-117.84 252.4,-231.11 396.7,-332.19 64.9,59.36 237.2,212.85 382.8,305.55 183.4,116.78 490,106.85 517.1,18.73 35.4,-115.25 -97.9,-305.76 -330.1,-391.49 -141.4,-52.24 -382.9,-12.08 -486.6,11.22 22,-14.16 44.1,-28.11 66.5,-41.66 166.9,-100.74 347.9,-176.01 532,-231.89 60.4,101.4 242.4,406.37 351.2,585.14 132,216.75 389.4,336.57 486.3,278.7 97,-57.83 -39,-451.6 -249.5,-612.81 -158.7,-121.52 -423.8,-221.79 -544.7,-263.82 144.8,-41.46 290.7,-71.17 432.7,-92.15 40,68.57 150.9,254.06 253.6,381.05 128,158.34 302.7,208.45 347.1,149.36 58,-77.27 4.9,-234.62 -172.2,-386.54 -108.3,-92.84 -250,-135.93 -343.9,-155.44 156.8,-19.69 307.1,-29.17 443.4,-32.38 39.4,77.69 159.7,308.76 273.9,468.53 139,194.61 339.6,269.53 395.3,206.07 72.7,-82.97 21.1,-268.98 -175.6,-461.06" /></g><g
         transform="scale(2.39794)"
         id="g58"><path
           id="path60"
           style="fill:#fcc646;fill-opacity:1;fill-rule:nonzero;stroke:none"
           d="m 16300,7043.95 c 0,-2755.65 -2550.8,-4989.52 -5697.3,-4989.52 -3146.57,0 -5697.33,2233.87 -5697.33,4989.52 0,2755.65 2550.76,4989.55 5697.33,4989.55 3146.5,0 5697.3,-2233.9 5697.3,-4989.55" /></g><g
         transform="scale(2.41397)"
         id="g62"><path
           id="path64"
           style="fill:#ffffff;fill-opacity:1;fill-rule:nonzero;stroke:none"
           d="m 10532.3,11845.4 c -3061,0 -5551.33,-2174.9 -5551.33,-4848.21 0,-2673.32 2490.33,-4848.24 5551.33,-4848.24 3061,0 5551.3,2174.92 5551.3,4848.24 0,2673.31 -2490.3,4848.21 -5551.3,4848.21 z m 0,-9912.82 c -3180.34,0 -5767.7,2271.99 -5767.7,5064.61 0,2792.62 2587.36,5064.61 5767.7,5064.61 3180.3,0 5767.7,-2271.99 5767.7,-5064.61 0,-2792.62 -2587.4,-5064.61 -5767.7,-5064.61" /></g><g
         transform="scale(2.24567)"
         id="g66"><path
           id="path68"
           style="fill:#4c1506;fill-opacity:1;fill-rule:nonzero;stroke:none"
           d="m 15422.3,10959.7 c 187.1,243.9 278.8,665.8 216.8,1122.4 -62.4,459.9 -264.4,835.5 -510.5,1006.4 63.7,-26.3 150.5,-70.3 242.5,-141.3 167.6,-129.3 387.1,-377.1 480.8,-823.5 86,-409.1 -19.4,-841.3 -68.7,-1008 -17.6,-59.5 13.3,-123.3 68.7,-142.4 56.4,-19.4 119.2,-61.3 176.8,-118 151.4,-148.9 228.2,-361.2 210.7,-582.5 -8.3,-106.4 -37.6,-207.7 -84.8,-298.49 50.2,112.59 70.5,231.79 54.3,351.09 -45.5,335.8 -367,577.3 -786.6,634.3 z m -5517.99,4411.7 c -308.59,-407.3 -462.58,-1053.5 -602.18,-1682.4 -13.54,9.7 -27.88,18.2 -42.97,25.3 -249.1,117.7 -615.72,-167.7 -818.82,-637.6 -70.23,-162.5 -111.51,-325.6 -125.44,-474.5 -47.38,611.6 39.4,1028 258.98,1239.1 196.43,188.8 455.59,162 592.57,129.2 35.93,-8.6 72.76,-1.3 103.71,20.5 30.99,21.8 51.7,55.1 58.29,93.7 69.78,408.4 342.75,1746.3 925.15,1814.6 401.7,47 759.6,-198.4 989.3,-412.6 137.7,-128.4 247,-261.2 317.8,-355.3 -339.9,285.2 -1106.8,965.6 -1656.39,240 z M 15825,9584.81 l 130.6,94.31 c 188.3,135.91 307,351.18 325.9,590.48 18.5,235 -63.1,460.5 -223.8,618.6 -62,60.9 -130.2,106.2 -192.2,127.5 -33.9,11.7 -52.7,50.8 -42,87.1 50.3,170.3 157.8,611.5 69.6,1031.1 -96.8,461 -324.6,717.1 -498.6,850.9 -189.1,145.3 -353.4,180.7 -360.3,182.1 -2.6,0.6 -5.4,0.5 -7.9,0 -179,1081.4 -538.3,1948.4 -1294.1,1806.1 78.9,85.7 186.2,172 309.4,190.2 259.8,38.2 385.5,-77 385.5,-77 0,0 -182.2,456.2 -761.7,144.5 -74.5,-40.1 -130.9,-77.2 -172.9,-111.5 -29.5,356.6 -152.6,1034.3 -661.5,1090.1 -762.5,83.6 -1009.8,-1134.8 -1103,-1188.5 -8.5,-4.8 -24.7,1.6 -47.7,16.6 -32.5,49.7 -183.1,271.9 -408.5,482.3 -338.6,316.1 -692.2,462.7 -1022.3,423.9 -263.25,-30.8 -493.79,-298.4 -685.09,-795.4 -151.76,-394.2 -238.99,-830.9 -277.46,-1056.1 -4.55,-26.4 -18.66,-49.1 -39.86,-64 -21.11,-14.9 -46.31,-19.9 -70.8,-14 -145.04,34.7 -419.79,62.7 -630.55,-140 -254.76,-244.9 -339.54,-745.6 -252.09,-1488.1 -104.2,16.6 -216.37,18.9 -332.24,4 -481.1,-62 -842.15,-393.9 -806.48,-741.2 20.88,-203.3 173.13,-366.9 392.27,-455.1 -19.91,-17 -39.73,-34.2 -59.45,-51.6 -94.67,-75.9 -288.11,-205.5 -473.05,-174.4 -258,43.4 -346.04,192.8 -346.04,192.8 0,0 35.18,-362.5 445.88,-390.8 C 6705.8,10298.9 6590.86,9493.83 6967.01,8990.06 8096.39,7477.51 12496.4,6645.1 14603.9,7448.96 c 1424.3,543.27 1230,1374.96 947.7,1794.35 411.6,-187.57 609.1,163.07 609.1,163.07 0,0 -143.1,-103.94 -395.9,-34.47 -49.9,13.71 -95.2,39.23 -135.7,71.38 l 182.1,131.54 c 4.7,3.3 9.3,6.64 13.8,9.98" /></g><g
         transform="scale(1.89801)"
         id="g70"><path
           id="path72"
           style="fill:#380c01;fill-opacity:1;fill-rule:nonzero;stroke:none"
           d="m 12158.2,14144.6 c 0,0 433.9,-731.4 360.2,-1342.4 -68.5,-568.6 -992,-938.8 -992,-938.8 l 4773.6,-403.7 c 0,0 -761.6,349.1 -1000.5,698.2 -320.8,468.9 -236.3,740 140.2,1304.8 l -3281.5,681.9" /></g><g
         transform="scale(1.89801)"
         id="g74"><path
           id="path76"
           style="fill:#a8412c;fill-opacity:1;fill-rule:nonzero;stroke:none"
           d="m 16300,11459.7 c -434.6,272.9 -1716.6,657.4 -1841.5,789 -368.7,388.6 -224.3,1371.8 -224.3,1371.8 l -1237.6,-7.9 c 0,0 34.6,-911.7 -293.4,-1360.6 -111.5,-152.6 -1398.3,-368.9 -1846.2,-662.7 0,0 794.4,-1912.72 743.1,-3474.41 -60.4,-1838.51 -431.1,-3393.78 -431.1,-3393.78 0,0 687.1,-405.47 2357.2,-403.16 1928,2.69 2773.8,332.09 2773.8,332.09 0,0 -436.4,1382.71 -470.7,3273.64 -28.2,1554.21 470.7,3536.02 470.7,3536.02" /></g><g
         transform="scale(1.95864)"
         id="g78"><path
           id="path80"
           style="fill:#443389;fill-opacity:1;fill-rule:nonzero;stroke:none"
           d="m 16300,4772.28 c 0,-1008.61 -1263.3,-1826.26 -2821.6,-1826.26 -1558.4,0 -2821.7,817.65 -2821.7,1826.26 0,1008.61 1263.3,1826.26 2821.7,1826.26 1558.3,0 2821.6,-817.65 2821.6,-1826.26" /></g><g
         transform="scale(2.03107)"
         id="g82"><path
           id="path84"
           style="fill:#a8412c;fill-opacity:1;fill-rule:nonzero;stroke:none"
           d="m 7062.57,4614.65 c 0,0 175.67,747.34 1606.19,485.8 1430.54,-261.58 3039.34,-1432.39 4131.24,-1911.99 1191.1,-523.27 1402,-537.3 1402,-537.3 0,0 378.2,94.73 892.9,286.75 425.8,158.83 979.3,349.27 1073.2,248.78 131.9,-141.31 -47.9,-715.68 -647.6,-940 -947.3,-354.29 -1315.6,-272.91 -1315.6,-272.91 -304.5,50.57 -4772.35,445.83 -5517.38,702.49 -919.76,316.92 -1982.79,1039.35 -1624.95,1938.38" /></g><g
         transform="scale(1.90715)"
         id="g86"><path
           id="path88"
           style="fill:#8e3728;fill-opacity:1;fill-rule:nonzero;stroke:none"
           d="m 14758.5,2516.06 c 7.3,12.32 134.3,186.25 242.4,334.95 97.6,-27.05 123.9,-27.58 123.9,-27.58 l 547.4,163.54 c 0,0 -525.4,-170.51 -560.9,-417.63 -42.7,-296.57 619.1,-431.65 1188.7,-258.09 -775,-275.64 -1143.5,-213.35 -1143.5,-213.35 -47.7,7.08 -194.8,34.76 -409.4,53.32 0.8,167.74 4.2,352.83 11.4,364.84" /></g><g
         transform="scale(1.7652)"
         id="g90"><path
           id="path92"
           style="fill:#736aad;fill-opacity:1;fill-rule:nonzero;stroke:none"
           d="m 8089.38,5344.43 c 0,0 296.91,888.62 1941.22,578.18 1644.3,-310.45 3488,-1668.25 4741.2,-2227.34 712.4,-317.81 1249.9,-495.3 1493.9,-575.51 24.2,-7.94 34.3,-37.39 20.5,-59.38 -71.1,-112.79 -110.4,-173.8 -139.6,-363.12 -19.1,-123.56 -8.6,-286.94 67.7,-397.24 10.3,-14.9 -1.7,-35.35 -19.3,-33.37 -1004.8,113.47 -5462,451.85 -6245.38,726.77 -1056.25,370.73 -2277.58,1318.95 -1860.24,2351.01" /></g><g
         transform="scale(1.7652)"
         id="g94"><path
           id="path96"
           style="fill:#443389;fill-opacity:1;fill-rule:nonzero;stroke:none"
           d="m 16265.7,3120.05 c -95.7,31.44 -236.5,77.89 -415.2,141.8 v 0 c 0,0 -576.3,-120.33 -629.2,-377.92 -45,-218.96 -260.9,-261.56 -971.3,-234.31 -1655.1,63.45 -3729.4,443.12 -4228.8,618.46 -757.92,266.03 -1750.45,889.53 -2011.95,1567.81 66.68,-824.72 1060.68,-1534.05 1940.41,-1842.85 783.34,-274.93 5240.64,-613.31 6245.34,-726.78 17.6,-1.98 29.7,18.47 19.3,33.37 -40,57.9 -75.1,218.45 -62,383.81 15.1,190.91 62.8,264.39 133.9,377.24 13.8,21.98 3.7,51.38 -20.5,59.37" /></g><g
         transform="scale(2.31051)"
         id="g98"><path
           id="path100"
           style="fill:#a8412c;fill-opacity:1;fill-rule:nonzero;stroke:none"
           d="m 15944.6,4480.1 c 0,0 -191,645.05 -1403.6,331.78 -1212.6,-313.26 -2529,-1434.36 -3439.3,-1918.97 -993.2,-528.67 -1173.32,-553.38 -1173.32,-553.38 0,0 -329.45,60.89 -781.17,199.09 -373.69,114.34 -858.65,248.86 -933.69,155.24 -105.52,-131.65 79.67,-624.79 606.1,-786.36 831.46,-255.14 1142.86,-162.17 1142.86,-162.17 258.42,62.19 4068.32,670.8 4693.42,939.62 771.6,331.83 1644.1,1027.7 1288.7,1795.15" /></g><g
         transform="scale(1.45529)"
         id="g102"><path
           id="path104"
           style="fill:#8e3728;fill-opacity:1;fill-rule:nonzero;stroke:none"
           d="m 16256.1,3344.63 c -10.4,15.39 -186.7,231.71 -337,416.68 -122.5,-43.97 -156.2,-46.93 -156.2,-46.93 l -712.9,165.95 c 0,0 685.4,-177.01 750.8,-496.95 78.3,-383.97 -756.8,-618.43 -1498.9,-441.35 1012.9,-292.59 1479,-178.93 1479,-178.93 60.4,13.4 246.3,62.46 519.1,105.54 -14.6,219.13 -33.7,460.87 -43.9,475.99" /></g><g
         transform="scale(2.31476)"
         id="g106"><path
           id="path108"
           style="fill:#736aad;fill-opacity:1;fill-rule:nonzero;stroke:none"
           d="m 15941.1,4500.16 c 0,0 -262.5,660.89 -1471.1,341.07 -1208.7,-319.81 -2516.6,-1446.58 -3422.7,-1935.66 -515.1,-278 -906.6,-440.39 -1084.28,-513.79 -17.63,-7.3 -23.81,-30.2 -12.49,-46.18 58.17,-82.26 90.27,-126.62 120.87,-269.19 20,-93.01 19.8,-217.82 -31.8,-305.64 -6.9,-11.88 2.9,-26.83 16,-24.41 742.1,137.42 4042,621.62 4611.9,870.63 768.3,335.75 1632.5,1119.25 1273.6,1883.17" /></g><g
         transform="scale(2.27565)"
         id="g110"><path
           id="path112"
           style="fill:#443389;fill-opacity:1;fill-rule:nonzero;stroke:none"
           d="m 10134.2,2433.11 c 70.9,29.26 175.3,72.5 307.4,131.21 l 1184.4,621.1 c 0,0 -1078.5,-600.4 -1051.6,-843.63 22.7,-205.3 238.2,-290.73 774.4,-232.9 1249.4,134.73 3134,600.4 3503.5,761.89 560.9,245.08 1282.2,778.9 1447.7,1317.34 -11.1,-641.66 -729.5,-1242.02 -1380.4,-1526.46 -579.7,-253.29 -3936.3,-745.77 -4691.1,-885.6 -13.4,-2.46 -23.4,12.75 -16.3,24.83 27.6,46.89 46.4,172.96 28.7,300.22 -20.5,146.95 -60.2,201.35 -119.3,284.98 -11.5,16.3 -5.2,39.59 12.6,47.02" /></g><g
         transform="scale(1.67561)"
         id="g114"><path
           id="path116"
           style="fill:#8e3728;fill-opacity:1;fill-rule:nonzero;stroke:none"
           d="m 15605.3,14065.7 c 288.5,17.6 586.8,135.4 586.8,135.4 -153.1,549.3 107.9,878.3 107.9,878.3 l -1554.1,380.2 c 0,0 -17.7,-341.4 -81.2,-830.6 0,0 305.8,-301 568.8,-469.4 110.4,-70.7 241,-101.9 371.8,-93.9" /></g><g
         transform="scale(1.94857)"
         id="g118"><path
           id="path120"
           style="fill:#a8412c;fill-opacity:1;fill-rule:nonzero;stroke:none"
           d="m 15412.7,13873.5 c -31.1,3.7 -60.7,3.1 -88.9,-1.4 207.2,1053.1 -327.5,2050.6 -1207.6,2239 -882.2,188.9 -1780.5,-505.8 -2020.2,-1555.5 -28.1,21 -60.4,37.5 -97.5,48.9 -178.1,54.9 -302.6,-74.3 -333.4,-326.1 -39.8,-326.2 197.9,-682.2 318.8,-690.8 30.6,-2.1 61.5,8.2 90.8,29.5 130.6,-687.8 964.8,-1319 1213.6,-1372.3 347.2,-74.3 1260.1,176.9 1661.4,743.8 16.5,-23.6 37,-40.5 60.9,-49.2 112.9,-41.3 473,187.2 570.2,501.1 75.1,242.4 15.2,410.8 -168.1,433" /></g><g
         transform="scale(2.06185)"
         id="g122"><path
           id="path124"
           style="fill:#a8412c;fill-opacity:1;fill-rule:nonzero;stroke:none"
           d="m 16099.9,5862.56 c 200.1,437.52 -226.2,4794.54 -1297,4727.34 -608.6,-38.2 -445.6,-1496.69 -124.6,-2820.26 187.1,-771.45 504.6,-1226.28 452.1,-1647.6 -30.5,-244.83 -2135.3,-1776.57 -2135.3,-1776.57 l 15,-486.26 c 0,0 834,250.07 1642.7,709.17 959.1,544.51 1273.4,914.23 1447.1,1294.18" /></g><g
         transform="scale(1.90617)"
         id="g126"><path
           id="path128"
           style="fill:#f4517c;fill-opacity:1;fill-rule:nonzero;stroke:none"
           d="m 10860.9,4655.47 c 0,0 1019.4,-587.77 3073,-391.1 l 88.1,1036.27 c 81.9,962.98 48.4,1930.37 -56.1,2891.15 -126.3,1160.18 1239.9,1644.71 1760.5,1139.56 180.6,1112.65 573.6,2046.05 573.6,2046.05 -259.9,163.3 -894.8,400.2 -1331,564.9 -337.6,-387.8 -855.9,-636.4 -1437.4,-636.4 -600.6,0 -1133.9,265 -1470.1,674.7 -433.1,-121.8 -988.2,-267.7 -1251.7,-440.6 0,0 397,-1275.8 561.4,-2591.72 36.4,-291.74 187.8,-585.52 178.5,-867.71 -60.1,-1830.69 -688.8,-3425.1 -688.8,-3425.1" /></g><g
         transform="scale(1.85584)"
         id="g130"><path
           id="path132"
           style="fill:#8e3728;fill-opacity:1;fill-rule:nonzero;stroke:none"
           d="m 14425.3,8214.88 c 0,0 33.1,-9.22 91,-25.38 57.1,-16 137.6,-38.69 232.4,-63.1 94.5,-25.06 203.7,-50.92 318.6,-72.31 57.5,-10.35 116.6,-19.46 176,-25.71 59.6,-7 119.3,-9.59 178.6,-10.18 118.2,-0.43 232.9,15.25 337.6,45.69 26.4,7.01 50.7,18.22 76.5,25.54 24.6,10.46 48.7,20.59 72.2,30.56 23.1,11.8 45.6,23.28 67.3,34.43 21.8,11.64 41.5,25.32 62,36.91 21.1,10.94 38,25.7 56.5,37.5 17.8,12.5 36.6,22.96 51.3,35.94 29.6,25.6 60.4,45.05 81.8,64.77 44.1,38.53 72.9,60.14 72.9,60.14 0,0 -8.5,-33.41 -29.6,-91.23 -10.2,-29.04 -27.1,-62.02 -47.2,-100.33 -21.2,-37.34 -47.1,-79.64 -81.3,-121.62 -17.6,-20.58 -35.8,-42.51 -56.3,-63.85 -21.4,-20.31 -44.2,-41 -68.1,-62.18 -25.3,-19.08 -52,-38.37 -79.8,-57.44 -29,-17.03 -58.9,-34.81 -90.6,-49.95 -63.8,-29.31 -132.9,-55.72 -205.4,-69.35 -72.1,-17.08 -146.7,-21.61 -220.5,-23.33 -73.5,2.15 -146.8,6.84 -216.4,21.44 -70,12.4 -136.8,31.53 -199.5,53.62 -125.4,44.67 -234,102.16 -320.6,160.3 -86.5,58.36 -152.3,115.04 -195.3,158.04 -43.2,42.68 -64.1,71.08 -64.1,71.08" /></g><g
         transform="scale(2.05464)"
         id="g134"><path
           id="path136"
           style="fill:#8e3728;fill-opacity:1;fill-rule:nonzero;stroke:none"
           d="m 15979.8,5889.55 c -301.1,-985.04 -2924,-2016.8 -2924,-2016.8 0,0 837.9,253.43 1649.4,714.14 962.5,546.37 1277.8,917.39 1452.2,1298.67 142.6,311.93 -32.1,2608.54 -530.4,3888.57 2.1,-10.8 564.4,-3192.53 352.8,-3884.58" /></g><g
         transform="scale(2.04514)"
         id="g138"><path
           id="path140"
           style="fill:#f4517c;fill-opacity:1;fill-rule:nonzero;stroke:none"
           d="m 16300,7877.6 c -251.3,-125.37 -401.9,-148.65 -713.6,-187.62 -275.7,-34.52 -550.1,-27.97 -814.8,13.21 -449.1,1406.65 -934.8,2859.71 69.4,2970.31 738.3,81.4 1202.6,-1269.21 1459,-2795.9" /></g><g
         transform="scale(1.37296)"
         id="g142"><path
           id="path144"
           style="fill:#e02d64;fill-opacity:1;fill-rule:nonzero;stroke:none"
           d="m 15968.3,11406.5 c 0,0 131.5,-709.1 -116.9,-1521.68 0,0 448.6,675.08 360.2,1333.08 l -243.3,188.6" /></g><g
         transform="scale(1.66745)"
         id="g146"><path
           id="path148"
           style="fill:#e02d64;fill-opacity:1;fill-rule:nonzero;stroke:none"
           d="m 15957.1,9479.94 c 0,0 -338.3,433.23 -94.8,1067.36 93,242.3 234.2,401 377.1,505 60.6,44.1 29.5,69.5 -38.7,38.4 -178.8,-82 -361.9,-246.9 -466.2,-512.4 -310.9,-791.25 222.6,-1098.36 222.6,-1098.36" /></g><g
         transform="scale(1.92255)"
         id="g150"><path
           id="path152"
           style="fill:#e02d64;fill-opacity:1;fill-rule:nonzero;stroke:none"
           d="m 16300,9083.08 c -220,719.67 -291.3,870.04 -412.1,1041.82 -50.5,71.9 -76.7,43.6 -28.3,-130.11 92.1,-329.83 4.1,-197.97 -435.3,-124.26 -110.4,18.56 -202.8,15.55 -318.1,-0.99 -145.6,-20.91 -151.4,-46.61 7,-57.58 248.5,-17.17 512.1,-119.79 467.7,-115.47 -139,13.47 -447.1,-11.76 -642.4,-49.16 -939.4,-179.76 -1859.3,-1145.24 -870.9,-2335.59 l 8.1,95.39 c -772.8,1418.43 447.9,2198.75 1193.1,2009.26 L 16300,9083.08" /></g><g
         transform="scale(2.03125)"
         id="g154"><path
           id="path156"
           style="fill:#8e3728;fill-opacity:1;fill-rule:nonzero;stroke:none"
           d="m 15397.2,6446.49 c 0,0 413,145.57 653.9,505.01 240.9,359.43 248.9,783.21 248.9,783.21 l -902.8,-1020.26 c 0,0 17.1,-95.46 0,-267.96" /></g><g
         transform="scale(1.93637)"
         id="g158"><path
           id="path160"
           style="fill:#77e8cd;fill-opacity:1;fill-rule:nonzero;stroke:none"
           d="m 13046.9,7270.8 c 0,0 -1456.3,717.17 -2594.7,119.14 C 9384.7,6829.1 9535.55,5421.68 9898.55,4964.9 10533.2,4166.34 12196,3912.16 13606,4225.63 c 1733.2,385.2 2694,1809.41 2543.1,3071.41 -150.8,1262 -1348.9,301.64 -3102.2,-26.24" /></g><g
         transform="scale(1.72598)"
         id="g162"><path
           id="path164"
           style="fill:#38c7aa;fill-opacity:1;fill-rule:nonzero;stroke:none"
           d="m 14553.5,8191.22 c 0,0 63.7,-248.72 158.1,-397.22 274.5,-432.39 918.8,-550.53 1332.6,-199.02 216.6,183.96 255.8,449.6 27.9,611.48 -32.2,22.89 -176,102.15 -212,126.42 -349.2,-13.27 -432.5,-46.35 -806.5,-21.38 l -500.1,-120.28" /></g><g
         transform="scale(1.92098)"
         id="g166"><path
           id="path168"
           style="fill:#38c7aa;fill-opacity:1;fill-rule:nonzero;stroke:none"
           d="m 16293,7119.95 c -1.5,72.67 -6,145.09 -14.6,216.92 -5.4,45.45 -12.6,87.25 -20.7,127.02 -5.8,-32.38 -12.7,-64.44 -19.9,-96.41 -221.7,548.42 -1040.7,492.56 -1893.4,218.95 200.9,-476 979.6,-799.48 1459.5,-806.2 86.9,-1.25 158.9,0.21 218.8,2.97 -484.6,-923.07 -1567,-1565.76 -2824.6,-1565.76 -1437.7,0 -3030,1009.53 -2340.7,2365.3 C 9400.25,7148.53 9570.99,5499.85 9977.87,5004.68 10683.5,4145.95 12293.6,3924.92 13715,4240.85 c 1511.1,335.92 2439.1,1455.46 2563.9,2574.89 1.3,0.46 2.1,0.77 2.1,0.77 15.8,112.4 19,212.92 12,303.44" /></g><g
         transform="scale(2.03553)"
         id="g170"><path
           id="path172"
           style="fill:#c95447;fill-opacity:1;fill-rule:nonzero;stroke:none"
           d="m 13864.2,8300.16 c 0,0 171.2,907.43 1207,856.04 1035.9,-51.33 1228.8,-964.07 1189.9,-1284.09 -62,-511.46 -623.7,-1530.02 -1657.4,-1311.2 -1033.6,218.76 -1190.2,709.83 -1184.7,1062.96 4.8,302.63 202.2,584.81 445.2,676.29" /></g><g
         transform="scale(2.03663)"
         id="g174"><path
           id="path176"
           style="fill:#a8412c;fill-opacity:1;fill-rule:nonzero;stroke:none"
           d="m 15651.2,8996.82 c 382.3,-308.21 399.2,-776.88 396.2,-996.45 -19.9,-1435.76 -1451.6,-1440.96 -1451.6,-1440.96 1033.1,-218.7 1644,690.26 1685.6,1330.43 18.6,286.6 -71.5,831.18 -630.2,1106.98" /></g><g
         transform="scale(1.82926)"
         id="g178"><path
           id="path180"
           style="fill:#a8412c;fill-opacity:1;fill-rule:nonzero;stroke:none"
           d="m 15585.9,8540.68 c 0,0 16.1,-13.18 45.3,-32.09 29,-18.86 71.9,-43.41 124,-60.68 52.4,-17.17 113.4,-22.96 173.8,-7.87 30.5,7.32 60.2,21.32 89.9,37.66 14.2,7.82 30.7,19.3 42.2,27.06 l 23.6,17.82 17.3,15.31 c 49.1,45.37 79.6,102.28 88.1,163.73 7.8,61.5 -4.5,124.26 -25,174.77 -21,50.46 -49.1,88.89 -74.6,109.5 -25.4,21.04 -47.4,22.79 -47.4,22.79 -0.5,-1.15 20.3,10.01 58.5,-0.93 37,-10.77 85.2,-42.36 124.8,-95.61 19.9,-26.4 38.4,-58.06 51.1,-94.79 12.9,-36.52 22.5,-77.96 21.5,-122.24 -1,-44 -9.4,-90.96 -29.4,-134.04 -19.4,-43.41 -48.9,-82.22 -82.7,-114.09 l -28.1,-23.84 -24.4,-17.76 c -21.3,-14.6 -38.4,-24.33 -59.2,-34.66 -39.8,-20.39 -83.7,-33.02 -127,-38.92 -87.9,-11.65 -170.3,15.03 -224.4,51.55 -55.8,35.64 -89.6,77.62 -110.1,107.53 -20.4,30.39 -27.8,49.8 -27.8,49.8" /></g><g
         transform="scale(1.7927)"
         id="g182"><path
           id="path184"
           style="fill:#a8412c;fill-opacity:1;fill-rule:nonzero;stroke:none"
           d="m 16275.5,9021.48 c 0,0 14.7,-20.75 20.6,-57.46 2.3,-18.24 3.9,-40.49 -2,-64.42 -5,-23.77 -16.6,-49.65 -36.2,-70.18 -9.2,-10.87 -21.5,-18.01 -32.9,-25.77 -11.6,-7.31 -25,-9.93 -36.7,-14.5 -24.6,-4.63 -47,-4.8 -65.2,-0.62 -18.6,1.62 -32.4,9.93 -42.3,13.56 -9.6,4.46 -14.8,7.53 -14.8,7.53 0,0 6,2.17 16.1,5.02 9.9,3.52 24.2,4.57 39.6,10.32 7.7,2.68 16,4.74 24.3,7.2 8,3.62 16.1,7.41 24.5,10.04 14.9,9.31 30.5,17.01 41.2,30.73 6.6,5.41 11.3,13 16.3,20.14 4.1,7.92 9.9,15.12 13,23.65 8.3,16.29 13.3,33.97 18.8,49.37 9.5,33.24 15.7,55.39 15.7,55.39" /></g><g
         transform="scale(1.77226)"
         id="g186"><path
           id="path188"
           style="fill:#a8412c;fill-opacity:1;fill-rule:nonzero;stroke:none"
           d="m 15269.7,6150.18 c -318,-38.99 -686.4,-179.49 -547.5,-30.7 70.6,75.56 205.8,148.23 321.7,201.44 36.5,16.76 22.3,74.09 -17.4,70.19 -147.3,-14.44 -338.8,-42.6 -483,-97.05 -270.1,-102.02 -429.6,-310.62 -429.7,-310.84 -153,8.07 -796,56.7 -1713.4,330.03 -702.6,209.33 -1258.3,412.69 -1235.7,539.42 360.9,2020.14 2020.5,5323.13 789.8,5611.23 -1004.4,235.2 -1949,-3254.85 -2057.01,-6096.6 -8.63,-226.15 1076.91,-667.9 2208.61,-845.25 1070.7,-167.81 1846.7,-56.2 2011.7,-28.15 v 0 c 0,0 723.4,-275.81 1211.9,-209.45 488.4,66.35 950,365.97 962.6,629.53 7.7,160.93 -704.7,275.24 -1022.6,236.2" /></g><g
         transform="scale(1.91552)"
         id="g190"><path
           id="path192"
           style="fill:#a8412c;fill-opacity:1;fill-rule:nonzero;stroke:none"
           d="m 16300,6664.3 c -102.1,-322.53 -412.6,-917.2 -935.7,-1348.62 -511.1,-421.56 -1355.3,-774.15 -1480.6,-827.19 0,0 -371.7,185.69 -485.9,188.98 -130,3.71 -328,-15.71 -474.2,-28.34 -20.2,-1.78 -22,-30.54 -2.2,-34.93 139.8,-30.7 370.3,-84.05 464.2,-121.64 120.9,-48.34 101.1,-100.28 61,-118.14 -363.4,-161.63 -827.3,-196.13 -1363.4,-227.72 -17.6,-1.04 -20.5,-36.49 -5.1,-46.09 0,0 1027.1,-396.03 1578,-129.16 l 347.9,182.56 c 0,0 2160.8,804.95 2296,2510.29" /></g><g
         transform="scale(1.42229)"
         id="g194"><path
           id="path196"
           style="fill:#f4517c;fill-opacity:1;fill-rule:nonzero;stroke:none"
           d="m 12609.9,11500.2 c 307.9,-221.2 664.5,-387.9 1061.5,-481.8 351.1,-83.1 705.8,-102.5 1052.4,-67.2 760.8,2131 1576.2,4337.2 294,4609.2 -984.4,208.9 -1880.2,-1722.6 -2407.9,-4060.2" /></g><g
         transform="scale(1.55209)"
         id="g198"><path
           id="path200"
           style="fill:#e02d64;fill-opacity:1;fill-rule:nonzero;stroke:none"
           d="m 14481.7,10089.1 c -323.3,236.1 -478.2,1152.6 -532.7,1565.5 -3.5,26.6 -40.2,25.6 -44.5,-1 -0.1,-0.2 -0.2,-0.6 -0.2,-0.9 l -0.1,1.2 c 0,0 -445.4,-914.2 -652,-1633.9 72.2,2 122.4,5.7 240.3,15.4 49.9,139.8 231,646.7 323.3,824.7 52.6,-323.6 250.3,-923.53 465.3,-1054.52 691.3,-421.37 1598.4,-269.7 2018.9,88.27 0,0 -1166.1,-281.04 -1818.3,195.25" /></g><g
         transform="scale(1.78776)"
         id="g202"><path
           id="path204"
           style="fill:#ffffff;fill-opacity:1;fill-rule:nonzero;stroke:none"
           d="m 16300,12604.3 c -119.5,45.7 -235.4,89.3 -340.3,128.9 -359.9,-413.4 -912.5,-678.5 -1532.6,-678.5 -640.4,0 -1208.9,282.5 -1567.4,719.4 -117.5,-33 -243.5,-67.7 -370.5,-104.2 318,-543.8 1060.5,-925.3 1925.9,-925.3 830.1,0 1547.2,351 1884.9,859.7" /></g><g
         transform="scale(1.75431)"
         id="g206"><path
           id="path208"
           style="fill:#8e3728;fill-opacity:1;fill-rule:nonzero;stroke:none"
           d="m 14260.2,5550.11 c 0,0 -743.4,-143.64 -2040.5,94.68 -1205.4,221.52 -1876.7,577.21 -2060.2,876.65 -146.8,239.35 180.6,2745.93 180.6,2745.93 l -0.1,-0.29 c -184.8,-914.15 -308,-1908.39 -343.29,-2834.57 -8.66,-228.46 1097.49,-708.88 2240.69,-888.1 1081.8,-169.52 1856.1,-22.57 2022.8,5.76 v -0.06 c 0,0 730.9,-278.57 1224.3,-211.53 324.1,44 635.6,189.81 815.5,360.08 -644.6,-539.53 -2039.8,-148.55 -2039.8,-148.55" /></g><g
         transform="scale(1.27081)"
         id="g210"><path
           id="path212"
           style="fill:#8e3728;fill-opacity:1;fill-rule:nonzero;stroke:none"
           d="m 15868.4,10817 v 0 c 129,461.3 278.6,942.6 431.6,1425.8 l -114.7,-5 c 0,0 -256.9,-968.8 -316.9,-1420.8" /></g><g
         transform="scale(1.64004)"
         id="g214"><path
           id="path216"
           style="fill:#8e3728;fill-opacity:1;fill-rule:nonzero;stroke:none"
           d="m 14106.9,4789.4 c 0,0 737.4,-297 1361.2,-270.6 190.1,8.05 375.3,63.41 543.7,152.01 l 288.2,151.46 c 0,0 -371.3,-185.06 -855.3,-220.48 -484,-35.43 -1331.8,241.46 -1331.8,241.46 -20.5,-1.22 -24,-42.62 -6,-53.85" /></g><g
         transform="scale(1.72147)"
         id="g218"><path
           id="path220"
           style="fill:#8e3728;fill-opacity:1;fill-rule:nonzero;stroke:none"
           d="m 15640,8893.12 c 0,0 -53.6,371.66 23.1,532.04 57.3,119.84 123.5,182.23 278.9,312.82 358,300.82 283.5,535.42 153.2,612.92 0,0 -456,-217 -530.6,-567.56 -74.5,-350.57 75.4,-890.22 75.4,-890.22" /></g><g
         transform="scale(1.70833)"
         id="g222"><path
           id="path224"
           style="fill:#c95447;fill-opacity:1;fill-rule:nonzero;stroke:none"
           d="m 15334.4,9672.51 c 0,0 165.9,255.75 223.5,528.99 57.6,273.3 316.6,436.5 526.9,336.5 210.2,-99.8 215.2,-389.3 67.1,-543.3 -148,-153.95 -358.1,-349 -400.4,-524.66 -42.4,-175.73 -547.1,21.13 -417.1,202.47" /></g><g
         transform="scale(1.72188)"
         id="g226"><path
           id="path228"
           style="fill:#77e8cd;fill-opacity:1;fill-rule:nonzero;stroke:none"
           d="m 16108.8,7694.68 c 191.2,177.31 154.7,482.38 -80.8,594.35 -157.4,74.86 -334.6,214.83 -374.3,471.47 -74.9,483.07 13.3,600.62 -42.6,673.33 -55.9,72.65 -366.2,251.64 -520.1,71.67 -153.9,-180.04 -514.8,-940.66 -311.6,-1440.12 203.1,-499.51 927.5,-743.43 1329.4,-370.7" /></g><g
         transform="scale(1.99901)"
         id="g230"><path
           id="path232"
           style="fill:#ff6d00;fill-opacity:1;fill-rule:nonzero;stroke:none"
           d="m 9576.45,15877.8 c 67.38,-249.9 10.2,-482.6 -127.82,-519.9 -138.02,-37.2 -304.55,135.2 -371.98,385 -67.44,249.9 -10.21,482.6 127.81,519.9 138.02,37.2 304.55,-135.2 371.99,-385" /></g><g
         transform="scale(2.55907)"
         id="g234"><path
           id="path236"
           style="fill:#fcc646;fill-opacity:1;fill-rule:nonzero;stroke:none"
           d="m 16035,4447.16 c 178.3,-147.87 265,-337.39 193.7,-423.32 -71.3,-85.97 -273.6,-35.76 -451.8,112.11 -178.3,147.83 -265,337.39 -193.7,423.32 71.3,85.93 273.6,35.75 451.8,-112.11" /></g><g
         transform="scale(2.38826)"
         id="g238"><path
           id="path240"
           style="fill:#ff6d00;fill-opacity:1;fill-rule:nonzero;stroke:none"
           d="m 16293.8,4089.3 c -6.2,-96.18 -59.2,-171.09 -118.3,-167.24 -59.1,3.81 -102,84.92 -95.7,181.14 6.2,96.18 59.2,171.05 118.2,167.23 59.2,-3.85 102,-84.91 95.8,-181.13" /></g><g
         transform="scale(2.89949)"
         id="g242"><path
           id="path244"
           style="fill:#ff6d00;fill-opacity:1;fill-rule:nonzero;stroke:none"
           d="m 15894,6666.14 c 164.1,70.15 328.5,53.56 367.3,-37.05 38.7,-90.6 -62.9,-220.93 -226.9,-291.08 -164.1,-70.15 -328.5,-53.56 -367.2,37.04 -38.8,90.6 62.8,220.94 226.8,291.09" /></g><g
         transform="scale(2.56852)"
         id="g246"><path
           id="path248"
           style="fill:#fcc646;fill-opacity:1;fill-rule:nonzero;stroke:none"
           d="m 15884.8,12191.6 c 36.4,234.9 150.7,412.3 255.3,396 104.6,-16.2 159.9,-219.8 123.5,-454.8 -36.4,-234.9 -150.7,-412.3 -255.3,-396 -104.6,16.2 -159.9,219.8 -123.5,454.8" /></g><g
         transform="scale(2.74581)"
         id="g250"><path
           id="path252"
           style="fill:#fcc646;fill-opacity:1;fill-rule:nonzero;stroke:none"
           d="m 16131.4,9239.17 c 33,54.08 90,79.46 127.5,56.63 37.5,-22.8 41.1,-85.18 8.1,-139.27 -32.9,-54.12 -90,-79.5 -127.5,-56.66 -37.4,22.83 -41,85.18 -8.1,139.3" /></g><g
         transform="scale(2.40177)"
         id="g254"><path
           id="path256"
           style="fill:#ff6d00;fill-opacity:1;fill-rule:nonzero;stroke:none"
           d="m 16192.2,12683.7 c 86.3,-86.4 107.8,-204.9 48,-264.6 -59.8,-59.8 -178.2,-38.2 -264.5,48.2 -86.4,86.4 -107.9,204.8 -48.1,264.6 59.8,59.7 178.2,38.1 264.6,-48.2" /></g><g
         transform="scale(2.10826)"
         id="g258"><path
           id="path260"
           style="fill:#fcc646;fill-opacity:1;fill-rule:nonzero;stroke:none"
           d="m 7733.85,16091.9 c 32.92,-122 12.8,-233.4 -44.87,-249 -57.73,-15.6 -131.15,70.7 -164.07,192.6 -32.92,121.9 -12.81,233.4 44.92,248.9 57.67,15.6 131.15,-70.6 164.02,-192.5" /></g><g
         transform="scale(2.19366)"
         id="g262"><path
           id="path264"
           style="fill:#fcc646;fill-opacity:1;fill-rule:nonzero;stroke:none"
           d="m 9079.11,15926.7 c -38.25,-171.3 -150.8,-292 -251.36,-269.6 -100.61,22.5 -151.17,179.6 -112.92,350.9 38.25,171.3 150.8,292 251.41,269.5 100.6,-22.4 151.11,-179.5 112.87,-350.8" /></g><path
         id="path266"
         style="fill:#fcc646;fill-opacity:1;fill-rule:nonzero;stroke:none"
         d="m 9768.38,12570.2 c -171.59,-344.7 -474.79,-542.5 -677.21,-441.7 -202.41,100.7 -227.4,461.9 -55.8,806.6 171.59,344.7 474.79,542.5 677.2,441.7 202.42,-100.7 227.4,-461.9 55.81,-806.6" /><path
         id="path268"
         style="fill:#ff6d00;fill-opacity:1;fill-rule:nonzero;stroke:none"
         d="m 11700,10615.8 c 50.5,-679.1 -180.3,-1249.8 -515.3,-1274.7 -335.1,-24.9 -647.6,505.5 -698.1,1184.6 -50.4,679.1 180.3,1249.8 515.4,1274.7 335,24.9 647.6,-505.5 698,-1184.6" /><g
         transform="scale(2.00086)"
         id="g270"><path
           id="path272"
           style="fill:#4c1506;fill-opacity:1;fill-rule:nonzero;stroke:none"
           d="m 13752.4,15637.8 c 0,0 -542.9,10.3 -522.4,-389.1 20.5,-399.4 27.5,-790.7 -396.8,-1018.5 -424.3,-227.7 -862.9,38.6 -981.1,-445.8 -40.1,-164.4 -56.7,-94.9 -95.3,88.3 -98.4,466.9 499.1,2427.3 1995.6,1765.1" /></g><g
         transform="scale(1.94199)"
         id="g274"><path
           id="path276"
           style="fill:#4c1506;fill-opacity:1;fill-rule:nonzero;stroke:none"
           d="m 14247.7,16296.6 c -80.3,3.4 -108.7,-97.2 -81.9,-174.9 59,-171.2 163.3,-289.5 477.4,-471.8 631.2,-366.4 199.6,-728.4 210.9,-1153.1 8.8,-332 122.8,-549 132.9,-690.9 13.5,-188.4 -11.6,-351.1 -34.8,-454 -7.1,-31.3 30.8,-51 51.5,-26.8 105.4,122.5 320.4,349.1 433.3,689.5 291.8,880.2 -59.4,2234.2 -1189.3,2282" /></g><g
         transform="scale(1.9691)"
         id="g278"><path
           id="path280"
           style="fill:#380c01;fill-opacity:1;fill-rule:nonzero;stroke:none"
           d="m 13974.2,15890 c 0,0 40.4,410 -434,380.9 -561.7,-34.4 -519.4,-844.5 -364.3,-1195.8 155,-351.3 -135.7,-615.3 -135.7,-615.3 0,0 410.1,170 407.8,692.6 -2.2,522.5 5,709.6 526.2,737.6" /></g><g
         transform="scale(1.85741)"
         id="g282"><path
           id="path284"
           style="fill:#380c01;fill-opacity:1;fill-rule:nonzero;stroke:none"
           d="m 15798.7,14748.5 c -165.6,497.4 26.8,500.4 132.7,983.5 71.5,325.8 -523.4,568 -523.4,568 483,-430.5 109.1,-753.8 121.7,-1148 11.9,-371.5 128.5,-574.2 139.1,-722.5 14,-196.9 -12.2,-367 -36.5,-474.7 0,0 240.3,571.6 166.4,793.7" /></g><g
         transform="scale(1.83931)"
         id="g286"><path
           id="path288"
           style="fill:#d36057;fill-opacity:1;fill-rule:nonzero;stroke:none"
           d="m 15435.5,9107.53 c 0,0 0.2,666.45 864.5,992.97 -829.8,-133.19 -961.2,-917.29 -961.2,-917.29 -265.3,-99.87 -480.9,-407.98 -486.1,-738.37 0,0 125.4,620.07 582.8,662.69" /></g><g
         transform="scale(1.41017)"
         id="g290"><path
           id="path292"
           style="fill:#ffffff;fill-opacity:1;fill-rule:nonzero;stroke:none"
           d="m 16292.3,10106.3 c -7.7,-84.1 -213.8,-134 -460.3,-111.38 -246.5,22.58 -440,109.18 -432.2,193.28 7.7,84.1 213.8,134.1 460.2,111.4 246.5,-22.6 440,-109.1 432.3,-193.3" /></g></g></g></svg>