<?xml version="1.0" encoding="UTF-8" standalone="no"?>
<svg
   xmlns:dc="http://purl.org/dc/elements/1.1/"
   xmlns:cc="http://creativecommons.org/ns#"
   xmlns:rdf="http://www.w3.org/1999/02/22-rdf-syntax-ns#"
   xmlns:svg="http://www.w3.org/2000/svg"
   xmlns="http://www.w3.org/2000/svg"
   viewBox="0 0 2666.6667 2666.6667"
   height="2666.6667"
   width="2666.6667"
   xml:space="preserve"
   id="svg2"
   version="1.1"><metadata
     id="metadata8"><rdf:RDF><cc:Work
         rdf:about=""><dc:format>image/svg+xml</dc:format><dc:type
           rdf:resource="http://purl.org/dc/dcmitype/StillImage" /></cc:Work></rdf:RDF></metadata><defs
     id="defs6" /><g
     transform="matrix(1.3333333,0,0,-1.3333333,0,2666.6667)"
     id="g10"><g
       transform="scale(0.1)"
       id="g12"><g
         transform="scale(1.22699)"
         id="g14"><path
           id="path16"
           style="fill:#ffffff;fill-opacity:1;fill-rule:nonzero;stroke:none"
           d="M 0,16300 V 0 H 16300 V 16300 H 0" /></g><g
         transform="scale(1.13245)"
         id="g18"><path
           id="path20"
           style="fill:#d1efed;fill-opacity:1;fill-rule:nonzero;stroke:none"
           d="m 13001.6,3771.63 c -794.1,0 -1522.7,280.63 -2091.9,748.11 62.7,656.01 -42,1258.69 -387.9,1980.92 -415.2,866.44 -425.1,1693.49 -349.9,2265.35 576.6,960.09 1628.1,1602.59 2829.7,1602.59 1821.7,0 3298.4,-1476.76 3298.4,-3298.47 0,-1821.7 -1476.7,-3298.5 -3298.4,-3298.5" /></g><path
         id="path22"
         style="fill:#d1efed;fill-opacity:1;fill-rule:nonzero;stroke:none"
         d="m 7162.91,880.902 c -1582.46,0 -2865.29,1282.798 -2865.29,2865.298 0,1582.4 1282.83,2865.3 2865.29,2865.3 555.94,0 1074.92,-158.4 1514.27,-432.4 -68.64,-944.5 -167.67,-1875.8 -284.1,-2807.3 -100,-880 -456.66,-1683 -855.88,-2466.698 -122.46,-15.899 -247.48,-24.2 -374.29,-24.2" /><path
         id="path24"
         style="fill:#9e523c;fill-opacity:1;fill-rule:nonzero;stroke:none"
         d="m 11908.8,14225.4 c -40.7,267.5 -83.1,527.6 -50.7,798.8 14.2,119.5 43.4,240.7 40.7,361.5 -1.5,69.2 -19.6,141.3 -74.1,187.6 -113.5,96.3 -281.2,-12.7 -375.1,-81.7 -201.5,-148.3 -419.5,-273.8 -610.9,-435.7 l -60,124.9 c -8.2,31.9 -18.3,63.3 -30.4,94 -4.4,11.1 -30.2,3.6 -26,-7 69.6,-176.3 66,-373.6 49.7,-559.5 -16.8,-191.7 -47.1,-386.1 -111.5,-567.9 -62.5,-176.3 -158,-338.3 -261.5,-493.2 -57.2,-85.6 -117.3,-169.2 -177,-253.1 -49.6,-69.8 -114.9,-129 -136.9,-214.6 -0.9,-3.3 2.6,-6.4 5.5,-7.2 238.1,-59.3 487.7,-45.5 730.2,-28.3 125.6,8.9 251.1,20.1 377,25.8 123.2,5.5 246.5,11.4 368.2,33.5 107.2,19.5 217.2,49.8 315.5,97.8 55.4,27.1 51.6,79.8 51.4,134.5 -0.6,131.3 11.5,261.7 12.7,392.7 1.1,133.1 -16.8,265.8 -36.8,397.1" /><g
         transform="scale(1.10131)"
         id="g26"><path
           id="path28"
           style="fill:#9e523c;fill-opacity:1;fill-rule:nonzero;stroke:none"
           d="m 10623.9,16206.8 c -129.9,42 -260.6,74.6 -397.4,83.9 -136.9,9.3 -257.24,-15.7 -390.36,-20.9 -37.77,-1.5 -79.36,-0.6 -122.58,0.3 -158.08,3.4 -338.78,6.8 -439.75,-109.2 l 9.81,4.1 c -130.75,-109.7 -242.09,-282.4 -281.95,-450.4 -40.5,-177.5 74.71,-436.7 -30.93,-595.5 -89.86,-136.2 -490.68,-241.8 -335.13,-465.8 26.07,-35 109.77,-59.6 122.33,-84.2 34.25,-54.5 -20.25,-88.7 -50.81,-119.8 -45.37,-39.6 -85.07,-65.4 -70.34,-128 10.95,-48.2 78.88,-95.5 80.72,-138.3 l 13.2,-15.2 c -52.25,-1.1 -80.66,-70.4 -78.82,-113.2 4.96,-66.7 42.08,-78.7 92.1,-110.6 108.49,-78.5 -4.58,-137.2 30.54,-248.7 55.07,-165.8 290.7,-160.7 472.77,-155.6 52.3,1.5 100.06,2.9 138.02,0.4 235.99,-16.1 478.7,-4.1 712.38,13.3 286.1,23.3 462.3,243.7 610.1,466.1 179.2,262.9 404.2,503.7 505.6,809.9 84.6,269.3 82.2,582.5 -23.2,845.7 -104.9,272.8 -287.2,451.1 -566.3,531.7" /></g><path
         id="path30"
         style="fill:#c24141;fill-opacity:1;fill-rule:nonzero;stroke:none"
         d="m 9859.78,15580.6 c -132.46,-15.6 -151.24,4.5 -216.15,22.8 -1.95,0.6 -4.8,0.3 -7.75,-0.6 3.33,2.9 3.95,5.8 -2.29,6.5 -113.91,14.2 -156.1,-130.9 -97.37,-211 33.04,-45.1 96.02,-51 140.22,-19.4 29.29,21 48.48,49.3 66.16,80.2 22.13,38.7 44.64,48.3 75.62,82.5 37.32,41.2 49.33,39.9 41.56,39" /><path
         id="path32"
         style="fill:#c24141;fill-opacity:1;fill-rule:nonzero;stroke:none"
         d="m 9851.99,15580.6 c -99.74,12.9 -137.49,86.6 -168.11,166.4 -21.52,56.2 -58.94,125.6 -129.96,117.2 -66.06,-7.8 -52.37,-101.6 -41.16,-145 26.22,-101.3 135,-151 226.68,-179.9 5.66,-1.8 28.2,-2.4 32.03,2.3 l 15.94,2.8 c 13.22,-5.6 4.69,12.2 20.42,10.2 11.29,-1.5 61.68,23.7 44.16,26" /><path
         id="path34"
         style="fill:#000000;fill-opacity:1;fill-rule:nonzero;stroke:none"
         d="m 9619.97,16135.6 -5.9,-10.1 c 24.94,-17.3 114.64,-80.9 156.24,-83.7 0.44,83.6 -80.98,115.2 -150.34,93.8" /><g
         transform="scale(1.02854)"
         id="g36"><path
           id="path38"
           style="fill:#000000;fill-opacity:1;fill-rule:nonzero;stroke:none"
           d="m 10048.5,16125.3 c -77.98,16.1 -219.06,19.8 -246.47,125.9 -71.76,-15.5 -144.15,12.3 -205.14,48.8 -4.96,-54.8 33.05,-94.5 71.05,-134.3 -11.38,-8.8 -16.97,-20.3 -28.36,-29.2 190.06,-198.7 390.82,-152.6 623.22,-100.2 l -26.4,34.1 c -60.5,7.8 -121.5,44.3 -187.9,54.9" /></g><g
         transform="scale(1.03823)"
         id="g40"><path
           id="path42"
           style="fill:#773e2d;fill-opacity:1;fill-rule:nonzero;stroke:none"
           d="m 9907.85,16259.3 c -143.23,40.7 -155.55,-87.8 -211.13,-188.4 l 0.19,-14.3 c 19.07,-136.6 349.89,-140.3 455.69,-155.9 -47.8,150.5 -70.1,309.9 -244.75,358.6" /></g><g
         transform="scale(1.06199)"
         id="g44"><path
           id="path46"
           style="fill:#000000;fill-opacity:1;fill-rule:nonzero;stroke:none"
           d="m 9991.35,16040.3 c -50.47,52.6 -105.46,156.3 -174.76,179.1 -245.3,80.6 -332.21,32.4 -419.09,-15.8 -8.56,-53.5 12.6,-104.1 23.6,-159 l 20.25,8.5 c 226.46,157.2 445.86,-63.6 656.55,-152.2 -39.8,24.1 -83.1,103.3 -106.55,139.4" /></g><g
         transform="scale(1.03599)"
         id="g48"><path
           id="path50"
           style="fill:#000000;fill-opacity:1;fill-rule:nonzero;stroke:none"
           d="m 10368.1,16293.2 c -5.6,2.2 -11.1,4.4 -16.7,6.8 5.6,-3.4 11.3,-5.8 16.7,-6.8" /></g><g
         transform="scale(1.03632)"
         id="g52"><path
           id="path54"
           style="fill:#000000;fill-opacity:1;fill-rule:nonzero;stroke:none"
           d="m 10375.1,16293 c -5.6,2.3 -11.3,4.6 -16.9,7 5.4,-3 11,-5.4 16.9,-7" /></g><g
         transform="scale(1.03579)"
         id="g56"><path
           id="path58"
           style="fill:#000000;fill-opacity:1;fill-rule:nonzero;stroke:none"
           d="m 10359.8,16291.3 c -6.8,2.7 -13.7,5.6 -20.6,8.7 6.5,-3.7 13.4,-6.7 20.6,-8.7" /></g><g
         transform="scale(1.06016)"
         id="g60"><path
           id="path62"
           style="fill:#000000;fill-opacity:1;fill-rule:nonzero;stroke:none"
           d="m 10045.3,16032.1 c -24.2,38.4 -52.56,72 -80.01,108.2 -31.12,41 -63.76,84.9 -111.21,107.9 -48.38,23.5 -110.83,34.6 -163.84,41.9 -71.69,9.9 -142.15,6.6 -209.88,-20 -25.84,-10.1 -52.92,-22.8 -76.1,-38 -12.33,-8.1 -3.73,-49.4 -2.28,-61.5 4.13,-34.3 15.81,-67.9 23.14,-101.6 1.24,-5.7 25.91,0.3 24.5,6.6 l -0.29,1.5 c -3.67,0.2 -5.28,1.4 -1.13,4.2 l 0.09,0.1 c -4.99,22.5 -10.84,44.7 -16.26,67.1 -2.71,11.4 -18.71,77 -5.52,84.3 24.43,13.6 49.14,26.4 75.46,36.1 83.76,31 177.33,13.7 260.9,-8.2 50.18,-13.1 90.08,-28.2 126.77,-65.2 32.74,-33 58.49,-72.7 87.35,-108.8 24.81,-31 48.81,-81.9 79.51,-120.5 23,-11.9 45.9,-23 68.8,-32.8 -35.7,19.8 -60.1,67 -80,98.7" /></g><g
         transform="scale(1.05522)"
         id="g64"><path
           id="path66"
           style="fill:#000000;fill-opacity:1;fill-rule:nonzero;stroke:none"
           d="m 10103.6,16041 c -196.08,101.5 -396.51,258.4 -611.07,115.7 0.39,-1.5 0.67,-2.9 1.05,-4.4 5.31,-0.3 15.16,1.4 17.82,3.2 217.01,144.5 439.33,-68.2 637.4,-155.6 -16.8,9.4 -31.7,24 -45.2,41.1" /></g><g
         transform="scale(1.03587)"
         id="g68"><path
           id="path70"
           style="fill:#000000;fill-opacity:1;fill-rule:nonzero;stroke:none"
           d="m 10379.6,16300 c -6.9,-3.3 -13.7,-6.7 -20.6,-10 5.2,-1.5 28.9,6.7 20.6,10" /></g><g
         transform="scale(1.04594)"
         id="g72"><path
           id="path74"
           style="fill:#000000;fill-opacity:1;fill-rule:nonzero;stroke:none"
           d="m 9576.65,16299.9 c -4.21,-2.8 -2.58,-4 1.15,-4.3 -0.38,1.5 -0.67,2.9 -1.06,4.4 l -0.09,-0.1" /></g><g
         transform="scale(1.03845)"
         id="g76"><path
           id="path78"
           style="fill:#000000;fill-opacity:1;fill-rule:nonzero;stroke:none"
           d="m 10266.7,16300 c 13.8,-17.3 28.9,-32.1 46,-41.8 6.9,-3 13.8,-5.9 20.6,-8.6 6.8,3.3 13.7,6.6 20.5,9.9 -5.9,1.7 -11.5,4 -16.9,7 -23.3,10 -46.7,21.4 -70.2,33.5" /></g><path
         id="path80"
         style="fill:#773e2d;fill-opacity:1;fill-rule:nonzero;stroke:none"
         d="m 9815.97,16252.9 c -50.58,24.3 -140.12,-63.7 -187.62,-70.9 -36.75,-2.7 206.56,-34.9 150.59,-166.9 70.77,42.2 143.39,188.8 37.03,237.8" /><g
         transform="scale(1.0015)"
         id="g82"><path
           id="path84"
           style="fill:#773e2d;fill-opacity:1;fill-rule:nonzero;stroke:none"
           d="m 9614.38,16164.6 1.43,0.2 c 8.12,0.8 10.66,-1.6 9.92,-4.7 l 1.33,-0.4 c 2.22,-0.8 4.47,-1.5 6.72,-2.3 64.91,26.2 136.78,107.1 193.64,35.7 40.49,-50.7 0.89,-130.8 -43.82,-175.7 -1.08,-8 -3.11,-16.1 -6.31,-24.5 -6.98,0.6 -13.96,1.2 -20.95,1.9 8.88,5.7 18.17,13.4 27.26,22.6 5.26,38.7 -13.83,72 -49.42,95.5 -21.05,14 -43.69,24.4 -67.29,33.3 -9.81,3.6 -19.81,6.9 -29.78,10.1 -1.12,0.4 -2.21,0.8 -3.33,1.1 -3.69,-1.4 -7.36,-2.8 -11,-3.9 -1.89,-1 -5.12,-2 -10.66,-2.6 1.03,0.1 2.03,0.4 2.99,0.7 -15.1,-3.1 -18.43,9 -2.8,12.4 l 2.07,0.6 c -4.21,-0.6 -8.68,-1.6 -12.16,-4.1 -2.21,-1.5 -5.75,-3.7 -4.99,-7 2.82,-12.3 68.42,-27.2 79.32,-32.2 54.95,-24.8 99.11,-68.3 74.82,-131.8 -3.42,-9 18.35,-3.6 20.95,-1.9 64.63,41.5 125.87,141.4 79.26,215.5 -60.89,96.9 -170.05,-21.8 -237.2,-38.5" /></g><path
         id="path86"
         style="fill:#773e2d;fill-opacity:1;fill-rule:nonzero;stroke:none"
         d="m 9640.13,16184.3 c 0.75,3.1 -1.8,5.5 -9.93,4.6 l -1.43,-0.2 -2.08,-0.5 c -15.65,-3.4 -12.31,-15.5 2.81,-12.5 4.3,1.2 7.9,3.9 9.64,6.5 -1.02,2.1 -3.4,3.5 0.99,2.1" /><path
         id="path88"
         style="fill:#773e2d;fill-opacity:1;fill-rule:nonzero;stroke:none"
         d="m 9791.92,16016.8 c 3.21,8.4 5.24,16.6 6.32,24.5 -9.1,-9.1 -18.41,-16.9 -27.3,-22.6 7,-0.6 13.99,-1.3 20.98,-1.9" /><path
         id="path90"
         style="fill:#773e2d;fill-opacity:1;fill-rule:nonzero;stroke:none"
         d="m 9640.13,16184.3 -0.99,-2.1 c 0.65,-1.4 0.63,-3.1 -1.96,-4.5 3.64,1.1 7.32,2.4 11.01,3.9 -2.25,0.8 -4.5,1.5 -6.73,2.3 l -1.33,0.4" /><path
         id="path92"
         style="fill:#773e2d;fill-opacity:1;fill-rule:nonzero;stroke:none"
         d="m 9639.14,16182.2 0.99,2.1 c -4.39,1.4 -2.01,0 -0.99,-2.1" /><path
         id="path94"
         style="fill:#773e2d;fill-opacity:1;fill-rule:nonzero;stroke:none"
         d="m 9629.5,16175.7 0.51,0.1 c 2.38,0.5 4.77,1.2 7.17,1.9 2.59,1.4 2.61,3.1 1.96,4.5 -1.74,-2.6 -5.34,-5.3 -9.64,-6.5" /><g
         transform="scale(1.03322)"
         id="g96"><path
           id="path98"
           style="fill:#ffffff;fill-opacity:1;fill-rule:nonzero;stroke:none"
           d="m 9854.61,16291.3 c -49.26,-28.9 -156.31,-188.1 -34.74,-193.9 -72.4,63.7 5.8,156.3 46.35,202.6 l -11.61,-8.7" /></g><g
         transform="scale(1.03334)"
         id="g100"><path
           id="path102"
           style="fill:#ffffff;fill-opacity:1;fill-rule:nonzero;stroke:none"
           d="m 9862.2,16298 c -2.23,-2.5 -4.45,-5.1 -6.58,-7.6 0.97,-0.1 1.45,-0.4 0.29,-1.2 -0.97,-0.6 -2.03,-1.4 -3.19,-2.2 -25.36,-29.8 -48.58,-61.2 -61.55,-98.7 -6.68,-19.1 -6.19,-38.9 -0.68,-58.1 1.46,-4.9 6.68,-14.7 9.78,-18.6 17.32,-21.7 1.84,-14.5 -15.29,-5.3 -64.65,34.5 29.71,153.2 67.74,180.7 0.96,1.2 1.93,2.3 2.9,3.4 -1.45,0.1 -3.87,-0.2 -4.55,-0.7 -54.09,-34.5 -152.8,-185.6 -34.35,-195.6 0.77,-0.1 6.48,1.1 4.93,2.6 -66.19,65.1 -1.06,147.2 46.26,201.6 1.55,1.7 -4.64,1 -5.71,-0.3" /></g><g
         transform="scale(1.03273)"
         id="g104"><path
           id="path106"
           style="fill:#ffffff;fill-opacity:1;fill-rule:nonzero;stroke:none"
           d="m 9858.52,16296.6 c 1.17,0.8 2.23,1.6 3.2,2.2 1.16,0.8 0.67,1.1 -0.29,1.2 -0.97,-1.1 -1.94,-2.2 -2.91,-3.4" /></g><path
         id="path108"
         style="fill:#f7931e;fill-opacity:1;fill-rule:nonzero;stroke:none"
         d="m 11618.7,15415.3 c 80.8,-242.2 13.5,-430.6 -107.6,-646 -80.8,121.1 -175,175 -323,201.9 94.2,175 26.9,323 161.5,471 161.5,175 174.9,67.3 26.9,296.1 l -13.5,13.5 c -255.7,-175 -403.7,-26.9 -417.2,-363.4 -13.4,-269.2 -80.7,-780.6 161.5,-928.6 228.8,-134.6 524.9,-457.6 659.5,242.2 33,171.8 67.3,430.7 -13.5,565.3 -40.4,53.8 -94.2,94.2 -134.6,148" /><path
         id="path110"
         style="fill:#ffffff;fill-opacity:1;fill-rule:nonzero;stroke:none"
         d="m 10999.6,15496.1 c -80.7,-807.5 80.8,-847.9 53.9,-672.9 -26.9,174.9 40.4,713.2 40.4,713.2 l 188.4,94.3 c -175,13.4 -255.7,-80.8 -282.7,-134.6" /><path
         id="path112"
         style="fill:#9e523c;fill-opacity:1;fill-rule:nonzero;stroke:none"
         d="m 11938.5,13941.4 -159.3,-175.3 c -143.7,-13.9 -295.2,-9.2 -446.9,-4.6 -370.1,11.2 -741.3,22.5 -1002.5,-234.9 -1067.77,-1051.8 -1435.1,-1194.7 -1546.65,-1625 -192.18,-741.3 270.92,-749 366.54,-1896.4 10.34,-124.2 40.92,-250 62.33,-372.3 h 2162.18 c 38,229.9 104.6,515.4 134.1,643.2 95.6,350.6 254.9,669.3 350.6,1035.8 63.7,302.8 95.6,621.5 127.5,940.3 63.7,573.7 -63.8,1131.5 -47.9,1689.2" /><path
         id="path114"
         style="fill:#9e523c;fill-opacity:1;fill-rule:nonzero;stroke:none"
         d="m 11970.4,13957.4 -382.5,-47.8 c -79.6,-159.4 -111.5,-350.6 -302.7,-446.3 -191.3,-79.6 -382.5,-31.8 -557.8,-159.3 892.4,286.8 207.2,-1354.6 159.3,-1609.6 -79.6,-318.7 -79.6,-637.5 -143.4,-940.2 -63.7,-398.4 -286.8,-621.5 -446.2,-972.2 -27.3,-45.5 -49.4,-96.2 -66.3,-149.1 h 1178.5 c 8.6,628.6 411.4,1255.5 561.1,1854.3 159.4,637.5 143.4,1338.7 47.8,1976.1 -15.9,159.4 -47.8,318.8 -47.8,494.1" /><path
         id="path116"
         style="fill:#ffffff;fill-opacity:1;fill-rule:nonzero;stroke:none"
         d="m 9866.82,11471.3 15.93,111.6 c -207.17,-510 -254.98,-1115.6 -494.02,-1641.5 223.11,47.8 382.47,1259 478.09,1529.9" /><path
         id="path118"
         style="fill:#ffffff;fill-opacity:1;fill-rule:nonzero;stroke:none"
         d="m 9881.31,11475.2 c 5.31,37.2 10.62,74.4 15.93,111.5 0.53,3.7 -26.39,-0.7 -28.75,-6.5 -214.06,-532.1 -257.79,-1116.7 -494.02,-1641.5 -2.34,-5.2 13.98,-1.7 15.35,-1.4 84.12,20.5 125.47,123.5 155.27,194.6 62.52,149.1 101.07,308.8 138.26,465.7 40.29,170 74.8,341.3 110.43,512.3 25.28,121.4 46.49,246.7 87.3,364.1 1.64,4.7 -26.06,1.7 -28.52,-5.4 -37.53,-107.9 -57.67,-222.7 -81.09,-334.3 -34.07,-162.2 -66.78,-324.8 -103.72,-486.4 -35.17,-154 -73.1,-308.2 -126.35,-457 -19.38,-54.1 -41.44,-107.8 -70.01,-157.8 -17.89,-31.3 -45.68,-78.4 -83.75,-87.6 5.12,-0.5 10.23,-1 15.35,-1.4 236.23,524.7 279.97,1109.4 494.03,1641.4 -9.58,-2.2 -19.17,-4.3 -28.75,-6.5 -5.31,-37.2 -10.62,-74.4 -15.94,-111.6 -0.39,-2.7 27.77,-0.7 28.98,7.8" /><path
         id="path120"
         style="fill:#f7931e;fill-opacity:1;fill-rule:nonzero;stroke:none"
         d="m 10408.7,13686.4 -16,16 c -95.6,-111.6 -717.12,-350.6 -350.6,-573.7 159.4,-95.6 430.3,191.2 605.6,239 478.1,111.6 1386.5,31.9 1338.7,780.9 -223.2,-701.2 -1051.8,-525.9 -1577.7,-462.2" /><path
         id="path122"
         style="fill:#9e523c;fill-opacity:1;fill-rule:nonzero;stroke:none"
         d="m 11221.4,13112.7 c -63.7,-207.1 -302.8,-143.4 -494,-254.9 -286.9,-159.4 -478.1,-573.7 -589.7,-876.5 -207.14,-653.4 -207.14,-1354.6 -446.18,-2024 -40.18,-110.4 -93,-214.6 -126.58,-324.4 h 1184.96 c 83.7,299.8 101.6,773.9 136.8,961.9 95.7,446.2 191.3,892.4 255,1338.6 47.8,271 159.4,701.3 79.7,972.2 v 207.1" /><path
         id="path124"
         style="fill:#f7931e;fill-opacity:1;fill-rule:nonzero;stroke:none"
         d="m 10076.3,12099.6 c -187.02,498.8 -628.58,888 -1096.14,545.1 -623.42,-436.3 -693.46,-1077.9 -537.61,-1763.6 155.86,-623.4 511.61,-1275.1 636.28,-1929.7 62.35,-280.6 62.35,-872.8 342.88,-1059.8 187.03,-93.5 841.59,-31.2 1028.69,93.5 966.2,654.6 -124.7,2992.4 -280.6,3865.2 l -93.5,249.3" /><path
         id="path126"
         style="fill:#f7931e;fill-opacity:1;fill-rule:nonzero;stroke:none"
         d="m 10090.8,12103.5 c -149.06,391.5 -519.41,828.8 -981.37,627.8 -111.26,-48.4 -210.89,-129.9 -300.68,-210.3 -86.23,-77.1 -162.17,-165.5 -226.58,-261.5 -122.94,-183.3 -190.66,-397.2 -214.9,-615.5 -58.95,-530.6 130.61,-1043.9 317.51,-1530.3 110.2,-286.8 223.93,-572.7 308.33,-868.4 61.71,-216.3 93.76,-433.9 125.5,-655.7 28.03,-195.9 61.8,-404.7 168.28,-575.4 39.07,-62.6 92.99,-123 164.64,-146.3 74.39,-24.2 156.55,-28 234.08,-30 195.47,-4.9 396.39,17.1 585.59,66.8 144,37.8 257.4,110.2 353.3,224.4 204.5,243.7 242.3,584.4 234.4,890.7 -10.2,393.6 -97.3,783.8 -197.2,1163.1 -99.5,377.6 -220.9,748.7 -333.9,1122.4 -44.1,145.9 -87.2,292.3 -121.3,440.9 -11.5,49.9 -18.9,99.1 -36.8,146.9 -25,66.6 -49.9,133.1 -74.9,199.7 -1.3,3.6 -2.7,7.1 -4,10.7 -4.2,11.2 -33,2.8 -29,-7.7 39.8,-106.1 84,-209.2 107.4,-319.9 30.8,-145 72.6,-287.5 114.9,-429.4 110.6,-370.6 231.5,-738 332.6,-1111.4 104,-384.2 193.5,-778.1 211.6,-1176.9 14.4,-318.5 -20,-675.9 -233,-929.6 -47,-56 -103.4,-107.6 -165.9,-145.8 -71,-43.4 -158.8,-62.7 -239.1,-80 -197.99,-42.8 -410.56,-61.2 -612.33,-39.3 -86.25,9.4 -152.17,29.7 -212.68,94.5 -66.6,71.2 -106.32,164.7 -136.59,256.1 -64.68,195.2 -82.47,403 -111.7,605.5 -81.87,567.3 -333.79,1091.5 -524.49,1626.9 -166.44,467.3 -287.32,986.1 -141.05,1475.4 52.89,176.9 145.75,339.3 267.02,478.1 130.96,149.9 308.55,303.8 505.4,352.6 407.74,101 713.69,-330.6 837.92,-656.8 4.3,-11.3 33,-2.8 29,7.7" /><path
         id="path128"
         style="fill:#000000;fill-opacity:1;fill-rule:nonzero;stroke:none"
         d="m 11422.2,15782.7 -14,16.9 c 4.2,-6.3 9,-11.8 14,-16.9" /><path
         id="path130"
         style="fill:#000000;fill-opacity:1;fill-rule:nonzero;stroke:none"
         d="m 11435.8,15787.9 c -4.7,5.6 -9.3,11.3 -14,16.9 -4.9,6 -31.5,-4.1 -28.1,-9 4.5,-6.6 9.4,-12.6 14.9,-18.3 5.9,-6.1 32.9,4.4 27.2,10.4 -4.8,4.9 -9.3,10 -13.1,15.6 -9.3,-3 -18.7,-6.1 -28,-9.1 4.6,-5.6 9.3,-11.3 13.9,-16.9 5.2,-6.3 32.8,3.6 27.2,10.4" /><path
         id="path132"
         style="fill:#000000;fill-opacity:1;fill-rule:nonzero;stroke:none"
         d="m 11950,15597.8 c -85,53.1 -21.2,74.4 -63.7,138.1 -116.9,180.6 -95.6,74.4 -276.2,31.9 -67,-28.7 -142.5,-31.4 -187.9,14.9 L 11557,15619 c 116.8,116.9 148.7,127.5 233.7,63.8 42.5,-42.5 21.2,-95.6 95.6,-138.1 42.5,-21.3 116.8,10.6 169.9,-10.6 -53.1,-63.8 -148.7,-106.3 -127.4,-201.9 21.2,95.6 276.2,148.7 191.2,265.6 -53.1,63.7 -127.5,-31.9 -170,0" /><path
         id="path134"
         style="fill:#000000;fill-opacity:1;fill-rule:nonzero;stroke:none"
         d="m 11963.5,15603.4 c -31.1,20.9 -47.9,38.4 -46.3,76.7 1.1,29.3 -10.6,50.9 -26.2,74.7 -21.3,32.6 -49.9,84.7 -93.4,90.4 -30,3.9 -59.3,-16.6 -84.2,-30.1 -33.4,-18.2 -68.3,-31.1 -105.2,-40.4 -62.5,-15.7 -117.8,-35.8 -172.5,13.6 -6.7,6 -34.3,-2.3 -27,-11.2 44.9,-54.6 89.9,-109.1 134.8,-163.7 5,-6.1 20.5,-1 25,3.5 30.4,30.1 60.8,61.2 97,84.5 36.7,23.6 70.3,4.8 101.7,-16.9 29.1,-20.1 36.3,-54.2 49.1,-84.9 12.6,-29.9 38.7,-54.2 68.8,-65.8 22.4,-8.7 49.8,-4.6 73.1,-2.8 -0.2,0 84.5,2.4 70.3,-12.5 -14.1,-14.8 -30,-28 -45.2,-41.7 -45.3,-40.7 -79.8,-84.7 -69,-148.5 1.7,-10.1 26.9,-1.6 28.9,5.8 25.6,91.2 159.3,107.8 201.6,191 15.8,31 2.2,79.5 -30.7,94.7 -18.9,8.8 -36.3,9.5 -56.8,5.6 -27.9,-5.3 -68.2,-36.6 -95.7,-20.7 -7.9,4.5 -34.7,-7.1 -23.2,-13.8 30.2,-17.3 64.4,-0.6 93.5,11.3 76.5,31.3 113.1,-48.7 69.3,-101.8 -51.1,-62.1 -163.3,-86 -186.9,-170.1 9.7,1.9 19.3,3.9 29,5.8 -15.8,92.7 73.6,137.6 126.4,197.8 2,2.3 1.1,6 -1.9,7 -64.9,20.6 -138.3,-16.7 -194.5,28.2 -45.7,36.4 -38.4,101 -90.5,134.4 -96.1,61.6 -169,-14.4 -237.4,-82.3 8.3,1.1 16.7,2.3 25,3.4 -44.9,54.6 -89.8,109.1 -134.7,163.7 -9,-3.8 -18,-7.5 -27,-11.2 91.9,-82.9 243.8,-13.4 336.2,37.4 17.1,9.4 32.1,19.9 51.3,10 25.4,-13.2 44.1,-46.1 59.7,-68.6 25,-36.2 30.1,-55.5 31.8,-96.9 1.4,-32.6 23.2,-49.5 48.8,-66.8 8.3,-5.6 34.5,6.1 27,11.2" /><g
         transform="scale(1.18895)"
         id="g136"><path
           id="path138"
           style="fill:#000000;fill-opacity:1;fill-rule:nonzero;stroke:none"
           d="m 13255.9,14237 c 1.7,2.8 3.4,5.6 4.9,8.4 30.2,55.6 11.1,141.7 -61.6,147.6 -31.2,2.5 -62.7,-15 -90,-27.4 -42,-19 -81.1,-27.2 -126.8,-15 -55.5,14.8 -91.2,61 -96.8,112.1 17.8,22.2 39,42.5 58.5,59 0.3,-18.1 1.9,-36.1 5.3,-54 5.2,-27.9 17.5,-55.3 43.4,-69.5 21.8,-12 49.3,-10.8 73.3,-8.2 34.8,3.7 69.1,13.1 103.4,19.9 43.3,8.6 85,11.6 129,6.1 45.3,-5.7 134.1,-22.9 99.2,-86.7 -25.3,-46.2 -75.4,-80.7 -115.6,-113.4 -8.3,7.8 -17,14.9 -26.2,21.1 m -65.5,26.5 c -22.2,4.6 -45.2,6.5 -66.9,8.2 -47.6,3.6 -95.2,3.2 -142.7,6.9 -37.9,3 -84.3,7.7 -112.3,36.5 -27,27.8 -28.6,59.8 -16.7,91.3 6.3,-33.7 19.7,-65.5 48.2,-85.9 42.4,-30.2 103.5,-21.9 151.4,-13.8 25.7,4.3 48.9,23.4 70.6,36.6 12.8,7.8 28.6,17.8 44.3,15.9 21.2,-2.7 29.1,-35.7 31.3,-52.4 2,-14.5 -1.3,-29.2 -7.2,-43.3 m -422.5,-1131.8 c -72.1,9.5 -143.5,28.4 -216.5,29.1 -59.3,0.5 -126.7,-13 -143.1,-78.8 -0.7,-2.7 -1.2,-5.5 -1.8,-8.3 -11.2,12.8 -17.1,34.7 -18.4,48.8 -2.4,26.1 26.8,38.9 36.1,60.4 9.9,22.8 -3.5,52.8 -20.1,68.9 -18.4,17.9 -44.3,28.7 -67.6,38.6 -8.9,3.7 -17.9,7.3 -26.8,10.8 -29.4,18.6 -63.3,32.2 -92,45.8 -14.4,6.9 -31.7,15 -47.3,24.9 -15.4,16.9 -22.2,37.9 -9.6,64.4 28.6,60.3 107,70.8 164.8,86.8 57.3,15.8 126.3,33.7 163,84.6 23.6,32.7 23.3,77.1 8.4,115.3 21.1,-8.5 39.7,-22.7 39.7,-47.9 0,-41.9 -42.4,-84.7 -70.5,-111 -30.2,-28.4 -66.3,-49.8 -101,-72.3 -23.8,-15.5 -50.1,-32.1 -65.4,-56.8 -14.8,-24 -4.2,-49.9 11.2,-70.5 53.3,-71.1 139.3,-101.5 221.4,-123.5 82.2,-22.1 178.8,-40.3 235.5,-109.3 m -1095.4,85.8 c -3.9,-6.7 -8,-12.7 -12.4,-18 -9.5,38.5 -23.8,76.5 -22.6,115.5 13.6,-3.9 26.4,-9.5 36.9,-18 26.1,-21 11.7,-55.7 -1.9,-79.5 m -1190.9,-610.4 c -12.6,-8.1 -24.5,-17.2 -35.9,-27 -26.6,-22.9 -48.9,-52.8 -52.4,-88.7 -1.6,-16.7 0.9,-32.6 6.6,-47.7 -12,5.8 -24.8,10.2 -38.5,12.8 -28.5,5.5 -57.2,4.2 -85.9,2.9 -19,-0.9 -38.1,-1.8 -57.1,-0.7 0.3,27.2 -33.1,52.5 -56.3,71.7 0.4,15.1 3.1,30.8 6.5,45.3 6.5,28.2 18.6,54.5 33.4,79.3 1.4,2.4 3,4.9 4.5,7.4 62.8,-26.1 142.3,-20.2 206.4,-26.7 22,-2.2 43.8,-5.7 65,-11.6 10.9,-3 10.5,-12.6 3.7,-17 m 2970.1,1064.4 c -1.7,1.4 -3.6,2.9 -5.4,4.3 32.4,52.6 32,123.9 21.2,183 -18.1,99.8 -64.6,197.9 -122.8,280.8 22.1,13.7 46.4,23.7 69.4,35.4 58,29.5 94.3,72.5 92.6,140.2 -1.7,76.1 -36,161.4 -121.8,163.6 -78.7,2.1 -153.2,-39.6 -230,-51.4 -43.7,-6.7 -95.9,-2.1 -133.7,22.4 -28.3,18.3 -32.3,51.3 -27.3,81.9 1.8,10.6 4.2,21 7.1,31.3 61.5,37.4 142.6,71.8 159.3,144.8 4.8,20.7 2.9,42.2 -2.5,63.2 27.2,24.1 43.3,58.1 50.2,94 8.3,43 -5.2,84.3 -27.6,120.6 -37.5,60.7 -118,126.3 -81.4,206.4 15.2,33.3 54.2,50.6 81.7,71.9 31.1,24 52.1,55.8 54.8,95.4 5.4,78.8 -42.9,189.8 -118.9,222.2 -74.6,31.7 -158.6,1.4 -231.5,-20.1 -50,-14.7 -101.7,-29.3 -154.3,-25.6 -24.8,1.7 -48.7,8.8 -70.8,19.9 -8.4,4.2 -16.2,9.3 -23.8,14.8 18.9,25.8 34.2,53.3 43.3,81.9 16.1,14.9 30.7,31.3 39.7,51.6 18.9,42.4 2.7,96.8 -21.9,133.3 -49.5,73.3 -146.7,113.3 -232.3,119.7 -23.3,1.7 -44.9,-0.1 -65.3,-4.9 -39.3,5.9 -79.7,4.5 -118.3,15.7 -9.1,2.6 3.7,22.9 5.5,27.8 3.1,8.2 4.6,16.9 5.6,25.6 1.9,16.4 -2.6,32.4 -11.4,46.1 -19.4,30.5 -61.5,37.6 -94.4,38.4 -83,2 -125.7,-84.3 -196.8,-110.6 12.5,78.8 8.5,167.2 -44.9,230.9 -54.3,65 -151.1,74 -229.5,61.1 -56.9,-9.3 -94.8,-41.3 -117.4,-93.4 -22.6,-52.2 -38.5,-102.7 -86.7,-134.6 2.1,17.1 6.1,52.6 -4.1,56.8 -21.7,9 -50.3,9.5 -73.3,9.5 -45.8,0.2 -92.5,-11.9 -128.5,-40.9 -34.2,-27.4 -14.9,-77.4 -37.5,-111.6 -13.9,-20.9 -35.6,-40.7 -55.7,-56.1 -11.8,12.3 -26.7,20.3 -42.9,25.6 -3.6,23.5 -1.4,49.3 -1.6,71.8 -0.4,40.1 -3.1,78.5 -21.8,114.9 -38.9,75.7 -132.5,103.4 -211.5,85.6 -44.8,-10.1 -89.9,-30.7 -123.3,-62.7 -29.2,-28.1 -43.4,-66.2 -50,-105.4 -7.9,-46.5 -5.8,-94.4 -7.4,-141.4 -0.2,-3.7 -0.3,-7.4 -0.4,-11.1 -43.4,19.4 -97.6,9.3 -142.8,-7.5 -73.7,-27.4 -111.1,-87.4 -124.2,-156.1 -2.4,3.5 -4.9,7.1 -7.3,10.7 -23.7,35.3 -36.6,76.8 -62.5,111 -54.2,71.4 -143.6,-2.6 -187.9,-47.1 -8.1,-8.1 -15.4,-17 -21.6,-26.3 -7,2 -13.9,3.9 -20.9,5.8 -77.1,21 -155.1,38.8 -233.78,53.1 -115.14,20.8 -232.73,23.5 -348.96,10.4 -38.36,-4.4 -76.12,-10.7 -113.46,-18.6 -2.61,0.7 -5.3,1.5 -7.91,2.2 -122.29,31.5 -247.19,52.3 -373.86,46.2 -130.62,-6.3 -258.72,-43.9 -378.32,-95.4 -110.77,-47.6 -199.75,-28.5 -291.77,-106.1 -20.86,-17.7 -111.43,-129.1 -138.96,-129.1 -138.99,0 -102.93,-28.8 -129.06,-29.8 -44.01,-1.7 -67.7,0.6 -88.27,2.8 -28,3.1 -50.2,6.2 -109.88,-0.7 -48.72,-5.7 -97.64,-17.8 -139.86,-43.4 -21.02,-12.8 -38.59,-33.4 -54.55,-51.9 -12.8,-14.8 -24.54,-31.7 -30.55,-50.5 -10.83,-33.9 14.37,-57.7 40.1,-75.1 42.24,-28.4 87.69,-49.8 122.94,-87.5 -24.1,-13.5 -54.44,-16.9 -81.13,-20.7 -36.24,-5.1 -72.69,-8.4 -108.84,-14.2 -59.49,-9.6 -133.31,-26.8 -165.82,-83.5 -31.77,-55.4 -20.21,-121.3 35.47,-154.1 13.75,-8.1 28.2,-14.5 43.04,-20 -4,-18.2 -2.42,-37.6 6.38,-56.1 21.23,-44.8 70.22,-74 110.31,-99.7 20.8,-13.3 41.96,-26.2 61.73,-41 13.55,-10.2 29.18,-22.7 34.16,-39.6 5.5,-18.6 -11.85,-33 -25.45,-42.1 -32.02,-21.3 -71.33,-31.7 -106.97,-45.3 -59.58,-22.7 -156.44,-64.4 -109.2,-143 18.5,-30.7 44.31,-45.9 76.97,-57.7 27.72,-10 61.92,-16.5 83.26,-38.3 26.29,-26.8 -8.51,-70.1 -27.91,-89.4 -24.91,-24.8 -61.09,-34.6 -92.82,-47.4 -19.26,-7.7 -42.87,-17.8 -49.7,-39.2 -9.83,-30.9 24.05,-69.9 42.14,-90.6 25.09,-28.7 61.05,-47.8 82.72,-79.4 8.73,-12.8 9.2,-26.7 -0.34,-39.1 -7.76,-10.1 -20.47,-16.5 -31.45,-22.2 -5.37,-2.7 -28.34,-7.8 -31.1,-14.4 -23.83,-57.4 6,-106.8 58.32,-133.4 2.04,-1 12.9,1 11.73,4.5 -10.17,30.4 -16.91,68.3 16.21,86.5 27.32,15 63.56,15.1 93.64,20.7 60.6,11.3 114.96,44 124.08,110.6 6.91,50.5 -49.01,71.1 -87.41,83.7 -32.3,10.5 -108,20.6 -111.5,64.6 -4.82,60.7 116.37,61.8 153.84,65.8 67.42,7.3 143.96,9.8 204.26,44.4 25.47,14.6 41.13,37.1 47.62,65.7 7.57,33.4 -8.01,64.9 -29.36,89.6 -50.65,58.6 -131.33,88.7 -200.12,119.8 -14.32,6.4 30.01,29.4 36.14,31.3 21.05,6.8 43.93,7.4 65.84,8 13.29,0.3 26.57,0.2 39.86,0.1 28.04,-0.2 56.07,-0.4 84,3.2 31.44,3.9 63.16,14.6 84.5,39.1 23.54,26.9 20.82,61.7 0.65,89.1 -24.5,33.3 -65.49,54.4 -100.06,75.4 -8.45,5.2 -16.86,10.4 -25.17,15.7 -8.09,5.3 -25.45,11.3 -11.3,19.8 34.14,20.5 76.07,11.6 112.6,4.1 49.59,-10.1 91.84,-12.4 140.18,4.4 24.71,8.6 52.89,24.3 55.08,53.3 2.11,27 -7.48,54 -9.18,80.9 -1.77,27.4 -1.8,71.1 18.68,92.7 13.71,14.4 42.73,2.2 57.96,-3.4 16.14,-5.9 31.7,-13.1 46.17,-22.2 -95.12,-93.2 -120.61,-288.1 2.94,-363.3 49.46,-30.1 111.36,-40.4 167.3,-51.3 70.4,-13.8 141.63,-24.5 210.77,-44.2 18.67,-5.3 38.52,-11.5 57.7,-19.5 l 98.07,-112 c 0.42,-11.4 -0.76,-23 -3.03,-34.3 -7.91,-39 -4.88,-113.5 26.83,-92.2 33.98,22.9 94.29,-94.5 46.93,-147.4 -20.52,-22.9 -83.18,-32.6 -73.76,-60.3 11.61,-34.2 -29.02,-28.5 0.59,-49.3 10.6,-4.2 21.36,-8.5 31.88,-13.5 l 74.1,-145.7 c -1.01,-3.7 -2.11,-7.4 -3.45,-10.9 -28.68,-76.7 -121.37,-109.7 -172.85,-168.4 -58.87,-67.1 -53.49,-169.9 11.95,-229.7 32.04,-29.3 74.26,-46.2 116.66,-53.2 44.24,-7.2 88.14,5.4 132.13,7.8 54.92,3.1 96.14,-35 109.76,-86.9 9.08,-34.2 -2.52,-67.1 -7.82,-100.8 -4.71,-30.6 6.22,-54.4 29.44,-74.4 33.05,-28.4 66.78,-36.7 108.83,-34.3 43.07,2.4 85.46,11.5 128.6,12.5 20.11,0.4 32.72,-3.2 45.76,-19 14.8,-18 13.62,-41.4 9.17,-62.8 -8.41,-39.7 -27,-76.7 -12.96,-117.5 13.72,-39.8 52.91,-56.7 90.92,-64.8 43.24,-9.3 88.07,-8.5 131.04,-19.4 19.6,-5 37.94,-13.8 51.31,-29.2 18,-20.7 -0.67,-45.3 -13.54,-62.5 -23.63,-31.5 -28.85,-62.8 6.73,-89 14.21,-10.3 33.22,-11.8 49.54,-16.9 25.1,-7.7 43.1,-37.9 56.5,-58.9 10,-15.6 14.4,-29.2 12,-42.3 -13.7,-16.8 -27.2,-33.8 -39.4,-51.5 -30.45,-44.4 -53.58,-97.1 -36.17,-151.1 10.43,-32.6 34.37,-59.4 59.47,-81.7 27.1,-24.1 62.6,-33.4 97,-41.6 39.8,-9.6 81.1,-16.8 117.3,-37.2 37.7,-21.3 58,-62.4 56.5,-105.2 -2.2,-71.3 -100.2,-85.8 -150.9,-109.4 -26.5,-12.4 -51.4,-29.5 -65.4,-55.8 -14.4,-26.7 -25.1,-64.6 -10.9,-93.4 24.4,-49.1 108.5,-47.7 154,-56.4 41.8,-8.1 75,-28.6 105,-59.4 27.9,-28.6 26.3,-58.5 -0.4,-86.7 -7,-7.3 -14.5,-14.2 -22.1,-20.9 -46.9,-10.2 -93.6,-38.2 -95.1,-92 -0.1,-3.1 0.1,-6 0.7,-8.9 -6.8,-13.7 -12,-28.2 -15.4,-43.4 -25.3,-111.9 93.1,-157.4 145.3,-234.4 23.9,-35.3 18.5,-74.4 -2.2,-109.9 -17.3,-29.5 -41.9,-54.4 -66.7,-77.6 -10.9,-10.2 -26,-20.7 -32.1,-35.1 -5.7,-13.2 -1.6,-29.4 -1.4,-43.3 0.1,-4.8 12,-1.1 13,2.5 21.7,78.1 89.5,101.7 158,128 63.2,24.2 112.7,60.2 125.2,130.5 12,67.8 -14.5,124.9 -71,162.6 -52.4,34.9 -115.3,49.4 -173.4,72.1 -20.8,8.1 -44.1,17.7 -58.7,35.6 -3.7,4.4 -5.9,9.4 -7.1,14.6 8,15.3 18,29.6 29.6,42.1 18,19.5 39.1,35.5 59.2,52.6 37.2,6.6 78.9,4.5 109.5,6.9 58,4.5 123.4,19.9 148.6,78.9 24.9,58.2 15.7,124.2 -40,159.1 -54.4,34 -128,35.8 -189.9,35.3 -60.3,-0.4 -120.1,-7.6 -180.1,-12.5 -8.3,28.2 -7.2,56.4 14.5,78.3 21.7,22 55.2,31.4 84.1,39.1 62.1,16.5 129.9,20.3 188.5,48.4 70.3,33.7 73.4,132 59.4,198.3 -4.4,21.3 -11.5,43 -21,63.6 20.9,-14.6 41.9,-27.1 59.4,-37.4 38.2,-22.5 78.2,-42.1 118.6,-60.4 3,-1.4 6.1,-2.8 9.2,-4.1 1.4,-0.7 -8.6,-17 -9.3,-18.3 -8.1,-14.7 -15.1,-30.1 -22.2,-45.3 -13.1,-28 -25.2,-59.8 -46.6,-82.7 -3.3,-3.5 9.6,-1.6 11.7,0.5 22.1,20.6 52.3,35.4 77.5,51.5 26.9,17.1 55.6,33.2 80.5,53.2 10,7.9 5.5,35.4 4.2,46.7 -1.7,15.7 -8.4,29.6 -18.9,41.2 -8.4,9.3 -19.3,16.3 -28.4,25 -14.8,14.1 -18.9,31.3 -22.4,50.7 -5.2,28.3 -19.4,42.5 -45.4,51.1 -29.5,9.9 5.9,73.6 19.3,84.4 29.7,24 79.6,22.9 115.1,33.8 30.7,9.5 51.9,25 64.3,54.9 15.3,37 18.1,77.9 -6.6,111.4 -22.9,31.3 -62.2,48.4 -97.3,62 -40.8,15.8 -83.3,26.8 -124.4,41.8 -29,10.7 -67.2,24.8 -80.9,55.3 -1.7,3.9 -2.8,7.8 -3.5,11.8 34.1,30.7 61.2,66.1 77.5,110.5 2.2,5.9 4.2,11.9 6.2,17.9 57.2,52.1 123.3,95 184.4,141.6 150.7,114.8 297.4,250.4 325.3,447.4 12.8,90.2 -0.3,184.1 -22.3,271.7 -6.1,23.8 -13.6,48.6 -20.8,74 31,-43.6 60.2,-88.3 81.9,-137.6 21.6,-49.5 33.7,-102.8 26.2,-156.6 -9.3,-67.1 -39.5,-129.3 -40.5,-197.9 -0.6,-41.9 12.5,-82 42.3,-111.6 27.3,-27.1 56,-46.8 72.5,-82.9 15.6,-33.8 21.2,-70.7 14.3,-107.2 -3.7,-19.6 -13.5,-40.4 -10.4,-60.7 2.3,-14.9 14.6,-24.8 28.3,-32 -15.3,-17.2 -22.1,-37.9 -6.3,-60.9 14.6,-21.4 46.3,-28.2 69.9,-33 37.1,-7.6 75.1,-10.5 112.3,-17 38,-6.7 77.5,-17.1 107.2,-42.9 31.6,-27.3 41.4,-75.3 40.1,-115.3 -2.9,-86 -87.8,-132.7 -155.9,-165.5 -70.6,-34 -148.5,-65 -204.8,-121.4 -12,-11.9 -23.8,-29.2 -11.6,-44.9 12.7,-16.4 39.3,-23 57.8,-29.7 60.7,-22.1 126.7,-46.9 137.2,-119.7 9.9,-69.4 -89.7,-87.3 -137.3,-102.1 -27.5,-8.5 -56.1,-17.6 -79.7,-34.5 -25.4,-18.1 -42.9,-53.4 -47.5,-83.6 -9.5,-61.4 81.6,-82.6 120.9,-105.9 35.3,-21 69.1,-58.9 82.9,-97.4 14.7,-41 -22.8,-65.7 -54.5,-81.4 -39.7,-19.8 -82.5,-33.4 -121.3,-55.1 -37.8,-21.3 -75.7,-42 -110.6,-68 -31.6,-23.6 -62,-52.8 -74.9,-91 -11.1,-33 -1.9,-72.1 18.5,-99.4 40.1,-53.8 115.1,-65.6 150.5,-122.1 -1.2,-6.5 -3.3,-13.3 -6.4,-20.5 -0.8,-2 2.3,-2.5 3.5,-2.7 5.9,-0.6 11.9,-1.3 17.8,-1.9 1.5,-0.2 10.8,0.7 9.6,4 -2.9,8.1 -6.4,15.4 -10.5,22.2 0.4,2 0.7,4 1,5.9 1.6,14.3 -1.3,26.7 -9.6,38.3 -16.7,23.4 -48.5,35.1 -71.3,51 -29.6,20.4 -50.3,54.3 -39.6,90.8 10,34 47.6,53.1 77.7,65.7 69.7,29.2 146.1,35.7 219.3,51.8 75.6,16.7 153.4,44.2 217.2,88.7 36.7,25.7 68.3,60.4 79.5,104.6 11.2,44.3 -4.2,84.3 -33.3,117.5 -33.6,38.3 -80,65.6 -125,88.2 -40.1,20.1 -83,37 -126.9,47.3 91.6,30.6 191.7,25 284.3,52.5 82.5,24.6 154.4,95.5 122.3,187.1 -14.8,42.6 -49.4,78.6 -85.6,104.1 -20,14.1 -41.1,25.9 -63.8,35.3 -9.3,3.9 -19,7 -28.6,9.8 -2.9,0.9 22.8,23 24.8,24.5 70.3,51.6 167.6,48.5 246.4,81.2 37.4,15.6 69.1,40.1 92.6,73.2 10.9,15.5 18.4,33 23.3,51.3 16.3,-21.9 32.5,-44.1 45.7,-67.4 21.1,-37.5 12.4,-72 -18.9,-100.4 -19.4,-17.6 -44.4,-33.9 -69.9,-40.2 -18.9,-4.6 -39,-4.6 -58.3,-4.5 -2.2,0 -4.4,0 -6.5,0 -3.1,0 -6.2,0 -9.5,0 -52.7,0.3 -125.8,0.5 -119.9,-69.7 5.8,-69.9 71.5,-72 126.6,-65.1 33.4,4.2 71.1,15.5 104.5,6.9 32.2,-8.3 36.3,-44.7 16.6,-67.3 -26.5,-30.6 -74.1,-44.8 -109.8,-60.9 -29.2,-13.1 -66.7,-27.8 -84.1,-56.6 -1,-1.6 2.7,-1.9 3.4,-1.9 27.2,0.6 54.6,-2.2 77.6,-18.1 20.3,-13.9 23.6,-34.6 27.9,-56.7 2.3,-11.6 42.8,15.5 33,19.7 -17.4,7.5 -33.4,34.5 -34.6,52.8 -1.1,17.4 10.7,32.5 22.6,43.7 30.1,28.5 70.1,45.1 104.9,66.9 20,12.4 54,34.9 34.8,61.6 -12.9,17.8 -38.1,27.6 -57.5,35.8 -18.2,7.7 -37,14 -55.8,20 -8.5,2.7 -30.5,4.2 -24.3,16.5 5.4,10.7 13.2,19.9 22.1,27.9 57.2,51.9 150.8,24.1 215,64.1 31.9,19.8 54.5,56.1 63.5,92.2 6.9,28.5 -4.7,53.7 -25.2,73.2 -46.8,44.6 -111.6,58.5 -140.5,121.4 -49.6,107.4 97.5,154.8 144.1,226.2 31.1,47.6 -2.3,95.9 -37.1,130.3 -4.1,4.1 -8.4,8.1 -12.8,12 0.9,35.5 -11.7,71.2 -28,101.9 -46.5,87.5 -120.6,166 -198.8,225.8 -14.6,11.2 -29.7,22.3 -44.7,33.4 -2.6,22.8 -2.7,45.8 0,68.9 8.3,15.5 17.4,30.6 28.5,44.5 30.1,37.8 67,70.3 112.2,88.5 39,15.7 81.6,19.1 124.6,17.4 20.5,-9.6 39.4,-23 56.2,-39.9 35.7,-35.6 58.2,-100.1 29.4,-146.6 -17.1,-27.7 -62.3,-29.2 -89.7,-40.7 -43.2,-18.2 -103.4,-80.7 -75.8,-131.5 8.3,-15 22.6,-26.2 37.4,-35.5 l 0.1,-0.2 c 35.3,-37.3 91,-54 139.2,-71.8 22.7,-13.9 43.3,-30.9 56.6,-53.8 12.7,-21.8 18.3,-50.2 7.3,-73.7 -8.9,-19 -27.1,-32.1 -41.5,-46.6 -27.8,-27.8 -23.2,-63.8 12.1,-83 21.8,-11.8 47.8,-14.5 73.9,-17 6.2,-40.5 28.9,-76.9 66.6,-98.6 51.7,-29.7 114.7,-33.7 171.6,-47.2 48.7,-11.5 92.5,-34.2 83.6,-89.6 -66.8,9.1 -148.1,34.7 -208.7,-4.8 -32.6,-21.2 -42.9,-63.1 -33,-99 11.4,-41.4 46.1,-75.6 78.9,-101.1 21.4,-16.6 44,-28.9 69.7,-36.8 30.4,-9.4 62.1,-15.5 90.8,-29.8 30.9,-15.3 35.1,-40.3 14.3,-67.1 -32.1,-41.6 -82.7,-38.1 -130.2,-37 -40.7,0.9 -81.8,0.9 -120.4,-13.8 -40.9,-15.6 -75.5,-56 -88.5,-97.3 -15.7,-49.4 14.2,-107.7 46.7,-143.8 26.8,-29.7 65.9,-36.3 103.8,-37.8 51.8,-2 98.3,-3.1 146,-26 21.6,-10.4 53.7,-24.4 63.7,-48.3 14.5,-34.7 -64.9,-60.7 -85.3,-70 -56.4,-25.7 -153.7,-64.1 -141,-142.2 0.3,-1.9 4,-1.8 5.3,-1.8 59.6,1.8 136,-6.5 147.9,-77.6 0.3,-1.5 2.5,-1.7 3.6,-1.8 11.9,-1.3 23.7,-2.5 35.6,-3.8 2.5,-0.3 9.3,0.4 9.6,3.8 1.2,10.9 -0.8,10.3 -8.8,18.6 -9.2,9.7 -16.1,21.7 -22.9,33.1 -13.7,23.1 -30.3,45.4 -41.7,69.7 -21.1,44.8 32.5,76 67.1,85.3 57.5,15.3 138.7,8.3 172.8,67.7 16.3,28.2 16.3,68.5 2.3,97.4 -12.3,25.3 -37.3,41.1 -62,52.6 -56.2,26.3 -130.9,29.8 -175.9,76.1 -21.4,22 -29.7,61.8 -22,91.1 7.7,29.4 37,43.8 63.8,51.9 57.2,17.2 121.2,11.8 176.1,36.9 38.2,17.5 68.4,80.7 37.6,116.5 -30.6,35.5 -93.9,40.9 -136.2,52.6 -22.8,6.3 -48.1,13.6 -65.4,30.6 -18.9,18.3 -13.8,46.4 2.7,64.5 23,25 66.1,24.1 97.2,25.4 32.6,1.3 65.7,1.7 97.4,10.4 54.8,15 86.6,75.3 57.6,127.5 -25.9,46.7 -96.9,56 -143.7,64.9 -47,8.8 -122.4,12.5 -150.4,58.2 -13.6,22.3 -7.6,53.9 9.6,72.3 21.9,23.4 59.6,28.6 89.7,32.3 68.2,8.5 139.3,-0.3 206.6,15.1 20.5,4.7 40.5,11.9 52,30.5 14.4,23.1 18,50.1 5.3,74.6 -27,52.4 -101.5,75.3 -153.4,91.5 -30.4,9.6 -61.4,17.2 -92.5,24.2 -10.4,2.4 -20.9,4.7 -31.2,7.1 -12.2,2.8 -1.2,31.4 2.4,41.2 27.2,74.7 119.1,113.4 187.5,138.7 57.2,21.2 116.5,36.4 176.3,48.7 16.2,-25.7 38.9,-47.3 66.2,-61.6 21.2,-11.1 46.2,-14.3 69.5,-18.6 31.9,-5.8 63.8,-11.5 94.8,-21.2 24.3,-7.6 55.2,-19.3 66.1,-44.6 4.8,-11.1 2.7,-23.4 -1.2,-34.5 -5.4,-15.1 -20.1,-40 -34.7,-47.6 -18.1,-9.3 -47.3,-3 -66.5,-1.5 -23.2,1.8 -46.4,3.6 -69.6,1.2 -16.8,-1.7 -35,-7.1 -45.4,-21.1 -14.3,-19.2 -4.4,-47.7 3.1,-67.3 1.6,-4 10.6,-2.7 12.7,0.3 35,52.7 104.8,53.2 161.6,53.7 8.3,0.1 16.8,0 25.5,-0.1 46.7,-0.3 96.6,-0.6 137.9,21.1 57.7,30.2 56.5,103.2 45.8,158.8 -16,83.8 -85,146.2 -147.9,197.7" /></g><g
         transform="scale(1.02752)"
         id="g140"><path
           id="path142"
           style="fill:#000000;fill-opacity:1;fill-rule:nonzero;stroke:none"
           d="m 10491.6,16285.6 c -36.4,14.4 32.2,-22.6 0,0" /></g><g
         transform="scale(1.17034)"
         id="g144"><path
           id="path146"
           style="fill:#f7931e;fill-opacity:1;fill-rule:nonzero;stroke:none"
           d="m 11356.1,14370.1 c -19.6,210 -23.3,421.2 -42.6,631.4 -6.3,68.9 -14.1,137.6 -23.6,206.1 -8.9,64.8 -18.1,130.3 -35.4,193.5 -32.9,120 -90.8,232.4 -160,335.3 -58.3,86.5 -126.4,166.2 -200.9,239.2 -73.5,72.2 -155.6,145.8 -249.5,190.2 -135.4,64 -276.9,32.4 -416.9,4.6 -14.1,5 -28.1,10.2 -42,15.8 -84.7,34 -165.9,72.1 -258.12,80.6 -59.64,5.6 -117.14,-4.2 -176.27,-9.9 -69.38,-6.6 -139.28,1.7 -207.98,11.4 -104.06,14.7 -207.8,31.7 -312.64,13.9 -67.93,-11.5 -134.32,-41.2 -197.97,-66.5 -75.53,-30.2 -150.13,-63.3 -221.22,-102.8 -52.29,-29.1 -112.44,-63.9 -145.77,-115.5 -1.19,-1.9 0.17,-3.3 2.14,-3.7 64.6,-12.4 131.16,-15 195.5,0.3 l 1.79,0.6 8.29,-8.3 c -8.37,-3.5 -0.6,-7.8 5.3,-5.4 34.17,14.1 71.68,-13 96.46,-33.9 43.41,-36.6 78.36,-83.5 110.65,-129.8 89.89,-128.5 161.84,-269.9 229.76,-410.9 61.27,-127.2 118.35,-256.5 170.47,-387.7 56.05,-141 105.44,-284.7 159.61,-426.5 160.29,-419 341.61,-845.6 631.5,-1193.4 69.3,-83.2 145.7,-160.7 229.1,-229.8 64.3,-53.3 138.5,-123.1 228.1,-118.8 41.3,2 81.2,17.8 118.9,33.5 55.4,23.1 109.9,49.1 163,76.8 100.5,52.5 192,119.1 262.5,208.7 34.3,43.6 62.9,87.3 82.5,139.5 19.3,51.6 28.3,106.5 32.2,161.3 6.7,95.3 -4.1,191 -17.2,285.6 2.6,138.3 -7,277.1 -19.7,414.6" /></g><g
         transform="scale(1.06617)"
         id="g148"><path
           id="path150"
           style="fill:#c77413;fill-opacity:1;fill-rule:nonzero;stroke:none"
           d="m 11528.4,14780.5 c -183.5,230.4 -353.8,472.3 -486.5,735.7 v 0 c -123.2,249.4 -185.9,521.1 -273.2,783.8 157.9,-315.8 315.8,-631.6 473.7,-947.4 95.3,-190.7 190.7,-381.4 286,-572.1" /></g><g
         transform="scale(1.08366)"
         id="g152"><path
           id="path154"
           style="fill:#c77413;fill-opacity:1;fill-rule:nonzero;stroke:none"
           d="m 11405.2,14430.4 c -3.6,0 -6.7,0.9 -8.3,2.8 -211.4,257.2 -409.7,527.4 -559.9,825.5 v 0 0 c -0.1,0 -0.1,0 -0.1,0.1 -162.2,328.4 -217.7,696 -367.5,1029.3 v 0 0 0 c -3,6.4 7.6,11.9 16.5,11.9 4.4,0 8.5,-1.4 10.2,-4.7 111.6,-223.3 223.2,-446.5 334.8,-669.8 113.2,-226.3 226.4,-452.7 339.5,-679 56.2,-150.4 118.5,-298.2 197,-439.6 1.2,-2.2 4.1,-3.1 7.5,-3.1 4.9,0 10.8,1.8 14.7,4.5 3.1,-6.3 6.3,-12.6 9.4,-18.9 -9.1,-0.8 -27.3,-13.2 -10,-13.2 3.8,0 9.8,2.5 13.9,5.4 6.5,-13.1 13.1,-26.2 19.6,-39.3 3.4,-6.6 -8.3,-11.9 -17.3,-11.9 m -541.5,835.4 v 0 c 130.6,-259.1 298.2,-497.1 478.7,-723.8 -93.8,187.6 -187.7,375.2 -281.4,562.8 -155.4,310.8 -310.7,621.5 -466.1,932.2 85.9,-258.5 147.6,-525.8 268.8,-771.2" /></g><path
         id="path156"
         style="fill:#c77413;fill-opacity:1;fill-rule:nonzero;stroke:none"
         d="m 12356.8,15693.1 c -1.4,2.8 -2.8,5.6 -4.2,8.4 0.3,0.1 0.7,0.1 1,0.1 11,0 8.9,-4.6 3.2,-8.5" /><path
         id="path158"
         style="fill:#ab620d;fill-opacity:1;fill-rule:nonzero;stroke:none"
         d="m 12341.8,15687.2 c -18.8,0 0.9,13.4 10.8,14.3 1.4,-2.8 2.8,-5.6 4.2,-8.4 -4.4,-3.2 -10.9,-5.9 -15,-5.9" /><g
         transform="scale(1.03961)"
         id="g160"><path
           id="path162"
           style="fill:#c77413;fill-opacity:1;fill-rule:nonzero;stroke:none"
           d="m 11423.9,16197.7 c -11.9,30.2 -23.8,60.5 -35.7,90.7 v 0 0 0 c -2.3,5.8 9.9,11.6 19,11.6 4.1,0 7.6,-1.2 8.9,-4.1 12.2,-30.1 24.1,-60.4 35.7,-90.7 v 0 0 0 0 c -1.3,3.4 -5.2,4.8 -9.7,4.8 -5.1,0 -10.9,-1.8 -14.7,-4.5 -3,-2.2 -4.6,-5 -3.5,-7.8" /></g><g
         transform="scale(1.03356)"
         id="g164"><path
           id="path166"
           style="fill:#c77413;fill-opacity:1;fill-rule:nonzero;stroke:none"
           d="m 11941.7,15211.5 c -76.7,153.2 -153.2,306.3 -229.8,459.4 -76.7,205.8 -142.6,416 -221.1,621.6 v 0 0 0 0 c 1.2,-3 4.6,-4.2 8.8,-4.2 6,0 13.3,2.5 17,5.8 2.1,1.8 3,3.8 2.3,5.9 142.1,-360.2 284.3,-720.4 426.5,-1080.6 1.1,-2.9 -0.6,-5.7 -3.7,-7.9" /></g><path
         id="path168"
         style="fill:#ab620d;fill-opacity:1;fill-rule:nonzero;stroke:none"
         d="m 12326.5,15717.1 c -3.7,0 -6.9,1 -8.2,3.3 -85,153.3 -152.5,313.5 -213.4,476.4 79.2,-158.2 158.3,-316.5 237.5,-474.8 -4.2,-2.9 -10.6,-4.9 -15.9,-4.9" /><g
         transform="scale(1.03387)"
         id="g170"><path
           id="path172"
           style="fill:#ab620d;fill-opacity:1;fill-rule:nonzero;stroke:none"
           d="m 11496.2,16283.4 c -4.2,0 -7.7,1.2 -8.8,4.2 v 0 0 c -1.2,2.9 0.4,5.6 3.4,7.8 3.8,2.8 9.7,4.6 14.8,4.6 4.6,0 8.5,-1.4 9.8,-4.9 v 0 0 c 0.8,-2 -0.2,-4.1 -2.2,-5.9 -3.8,-3.3 -11,-5.8 -17,-5.8" /></g><g
         transform="scale(1.07881)"
         id="g174"><path
           id="path176"
           style="fill:#c77413;fill-opacity:1;fill-rule:nonzero;stroke:none"
           d="m 12156.4,14760.3 c -32.9,309.6 -1.1,622.6 -60.4,930.4 -32.8,169.7 -74.1,338.9 -75.5,512.7 -0.2,32 -3,64.3 -6.4,96.6 99.5,-240.4 98.6,-507.2 113.9,-764.3 15.5,-257 59.8,-518.3 28.4,-775.4" /></g><g
         transform="scale(1.08476)"
         id="g178"><path
           id="path180"
           style="fill:#c77413;fill-opacity:1;fill-rule:nonzero;stroke:none"
           d="m 12083.5,14575.6 c -4.4,0 -8.1,1.8 -8.8,6.4 -25.6,168 -26.5,337.9 -28.6,507.5 -2.3,177.4 -11.8,350.2 -46.4,524.6 -31.4,158.7 -70.6,319.5 -71.9,482.2 -0.6,63.2 -9.5,126.9 -14.7,189.9 -0.1,0.8 -0.1,1.6 0.1,2.3 0.6,6.6 9.4,11.5 16.7,11.5 1.6,0 3,-0.2 4.4,-0.7 3,-0.8 5.2,-2.6 5.5,-5.8 131.7,-256.1 131.1,-545.1 147.9,-825.7 17.5,-291.9 72.7,-590.6 13.9,-881.2 -1.2,-5.9 -10.7,-11 -18.1,-11 m -135.2,1635 c 3.3,-32.1 6.1,-64.2 6.3,-96.1 1.4,-172.8 42.5,-341.1 75.1,-509.8 59,-306.1 27.3,-617.4 60.1,-925.3 31.2,255.7 -12.9,515.5 -28.2,771.2 -15.4,255.6 -14.4,521 -113.3,760" /></g><g
         transform="scale(1.03303)"
         id="g182"><path
           id="path184"
           style="fill:#c77413;fill-opacity:1;fill-rule:nonzero;stroke:none"
           d="m 12219,15229 c -30.3,110.2 -21.3,223.5 -20.7,337.6 0,1.4 -2.1,2 -5.2,2 -7.9,0 -21.7,-3.9 -22.7,-8.3 -21.3,-104.2 -9,-211 -19.6,-315.8 -0.6,14.5 -1.4,29 -2.3,43.4 -3.1,53 -9.3,105.7 -16.3,158.3 -13.5,98.5 -33.4,196.1 -53.8,293.3 -39,185.6 -81.3,371 -94,560.5 32.8,-32.7 65.5,-65.5 98.3,-98.2 7.7,-7.8 15.5,-15.5 23.2,-23.3 10,-10 9.6,-43.4 12.3,-57.6 12.2,-63.3 29.2,-125.8 46,-188 60.7,-223.4 145.8,-478.7 54.8,-703.9" /></g><g
         transform="scale(1.03559)"
         id="g186"><path
           id="path188"
           style="fill:#c77413;fill-opacity:1;fill-rule:nonzero;stroke:none"
           d="m 12114.4,15133.9 c -5.1,0 -10.3,0 -15.5,0 -0.7,0 -4.8,0.3 -4.9,2 -2.2,392.2 -151.5,763.8 -169.3,1154.2 -0.1,4.1 7.6,7.3 14.9,8.7 2.7,0.8 5.3,1.2 7.4,1.2 1.9,0 3.4,-0.3 4.5,-1 0.6,-0.3 1,-0.7 1.2,-1.2 43.9,-43.8 87.7,-87.7 131.5,-131.5 25.7,-25.7 24.4,-39.6 32.1,-77.7 12.8,-63.1 29,-125.4 45.9,-187.5 64.5,-236.5 155.2,-509.2 36.6,-743.6 -1.8,-3.5 -14.4,-8.8 -22,-8.8 -2.9,0 -5.2,0.7 -5.8,2.6 -9.3,26.5 -16.1,53.1 -20.9,79.9 -2.2,-29.9 -6.1,-59.6 -12.8,-89.1 -1.6,-6.4 -18.1,-8.2 -22.9,-8.2 m 48.5,396.3 c 3.1,0 5.3,-0.7 5.3,-2.1 -0.6,-113.7 -9.6,-226.7 20.6,-336.7 90.8,224.6 5.9,479.3 -54.6,702.2 -16.8,62 -33.7,124.3 -45.9,187.5 -2.7,14.1 -2.3,47.5 -12.3,57.4 -7.7,7.8 -15.4,15.6 -23.1,23.3 -32.8,32.7 -65.4,65.3 -98,98 12.6,-189.1 54.8,-374 93.7,-559.1 20.3,-97.1 40.2,-194.4 53.6,-292.7 7.1,-52.4 13.2,-105 16.3,-157.8 0.9,-14.4 1.7,-28.9 2.2,-43.3 10.7,104.5 -1.6,211 19.7,315 0.9,4.4 14.7,8.3 22.5,8.3" /></g><g
         transform="scale(1.00276)"
         id="g190"><path
           id="path192"
           style="fill:#c77413;fill-opacity:1;fill-rule:nonzero;stroke:none"
           d="m 12801,15594.6 c -5.3,0 -10.6,0 -16,0 -4,0 -10,2.3 -9.1,7.3 42.8,229.3 77.9,460 87.9,693.3 0,-0.7 0.1,-1.4 0.1,-2.1 v 0 0 0 c 0,-1.8 2.6,-2.6 6.2,-2.6 7.9,0 21.2,4 22.6,9.5 0.1,-0.5 0.1,-0.9 0.1,-1.5 5.5,-233.8 -19.7,-465.5 -71.9,-693.4 -1.3,-5.5 -9.5,-9.3 -16.9,-10.1 -1.1,-0.3 -2.1,-0.4 -3,-0.4" /></g><g
         transform="scale(1.07472)"
         id="g194"><path
           id="path196"
           style="fill:#c77413;fill-opacity:1;fill-rule:nonzero;stroke:none"
           d="m 12002.5,15204.2 c -11.1,369 -100.6,728.5 -185.7,1085.9 v 0 0 0 c -1.1,4.9 12.3,9.9 20.7,9.9 3.2,0 5.7,-0.8 6.3,-2.7 34.6,-113.6 69.2,-227.2 103.7,-340.9 0,0 0.1,-0.1 0.1,-0.1 v 0 c 0,-0.1 0,-0.1 0,-0.2 65.6,-244.1 91.3,-494.2 82,-746.7 v 0 0 0 c 0,-0.2 -0.1,-0.5 -0.1,-0.7 -0.9,4 -5,5.7 -9.9,5.7 -7.6,0 -16.8,-4.2 -17.1,-10.1 0,0 0,-0.1 0,-0.1" /></g><g
         transform="scale(1.00314)"
         id="g198"><path
           id="path200"
           style="fill:#ab620d;fill-opacity:1;fill-rule:nonzero;stroke:none"
           d="m 12865.2,16284.5 c -3.5,0 -6.1,0.7 -6.1,2.5 v 0 0 0 c 0,0.7 -0.1,1.4 -0.1,2.1 0,0 0,0.1 0,0.1 0.3,6.3 10.1,10.8 18.3,10.8 5.2,0 9.6,-1.8 10.6,-6.1 -1.4,-5.5 -14.7,-9.4 -22.7,-9.4" /></g><g
         transform="scale(1.11505)"
         id="g202"><path
           id="path204"
           style="fill:#000000;fill-opacity:1;fill-rule:nonzero;stroke:none"
           d="m 8101.14,16300 c -5.4,-5.3 -10.43,-11.3 -14.13,-18.8 4.88,6.2 9.6,12.4 14.13,18.8" /></g><g
         transform="scale(1.11714)"
         id="g206"><path
           id="path208"
           style="fill:#000000;fill-opacity:1;fill-rule:nonzero;stroke:none"
           d="m 8114.18,16293.1 c -3.12,2.3 -6.16,4.6 -9.11,6.9 -5.62,-10.4 -12.05,-20.6 -19.04,-30.4 9.99,9.8 21.29,16.7 28.15,23.5" /></g><g
         transform="scale(1.16518)"
         id="g210"><path
           id="path212"
           style="fill:#000000;fill-opacity:1;fill-rule:nonzero;stroke:none"
           d="m 8721.72,16259.5 c -60.85,10.1 -141.85,10.1 -202.63,-30.4 -81.04,-50.7 -30.39,-141.8 -70.91,-192.5 -101.3,-101.3 -790.15,263.4 -536.9,-182.3 -179.51,0 -319.74,-88.4 -140.43,-226.4 21.3,39.3 30.18,82.2 8.74,125.1 101.3,30.4 182.34,-20.3 273.52,50.6 40.51,30.4 -10.14,81.1 60.78,121.6 60.78,30.4 81.04,20.2 141.82,-20.3 20.26,-20.2 20.26,-101.3 50.65,-131.7 30.39,-30.4 121.56,-60.7 162.08,-60.7 121.54,-10.2 222.9,70.9 334.3,91.1 l 202.63,202.6 c -30.38,101.3 -182.37,222.9 -283.65,253.3" /></g><g
         transform="scale(1.02108)"
         id="g214"><path
           id="path216"
           style="fill:#000000;fill-opacity:1;fill-rule:nonzero;stroke:none"
           d="m 12137.4,15294.3 c -92.5,69.4 -254.3,0 -289,115.6 -11.6,34.7 104.1,80.9 69.4,150.3 -23.1,57.8 -81,46.2 -127.2,69.3 -127.1,57.8 -138.7,-11.5 -184.9,138.7 -46.3,127.2 57.8,161.9 -80.9,242.8 -104.1,69.4 -196.6,11.6 -289,150.3 -23.1,46.2 -46.4,92.5 -57.9,138.7 l -69.4,-312.1 c -92.4,-138.7 150.4,-439.3 289.1,-474 92.4,-23.1 161.8,23.1 254.3,23.1 127.1,0 104,-11.5 150.2,-80.9 57.9,-80.9 11.6,-115.6 127.2,-184.9 69.4,-46.3 173.4,-34.7 219.6,-104.1 46.3,-80.9 -46.2,-161.8 -23.1,-242.7 34.7,-80.9 150.3,-92.5 185,-185 11.6,104.1 -69.3,185 -92.4,289 -23.2,104.1 46.2,185 -81,265.9" /></g><path
         id="path218"
         style="fill:#923131;fill-opacity:1;fill-rule:nonzero;stroke:none"
         d="m 9596.59,15616.1 c 1.89,-1.6 3.85,-3 5.82,-4.4 -4.42,3.5 -8.7,7.2 -12.75,11.3 l 6.93,-6.9" /><path
         id="path220"
         style="fill:#923131;fill-opacity:1;fill-rule:nonzero;stroke:none"
         d="m 9589.8,15613.4 c 1.9,-1.5 3.85,-2.9 5.83,-4.3 3.45,-2.5 16.73,2.7 13.56,5.3 -4.43,3.5 -8.7,7.2 -12.75,11.2 -3.07,3.1 -16.6,-2.2 -13.56,-5.2 2.31,-2.3 4.61,-4.7 6.92,-7 3.06,-3 16.59,2.3 13.57,5.3 -2.31,2.3 -4.62,4.6 -6.93,6.9 -4.52,-1.7 -9.04,-3.5 -13.56,-5.2 4.05,-4 8.31,-7.8 12.75,-11.3 4.52,1.7 9.04,3.5 13.56,5.3 -1.98,1.4 -3.92,2.8 -5.82,4.3 -3.5,2.8 -16.6,-2.9 -13.57,-5.3" /><path
         id="path222"
         style="fill:#923131;fill-opacity:1;fill-rule:nonzero;stroke:none"
         d="m 9602.41,15611.7 c 78.78,-62.5 213.67,-40.4 298.93,25.2 -87.8,-13.6 -221.68,-79.7 -298.93,-25.2" /><path
         id="path224"
         style="fill:#923131;fill-opacity:1;fill-rule:nonzero;stroke:none"
         d="m 9596.87,15607.4 c 93.31,-67.7 222.2,-37.6 309.34,25.9 6.72,4.9 -0.85,9.8 -6.28,8.8 -89.95,-15.7 -205.4,-79.7 -291.97,-26.1 -5.74,3.6 -18.25,-4.2 -11.09,-8.6 92.61,-57.4 210.42,7.5 305.87,24.2 -2.09,2.9 -4.18,5.9 -6.28,8.8 -81.39,-59.3 -201.24,-87.6 -288.5,-24.4 -5.51,4 -18,-3.6 -11.09,-8.6" /><path
         id="path226"
         style="fill:#c24141;fill-opacity:1;fill-rule:nonzero;stroke:none"
         d="m 9774.07,15507.9 c 46.75,28.5 83.11,83.1 122.07,124.6 -62.33,-41.5 -137.66,-70.1 -210.38,-93.5 l 88.31,-31.1" /><path
         id="path228"
         style="fill:#c24141;fill-opacity:1;fill-rule:nonzero;stroke:none"
         d="m 9776.9,15507.5 c 49.38,32.8 83.1,81.9 122.56,125.1 2.07,2.3 -5.24,0.8 -6.15,0.2 -64.61,-41.7 -136.07,-69 -208.88,-92.7 -0.79,-0.2 -3.61,-1.9 -1.61,-2.6 29.44,-10.4 58.88,-20.8 88.31,-31.2 1.86,-0.7 8.43,2.2 5.87,3.1 -21.02,7.4 -42.05,14.8 -63.07,22.3 -8.12,2.8 -16.24,5.7 -24.35,8.6 16.79,-6 63.43,20.3 79.6,26.5 40.64,15.6 81.34,34.1 117.96,57.8 -18.53,-12 -33.5,-37.4 -47.88,-54.2 -20.2,-23.5 -42.11,-45 -68.02,-62.2 -3.19,-2.1 4.13,-1.7 5.66,-0.7" /><path
         id="path230"
         style="fill:#c24141;fill-opacity:1;fill-rule:nonzero;stroke:none"
         d="m 9766.28,15648.1 c -57.14,20.8 -83.12,59.7 -116.88,98.7 l 2.59,-137.7 c 67.53,-20.7 225.97,2.6 264.93,65 -46.75,-36.4 -93.5,-44.2 -150.64,-26" /><path
         id="path232"
         style="fill:#c24141;fill-opacity:1;fill-rule:nonzero;stroke:none"
         d="m 9769.21,15649.7 c -51.14,21 -81.61,57.6 -116.42,98.4 -1.27,1.5 -7.05,-0.2 -7.02,-2.3 0.87,-45.9 1.74,-91.7 2.6,-137.6 l 0.69,-0.6 c 79.94,-21.5 219.07,-6.4 271.18,66.6 1.85,2.6 -5.21,0.9 -6.15,0.2 -45.41,-32.8 -92.53,-39.5 -144.88,-24.7 -1.89,0.5 -8.39,-2.4 -5.87,-3.2 52.06,-14.6 96.73,-10.6 142.98,17.6 -15.94,-9.7 -55.69,-37 -87.46,-46.4 -44.11,-13.1 -92.22,-17 -137.89,-12.3 -31.82,3.2 -25.52,13.4 -26.03,40.4 -0.47,24.9 -0.94,49.8 -1.41,74.7 -0.15,7.9 -0.3,15.8 -0.44,23.8 0.08,-4.7 11.23,-20.5 19.59,-30.3 25.63,-30.2 54.11,-52.4 90.66,-67.5 1.83,-0.7 8.45,2.1 5.87,3.2" /><path
         id="path234"
         style="fill:#f7931e;fill-opacity:1;fill-rule:nonzero;stroke:none"
         d="m 12133.6,3995.2 c 342.9,1246.8 360.2,2159.3 -218.2,3366.5 -850.5,1774.9 -199.2,3403.7 -192.5,3440.7 -187,-31.2 -368.6,19.2 -493.3,81.6 l -31.1,-31.2 C 10699.7,10541.1 9421.71,10135.9 9110.01,9512.4 8767.13,8826.7 8767.13,7860.4 8735.96,7143.5 8673.61,5865.5 8548.93,4618.6 8393.08,3371.8 8254.35,2151 7621.68,1078.3 7066.63,0 h 5043.87 c 11.1,1341.6 -352.7,2680 23.1,3995.2" /><path
         id="path236"
         style="fill:#66cbc4;fill-opacity:1;fill-rule:nonzero;stroke:none"
         d="m 8465.28,10275.6 c 5.74,324.7 171,994.6 174.17,1336.3 8.75,944.8 -1045,467.1 -795.17,1099.7 l -12.23,69.3 c -521.02,-596.4 -976.36,-1231.6 -1167.68,-2005.2 -141.69,-554.6 -312.14,-1517.8 100.54,-1974.6 142.44,-164 352.97,-332.8 533.05,-448.1 182.49,-81.3 408.6,-28.8 540,-106.5 181.28,-98.3 81.78,-296.6 152.52,-506.9 73.14,-176.2 294.03,-356.2 313.69,-562.9 l 17.43,4.5 c 434.71,585.3 858.43,1415.7 569.46,2171.7 -159.71,404.8 -443.51,427.8 -425.78,922.7" /><path
         id="path238"
         style="fill:#66cbc4;fill-opacity:1;fill-rule:nonzero;stroke:none"
         d="m 9397.19,6986.1 c -76.03,27.5 -154,49.5 -231.26,73.2 -67,20.5 -79.93,16.8 -142.21,49.6 -72.51,38.2 -155.29,151.1 -171.39,225.9 -53.01,246.2 -4.53,518.3 37.33,762.8 44.83,261.9 132.14,545.2 66.88,810.4 -34.07,138.5 -127.39,239.4 -216.97,345.3 -1.67,2 -3.35,4 -5.02,6 -190.38,-180.5 -382.84,-361.9 -545.85,-563.1 -118.28,-143.2 -201.55,-307 -294.07,-465.4 1.96,-0.2 3.93,-0.3 5.89,-0.5 52.47,-4.8 74.39,-11 63.36,-68.5 -13.26,-69 -30.4,-135.8 -31.61,-206.7 -4.97,-291.5 170.33,-543.3 289.89,-797.5 42.06,-89.5 83.6,-264.1 124.88,-353.9 22.13,-48.1 44.33,-98.3 77.42,-140.2 51.53,-65.1 135.72,-66.3 212.11,-69.6 124.51,-5.6 249.47,-4.1 373.9,2.7 116.64,6.3 313.85,28 426.36,61.2 47.68,14.1 213.11,160.9 115.65,250 -42.53,38.8 -102.13,59.1 -155.29,78.3" /><path
         id="path240"
         style="fill:#9f5f3e;fill-opacity:1;fill-rule:nonzero;stroke:none"
         d="m 7934.31,13804.5 47.82,-143.7 c 2.51,51.5 -16.65,156 -52.93,206 0.36,-20.5 1.96,-41.2 5.11,-62.3" /><path
         id="path242"
         style="fill:#9f5f3e;fill-opacity:1;fill-rule:nonzero;stroke:none"
         d="m 8661.6,14724.1 c -195.35,-71.4 -436.92,-207.9 -551.3,-385.7 -94.54,-145.2 -184.13,-299.5 -181.1,-471.6 36.27,-50 55.44,-154.5 52.93,-206 l -47.82,143.7 c -3.15,21.1 -4.75,41.8 -5.11,62.3 -2.3,3.2 -4.66,6.2 -7.09,8.9 -100.31,111.3 -224.31,-22.9 -264.22,-118.6 -39.9,-95.7 -98.47,-253.1 -91.51,-351.4 20.3,-146 85.35,-177 211.08,-168.3 15.63,-0.9 -7.82,-35.8 4.47,-24.7 -51.61,-255.7 14.99,-470.3 198.42,-657.8 191.68,-195.9 402.41,-424.1 613.21,-518 137.93,-62.5 319.96,52.2 458.36,79.8 130.97,35.8 297.16,146.5 367.65,225.2 203.17,226.7 184.19,251.1 293.05,476.2 214.75,469.9 513.18,753.2 277.19,1295.1 -229.3,518 -806.15,797.5 -1328.21,610.9" /><path
         id="path244"
         style="fill:#864f2d;fill-opacity:1;fill-rule:nonzero;stroke:none"
         d="m 8801.44,13544.3 c -4.55,0 -10.05,1.9 -14.35,6.1 -4.73,-0.7 -9.46,-1.5 -14.19,-2.3 -0.81,-0.2 -1.71,-0.3 -2.68,-0.3 -8.62,0 -22.23,9.1 -21.94,17.7 l -13.97,3 c -1.18,-0.4 -2.35,-0.6 -3.54,-0.9 -0.68,-0.2 -1.45,-0.3 -2.28,-0.3 -4.04,0 -9.61,2.2 -14.23,5.4 l -291.32,61.4 c -5.06,-4.3 -10.21,-8.7 -15.45,-13 -1.36,-1.1 -3.14,-1.6 -5.15,-1.6 -3.28,0 -7.16,1.3 -10.76,3.4 -5.69,-5 -11.29,-10.2 -16.56,-15.8 -1.98,-2.1 -4.65,-3 -7.56,-3 -10.54,0 -24.3,11.8 -20.75,21.4 1.79,4.8 3.59,9.7 5.39,14.5 -7.82,5.3 -13.41,13.9 -6.99,18.9 6.92,5.3 13.87,10.6 20.17,16.6 2.04,2 4.72,2.8 7.62,2.8 7.13,0 15.63,-5.1 19.36,-11.4 3.05,2.8 6.13,5.6 9.05,8.5 1.78,1.9 4.29,2.7 7.1,2.7 3.41,0 7.26,-1.2 10.8,-3 6.85,6.5 13.56,13.3 19.94,20.5 1.74,2 4.31,2.8 7.21,2.8 5.26,0 11.61,-2.8 16.17,-6.7 2.8,2.4 5.6,4.8 8.26,7.3 2.05,2 4.72,2.8 7.61,2.8 9.24,0 20.71,-8.6 21.1,-17.4 4.01,3.5 7.94,7.1 11.71,11 1.82,1.9 4.42,2.7 7.33,2.7 10.05,0 23.79,-9.8 21.83,-18.7 l -0.42,-1.9 c 4.8,2.7 9.64,5.3 14.38,8.1 1.3,0.8 2.92,1.1 4.72,1.1 8.75,0 21.78,-8.2 22.73,-16.3 1.97,1 3.98,1.8 5.92,2.8 1.42,0.8 3.13,1.1 4.97,1.1 9.13,0 21.8,-8.2 22.23,-16.8 9.94,3.9 19.71,8.2 29.04,13.9 1.32,0.7 2.98,1.1 4.82,1.1 10.6,0 27.29,-12 21.65,-21.3 -1.16,-1.9 -2.1,-3.8 -3.13,-5.8 8.15,-1.5 17.45,-7.6 18.76,-14.7 5.44,1.4 10.94,2.6 16.69,3.7 0.54,0 1.12,0.1 1.75,0.1 7.11,0 19.11,-6.1 22.29,-13.5 l 1.41,0.1 c 0.17,0 0.35,0 0.54,0 8.11,0 26.55,-8.3 23.96,-18.7 l 2.71,1 c 1.56,0.7 3.33,1 5.2,1 9.95,0 22.71,-9.1 22.11,-18.7 -0.02,-3.9 -0.44,-7.8 -0.82,-11.7 7.77,-1.8 15,-6.1 22.49,-13.4 10.28,-10.2 5.2,-16.3 -2.93,-16.3" /><path
         id="path246"
         style="fill:#864f2d;fill-opacity:1;fill-rule:nonzero;stroke:none"
         d="m 9747.47,13162.3 c -8.13,0 -22.22,7.5 -24.64,15.1 -0.61,1.9 -1.22,4 -1.84,6.2 l -249.16,148.4 c -2.65,-1.5 -5.32,-2.8 -7.92,-4.4 -1.63,-1 -3.58,-1.5 -5.69,-1.5 -9.93,0 -23.26,10 -21.63,19.2 0.42,2.3 0.9,4.6 1.33,6.9 l -0.51,0.3 c -6.27,-3.2 -12.63,-6.4 -19.17,-9.9 -1.39,-0.7 -3.09,-1.1 -4.96,-1.1 -5.54,0 -12.53,3 -17.29,7.2 -1.97,-1.7 -3.98,-3.3 -5.87,-5.1 -1.41,-1.4 -3.34,-2 -5.52,-2 -10.48,0 -26.84,13.7 -20.86,22.2 4.26,6.1 8.28,12.3 12.1,18.7 -0.78,2.4 -0.58,4.8 1.14,6.8 1.67,1.9 3.34,3.8 5.01,5.7 2.04,2.3 4.63,3.2 7.36,3.2 3.87,0 8.04,-1.8 11.36,-3.6 3.05,2.5 6.09,5.1 9,7.9 1.44,1.4 3.37,2 5.55,2 8.18,0 19.81,-8.5 21.7,-15.9 4.5,3.1 8.89,6.4 13.16,10.3 1.46,1.3 3.4,1.9 5.57,1.9 9.68,0 24.06,-11.4 21.74,-19.6 -1.27,-4.5 -2.2,-9 -3.26,-13.5 8.68,4.1 17.39,8.1 26,12.6 1.66,0.9 3.59,1.3 5.63,1.3 9.11,0 20.6,-7.8 21.51,-16.6 11.01,5.7 22.02,11.3 32.63,17.8 1.63,1 3.59,1.5 5.7,1.5 9.93,0 23.17,-10 21.61,-19.2 -0.91,-5.4 -1.73,-10.7 -2.56,-16.1 5.62,1.3 11.34,2.4 17.43,3.1 0.45,0.1 0.94,0.1 1.46,0.1 7.98,0 22.51,-6.6 23.28,-15.7 5.31,1.6 10.72,3 16.54,4.1 0.72,0.1 1.49,0.2 2.3,0.2 9.4,0 24.26,-8.8 22.29,-19 -1.85,-6 -2.59,-12.1 -2.43,-18.3 58.72,-10 70.71,-82.3 87.17,-133.6 1.74,-5.5 -0.91,-7.6 -5.26,-7.6" /><path
         id="path248"
         style="fill:#1a1a1a;fill-opacity:1;fill-rule:nonzero;stroke:none"
         d="m 8643.23,13273.5 c -36.45,-0.8 -72.56,-4.2 -109.06,-2.6 -47.91,2 -98.39,29.2 -134.79,66.3 l 2.35,2.5 c 4.13,4.1 -10.49,14.3 -20.19,18 -9.79,12.7 -17.97,26.2 -23.78,39.9 -0.58,1.4 -2.07,3 -4.08,4.6 1.86,1.1 3.69,2.2 5.57,3.3 7.38,4.2 -18.43,22.4 -25.74,20.2 -28.69,-9 -51.66,-9.4 -80.61,2.4 -20,8.2 1.12,-13.8 9.19,-17.1 10.69,-4.4 21.04,-7.5 31.31,-9.5 -7.54,-4.5 -15.17,-8.8 -23.16,-12.6 -8.79,-4.1 19.22,-19.7 23.6,-20.3 2.77,-0.3 5.47,-0.6 8.18,-0.8 -0.58,-1.2 -1.22,-2.3 -1.72,-3.6 -3.44,-9 20.29,-20.1 27.03,-19.3 3.62,0.5 7.24,1 10.84,1.4 1.05,-4.1 7.29,-8.9 13.69,-12.3 -8.77,-10.4 -17.44,-21 -27.21,-30.7 -4.9,-4.9 20.87,-22.2 27.03,-19.3 8.79,4.1 17.77,7 26.83,9.4 -3.28,-5.5 -6.61,-11 -10.15,-16.3 -4.32,-6.5 21.11,-22.3 27.03,-19.3 4.51,2.4 9.07,4.3 13.68,6.2 -3.66,-7.8 -7.36,-15.6 -11.69,-23.1 -4.25,-7.4 21.9,-22.9 28.32,-18.4 4.59,3.2 9.26,6.3 13.97,9.3 5.69,-7 20.68,-14.5 25.24,-12.7 7.86,3.2 15.89,5.8 23.78,8.7 -0.72,-6.4 -1.44,-12.7 -2.61,-19 -1.64,-7.8 23.15,-25.2 28.32,-18.4 13.89,18.3 20.32,39.4 44.13,32.6 15.96,-4.6 33.27,-2.6 49.49,-1 36.42,3.7 108.36,39 141.34,14.4 6.42,-4.8 30.64,-13.5 16.31,1.3 -32.88,34 -77.45,36.8 -122.44,35.8" /><path
         id="path250"
         style="fill:#1a1a1a;fill-opacity:1;fill-rule:nonzero;stroke:none"
         d="m 9696.37,12923.3 c -30.26,8 -48.34,22.2 -65.83,46.6 -4.46,6.3 -36.05,7.3 -32.68,-0.5 0.86,-2 1.62,-4 2.44,-6 -2.58,-0.1 -4.74,-0.5 -6.03,-1.3 -12.91,-7.4 -27.52,-13.2 -43.01,-17.5 -9.99,2.9 -27.77,3.6 -26.95,-2.2 0.16,-1.1 0.21,-2.2 0.35,-3.4 -51.39,-7.7 -108.04,1.1 -147.54,28.3 -30.08,20.7 -56.84,45.2 -85.45,67.8 -35.33,27.9 -72.58,52.5 -119.31,45.2 -20.37,-3.2 4.26,-10.8 12.27,-10.9 41.14,-0.2 77.26,-71.7 104.12,-96.6 11.96,-11.1 24.61,-23.1 40.09,-29.1 23.1,-8.9 15.5,-29.6 15.59,-52.6 0.03,-8.5 30.32,-9.5 33.67,-2.4 2.87,5.8 6.13,11.3 9.38,16.8 4.55,-7.1 9.36,-14 13.74,-21.3 2.53,-4.2 19.05,-7.2 27.79,-5 1.95,-5.3 3.83,-10.5 5.55,-15.9 2.41,-7.4 32.62,-10.8 33.68,-2.4 1.08,8.7 2.8,17.1 4.57,25.5 2.59,-4.2 5.03,-8.6 7.23,-13.1 2.9,-6 32.7,-8.8 33.18,-0.9 0.39,6.4 1.03,12.7 1.72,19.1 5.77,-7.4 11.22,-15.1 15.76,-23.7 3.19,-6 34.15,-7.7 33.18,-0.9 -1.94,13.7 -2.5,27.3 -3.2,40.9 7.13,-1.1 15,-1.1 18.32,1.6 2.63,-2.5 5.24,-5 7.85,-7.6 4.85,-4.8 30.51,-10.2 33.18,-0.9 0.39,1.3 0.53,2.6 0.77,3.9 2.32,-1.5 4.62,-2.9 7.04,-4.3 3.84,-2.2 35.6,-6.6 31.08,2 -4.11,7.8 -7.6,15.9 -10.94,24 9.42,-4.6 19.55,-8.4 30.72,-11.3 8.43,-2.2 38.56,2.6 17.67,8.1" /><path
         id="path252"
         style="fill:#603813;fill-opacity:1;fill-rule:nonzero;stroke:none"
         d="m 8863.47,12873.3 c 0.63,-1.8 1.22,-3.7 1.72,-5.5 3.2,-1 6.37,-2 9.54,-3 -0.43,2 -0.93,3.9 -1.47,5.8 -3.25,0.9 -6.52,1.8 -9.79,2.7" /><path
         id="path254"
         style="fill:#603813;fill-opacity:1;fill-rule:nonzero;stroke:none"
         d="m 8873.26,12870.6 c 0.54,-1.9 1.04,-3.8 1.47,-5.8 2.81,-0.9 5.64,-1.7 8.43,-2.7 2.15,-0.8 9.77,2.1 6.9,3.1 -5.56,2 -11.17,3.7 -16.8,5.4" /><path
         id="path256"
         style="fill:#603813;fill-opacity:1;fill-rule:nonzero;stroke:none"
         d="m 8865.19,12867.8 c 0.47,-1.8 0.95,-3.5 1.32,-5.3 0.51,-2.4 8.88,-0.8 8.38,1.6 l -0.16,0.7 c -3.17,1 -6.34,2 -9.54,3" /><path
         id="path258"
         style="fill:#603813;fill-opacity:1;fill-rule:nonzero;stroke:none"
         d="m 8756.31,12894.1 c -1.56,-0.7 -2.68,-2.3 -0.33,-2.8 36.24,-8.7 73.42,-13.3 109.21,-23.5 -0.5,1.8 -1.09,3.7 -1.72,5.5 -30.47,8 -61.77,12.5 -92.61,19.3 -13.03,2.8 17.25,10.6 14.43,9.6 14.13,4.9 29.04,6.3 43.75,3.8 18.38,-3.1 28.89,-16.7 34.43,-32.7 3.27,-0.9 6.54,-1.8 9.79,-2.7 -15.56,53.1 -75.5,44.2 -116.95,23.5" /><path
         id="path260"
         style="fill:#603813;fill-opacity:1;fill-rule:nonzero;stroke:none"
         d="m 9111.06,12782.8 c 1.83,1.5 3.66,3 5.49,4.6 -3.6,0.8 -7.2,1.7 -10.81,2.5 1.83,-2.2 3.62,-4.6 5.32,-7.1" /><path
         id="path262"
         style="fill:#603813;fill-opacity:1;fill-rule:nonzero;stroke:none"
         d="m 9009.23,12816.9 c -1.61,-0.6 -2.26,-1.5 -2.35,-2.4 0.99,1.8 4.31,3.3 6.58,2.4 2.35,-0.9 4.74,-1.7 7.11,-2.6 32.97,10.2 63.41,2.5 85.17,-24.4 3.61,-0.8 7.21,-1.7 10.81,-2.5 -1.83,-1.6 -3.66,-3.1 -5.49,-4.6 -1.7,2.5 -3.49,4.9 -5.32,7.1 -28.73,6.8 -57.5,14.1 -85.17,24.4 -2.65,-0.8 -5.3,-1.7 -7.98,-2.8 -3.07,-1.2 -5.93,0.9 -5.71,3 -0.6,-1.1 -0.36,-2.3 1.48,-3 33.91,-13.3 69.56,-22 104.98,-30.2 2.21,-0.5 7.55,1.6 5.49,4.6 -26.09,38.8 -67.13,47.7 -109.6,31" /><path
         id="path264"
         style="fill:#603813;fill-opacity:1;fill-rule:nonzero;stroke:none"
         d="m 9006.88,12814.5 c -0.22,-2.1 2.64,-4.2 5.71,-3 2.68,1.1 5.33,2 7.98,2.8 -2.37,0.9 -4.76,1.7 -7.11,2.6 -2.27,0.9 -5.59,-0.6 -6.58,-2.4" /><path
         id="path266"
         style="fill:#603813;fill-opacity:1;fill-rule:nonzero;stroke:none"
         d="m 8756.72,12851.6 c 2.04,-0.5 9.79,2.3 5.48,3.4 -121.63,29.4 23.66,233.5 81.73,161.9 1.5,-1.9 9.44,0.5 7.92,2.4 -67.81,83.6 -225.06,-136.4 -95.13,-167.7" /><path
         id="path268"
         style="fill:#603813;fill-opacity:1;fill-rule:nonzero;stroke:none"
         d="m 9152.2,12907.7 c 9.26,-27.3 15.24,-55.6 11.03,-84.4 -6.23,-42.6 -43.95,-53.6 -82.18,-48.9 -3.64,0.4 -8.93,-4.6 -3.37,-5.3 32.48,-4 66.15,-0.4 85.11,29.4 20.2,31.7 8.85,78.3 -2.22,110.8 -1.18,3.5 -9.48,1.6 -8.37,-1.6" /><path
         id="path270"
         style="fill:#b3585d;fill-opacity:1;fill-rule:nonzero;stroke:none"
         d="m 8971.55,12463.4 c -27.77,-6.9 -50.39,-0.5 -75.7,8.5 -49.26,16.7 -94.59,37.4 -137.35,66.1 -33.41,22.2 -73.32,32.4 -111.94,46.5 -25.3,9 -73.37,37.7 -101.12,28.1 8.08,-10.6 18.8,-21 22.92,-32.9 l 3.99,-1.3 c 50.96,-49.9 50.42,-120.2 93.51,-178 52.53,-72.4 165.52,-93.7 248.79,-67.6 64.73,23.3 73.05,109.6 120.36,149.9 -21.28,5.1 -42.3,-13.7 -63.46,-19.3" /><path
         id="path272"
         style="fill:#000000;fill-opacity:1;fill-rule:nonzero;stroke:none"
         d="m 8568.27,12577.4 c 2.15,0.4 4.24,1.5 4.11,3 -2.38,-0.4 -4.65,-1.7 -4.11,-3" /><path
         id="path274"
         style="fill:#000000;fill-opacity:1;fill-rule:nonzero;stroke:none"
         d="m 9001.74,12478.8 c -59.37,-20.8 -76.31,-14.4 -121.5,1.6 -55.45,19.5 -101.19,53.2 -153.61,78.1 -40.44,19.3 -84.75,31.8 -126.3,48.7 -18.8,7.7 -35.65,10.8 -55.29,7.4 -1.09,-0.2 -4.99,-1.6 -3.53,-3.4 8.78,-10.8 16.48,-20.5 22.91,-32.9 0.51,-0.9 2.17,-1.1 3.85,-0.9 -0.54,1.3 1.73,2.6 4.11,3 l -0.09,0.6 c -3.47,8.3 -8.23,15.7 -14.3,22.3 17.14,8 33.59,6.3 49.36,-5.2 12.26,-5 24.02,-11.2 36.53,-15.6 64.06,-22.6 117.31,-53.9 177.44,-83.8 31.57,-15.7 74.49,-37.1 109.69,-39.2 24.02,-1.4 16.4,-1.6 40.94,1.9 10.9,1.6 66.97,33 42.17,3.3 -22.46,-26.8 -34.65,-62.3 -53.83,-91.3 -45.94,-69.5 -155.73,-54.9 -221.67,-26.8 -101.07,43.1 -96.2,160.5 -162.34,233.1 -0.73,0.8 -2.31,0.9 -3.9,0.7 0.13,-1.5 -1.96,-2.6 -4.11,-3 l 0.15,-0.4 c 49.94,-54.8 56.64,-132 102.8,-189.6 35.79,-44.6 97.48,-61.9 151.82,-67 39.83,-3.6 83.96,2.3 117.96,24 47.39,30.2 58.22,99.8 97.82,138 1.94,1.9 -2.12,2.5 -3.09,2.5 -20.86,-0.1 -13.87,1 -33.99,-6.1" /><path
         id="path276"
         style="fill:#b3585d;fill-opacity:1;fill-rule:nonzero;stroke:none"
         d="m 8536.14,12613.8 0.34,0.3 c -1,-0.1 -2.03,-0.2 -2.99,-0.3 h 2.65" /><path
         id="path278"
         style="fill:#b3585d;fill-opacity:1;fill-rule:nonzero;stroke:none"
         d="m 8979.7,12565.7 c -30.91,35.4 -52.24,45.8 -98.44,25.4 -24.76,79.3 -118.41,31.8 -172.71,24.6 -15.88,-2.8 -34.42,-5.7 -53.02,-3.2 -17.28,3.8 -28.01,14.2 -43.98,19.4 -22.46,3.7 -57.9,-0.6 -75.07,-17.8 35.74,4.4 88.23,-34.5 111.72,-57.4 32.18,-31.5 51.02,-55.2 93.63,-70.6 86.58,-32.2 170.59,-72.4 258.93,-25 22.41,12.2 44.77,29.7 71.26,32.7 -21.28,5 -34.57,7.5 -51.97,21.9 -14.75,14.5 -26.91,34.2 -40.35,50" /><path
         id="path280"
         style="fill:#000000;fill-opacity:1;fill-rule:nonzero;stroke:none"
         d="m 8565.39,12631.1 c 17.92,4.6 35.35,2.1 54.06,-3.4 -11.98,11.9 -21.6,22.4 -54.06,3.4" /><path
         id="path282"
         style="fill:#000000;fill-opacity:1;fill-rule:nonzero;stroke:none"
         d="m 8532.94,12614.5 c -3.64,-2.8 4.58,-2.8 6.41,-1.4 1.21,0.9 2.32,1.8 3.49,2.6 -2.72,0.1 -5.45,0.1 -8.19,0 l -1.71,-1.2" /><path
         id="path284"
         style="fill:#000000;fill-opacity:1;fill-rule:nonzero;stroke:none"
         d="m 9074.74,12495.6 c -53.14,12.8 -68.53,46.9 -102.3,83.4 -11.92,12.9 -28.11,23.4 -46.06,24.3 -12.73,0.7 -37.32,-11.9 -46.6,2.5 -12.21,19 -25.06,27.3 -47.01,31.7 -63.88,12.8 -123.68,-41.4 -189.33,-17.9 -8.31,3 -16.25,5.8 -23.99,8.1 7.94,-7.9 16.91,-16.4 34.26,-17.2 19.13,-0.9 36.29,0.4 55.19,3.4 57.2,9.1 138.51,49.8 168.17,-23.6 0.73,-1.8 4.29,-1.2 5.63,-0.7 97.52,37.4 91.36,-69.3 159.16,-90.2 30.26,-9.3 -0.61,-12.9 -16.38,-21.3 -76.12,-40.5 -131.51,-41.7 -206.46,-17.7 -72.56,23.2 -120.82,55 -175.99,105.9 -27.33,25.2 -62.41,48.1 -100.19,49.4 -1.17,-0.8 -2.28,-1.7 -3.49,-2.6 -1.83,-1.4 -10.05,-1.4 -6.41,1.4 l 1.71,1.2 h -0.38 c -3.76,-0.2 -7.35,-4.2 -1.56,-3.9 61.72,3.3 108.16,-54.5 148.49,-92.5 39.4,-37.1 99.11,-51.9 149.28,-68 37.35,-12 74.45,-15.8 113.24,-11.4 48.03,5.3 82.6,42.1 128.65,52.1 1.47,0.3 6.15,2.7 2.37,3.6" /><path
         id="path286"
         style="fill:#000000;fill-opacity:1;fill-rule:nonzero;stroke:none"
         d="m 8542.84,12615.7 c 8.56,6.5 16.04,11.5 22.55,15.4 -9.98,-2.7 -20.13,-7.5 -30.74,-15.4 2.74,0.1 5.47,0.1 8.19,0" /><path
         id="path288"
         style="fill:#1a1a1a;fill-opacity:1;fill-rule:nonzero;stroke:none"
         d="m 8369.78,14027.2 c 7.85,9.9 14.55,21.2 19.68,33.4 h 0.37 c -1.33,-5.4 -0.99,-11.4 1.9,-18.5 1.81,-4.4 4.38,-8.1 7.42,-11.3 -9.79,-1.3 -19.58,-2.5 -29.37,-3.6 z m 1892.92,10 c 37.2,56.6 -6.5,144.3 -53,187.5 13,40.8 -12.2,64.5 -48,77.5 7.8,12.4 14.8,25.2 24.5,36.7 4,4.8 -0.9,12.7 -4.4,15.9 -36.8,33.4 -76.1,75.6 -72.1,129.1 0.7,9.5 -8.2,17.6 -17.1,19.2 -50.6,9 -53.4,47.2 -85.8,76.9 -16.01,14.7 -32.86,24.1 -51.83,30.6 4.96,8.2 8.95,16.7 12.99,26.5 3.81,9.3 -3.9,17.1 -11.96,20.8 -28.86,13.3 -52.72,28 -82.44,35.1 -9.04,42.3 -47.85,59.8 -89.14,61.6 -0.31,45.2 -32.58,67.7 -76.15,78.9 -1,49.6 -44.87,72.1 -91.29,80.5 -0.85,51 -48.39,61.9 -95.94,57.1 -25.85,49.8 -81.79,49.2 -134.39,40.2 -19.8,47.4 -77.67,47.1 -125.14,31.7 -18.08,49.5 -81.62,40.5 -125.9,15.1 -39.45,80.8 -161.46,36.2 -223.44,-15.2 -23.25,32.6 -56.62,38.7 -89.8,29.3 -52.69,31.4 -113.33,41 -175.73,40.7 -7.29,-0.1 -28.36,-9.8 -16.03,-18.6 10.66,-7.6 20.97,-15.2 31.46,-22.4 -23.78,2.5 -47.56,5 -71.44,6.7 -5.37,0.3 -32.24,-5.5 -22.39,-16.3 12.85,-14.1 25.72,-28.1 40.99,-39.3 -13.01,-6.6 -25.14,-14.2 -36.79,-22.5 -15.7,-3.1 -30.53,-7.1 -44.45,-12.5 -41.4,18.1 -83.43,24.7 -130.63,14.9 -3.85,-0.8 -13.83,-5.2 -15.21,-10.7 -44.65,8.8 -88.76,8.8 -133.6,-9.6 -8.06,-3.3 -16.2,-13.8 -4.11,-18.4 20.48,-7.7 38.35,-20.4 56.83,-32.1 -61.08,-7.2 -124.15,-8.6 -171.08,-54 -3.47,-3.3 -5.74,-9.8 -0.24,-12.8 10.01,-5.4 19.25,-11.9 28.43,-18.4 -65.59,-6.3 -128.5,-24.1 -177.03,-72.6 -3.34,-3.3 -5.84,-9.9 -0.23,-12.8 6.06,-3.2 11.92,-6.6 17.76,-10 -37.95,-6.8 -73.67,-19 -108.09,-39.1 -3.69,-2.2 -9.69,-8.4 -5.48,-13 9.99,-10.9 19.97,-20.4 30.96,-29.2 -32.37,-7.8 -63.3,-20.1 -94.69,-31.9 -6.21,-2.4 -15.75,-10.9 -7.12,-16.9 20.48,-14 35.14,-28.1 56.53,-37.3 -25.58,-22.7 -51.54,-44.5 -80.47,-63.1 -7.1,-4.6 -9.58,-12.8 -0.3,-16.6 10.63,-4.3 20.98,-8.3 31.28,-12 -39.21,-6.3 -77.25,-18 -114.03,-36.1 -4.08,-2 -9.31,-8.4 -5.48,-13 12.18,-14.5 21.77,-26.3 34.71,-36.1 -28.75,-8.8 -54.69,-22.7 -81.6,-38.5 -5.21,-3.1 -10.12,-10.6 -3.32,-15.1 12.91,-8.4 23.41,-20 34.88,-30.4 -34,-15.5 -64.25,-35.2 -93.14,-60 -5.66,-4.8 -3.97,-11.8 2.79,-14.3 17.88,-6.7 31.52,-16.5 47.31,-23.6 -51.37,-24.6 -102.66,-46 -138.68,-92.9 -3.63,-4.8 0.19,-10.2 5,-11.8 23.5,-7.8 44.14,-16.9 66.4,-22.4 -20.2,-11 -39.16,-24 -59.35,-35.8 -3.73,-2.1 -9.65,-8.3 -5.48,-12.9 11.48,-12.8 22.96,-25.5 34.45,-38.2 -21.44,-14.3 -38.16,-35.1 -60.7,-48.2 -5.59,-3.2 -9.7,-10.2 -3.32,-15 23.24,-17.4 40.34,-32.1 65.38,-39.6 -5.16,-4.6 -10.31,-9.3 -15.47,-13.9 -3.49,-3.2 -4.3,-6.6 -2.4,-10.7 5.69,-12.5 11.62,-24.8 17.56,-37.1 -1.48,-0.5 -2.92,-1 -4.42,-1.5 -0.62,-0.1 -15.62,-5.6 -10.6,-7.9 8.79,-4.1 17.28,-8.7 25.76,-13.3 1.73,-3.7 3.52,-7.3 5.21,-11 1.76,-3.9 6.16,-5.1 10.92,-5 -23.58,-8.1 -46.4,-18.2 -70.3,-25.9 -0.78,-0.3 -10.88,-4.6 -6.69,-6.8 18.63,-9.4 59.79,-22.1 34.02,-40.3 -1.14,-0.6 -1.75,-1.6 -1.84,-2.8 1.03,-3.5 2.24,-10.8 5.41,-12.9 20.29,-13.5 -4.77,-32.6 -15.33,-42.1 -1.14,-1 -2.88,-2.5 -1,-3.9 16.21,-12 31.38,-27.3 52.13,-30.1 -1.8,-1.9 -3.53,-3.8 -5.38,-5.6 -7.17,-6.9 13.24,-4.7 15.82,-4.1 17.86,3.9 28.26,9.2 46.25,16.2 16.85,6.6 -2.05,8.6 -10.13,7 -1.78,-0.4 -3.51,-0.7 -5.23,-1 18.7,19.6 36.51,40 56.14,58.8 1.14,0.6 1.75,1.5 1.84,2.7 -51.54,90 88.62,170.3 159.45,216.8 5.88,-1.5 11.5,-2.1 17.07,-2.2 15.67,-8.7 32,-15.3 47.86,-18.6 6.74,-22.4 13.82,-42.7 17.17,-56.8 0.71,-3 6.03,-8.3 12,-12.4 2.08,-27.9 8.28,-54.8 16.48,-81.1 -6.29,-6.1 -8.99,-10.8 -0.76,-9.7 -2.2,-0.3 -22.88,-3.9 -20.17,-9.5 4.14,-8.5 8.98,-16.6 13.76,-24.8 3.79,-6.5 -21.34,-17.4 -24.76,-21.8 -10.05,-13.2 -6.77,-20.3 -3.64,-36.8 0.35,-1.8 0.55,-3.5 0.68,-5.2 -3.24,-1.4 -6.5,-2.7 -9.73,-4.2 -1.38,-0.6 -10.73,-4.8 -6.49,-7.7 4.27,-2.9 8.39,-5.5 12.45,-8 -4.45,-8.8 -12.15,-16.3 -20.24,-25.9 -1.67,-2 1.37,-3.4 2.51,-3.9 39.25,-19.1 3.84,-48.6 -23.73,-65.9 -0.93,-0.6 -5.09,-2.9 -4.15,-4.8 1.63,-3.4 20.49,-19 15.79,-22.2 -10,-6.7 -18.16,-12.8 -23.25,-23.7 -2.67,-5.6 10.9,-4.6 13.02,-4.5 32.04,2.1 64.12,2.2 96.18,3.5 -25.79,-21 -45.61,-47.7 -39.19,-80.2 -2.34,-1.2 -4.66,-2.3 -7.01,-3.6 -3.41,-1.8 -6.18,-5.3 -1.32,-7.2 5.21,-2 10.41,-4.1 15.62,-6.1 4.1,-1.6 33.93,1.2 30.68,8.8 -1.77,4.2 -2.99,8.3 -3.9,12.3 6.02,2.1 15.07,4.4 23.14,7.9 1.73,0.7 2.82,1.4 3.64,2 14.14,1.9 28.14,4.1 42.23,8.6 13.68,4.4 13.03,12.9 -2.07,10.7 -18.66,-2.7 -36.05,-7 -52.95,-12.8 11.85,13.1 22.39,27 34.41,40.1 2.07,2.2 2.44,4.5 -1.08,5.6 -0.99,0.3 -20.33,5.4 -19.47,6.2 5.54,5 11.08,9.9 16.63,14.9 v 0 l 1.31,1.2 c 5.14,4.6 10.27,9.3 15.41,13.9 3.93,3.6 -0.2,5.8 -3.92,6.2 -11.08,0.8 -22.07,2.3 -32.98,4.4 -5.82,0.9 -10.32,0.7 -13.14,0.3 1.57,0.5 3.7,1.4 6.52,2.7 14.1,6.5 27.64,14.5 40.15,23.8 7.84,5.8 -9.49,6.3 -11.59,6.2 -81.82,-5.5 0.66,30.5 20.44,36.1 9.19,2.7 16.65,11.1 2.05,10.9 -18.6,-0.2 -32.03,6.3 -46.53,12.6 4.83,1.4 9.77,2.6 14.96,3.4 8.85,1.3 24.45,12.3 6.45,11.9 -2.91,-0.5 -5.78,-0.7 -8.63,-0.9 h 0.03 -0.24 c -16.95,-1.1 -32.65,2.7 -47.06,11.6 -1.37,0.3 -2.48,0.8 -3.59,1.3 2.38,4 4.07,8.2 3.73,12.1 -0.09,1.1 -0.24,2.2 -0.42,3.4 12.67,5.2 25.62,9.6 38.82,13 6.29,-5.6 14.95,-10.6 20.01,-8.8 12.42,4.3 21.77,10.4 29.03,17.6 3.05,0.3 6.1,0.7 9.17,0.9 13.59,-0.7 27.34,-0.6 41.85,1.4 7.99,1.1 31.89,12.2 10.95,12.6 -14.26,0.3 -28.34,-0.3 -42.31,-1.4 -2.86,0.2 -5.72,0.5 -8.59,0.8 4.07,7 7,14.6 9.29,22.6 17.7,8.6 35.9,16.1 54.64,22.2 l -1.48,0.2 c 19.3,0.5 38.79,3.9 58.87,10 14.2,4.3 12.7,12 -2.07,10.7 -24.46,-2.2 -47.64,-7.3 -70.1,-14.3 -3.61,0.4 -7.21,0.8 -10.79,1.5 -6.33,4.6 -10.22,11.2 -11.63,19.7 14.45,7.5 29.31,14.1 44.58,19.7 20.44,8.1 41.53,14.7 62.23,22 13.66,4.9 3.55,10.8 -5.96,9.4 -30.84,-4.5 -62.67,8.2 -64.47,22.6 5.16,2.7 10.93,5 17.45,7 14.93,4.5 32.96,7.1 45.74,16.8 2.13,1.6 4.24,3.8 6.35,6.2 11.46,1.2 23.13,1.3 34.82,1.1 13.12,-3.4 27.72,-3.9 46.92,-1.9 8.39,0.8 31.65,11.5 10.95,12.6 -13.33,0.7 -26.54,1.1 -39.6,1.3 -10.23,3.1 -17.59,9.2 -28.1,18 2.98,2.5 6.06,4.3 9.27,4.9 18.78,3.3 31.96,12.1 40.9,24.2 l 0.19,0.1 c 24.25,6.1 48.32,10.5 52.63,10.8 8.55,0.8 31.55,11.5 10.95,12.7 -6.37,0.3 -12.7,0.7 -19.01,1.1 l 122.55,67.6 c 7.87,-3.4 16.84,-5.2 25.9,-6 -22.07,-27.6 -7.3,-49 36.35,-52.8 11.61,-27.7 39.57,-29.1 66.88,-15 46.73,24 95.73,83.3 150.32,92 -0.6,-4.1 -0.96,-8.2 -0.86,-12.3 -24.21,-8.2 -47.4,-22.5 -48.87,-50.7 -0.8,-15.4 8.05,-24.8 20.34,-30.3 -17.71,-10.2 -33.09,-24.8 -47.68,-43.3 -4.59,-5.8 -4.65,-12.6 3.07,-15.8 12.02,-5.1 22.69,-9.1 33.08,-12.1 -4.35,-4 -5.33,-10.3 -0.43,-14.6 13.74,-12.2 27.88,-19.7 43.95,-25.8 -14.12,-13.6 -24.19,-30 -37.77,-45.5 -4.65,-5.2 -4.7,-13.2 3.07,-15.8 59.39,-19.9 117.06,-15.5 176.35,2.6 5.58,1.7 14.04,9.7 9.04,16.1 -10.95,13.8 -20.05,27.9 -32.74,39.3 14.9,9.5 29.93,15.5 47.53,18.1 -10.27,-33.9 0.78,-49.2 25.8,-44 -4.9,-36.1 35.44,-51.5 75.33,-55.6 l -0.72,-0.4 c -3.84,-2.6 -9.62,-9.3 -5.24,-14.2 59.78,-66 126.84,-4.9 111.67,63.2 13.15,-6.4 25.64,-13.9 38.43,-22.4 12.55,-8.3 -14.04,-37.3 -17.91,-44 -1.22,-2.1 -1.83,-5.5 -0.61,-7.9 -52.01,-39.1 -64.39,-102.2 13.18,-123.8 34.27,-9.6 71.33,7.3 98.71,26.1 11.16,7.6 6.27,23.7 7.46,35.1 2.05,19.5 6.88,37.9 8.79,57 13.22,-2.9 26.17,-6.3 38.81,-11.1 -2.96,-1.5 -5.96,-3 -8.84,-4.7 -12.55,-7.4 -4.22,-20.1 7.97,-19.7 39.48,1.4 63.27,18.9 92.12,44.6 2.4,2.1 4.47,6.6 3.19,10 12.98,1.7 26.13,5 39.04,9.7 7.32,2.6 14.85,11.9 6.82,18.3 -8.59,6.9 -16.48,14.5 -24.2,22.2 6.31,-2.3 12.6,-4.7 18.86,-7.2 12.45,-4.3 23.31,-11.2 32.59,-20.6 -14.36,-14.3 -24.44,-27 -42.56,-37.7 -12.46,-7.4 -4.29,-20.2 7.97,-19.7 17.06,0.7 33.76,-1.4 50.51,-3 -15.16,-13.3 -24.51,-29.9 -15.1,-52.4 12.38,-29.6 64.25,-23.9 87.4,-19.3 l 1.26,0.3 c -3.77,-14 5.41,-22.3 20.76,-25.9 -2.21,-0.9 -4.46,-1.7 -6.73,-2.4 -7.2,-2.1 -15.06,-12.5 -6.83,-18.4 55.55,-39.8 153.04,-9.9 117.05,58.1 16.77,0.1 33.39,-1.1 50.13,-3.9 -1.58,-8.4 -1.69,-17 -2.16,-25.8 -1.38,-26 -28.27,-50.2 -45.65,-68.3 -6.89,-7.2 -2.01,-15.2 6.8,-17 21.21,-4 40.21,-15.2 60.01,-23.8 -5.53,-5 -11.06,-10 -16.58,-15 -3.03,-2.7 -4.99,-8.1 -2.2,-11.7 20.04,-26 45.61,-40.2 73.94,-45.6 -4.37,-3.9 -6.57,-8.9 -0.31,-13.6 12.08,-8.9 24.16,-22.6 38.27,-28.3 19.82,-8.2 18.8,-19.3 23.64,-38.9 1.46,-5.9 8.73,-9 14.39,-8.4 18.22,1.8 37.73,6 55.61,13 -13.42,-132.7 -52.36,-262.6 -117.86,-384.1 -2.62,-4.7 -5.24,-9.4 -7.86,-14.1 -7.82,-14 17.96,-29.2 28.33,-18.4 52.26,54.3 110.31,102.1 167.33,151.1 34.47,29.7 55.51,66.9 90.01,97.3 30.6,27 62.8,51.6 90.6,81.7 10.9,11.8 21.2,26.1 26.7,41.3 5.6,15.1 2.6,48.7 16.3,57.7 78.2,51.5 51.1,130.8 57.6,209.3 4.2,50 51.5,86.4 55.1,137.6 3.3,45.7 -43.8,57.4 2.3,103.8 5.9,6 2.8,12.7 -2.3,18.2 -33.3,35.8 4.1,93.2 6.5,134.4 1.9,31.9 -17.5,53.8 -41.9,69.3" /><path
         id="path290"
         style="fill:#77472f;fill-opacity:1;fill-rule:nonzero;stroke:none"
         d="m 7701.4,13626.6 c 30.09,42.2 84.39,166.9 152.61,99.6 l 7.53,-8.3 c -41.07,129.6 -147.23,3.6 -160.14,-91.3" /><path
         id="path292"
         style="fill:#77472f;fill-opacity:1;fill-rule:nonzero;stroke:none"
         d="m 7705.55,13626.8 c 0.97,6.1 2.28,12.2 3.75,18.1 -4.13,-6.6 -8.05,-12.7 -11.71,-18 2.65,0 5.3,-0.1 7.96,-0.1" /><path
         id="path294"
         style="fill:#77472f;fill-opacity:1;fill-rule:nonzero;stroke:none"
         d="m 7851.09,13733.3 c 1.31,-3 2.49,-5.9 3.55,-8.8 2.39,0.6 4.48,1.9 3.3,3 -2.3,2.1 -4.59,4.1 -6.85,5.8" /><path
         id="path296"
         style="fill:#77472f;fill-opacity:1;fill-rule:nonzero;stroke:none"
         d="m 7780.76,13766.4 c -47.13,-25.3 -75.59,-90.1 -83.5,-140.1 -0.53,-3.3 6.8,-1.7 7.96,0 30.26,43.7 79.55,158.4 144.85,98.6 0.9,-0.8 2.81,-0.8 4.57,-0.4 -1.06,2.9 -2.24,5.8 -3.55,8.8 -61.41,47.4 -109,-36 -141.79,-88.4 -1.47,-5.9 -2.78,-12 -3.75,-18.1 -2.66,0 -5.31,0.1 -7.96,0.1 3.66,5.3 7.58,11.4 11.71,18 8.05,32.7 23.36,63.1 44.22,89.6 13.06,16.7 31.65,34 53.63,36.5 21.94,2.5 35.56,-18.5 43.94,-37.7 2.26,-1.7 4.55,-3.7 6.85,-5.8 1.18,-1.1 -0.91,-2.4 -3.3,-3 1,-2.6 1.91,-5.1 2.71,-7.5 1,-2.8 9.26,-0.9 8.38,1.7 -14.11,40.8 -41.67,70.9 -84.97,47.7" /><path
         id="path298"
         style="fill:#77472f;fill-opacity:1;fill-rule:nonzero;stroke:none"
         d="m 7707.79,13443 c -5.83,-35.6 -5.83,-35.6 17.18,-52.7 25.5,30.5 92.43,15.1 94.08,46.9 l -15.48,8.7 c 5.83,35.6 7.9,75.3 37.16,101.7 -80.71,-19.7 -25.4,-182 -132.94,-104.6" /><path
         id="path300"
         style="fill:#77472f;fill-opacity:1;fill-rule:nonzero;stroke:none"
         d="m 7839.18,13549.6 c -29.17,-8.5 -42.03,-32.6 -50.55,-60.1 -4.66,-15 -7.7,-30.5 -13.38,-45.3 -12.43,-32.3 -43.73,-13.5 -64.07,0.6 -1.77,1.3 -7.12,0.6 -7.55,-2 -4.43,-27.5 -4.56,-37.5 17.95,-54.4 1.66,-1.2 5.29,-0.6 6.67,0.8 19.28,19.6 47.96,19.4 72.89,26.5 11.4,3.2 19.96,9.7 22.07,21.6 0.63,3.6 -7.78,2.7 -8.32,-0.3 -4.16,-23.5 -56.24,-24.4 -75.76,-32.8 -3.99,-1.8 -12.8,-10.5 -17,-7.4 -15.07,11.3 -13.85,23.9 -11.23,40 -2.15,1.3 -4.32,2.8 -6.5,4.3 2.52,0.7 5.03,1.3 7.55,2 -0.35,-2.2 -0.71,-4.3 -1.05,-6.3 33.51,-21.4 62.97,-24.5 76.93,20.1 7.79,24.8 11.47,50.9 27.83,72.1 3.74,4.5 8.12,8.3 13.16,11.3 l 0.89,0.4 0.41,0.5 c 9.43,4 9.23,3.8 -0.41,-0.5 -4.34,-4.6 -9.07,-11.8 -11.64,-17.5 -11.3,-24.7 -14.52,-50.8 -18.66,-77.4 -0.56,-3.6 7.85,-2.7 8.32,0.3 5.68,36.6 9,72.5 36.28,100.4 3.19,3.3 -2.74,3.7 -4.83,3.1" /><path
         id="path302"
         style="fill:#77472f;fill-opacity:1;fill-rule:nonzero;stroke:none"
         d="m 7710.9,13436.8 c 0.34,2 0.7,4.1 1.05,6.3 -2.52,-0.7 -5.03,-1.3 -7.55,-2 2.18,-1.5 4.35,-3 6.5,-4.3" /><path
         id="path304"
         style="fill:#77472f;fill-opacity:1;fill-rule:nonzero;stroke:none"
         d="m 7829.71,13540.7 c 9.64,4.3 9.84,4.5 0.41,0.5 l -0.41,-0.5" /><path
         id="path306"
         style="fill:#9e523c;fill-opacity:1;fill-rule:nonzero;stroke:none"
         d="m 11293.3,13341.3 c -331.2,151.5 -868,-76.8 -1070.8,-386.5 -153.3,-227.6 -203.4,-347.2 -281.53,-596.1 -85.19,-260.7 -22.88,-190.8 -117.48,-453.7 -224.67,-624.6 -300.05,-1216.2 -515.31,-1838.4 -226.34,229.2 -524.48,440.4 -721.6,551.3 -208.86,117.9 -420.14,205.4 -624.25,344.5 -185.31,143.7 -328.24,318 -447.62,518 -32.78,51.7 -138.18,195.3 -133.35,256.4 11.92,72.8 167.23,171.1 205.03,260.4 82.69,190.1 47.95,411 88.35,610.7 33.24,147.9 200.75,438.9 132.95,591.8 -135.58,305.8 -282.5,-229.6 -332.04,-311.7 -124.95,-180.7 -343.67,-264.8 -510.81,-396 -360.16,-278.8 -506.99,-774.2 -308.18,-1174.2 196.49,-390.5 461.22,-734.1 692.99,-1105.9 264.55,-423.6 609.09,-807.4 979.6,-1134.9 201.69,-169.7 393.98,-341.6 609.82,-487.8 72.73,-51.9 201.6,-209.6 286.15,-228.6 75.14,-21.3 216.3,53.5 289.21,81.6 472.74,186.9 735.47,519.9 950.27,942.4 226.7,455.3 477.3,974.7 703.9,1430 148.7,286.3 204.4,561.5 332,852.6 115.7,258.2 205.4,592.5 215.5,874.5 0,0 107.6,557 -422.8,799.6" /><path
         id="path308"
         style="fill:#9e523c;fill-opacity:1;fill-rule:nonzero;stroke:none"
         d="m 9299.8,10066.5 c 5.03,1.4 10.04,2.9 15.06,4.3 -3.37,3.4 -6.81,6.7 -10.2,10.1 -1.63,-4.8 -3.21,-9.6 -4.86,-14.4" /><path
         id="path310"
         style="fill:#9e523c;fill-opacity:1;fill-rule:nonzero;stroke:none"
         d="m 11707.7,12541.6 c -1.5,-8.2 15.4,-7.1 16.8,0.1 0.3,8.6 -16.5,7.1 -16.8,-0.1" /><path
         id="path312"
         style="fill:#834619;fill-opacity:1;fill-rule:nonzero;stroke:none"
         d="m 9308.18,10066.6 c -0.6,0.6 -1.2,1.2 -1.8,1.8 0.45,0.1 0.89,0.2 1.34,0.4 0.29,-0.4 0.59,-0.7 0.88,-1 -0.15,-0.4 -0.28,-0.8 -0.42,-1.2 m -6.22,6.3 c -3.12,3.1 -6.27,6.2 -9.41,9.4 0.08,0 0.15,0 0.22,0 1.86,0 3.42,-0.4 4.21,-1.3 1.84,-2.2 3.69,-4.3 5.56,-6.4 -0.2,-0.6 -0.39,-1.2 -0.58,-1.7" /><path
         id="path314"
         style="fill:#683222;fill-opacity:1;fill-rule:nonzero;stroke:none"
         d="m 9619.49,9796.3 c -1.57,0 -2.93,0.3 -3.77,1 -112.38,91.9 -239.1,167.9 -334.57,278.8 -2.28,2.7 5.8,6.1 11.4,6.2 3.14,-3.2 6.29,-6.3 9.41,-9.4 -0.72,-2.2 -1.43,-4.3 -2.16,-6.4 2.2,0.6 4.39,1.3 6.58,1.9 0.6,-0.6 1.2,-1.2 1.8,-1.8 0.14,0.4 0.27,0.8 0.42,1.2 93.98,-103.9 215.07,-177.5 322.95,-265.6 2.42,-2 -6.31,-5.9 -12.06,-5.9" /><path
         id="path316"
         style="fill:#683222;fill-opacity:1;fill-rule:nonzero;stroke:none"
         d="m 9299.8,10066.5 c 0.73,2.1 1.44,4.2 2.16,6.4 0.19,0.5 0.38,1.1 0.58,1.7 1.71,-2 3.44,-3.9 5.18,-5.8 -0.45,-0.2 -0.89,-0.3 -1.34,-0.4 -2.19,-0.6 -4.38,-1.3 -6.58,-1.9" /><path
         id="path318"
         style="fill:#9f5f3e;fill-opacity:1;fill-rule:nonzero;stroke:none"
         d="m 10284.5,12125.7 c 49.9,74.5 97.8,159.3 54.6,269.3 -20.9,-58 -62.5,-120.1 -120.6,-153.1 62.5,120 149.8,223.5 88,372.8 -97.5,-51.5 -118.6,-163.4 -189.2,-241.9 -60.3,-76.6 -153.64,-95 -224.31,-173.5 -14.17,126.4 -36.67,240.5 -90.26,348.4 -155.66,-84.6 -107.14,-548.9 -219.42,-689.6 -151.85,-213 -433.67,-204 -604.07,-377.6 -303.84,305.4 -307.99,647.8 -771.33,634.1 l -84.78,-854.2 c 97.11,-110.1 259.95,-306.8 386.12,-400.4 151,-110.3 426.26,-249.8 604.69,-171.6 109.95,43.3 191.13,177.8 274.21,248 101.77,84.7 207.63,148.7 299.03,231.3 164.12,150.9 317.92,299.7 419.92,492.2 60.5,130.4 314.1,428.1 248.1,544.4 -16.7,-24.9 -54.1,-53.8 -70.7,-78.6" /><path
         id="path320"
         style="fill:#683222;fill-opacity:1;fill-rule:nonzero;stroke:none"
         d="m 7286.2,12499.4 c -6.25,0 -11.08,0.8 -10.2,2.1 86.08,124.5 126.02,211 180.4,351 2.88,7.4 45.85,68.4 47.37,68.4 0.06,0 0.05,-0.1 -0.03,-0.3 -54.37,-140.1 -108.87,-290.8 -194.95,-415.3 -3.02,-4.3 -14.11,-5.9 -22.59,-5.9" /><path
         id="path322"
         style="fill:#66cbc4;fill-opacity:1;fill-rule:nonzero;stroke:none"
         d="m 9576.76,11802.6 -33.4,14.9 c -179.83,-124.2 -355.53,-192.8 -551.19,-298.8 -192.09,191 -399.88,648.1 -738.92,606.3 -391.06,-48.2 -280.53,-744.5 -89.41,-946.1 206.94,-219.9 635.01,-620.7 915.8,-520.7 279.58,82.9 658.7,364.2 948.86,840 17.8,29.1 46.5,93.7 64.7,109.5 -187.25,13.2 -487.19,124.4 -516.44,194.9" /><path
         id="path324"
         style="fill:#9e523c;fill-opacity:1;fill-rule:nonzero;stroke:none"
         d="m 8301.42,8804.9 c -0.29,14.6 -2.72,11.9 -29.47,31.6 -134.88,99.2 -295.72,11.7 -466.01,-75.7 -135.75,-69.8 -277.5,-139.5 -416.91,-114.7 -163.28,33.3 -523.66,137.1 -587.83,298.5 -72.07,189.6 -38.25,348.8 -97.15,516.4 -44.83,134.3 -281,298.4 -277.38,103.5 0.92,-86 58.9,-167.6 44.03,-272.1 -10.49,-86.9 -60.49,-184.2 -77.13,-265.9 -23.62,-139.6 71.29,-325.7 110.86,-466.2 31.66,-112.3 87.3,-356.8 173.36,-430.5 l 3.56,1.4 c 4.3,-4.8 8.71,-9.6 13.28,-14.2 198.7,-202.7 278.77,-173.8 660.15,-216.9 573.49,-64.7 508.21,-9.9 700.47,96.7 177.06,98.3 214.29,191.8 311.42,361.5 108.75,189.9 124.35,219.4 29.49,332.6 -57.9,69 -6.19,99.3 -94.74,114" /><path
         id="path326"
         style="fill:#512417;fill-opacity:1;fill-rule:nonzero;stroke:none"
         d="m 7945.91,8070.4 c -116.9,-42.9 -444.58,-52.2 -447.88,-52.3 l 0.66,-24.3 c 13.62,0.4 334.96,9.5 455.59,53.8 165.44,60.7 290.83,171.4 479.35,581.6 l -22.06,10.1 c -186.01,-404.7 -302.75,-509.1 -465.66,-568.9" /><path
         id="path328"
         style="fill:#512417;fill-opacity:1;fill-rule:nonzero;stroke:none"
         d="m 7812.73,8219.2 c -10.39,-2.8 -21.21,-5.8 -32.55,-9 -74.06,-20.8 -369.75,-11 -372.72,-10.9 l -0.83,-24.2 c 12.31,-0.5 302.45,-10.1 380.11,11.7 11.28,3.2 22.06,6.1 32.4,9 177.74,48.6 231.38,63.3 559.22,526.5 l -19.83,14 c -322.8,-456.1 -374.51,-470.2 -545.8,-517.1" /><path
         id="path330"
         style="fill:#964d38;fill-opacity:1;fill-rule:nonzero;stroke:none"
         d="m 9680.2,11050.9 c 4.84,4.9 9.68,9.8 14.51,14.7 91.39,76.4 165.64,174.4 232.47,279 34.72,48.7 68.58,99.9 101.32,153.6 17.8,29.1 46.5,93.7 64.7,109.5 -3.4,0.2 -6.8,0.5 -10.3,0.8 29.3,50.3 58.8,99.3 89.4,145.2 55.2,78.3 92.8,142.9 117.5,202.8 56.9,98.5 96.4,193.2 65.4,247.8 -5.9,-8.8 -14.4,-18.1 -23.6,-27.5 0,9.4 -0.2,19.1 -0.5,28.9 25.3,54.9 36.5,116.6 8,189.3 -5.1,-14.3 -11.5,-28.7 -19.1,-43 -2.3,22.7 -4.8,46.6 -7.5,71.8 l 46.8,31.2 c 233.7,-155.9 62.3,-498.7 -62.4,-670.1 -197.9,-274.1 -306.59,-533.3 -616.7,-734" /><path
         id="path332"
         style="fill:#97593a;fill-opacity:1;fill-rule:nonzero;stroke:none"
         d="m 10289.8,11956.5 c 31,75.1 41.7,142.7 41.8,220.3 9.2,9.4 17.7,18.7 23.6,27.5 31,-54.6 -8.5,-149.3 -65.4,-247.8 m 41.3,249.2 c -1.3,44.1 -5.5,92 -11.1,146.3 7.6,14.3 14,28.7 19.1,43 28.5,-72.7 17.3,-134.4 -8,-189.3" /><path
         id="path334"
         style="fill:#64bab2;fill-opacity:1;fill-rule:nonzero;stroke:none"
         d="m 9658.03,11036.9 c 12.53,9.2 24.76,18.8 36.68,28.7 -4.83,-4.9 -9.67,-9.8 -14.51,-14.7 -7.28,-4.7 -14.66,-9.4 -22.17,-14 m 269.15,307.7 c 55.16,86.4 105.22,177.1 155.72,263.9 3.5,-0.3 6.9,-0.6 10.3,-0.8 -18.2,-15.8 -46.9,-80.4 -64.7,-109.5 -32.74,-53.7 -66.6,-104.9 -101.32,-153.6" /><path
         id="path336"
         style="fill:#683222;fill-opacity:1;fill-rule:nonzero;stroke:none"
         d="m 7503.6,8384.2 -4.36,29.6 c 0.01,0 3.68,0.6 10.38,1.6 6.7,1 16.41,2.5 28.42,4.3 24.01,3.8 57.23,9.1 93.99,15.3 73.47,12.4 161.32,28.6 217.4,43.2 15.97,4.2 29.37,8.3 38.67,11.8 4.95,1.9 8.74,3.7 10.78,5 4.15,2.4 11.67,8.2 20.8,16.3 9.18,8 20.21,18.3 32.56,30.3 24.68,23.9 54.61,54.3 86.28,86.6 63.41,64.7 133.61,136.5 184.64,179.8 14.64,12.4 27.68,22.5 39.11,29.7 l 15.9,-25.5 c -12.29,-7.6 -29.52,-21.4 -49.22,-38.9 -19.75,-17.5 -42.14,-38.8 -65.63,-61.9 -47.02,-46.1 -98.47,-99.4 -142.96,-144.4 -29.69,-30 -56.22,-56.2 -76.63,-74.5 -11.75,-10.5 -21.2,-18.3 -29.42,-23.2 -4.44,-2.7 -9.5,-5 -15.44,-7.3 -5.92,-2.2 -12.7,-4.5 -20.27,-6.8 -15.13,-4.5 -33.45,-9.2 -53.88,-13.8 -40.82,-9.4 -90.01,-18.8 -137.56,-27.3 -95.07,-16.9 -183.47,-29.9 -183.56,-29.9" /><path
         id="path338"
         style="fill:#1a1a1a;fill-opacity:1;fill-rule:nonzero;stroke:none"
         d="m 8462.73,14141.9 c -63.15,44.1 -155.49,12.8 -214.53,-21.3 -14.65,-8.5 -28.77,-17.9 -42.65,-27.8 -20.47,17.7 -43.07,32 -63.46,41.1 -159.3,83.1 -325.53,48.5 -422.5,-83.1 -55.41,-83.2 -124.67,-221.7 -110.82,-325.6 l 27.71,-62.3 c 6.93,97 166.23,304.7 270.12,200.9 90.04,-83.2 -138.52,-325.6 20.78,-339.4 6.92,-7 6.92,-20.8 6.92,-27.7 10.7,37.4 13.08,74.9 10.45,112.3 14.27,-7.2 28.59,-6.8 41.83,-1.4 51.66,1.2 54.98,27.8 54.2,58 0.48,1.2 1.04,2.3 1.46,3.5 9.27,24.5 16.49,49.8 23.73,75.1 48.59,36 86.6,2.6 124.6,84.9 13.86,20.8 -27.7,48.5 -13.85,76.2 13.85,20.8 76.19,13.9 90.04,48.5 0.35,1.3 0.6,2.6 0.89,3.8 56,19.3 114.87,29.6 171.82,53.3 58.58,24.4 80.37,91 23.26,131" /><path
         id="path340"
         style="fill:#77472f;fill-opacity:1;fill-rule:nonzero;stroke:none"
         d="m 7837.34,12762.5 c 48.48,-90.1 -138.53,-152.4 0,-346.3 67,-93.8 394.79,-166.3 498.68,-207.8 -263.19,235.5 -394.79,367.1 -498.68,554.1" /><path
         id="path342"
         style="fill:#9f5f3e;fill-opacity:1;fill-rule:nonzero;stroke:none"
         d="m 10171.5,12624 c -62.4,-83.1 -97,-166.3 -173.2,-235.5 -69.26,-69.3 -152.37,-117.8 -193.93,-207.8 l 200.83,69.2 c 97,20.8 249.4,311.7 166.3,374.1" /><path
         id="path344"
         style="fill:#9f5f3e;fill-opacity:1;fill-rule:nonzero;stroke:none"
         d="m 10158.2,12623.6 c -61.6,-84.2 -108.9,-172.8 -184.25,-246.3 -65.99,-64.4 -141.77,-113.9 -183.97,-198.8 -3.85,-7.7 18.03,-3 19.76,-2.4 51.42,17.7 102.85,35.4 154.27,53.2 40.79,14 78.79,24.4 110.59,55.6 53,51.9 91.1,119.4 116.6,188.7 16.5,44.8 36.9,119 -6.2,155.7 -6.8,5.8 -33.4,-5.3 -27.1,-10.6 44.2,-37.7 17.4,-114.5 0.8,-159.5 -24.2,-65.7 -63.3,-131.7 -115.2,-179.2 -30.5,-27.8 -78.04,-37.3 -116.16,-50.4 -42.78,-14.8 -85.56,-29.5 -128.34,-44.3 6.59,-0.8 13.17,-1.6 19.76,-2.4 40.96,82.4 116.19,133.9 181.84,195.2 76.7,71.6 122.9,162.5 184.2,246.3 6.8,9.3 -21.9,5.7 -26.6,-0.8" /><path
         id="path346"
         style="fill:#77472f;fill-opacity:1;fill-rule:nonzero;stroke:none"
         d="m 10205.8,12594.3 c 23.9,-124.2 -62.7,-240.5 -144.8,-324.2 -2.9,-3 10.7,-1.2 13.1,1.2 83.1,84.7 170.4,201.4 146.2,326.9 -0.6,2.9 -15.2,-0.5 -14.5,-3.9" /><path
         id="path348"
         style="fill:#77472f;fill-opacity:1;fill-rule:nonzero;stroke:none"
         d="m 10316.6,12545.8 c 36.8,-125.9 -48.8,-228.6 -110.5,-329.7 -4.1,-6.8 10.6,-6.7 13.8,-1.5 62.9,103.1 148.5,207.3 111.2,335.1 -1.9,6.5 -16.4,2.6 -14.5,-3.9" /><path
         id="path350"
         style="fill:#77472f;fill-opacity:1;fill-rule:nonzero;stroke:none"
         d="m 10351.2,12339.2 c -1.4,-94.2 -34.2,-168.8 -82.7,-248.2 -3.7,-6.2 10.9,-5.1 13.6,-0.7 49.2,80.5 82.2,154.7 83.6,250.5 0.1,6.5 -14.4,3.7 -14.5,-1.6" /><path
         id="path352"
         style="fill:#874431;fill-opacity:1;fill-rule:nonzero;stroke:none"
         d="m 11598,11742.7 c 0.8,2.1 1.5,4.2 2.2,6.3 v 0 c 0.3,0.7 0.3,1.4 -0.1,1.9 -0.8,1.6 -3.6,2.3 -7.3,2.3 -7.9,0 -19.6,-3.4 -21.4,-8.6 v 0 c 0,-0.1 -0.1,-0.2 -0.1,-0.3 0,1.2 0.2,2.5 0.7,4 51.9,153.8 97.6,309.8 127.9,469.3 -1.2,3.4 1.1,6.7 5,9.2 3.8,2.9 9.5,4.6 14.5,4.6 4.8,0 8.9,-1.6 10.1,-5.1 22.1,-22.9 13.8,-36.7 7,-70.2 -9.6,-46.8 -21,-93.1 -35.1,-138.6 -28.7,-92.7 -63.7,-183 -101.8,-272.3 v 0 0 0 c -0.4,-0.9 -0.9,-1.7 -1.6,-2.5" /><path
         id="path354"
         style="fill:#874431;fill-opacity:1;fill-rule:nonzero;stroke:none"
         d="m 11267.1,11008.6 c 56.8,153.2 127.5,301.3 198.3,449.1 -60.5,-152.1 -126.8,-301.9 -198.3,-449.1" /><path
         id="path356"
         style="fill:#874431;fill-opacity:1;fill-rule:nonzero;stroke:none"
         d="m 11186.5,10845.4 c -0.3,0.6 -0.4,1.4 -0.1,2.3 v 0 0 0 c 0.4,1.6 0.9,3.2 1.4,4.8 73.4,148.8 123.5,294.9 173.7,442.2 69.7,150.2 144.4,298.3 209.8,449.6 0.2,-5.4 5.4,-7.8 11.3,-7.8 5.7,0 12.1,2.3 15.4,6.2 -101.1,-294.7 -224.9,-582.2 -366.8,-859.5 -0.5,0.2 -1.1,0.5 -1.6,0.8 l -31.1,-31.2 c -4,-2.5 -8,-4.9 -12,-7.4 m 278.9,612.3 c -70.8,-147.8 -141.5,-295.9 -198.3,-449.1 71.5,147.2 137.8,297 198.3,449.1" /><path
         id="path358"
         style="fill:#c5711c;fill-opacity:1;fill-rule:nonzero;stroke:none"
         d="m 11192.3,10843.3 c -2.9,0 -5.1,0.6 -5.8,2.1 4,2.5 8,4.9 12,7.4 l 31.1,31.2 c 0.5,-0.3 1.1,-0.6 1.6,-0.8 -5.4,-10.4 -10.7,-20.8 -16.1,-31.1 -2.2,-4.3 -15,-8.8 -22.8,-8.8" /><path
         id="path360"
         style="fill:#874431;fill-opacity:1;fill-rule:nonzero;stroke:none"
         d="m 11187.8,10852.5 c 44.7,152.3 106.9,298.2 173.7,442.2 -50.2,-147.3 -100.3,-293.4 -173.7,-442.2" /><path
         id="path362"
         style="fill:#773a29;fill-opacity:1;fill-rule:nonzero;stroke:none"
         d="m 11582.6,11736.5 c -5.9,0 -11.1,2.4 -11.3,7.8 0,0.1 0.1,0.2 0.1,0.3 v 0 c 1.8,5.2 13.5,8.6 21.4,8.6 3.7,0 6.5,-0.7 7.3,-2.3 0.4,-0.5 0.4,-1.2 0.1,-1.9 v 0 c -0.7,-2.1 -1.4,-4.2 -2.2,-6.3 -3.3,-3.9 -9.7,-6.2 -15.4,-6.2" /><g
         transform="scale(1.05169)"
         id="g364"><path
           id="path366"
           style="fill:#d1efed;fill-opacity:1;fill-rule:nonzero;stroke:none"
           d="m 3929.5,10908.1 c -1488.93,0 -2695.94,1207 -2695.94,2696 0,1488.9 1207.01,2695.9 2695.94,2695.9 1488.92,0 2695.93,-1207 2695.93,-2695.9 0,-1489 -1207.01,-2696 -2695.93,-2696" /></g></g></g></svg>